<?xml version="1.0" standalone="no"?>
<!DOCTYPE svg PUBLIC "-//W3C//DTD SVG 1.1//EN" "http://www.w3.org/Graphics/SVG/1.1/DTD/svg11.dtd" >
<svg xmlns="http://www.w3.org/2000/svg">
<metadata>
This is a custom SVG webfont generated by Font Squirrel.
Copyright   : Copyright c 2010 Barry Schwartz
</metadata>
<defs>
<font id="webfontByIXJ6az" horiz-adv-x="0" >
<font-face units-per-em="2048" ascent="1485" descent="-563" />
<missing-glyph horiz-adv-x="376" />
<glyph unicode="fi" horiz-adv-x="1009" d="M35 705l24 98h125v264q0 164 113 293q111 125 283 125q84 0 137 -23q57 -25 57 -59q0 -31 -39 -74q-37 -39 -71 -39q-10 0 -35 29q-29 31 -62 59q-35 29 -78 29q-41 0 -77 -33q-29 -25 -50 -82q-16 -43 -26 -98q-8 -43 -8 -100v-291h227q147 0 258 28v-710q0 -39 12 -47 q10 -8 58 -8h55v-66h-397v66h41q55 0 71.5 8t16.5 39v518q0 57 -16.5 65.5t-116.5 8.5h-209v-582q0 -37 12 -47q14 -10 68 -10h67v-66h-426v66h49q53 0 69.5 10t16.5 45v584h-149z" />
<glyph unicode="fl" horiz-adv-x="980" d="M35 705l24 98h125v221q0 55 2 76q6 51 13 82q10 47 32 94q14 33 60 84q41 47 94 80q70 43 170 43q63 0 111 -21q31 4 84 13q55 9 61 12v-1366q0 -35 16.5 -45t81.5 -10h39v-66h-416l3 66h43q51 0 71 10q18 10 19 45v1200l-21 -21q-16 -16 -22.5 -20t-18.5 -4 q-15 0 -31 31q-16 35 -38 61q-25 31 -56 31q-53 0 -86 -39q-35 -41 -47 -105q-14 -74 -16 -104q-4 -53 -4 -78v-270h229l-22 -98h-207v-578q0 -45 14 -53t98 -8h33l2 -66h-422l2 66h60q39 0 55 10q14 8 14 45v584h-149z" />
<glyph unicode="ff" horiz-adv-x="1060" d="M35 705l24 98h125v162q0 139 29 235q29 92 115 152q115 78 254 78q78 0 125 -20.5t47 -53.5q0 -2 -4 -19q111 145 284 146q68 0 115 -19q45 -18 45 -55q0 -29 -39 -80q-41 -53 -68 -53q-15 0 -30 31q-16 35 -39 61q-25 31 -57 31q-51 0 -84 -39q-35 -41 -48 -105 q-18 -92 -18 -104q-4 -53 -4 -78v-270h231l-24 -98h-207v-578q0 -41 18 -51q20 -10 103 -10h35v-66h-424l-2 66h16q74 0 94 8q16 6 17 47v584h-336v-578q0 -41 12 -51q14 -10 76 -10h51l2 -66h-420v66h51q51 0 67.5 10t16.5 45v584h-149zM328 803h336v221q0 147 43 242 q-35 -43 -60 -43q-12 0 -26 30q-15 31 -43 62q-29 31 -76 31q-61 0 -96 -33q-37 -33 -52 -96q-12 -55 -20 -121q-6 -55 -6 -142v-151z" />
<glyph unicode="ffi" horiz-adv-x="1488" d="M35 705l24 98h125v162q0 139 29 235q29 92 115 152q115 78 264 78q78 0 125 -20.5t47 -53.5q0 -2 -4 -19q113 147 299 148q82 0 135 -23q59 -25 59 -59t-36 -74q-37 -39 -74 -39q-10 0 -35 29q-29 31 -61 59q-35 29 -76 29q-86 0 -125 -104q-39 -102 -39 -230v-270h227 q150 0 260 28v-710q0 -39 10.5 -47t57.5 -8h55v-66h-397v66h45q51 0 68 8q18 8 18 39v518q0 57 -18 65q-16 8 -115 9h-211v-578q0 -41 14.5 -51t75.5 -10h59v-66h-426v66h54q49 0 65 10q14 8 15 45v584h-336v-578q0 -41 10 -51t65 -10h64l2 -66h-420v66h60q45 0 61 10 q14 8 14 45v584h-149zM328 803h336v235q0 120 49 228q-33 -43 -60 -43q-16 0 -35 30q-20 37 -47 62q-31 31 -75 31q-57 0 -95 -31q-35 -29 -51 -98q-14 -68 -18 -121q-4 -70 -4 -142v-151z" />
<glyph unicode="ffl" horiz-adv-x="1462" d="M35 705l24 98h125v162q0 139 29 235q29 92 115 152q115 78 254 78q78 0 125 -20.5t47 -53.5q0 -2 -4 -19q109 145 284 146q70 0 113 -21q31 4 84 13q55 9 61 12v-1366q0 -35 16.5 -45t80.5 -10h38l3 -66h-416l2 66h43q51 0 71 10q18 10 19 45v1200l-21 -21 q-16 -16 -22 -20t-19 -4q-15 0 -30 31q-16 35 -39 61q-25 31 -57 31q-51 0 -84 -39q-35 -41 -48 -105q-18 -92 -18 -104q-4 -53 -4 -78v-270h231l-24 -98h-207v-578q0 -41 12 -51q14 -10 62 -10h71l2 -66h-419v66h59q47 0 57 8q12 9 13 43v588h-336v-578q0 -41 12 -51 q14 -10 78 -10h49l2 -66h-420v66h60q43 0 59 10t16 45v584h-149zM328 803h336v221q0 61 6 106q6 49 12 70q4 14 16 43q8 18 9 23q-35 -43 -60 -43q-12 0 -26 30q-15 31 -43 62q-29 31 -76 31q-61 0 -96 -33q-37 -33 -52 -96q-12 -55 -20 -121q-6 -55 -6 -142v-151z" />
<glyph unicode="fj" horiz-adv-x="999" d="M35 705l24 98h125v264q0 164 113 293q111 125 283 125q84 0 137 -23q57 -25 57 -59q0 -31 -39 -74q-37 -39 -71 -39q-10 0 -35 29q-29 31 -62 59q-35 29 -78 29q-41 0 -77 -33q-29 -25 -50 -82q-16 -43 -26 -98q-8 -43 -8 -100v-291h227q147 0 258 28v-929 q0 -158 -29 -238q-27 -76 -86 -119q-100 -80 -186 -80q-53 0 -106.5 27t-53.5 53q0 35 39 68t74 33q14 0 53 -43q41 -45 57 -45q94 0 95 278v795q0 57 -16.5 65.5t-116.5 8.5h-209v-582q0 -37 12 -47q14 -10 72 -10h63v-66h-426v66h43q53 0 74 10q18 10 18 45v584h-149z" />
<glyph unicode="ffj" horiz-adv-x="1478" d="M35 705l24 98h125v162q0 139 29 235q29 92 115 152q115 78 264 78q78 0 125 -20.5t47 -53.5q0 -2 -4 -19q113 147 299 148q82 0 135 -23q59 -25 59 -59t-36 -74q-37 -39 -74 -39q-10 0 -35 29q-29 31 -61 59q-35 29 -76 29q-86 0 -125 -104q-39 -102 -39 -230v-270h227 q150 0 260 28v-929q0 -160 -30.5 -238t-85.5 -119q-98 -80 -185 -80q-51 0 -104 27q-55 29 -55 53q0 33 38 68q35 33 72 33q14 0 53 -43q41 -45 58 -45q96 0 96 278v795q0 57 -18 65q-16 8 -115 9h-211v-578q0 -43 14 -53q10 -8 76 -8h59v-66h-426v66h54q49 0 65 10 q14 8 15 45v584h-336v-578q0 -41 12 -51q14 -10 76 -10h51l2 -66h-420v66h62q43 0 59 10q14 8 14 45v584h-149zM328 803h336v235q0 120 49 228q-33 -43 -60 -43q-16 0 -35 30q-20 37 -47 62q-31 31 -75 31q-57 0 -95 -31q-35 -29 -51 -98q-14 -68 -18 -121q-4 -70 -4 -142 v-151z" />
<glyph unicode="fb" horiz-adv-x="1523" d="M35 705l24 98h125v221q0 55 2 76q6 51 13 82q10 47 32 94q14 33 60 84q41 47 94 80q70 43 170 43q63 0 111 -21q31 4 84 13q55 9 61 12v-799q4 0 27 21q16 14 45 34q27 20 55 35q37 20 78 29q47 10 84 10q180 0 280 -112q96 -109 97 -271q0 -180 -115 -315 q-117 -137 -309 -137q-83 0 -179 30l-96 31q-18 0 -47 -23q-31 -25 -47 -24q-23 0 -22 47l1 14q1 14 1 29q0 57 2 98t2 133v1004l-21 -21q-16 -16 -22.5 -20t-18.5 -4q-15 0 -31 31q-16 35 -38 61q-25 31 -56 31q-53 0 -86 -39q-35 -41 -47 -105q-14 -74 -16 -104 q-4 -53 -4 -78v-270h229l-22 -98h-207v-578q0 -41 14 -51t70 -10h61l2 -66h-422l2 66h60q39 0 55 10q14 8 14 45v584h-149zM811 201q0 -66 68 -107q66 -39 151 -39q47 0 94 13q49 14 95 41q49 31 79 94q29 59 29 157q0 90 -24 158q-27 72 -58 103q-35 35 -76 55 q-47 25 -71 26q-37 4 -49 5q-70 0 -127 -19q-55 -18 -84 -39l-27 -18v-430z" />
<glyph unicode="ffb" horiz-adv-x="2002" d="M35 705l24 98h125v162q0 139 29 235q29 92 115 152q115 78 254 78q78 0 125 -20.5t47 -53.5q0 -2 -4 -19q109 145 284 146q70 0 113 -21q31 4 84 13q55 9 61 12v-799q8 8 25 21q6 6 21.5 17l23.5 17q20 14 57 35q35 18 76 29q45 10 84 10q178 0 279 -112q98 -111 98 -271 q0 -176 -115 -315q-113 -137 -307 -137q-83 0 -178 30.5t-99 30.5q-18 0 -47 -23q-31 -25 -45 -24q-23 0 -22 47q0 18 2 43q4 49 4 98v133v1004l-21 -21q-16 -16 -22 -20t-19 -4q-15 0 -30 31q-16 35 -39 61q-25 31 -57 31q-51 0 -84 -39q-35 -41 -48 -105q-18 -92 -18 -104 q-4 -53 -4 -78v-270h231l-24 -98h-207v-578q0 -41 14.5 -51t79.5 -10h53l2 -66h-421v66h59q47 0 57 8q12 9 13 43v588h-336v-578q0 -41 10 -51t59 -10h70l2 -66h-420v66h60q43 0 59 10t16 45v584h-149zM328 803h336v221q0 61 6 106q6 49 12 70q4 14 16 43q8 18 9 23 q-35 -43 -60 -43q-12 0 -26 30q-15 31 -43 62q-29 31 -76 31q-61 0 -96 -33q-37 -33 -52 -96q-12 -55 -20 -121q-6 -55 -6 -142v-151zM1292 201q0 -66 68 -107q66 -39 151 -39q49 0 95 13q49 14 94 41q51 33 78 94q29 68 28.5 158t-24.5 157q-27 72 -58 103q-35 35 -75 55 q-49 25 -70 26q-37 4 -51 5q-143 0 -236 -76v-430z" />
<glyph unicode="fh" horiz-adv-x="1464" d="M35 705l24 98h125v221q0 55 2 76q6 51 13 82q10 47 32 94q14 33 60 84q41 47 94 80q70 43 170 43q63 0 111 -21q31 4 84 13q55 9 61 12v-830q8 8 23 19q20 16 28 24q18 12 33 25q4 4 39 25l41 20q35 18 45 21l21.5 7t23.5 7q16 4 49 4q55 0 94 -21q41 -23 58 -47 q23 -35 30 -77q10 -53 13 -89q2 -25 2 -96v-354q0 -40 12 -49q14 -10 55 -10h54v-66h-394l-2 66h31q59 0 79.5 10t20.5 47v416q0 82 -43 118.5t-96 36.5q-102 0 -217 -98v-483q0 -31 20 -39q18 -8 97 -8h26l-2 -66h-399l-2 66h12q61 0 86 8q18 6 19 39v1208l-21 -21 q-16 -16 -22.5 -20t-18.5 -4q-15 0 -31 31q-16 35 -38 61q-25 31 -56 31q-53 0 -86 -39q-35 -41 -47 -105q-14 -74 -16 -104q-4 -53 -4 -78v-270h229l-22 -98h-207v-578q0 -45 14 -53t96 -8h35l2 -66h-422l2 66h15q82 0 98 10t16 45v584h-149z" />
<glyph unicode="ffh" horiz-adv-x="1943" d="M35 705l24 98h125v162q0 139 29 235q29 92 115 152q115 78 254 78q78 0 125 -20.5t47 -53.5q0 -2 -4 -19q109 145 284 146q70 0 113 -21q31 4 84 13q55 9 61 12v-830q8 8 23 19q12 8 18 14l10 10q10 8 33 25q4 4 39 25l41 20q35 18 45 21l21.5 7t23.5 7q16 4 49 4 q55 0 95 -21q43 -23 59 -47q20 -31 29 -77q10 -53 12 -89q2 -25 2 -96v-354q0 -40 12 -49q14 -10 64 -10h43v-66h-391l-2 66h32q59 0 80 10q18 10 19 47v416q0 82 -43 118.5t-99 36.5q-101 0 -215 -98v-483q0 -31 21 -39q18 -8 96 -8h27l-2 -66h-408v66h47q45 0 60 8 q16 10 16 35v1212l-21 -21q-16 -16 -22 -20t-19 -4q-15 0 -30 31q-16 35 -39 61q-25 31 -57 31q-51 0 -84 -39q-35 -41 -48 -105q-18 -92 -18 -104q-4 -53 -4 -78v-270h231l-24 -98h-207v-578q0 -43 14 -51q16 -10 72 -10h61l2 -66h-421v66h59q47 0 57 8q12 9 13 43v588 h-336v-578q0 -41 12 -51q14 -10 66 -10h61l2 -66h-420v66h60q45 0 61 10q14 8 14 45v584h-149zM328 803h336v221q0 61 6 106q6 49 12 70q4 14 16 43q8 18 9 23q-35 -43 -60 -43q-12 0 -26 30q-15 31 -43 62q-29 31 -76 31q-61 0 -96 -33q-37 -33 -52 -96q-12 -55 -20 -121 q-6 -55 -6 -142v-151z" />
<glyph unicode="fk" horiz-adv-x="1474" d="M35 705l24 98h125v221q0 55 2 76q6 51 13 82q10 47 32 94q14 33 60 84q41 47 94 80q70 43 170 43q63 0 111 -21q31 4 84 13q55 9 61 12v-1077l375 305q14 12 14 18q0 14 -43 15h-61v55h329l-2 -55h-30q-59 0 -113 -46l-291 -231l305 -356q2 -2 15 -19l14 -14l8 -8 q6 -6 12 -6h19q2 0 10 -1t14 -1h56l-2 -66h-242l-319 393l-72 -55v-221q0 -33 16 -43q14 -8 80 -8h66l2 -66h-416v66h49q41 0 53 8q10 6 11 37v1210l-21 -21q-16 -16 -22.5 -20t-18.5 -4q-15 0 -31 31q-16 35 -38 61q-25 31 -56 31q-53 0 -86 -39q-35 -41 -47 -105 q-14 -74 -16 -104q-4 -53 -4 -78v-270h229l-22 -98h-207v-578q0 -41 12 -51q14 -10 61 -10h72l2 -66h-422l2 66h49q47 0 63.5 10t16.5 45v584h-149z" />
<glyph unicode="ffk" horiz-adv-x="1953" d="M35 705l24 98h125v162q0 139 29 235q29 92 115 152q115 78 254 78q78 0 125 -20.5t47 -53.5q0 -2 -4 -19q109 145 284 146q70 0 113 -21q31 4 84 13q55 9 61 12v-1077l373 305q14 12 14 18q0 14 -43 15h-61v55h330l-2 -55h-31q-53 0 -111 -46l-291 -231l306 -356 q10 -10 16 -19l7 -9q3 -4 3 -5l4 -3q4 -3 6 -5q6 -6 15 -6h14q2 0 11.5 -1t15.5 -1h53v-66h-244l-317 393l-74 -55v-221q0 -34 19 -43q16 -8 84 -8h61v-66h-420v66h51q39 0 56 8q12 6 12 37v1210l-21 -21q-16 -16 -22 -20t-19 -4q-15 0 -30 31q-16 35 -39 61q-25 31 -57 31 q-51 0 -84 -39q-35 -41 -48 -105q-18 -92 -18 -104q-4 -53 -4 -78v-270h231l-24 -98h-205v-578q0 -41 10 -51t60 -10h75l2 -66h-421v66h59q47 0 57 8q12 9 13 43v588h-336v-578q0 -41 10 -51t57 -10h72l2 -66h-420v66h43q59 0 75.5 10t16.5 45v584h-149zM328 803h338v221 q0 61 6 106q6 49 12 70q8 29 14 43q8 18 9 23q-35 -43 -60 -43q-12 0 -26 30q-15 31 -43 62q-29 31 -76 31q-61 0 -96 -33q-37 -33 -52 -96q-12 -55 -20 -121q-6 -55 -6 -142v-151z" />
<glyph unicode="f&#xfe;" horiz-adv-x="1505" d="M35 705l24 98h125v221q0 55 2 76q6 51 13 82q10 47 32 94q14 33 60 84q41 47 94 80q70 43 170 43q63 0 111 -21q31 4 84 13q55 9 61 12v-832q25 25 45 41q39 31 111 70q76 41 149 41q143 0 241.5 -117t98.5 -278q0 -188 -108 -314q-106 -123 -281 -123q-72 0 -129 9 q-76 10 -94 16l-33 10v-424q0 -35 27 -43q25 -8 133 -8h33v-65h-474l-2 65q98 0 117 8q23 10 23 41v1737l-21 -21q-16 -16 -22.5 -20t-18.5 -4q-15 0 -31 31q-16 35 -38 61q-25 31 -56 31q-53 0 -86 -39q-35 -41 -47 -105q-14 -74 -16 -104q-4 -53 -4 -78v-270h229l-22 -98 h-207v-578q0 -41 12 -51q14 -10 66 -10h67l2 -66h-422l2 66h60q39 0 55 10q14 8 14 45v584h-149zM811 113q106 -70 250 -70q92 0 156 57q57 51 77 119q18 61 19 127q0 139 -84 239.5t-203 100.5q-14 0 -47 -4q-20 -2 -43 -12q-8 -4 -21.5 -9.5t-15.5 -5.5q-15 -6 -30.5 -18 l-24.5 -19l-21 -16l-12 -10v-479z" />
<glyph unicode="ff&#xfe;" horiz-adv-x="1984" d="M35 705l24 98h125v162q0 139 29 235q29 92 115 152q115 78 254 78q78 0 125 -20.5t47 -53.5q0 -2 -4 -19q109 145 284 146q70 0 113 -21q31 4 84 13q55 9 61 12v-832q25 25 45 41q39 31 111 70q76 41 149 41q143 0 241.5 -117t98.5 -278q0 -188 -108 -314 q-108 -123 -283 -123l-254 35v-424q0 -34 31 -43q27 -8 131 -8h31l-2 -65h-471l-2 65q98 0 116 8q23 10 23 41v1737l-21 -21q-16 -16 -22 -20t-19 -4q-15 0 -30 31q-16 35 -39 61q-25 31 -57 31q-51 0 -84 -39q-35 -41 -48 -105q-18 -92 -18 -104q-4 -53 -4 -78v-270h231 l-24 -98h-207v-578q0 -41 14.5 -51t73.5 -10h59l2 -66h-421v66h59q47 0 57 8q12 9 13 43v588h-336v-578q0 -43 10 -53q8 -8 68 -8h61l2 -66h-420v66h62q43 0 59 10q14 8 14 45v584h-149zM328 803h336v221q0 61 6 106q6 49 12 70q4 14 16 43q8 18 9 23q-35 -43 -60 -43 q-12 0 -26 30q-15 31 -43 62q-29 31 -76 31q-61 0 -96 -33q-37 -33 -52 -96q-12 -55 -20 -121q-6 -55 -6 -142v-151zM1292 113q102 -70 248 -70q90 0 154 57q61 55 80 119q18 61 18 127q0 139 -84 239.5t-203 100.5q-18 0 -47 -4q-23 -4 -41 -12q-6 -2 -12 -5t-13.5 -5.5 t-11.5 -4.5q-20 -8 -32 -18q-15 -12 -25 -19q-2 -2 -7 -8t-11 -10q-8 -8 -13 -8v-479z" />
<glyph unicode="&#x17f;i" horiz-adv-x="989" d="M31 0v66h61q41 0 58 10q14 8 14 45v584h-115l25 98h90v264q0 164 112 293q111 125 283 125q84 0 137 -23q57 -25 58 -59q0 -34 -37 -74q-37 -39 -74 -39q-10 0 -35 29q-29 31 -61 59q-35 29 -78 29q-41 0 -78 -33q-29 -25 -49 -82q-16 -43 -27 -98q-8 -43 -8 -100v-971 q0 -37 12 -47q14 -10 62 -10h76v-66h-426zM504 770q162 25 291 61v-710q0 -35 16 -45t66 -10h79v-66h-444v66h55q49 0 66 8q18 8 18 39v546q0 66 -33 66q-23 0 -110 -16z" />
<glyph unicode="&#x17f;l" horiz-adv-x="962" d="M35 0v66h59q39 0 56 10q14 8 14 45v584h-115l25 98h90v221q0 55 2 76q6 51 12 82q12 57 31 94q14 33 59 84q39 45 97 80q70 43 170 43q68 0 110 -21l148 25v-1366q0 -35 16 -45t80 -10h39l2 -66h-418l2 66h43q51 0 72 10q18 10 18 45v1200q-8 -8 -16 -18l-15 -15 q-2 -2 -14 -8q-8 -4 -14 -4q-14 0 -29 31q-14 27 -41 61q-25 31 -57 31q-51 0 -84 -39q-37 -45 -49 -105q-14 -74 -17 -104q-4 -53 -4 -78v-946q0 -43 15 -51q16 -10 77 -10h56l2 -66h-422z" />
<glyph unicode="&#x17f;&#x17f;" horiz-adv-x="991" d="M29 0v66h61q43 0 60 10q14 8 14 45v584h-115l25 98h90v162q0 139 29 235q29 92 114 152q115 78 254 78q76 0 123 -21q49 -20 49 -53q0 -2 -4 -19q111 145 285 146q68 0 114 -19q45 -18 46 -55q0 -29 -39 -80q-41 -53 -68 -53q-14 0 -29 31q-14 27 -41 61q-25 31 -57 31 q-53 0 -86 -39t-45 -105q-18 -92 -18 -104q-4 -53 -5 -78v-946q0 -43 15 -51q16 -10 67 -10h74v-66h-424l-2 66h59q39 0 53.5 10t14.5 45v584h-113l25 98h88v221q0 147 43 242q-35 -43 -59 -43q-12 0 -27 30q-15 31 -43 62q-29 31 -76 31q-61 0 -96 -33q-39 -35 -53 -96 q-12 -55 -21 -121q-4 -37 -4 -142v-827q0 -41 12 -51q14 -10 64 -10h63l3 -66h-420z" />
<glyph unicode="&#x17f;&#x17f;i" horiz-adv-x="1468" d="M29 0v66h61q43 0 60 10q14 8 14 45v584h-115l25 98h90v162q0 139 29 235q29 92 114 152q115 78 264 78q76 0 123 -21q49 -20 49 -53q0 -2 -4 -19q113 147 299 148q84 0 138 -23q59 -25 59 -59q0 -33 -39 -72q-41 -41 -74 -41q-10 0 -35 29q-29 31 -61 59q-35 29 -76 29 q-86 0 -125 -104q-39 -102 -39 -230v-946q0 -45 13 -53q10 -8 78 -8h59v-66h-426v66h53q47 0 63.5 10t16.5 45v584h-113l25 98h88v235q0 120 49 228q-33 -43 -59 -43q-16 0 -35 30q-20 37 -47 62q-31 31 -76 31q-57 0 -94 -31q-35 -29 -51 -98q-14 -68 -19 -121 q-4 -70 -4 -142v-827q0 -41 10.5 -51t59.5 -10h69l3 -66h-420zM983 770q162 25 291 61v-710q0 -37 14 -45q16 -10 74 -10h74v-66h-445v66h56q49 0 65 8q18 8 18 39v546q0 39 -6 52q-6 14 -24 14q-25 0 -113 -16z" />
<glyph unicode="&#x17f;&#x17f;l" horiz-adv-x="1441" d="M29 0v66h61q43 0 60 10q14 8 14 45v584h-115l25 98h90v162q0 139 29 235q29 92 114 152q115 78 254 78q76 0 123 -21q49 -20 49 -53q0 -2 -4 -19q109 145 285 146q70 0 112 -21q31 4 84 13q55 9 62 12v-1366q0 -35 16.5 -45t81.5 -10h39v-66h-416l2 66h43q51 0 72 10 q18 10 18 45v1200l-6 -6q-6 -4 -14 -15q-16 -16 -22.5 -20t-18.5 -4q-14 0 -29 31q-14 27 -41 61q-25 31 -57 31q-53 0 -86 -39t-45 -105q-18 -92 -18 -104q-4 -53 -5 -78v-946q0 -43 11 -51q14 -10 63 -10h74l2 -66h-422v66h59q47 0 58 8q12 9 12 43v588h-113l25 98h88v221 q0 61 6 106q6 49 13 70q4 14 16 43q8 18 8 23q-35 -43 -59 -43q-12 0 -27 30q-15 31 -43 62q-29 31 -76 31q-61 0 -96 -33q-39 -35 -53 -96q-12 -55 -21 -121q-4 -37 -4 -142v-827q0 -41 12 -51q14 -10 62 -10h65l3 -66h-420z" />
<glyph unicode="&#x17f;j" horiz-adv-x="978" d="M31 0v66h61q41 0 58 10q14 8 14 45v584h-115l25 98h90v264q0 164 112 293q111 125 283 125q84 0 137 -23q57 -25 58 -59q0 -34 -37 -74q-37 -39 -74 -39q-10 0 -35 29q-29 31 -61 59q-35 29 -78 29q-41 0 -78 -33q-29 -25 -49 -82q-16 -43 -27 -98q-8 -43 -8 -100v-971 q0 -37 12 -47q14 -10 60 -10h78v-66h-426zM334 -455q0 33 39 68q35 33 71 33q14 0 54 -43q41 -45 57 -45q96 0 96 278v801q0 49 -8 65q-8 18 -39 19q-6 0 -90 -19l-10 62q68 12 291 63v-925q0 -166 -29 -238q-31 -76 -88 -119q-98 -80 -184 -80q-51 0 -105 27q-55 28 -55 53 z" />
<glyph unicode="&#x17f;&#x17f;j" horiz-adv-x="1458" d="M29 0v66h59q47 0 61.5 10t14.5 45v584h-115l25 98h90v162q0 139 29 235q29 92 114 152q115 78 264 78q76 0 123 -21q49 -20 49 -53q0 -2 -4 -19q113 147 299 148q84 0 138 -23q59 -25 59 -59q0 -33 -39 -72q-41 -41 -74 -41q-10 0 -35 29q-29 31 -61 59q-35 29 -76 29 q-86 0 -125 -104q-39 -102 -39 -230v-946q0 -45 13 -53q10 -8 78 -8h59v-66h-426v66h53q47 0 63.5 10t16.5 45v584h-113l25 98h88v235q0 120 49 228q-33 -43 -59 -43q-16 0 -35 30q-20 37 -47 62q-31 31 -76 31q-57 0 -94 -31q-35 -29 -51 -98q-14 -68 -19 -121 q-4 -70 -4 -142v-827q0 -41 12 -51q14 -10 62 -10h65l3 -66h-420zM813 -455q0 33 39 68q35 33 72 33q15 0 55 -43q41 -45 55 -45q96 0 96 278v801q0 49 -8 65q-8 18 -39 19q-6 0 -90 -19l-10 62q68 12 291 63v-925q0 -160 -31 -238t-86 -119q-98 -80 -184 -80q-51 0 -105 27 q-55 28 -55 53z" />
<glyph unicode="&#x17f;b" horiz-adv-x="1501" d="M35 0v66h55q45 0 59.5 10t14.5 45v584h-115l25 98h90v221q0 55 2 76q6 51 12 82q12 57 31 94q14 33 59 84q39 45 97 80q70 43 170 43q68 0 110 -21q31 4 84 13q55 9 62 12v-799q2 2 26 21q6 6 21.5 17l23.5 17q27 20 56 35q35 18 75 29q45 10 84 10q178 0 279 -112 q98 -111 98 -271q0 -180 -115 -315q-117 -137 -309 -137q-84 0 -176 30.5t-96 30.5q-18 0 -47 -23q-31 -25 -45 -24q-25 0 -25 47v43q0 16 4 98q2 41 2 133v1004q-8 -8 -16 -18l-15 -15q-2 -2 -14 -8q-8 -4 -14 -4q-14 0 -29 31q-14 27 -41 61q-25 31 -57 31q-51 0 -84 -39 q-37 -45 -49 -105q-14 -74 -17 -104q-4 -53 -4 -78v-946q0 -43 15 -51q16 -10 71 -10h62l2 -66h-422zM791 201q0 -66 67 -107q66 -39 152 -39q47 0 94 13q49 14 94 41q51 33 78 94q29 68 29 158t-25 157q-27 72 -57 103q-35 35 -76 55q-49 25 -70 26q-37 4 -51 5 q-143 0 -235 -76v-430z" />
<glyph unicode="&#x17f;&#x17f;b" horiz-adv-x="1984" d="M29 0v66h47q59 0 73.5 10t14.5 45v584h-115l25 98h90v162q0 139 29 235q29 92 114 152q115 78 254 78q76 0 123 -21q49 -20 49 -53q0 -2 -4 -19q109 145 285 146q70 0 112 -21q31 4 84 13q55 9 62 12v-799q4 0 26 21q16 14 45 34q20 14 57.5 35t76.5 29q47 10 84 10 q182 0 278 -112.5t96 -270.5q0 -176 -114 -315q-113 -137 -308 -137q-84 0 -180 30l-96 31q-18 0 -47 -23q-31 -25 -45 -24q-23 0 -23 47q0 18 2 43t2 98q0 20 1 64.5t1 68.5v1004l-6 -6q-6 -4 -14 -15q-16 -16 -22.5 -20t-18.5 -4q-14 0 -29 31q-14 27 -41 61 q-25 31 -57 31q-53 0 -86 -39t-45 -105q-18 -92 -18 -104q-4 -53 -5 -78v-946q0 -41 13 -51q14 -10 63 -10h72l2 -66h-422v66h59q47 0 58 8q12 9 12 43v588h-113l25 98h88v221q0 61 6 106q6 49 13 70q4 14 16 43q8 18 8 23q-35 -43 -59 -43q-12 0 -27 30q-15 31 -43 62 q-29 31 -76 31q-61 0 -96 -33q-39 -35 -53 -96q-12 -55 -21 -121q-4 -37 -4 -142v-827q0 -41 12 -51q14 -10 64 -10h63l3 -66h-420zM1272 201q0 -66 67 -107q66 -39 152 -39q49 0 94 13q53 14 96 41q47 29 78 94q29 59 29 157q0 109 -35 189q-33 74 -88 106.5t-90 40.5 q-41 10 -68 11q-143 0 -235 -76v-430z" />
<glyph unicode="&#x17f;h" horiz-adv-x="1441" d="M35 0v66h59q39 0 56 10q14 8 14 45v584h-115l25 98h90v221q0 55 2 76q6 51 12 82q12 57 31 94q14 33 59 84q39 45 97 80q70 43 170 43q68 0 110 -21q31 4 84 13q55 9 62 12v-830q8 8 22 19l31 24q9 6 30 25q4 4 39 25l41 20q35 18 45 21l21.5 7t23.5 7q16 4 50 4 q46 0 80 -12q35 -12 55 -39q23 -29 35 -53q10 -18 16 -70q6 -46 6 -74q0 -8 1 -34.5t1 -47.5v-354q0 -40 12 -49q14 -10 56 -10h53v-66h-393l-2 66h33q59 0 79 10q18 10 19 47v416q0 84 -41 118q-43 37 -98 37q-101 0 -215 -98v-483q0 -29 16 -39q14 -8 63 -8h64l-2 -66 h-400l-2 66h33q41 0 51 2q15 3 25 12q8 8 8 33v1208q-8 -8 -16 -18l-15 -15q-2 -2 -14 -8q-8 -4 -14 -4q-14 0 -29 31q-14 27 -41 61q-25 31 -57 31q-51 0 -84 -39q-37 -45 -49 -105q-14 -74 -17 -104q-4 -53 -4 -78v-946q0 -41 10.5 -51t63.5 -10h72l4 -66h-422z" />
<glyph unicode="&#x17f;&#x17f;h" horiz-adv-x="1923" d="M29 0v66h59q43 0 59.5 10t16.5 45v584h-115l25 98h90v162q0 139 29 235q29 92 114 152q115 78 254 78q76 0 123 -21q49 -20 49 -53q0 -2 -4 -19q109 145 285 146q70 0 112 -21q31 4 84 13q55 9 62 12v-830q8 8 22 19q20 16 29 24q18 12 33 25q4 4 39 25l41 20 q35 18 45 21l21.5 7t23.5 7q16 4 49 4q47 0 82 -12.5t55 -38.5q16 -23 33 -53q10 -18 16 -70q6 -46 6 -74q0 -8 1 -34.5t1 -47.5v-354q0 -40 13 -49q14 -10 59 -10h49v-66h-393l-2 66h33q63 0 80 8q18 9 18 49v416q0 82 -41 118.5t-96 36.5q-104 0 -217 -98v-483 q0 -29 16 -39q14 -8 64 -8h63l-2 -66h-405l-2 66h47q41 0 61 8q14 6 14 35v1212l-6 -6q-6 -4 -14 -15q-16 -16 -22.5 -20t-18.5 -4q-14 0 -29 31q-14 27 -41 61q-25 31 -57 31q-53 0 -86 -39t-45 -105q-18 -92 -18 -104q-4 -53 -5 -78v-946q0 -41 13 -51q14 -10 63 -10h72 l2 -66h-422v66h59q47 0 58 8q12 9 12 43v588h-113l25 98h88v221q0 61 6 106q6 49 13 70q4 14 16 43q8 18 8 23q-35 -43 -59 -43q-12 0 -27 30q-15 31 -43 62q-29 31 -76 31q-61 0 -96 -33q-39 -35 -53 -96q-12 -55 -21 -121q-4 -37 -4 -142v-827q0 -41 12 -51q14 -10 62 -10 h65l3 -66h-420z" />
<glyph unicode="&#x17f;k" horiz-adv-x="1452" d="M35 0v66h57q41 0 58 10q14 8 14 45v584h-115l25 98h90v221q0 55 2 76q6 51 12 82q12 57 31 94q14 33 59 84q39 45 97 80q70 43 170 43q68 0 110 -21q31 4 84 13q55 9 62 12v-1077l372 305q14 12 15 18q0 14 -43 15h-62v55h330l-2 -55h-31q-57 0 -110 -46l-291 -231 l305 -356q4 -6 18 -21q4 -4 8 -10l5 -6l4 -2l8 -4q10 -6 16 -6h31h55l-2 -66h-241l-320 393l-70 -55v-221q0 -33 17 -43q14 -8 80 -8h63l2 -66h-411l-2 66h49q41 0 53 8q10 6 10 37v1210q-8 -8 -16 -18l-15 -15q-2 -2 -14 -8q-8 -4 -14 -4q-14 0 -29 31q-14 27 -41 61 q-25 31 -57 31q-51 0 -84 -39q-37 -45 -49 -105q-14 -74 -17 -104q-4 -53 -4 -78v-946q0 -41 12 -51q14 -10 68 -10h66l4 -66h-422z" />
<glyph unicode="&#x17f;&#x17f;k" horiz-adv-x="1933" d="M29 0v66h59q43 0 59.5 10t16.5 45v584h-115l25 98h90v162q0 139 29 235q29 92 114 152q115 78 254 78q76 0 123 -21q49 -20 49 -53q0 -2 -4 -19q109 145 285 146q70 0 112 -21q31 4 84 13q55 9 62 12v-1077l373 305q16 12 16 18q0 14 -43 15h-64v55h330l-2 -55h-31 q-53 0 -110 -46l-291 -231l305 -356q10 -10 16.5 -18.5t12.5 -14.5l8 -8q6 -6 12 -6h17q2 0 11 -1t15 -1h54v-66h-242l-320 393l-71 -55v-221q0 -33 16 -43q14 -8 90 -8h56l2 -66h-420l-2 66h51q39 0 55 8q12 6 12 37v1210l-6 -6q-6 -4 -14 -15q-16 -16 -22.5 -20t-18.5 -4 q-14 0 -29 31q-14 27 -41 61q-25 31 -57 31q-53 0 -86 -39t-45 -105q-18 -92 -18 -104q-4 -53 -5 -78v-946q0 -43 11 -51q14 -10 63 -10h74l2 -66h-422v66h59q47 0 58 8q12 9 12 43v588h-113l25 98h88v221q0 61 6 106q6 49 13 70q4 14 16 43q8 18 8 23q-35 -43 -59 -43 q-12 0 -27 30q-15 31 -43 62q-29 31 -76 31q-61 0 -96 -33q-39 -35 -53 -96q-12 -55 -21 -121q-4 -37 -4 -142v-827q0 -41 12 -51q14 -10 62 -10h65l3 -66h-420z" />
<glyph unicode="&#x17f;&#xfe;" horiz-adv-x="1482" d="M35 0v66h57q41 0 58 10q14 8 14 45v584h-115l25 98h90v221q0 55 2 76q6 51 12 82q12 57 31 94q14 33 59 84q39 45 97 80q70 43 170 43q68 0 110 -21q31 4 84 13q55 9 62 12v-832q25 25 45 41q39 31 110 70q76 41 150 41q143 0 241.5 -117t98.5 -278q0 -188 -109 -314 q-108 -123 -283 -123l-253 35v-424q0 -33 28 -43q25 -8 131 -8h31v-65h-469l-2 65q96 0 115 8q23 10 22 41v1737q-8 -8 -16 -18l-15 -15q-2 -2 -14 -8q-8 -4 -14 -4q-14 0 -29 31q-14 27 -41 61q-25 31 -57 31q-51 0 -84 -39q-37 -45 -49 -105q-14 -74 -17 -104 q-4 -53 -4 -78v-946q0 -43 15 -51q16 -10 69 -10h62l4 -66h-422zM791 113q102 -70 247 -70q90 0 154 57q61 55 80 119q18 61 18 127q0 139 -84 239.5t-202 100.5q-12 0 -46 -4q-25 -3 -43 -12q-8 -4 -21 -9.5t-15 -5.5q-18 -8 -33 -18q-15 -12 -25 -19q-2 -2 -7 -8t-11 -10 q-8 -8 -12 -8v-479z" />
<glyph unicode="&#x17f;&#x17f;&#xfe;" horiz-adv-x="1964" d="M29 0v66h59q43 0 59.5 10t16.5 45v584h-115l25 98h90v162q0 139 29 235q29 92 114 152q115 78 254 78q76 0 123 -21q49 -20 49 -53q0 -2 -4 -19q109 145 285 146q70 0 112 -21q31 4 84 13q55 9 62 12v-832q16 16 47 41q43 35 108 70q76 41 150 41q143 0 241.5 -117 t98.5 -278q0 -188 -109 -314q-108 -123 -282 -123l-254 35v-424q0 -35 28 -43q27 -8 134 -8h30l-2 -65h-471l-2 65q98 0 117 8q23 10 22 41v1737l-6 -6q-6 -4 -14 -15q-16 -16 -22.5 -20t-18.5 -4q-14 0 -29 31q-14 27 -41 61q-25 31 -57 31q-53 0 -86 -39t-45 -105 q-18 -92 -18 -104q-4 -53 -5 -78v-946q0 -43 15 -51q16 -10 86 -10h47l2 -66h-422v66h59q47 0 58 8q12 9 12 43v588h-113l25 98h88v221q0 61 6 106q6 49 13 70q4 14 16 43q8 18 8 23q-35 -43 -59 -43q-12 0 -27 30q-15 31 -43 62q-29 31 -76 31q-61 0 -96 -33 q-39 -35 -53 -96q-12 -55 -21 -121q-4 -37 -4 -142v-827q0 -41 10.5 -51t57.5 -10h71l3 -66h-420zM1272 113q102 -70 248 -70q74 0 125 31q57 33 79 80q23 45 37 98q12 47 13 94q0 139 -84 239.5t-203 100.5q-100 0 -215 -94v-479z" />
<glyph unicode="f&#x125;" horiz-adv-x="1464" d="M35 705l24 98h125v221q0 55 2 76q6 51 13 82q10 47 32 94q14 33 60 84q41 47 94 80q70 43 170 43q63 0 111 -21q31 4 84 13q55 9 61 12v-830q8 8 23 19q20 16 28 24q18 12 33 25q4 4 39 25l41 20q35 18 45 21l21.5 7t23.5 7q16 4 49 4q55 0 94 -21q41 -23 58 -47 q23 -35 30 -77q10 -53 13 -89q2 -25 2 -96v-354q0 -40 12 -49q14 -10 55 -10h54v-66h-394l-2 66h31q59 0 79.5 10t20.5 47v416q0 82 -43 118.5t-96 36.5q-102 0 -217 -98v-483q0 -31 20 -39q18 -8 97 -8h26l-2 -66h-399l-2 66h12q61 0 86 8q18 6 19 39v1208l-21 -21 q-16 -16 -22.5 -20t-18.5 -4q-15 0 -31 31q-16 35 -38 61q-25 31 -56 31q-53 0 -86 -39q-35 -41 -47 -105q-14 -74 -16 -104q-4 -53 -4 -78v-270h229l-22 -98h-207v-578q0 -45 14 -53t96 -8h35l2 -66h-422l2 66h15q82 0 98 10t16 45v584h-149zM821 1528q57 80 164 244h121 q70 -111 164 -244h-119q-8 10 -17.5 20.5l-19.5 22.5l-47 53q-14 14 -24.5 27.5l-18.5 23.5l-125 -147h-78z" />
<glyph unicode="ff&#x125;" horiz-adv-x="1943" d="M35 705l24 98h125v162q0 139 29 235q29 92 115 152q115 78 254 78q78 0 125 -20.5t47 -53.5q0 -2 -4 -19q109 145 284 146q70 0 113 -21q31 4 84 13q55 9 61 12v-830q8 8 23 19q12 8 18 14l10 10q10 8 33 25q4 4 39 25l41 20q35 18 45 21l21.5 7t23.5 7q16 4 49 4 q55 0 95 -21q43 -23 59 -47q20 -31 29 -77q10 -53 12 -89q2 -25 2 -96v-354q0 -40 12 -49q14 -10 64 -10h43v-66h-391l-2 66h32q59 0 80 10q18 10 19 47v416q0 82 -43 118.5t-99 36.5q-101 0 -215 -98v-483q0 -31 21 -39q18 -8 96 -8h27l-2 -66h-408v66h47q45 0 60 8 q16 10 16 35v1212l-21 -21q-16 -16 -22 -20t-19 -4q-15 0 -30 31q-16 35 -39 61q-25 31 -57 31q-51 0 -84 -39q-35 -41 -48 -105q-18 -92 -18 -104q-4 -53 -4 -78v-270h231l-24 -98h-207v-578q0 -43 14 -51q16 -10 72 -10h61l2 -66h-421v66h59q47 0 57 8q12 9 13 43v588 h-336v-578q0 -41 12 -51q14 -10 66 -10h61l2 -66h-420v66h60q45 0 61 10q14 8 14 45v584h-149zM328 803h336v221q0 61 6 106q6 49 12 70q4 14 16 43q8 18 9 23q-35 -43 -60 -43q-12 0 -26 30q-15 31 -43 62q-29 31 -76 31q-61 0 -96 -33q-37 -33 -52 -96q-12 -55 -20 -121 q-6 -55 -6 -142v-151zM1303 1528q57 80 163 244h121q70 -111 164 -244h-119l-17 20.5l-20 22.5l-45 53q-10 12 -26.5 29.5t-18.5 21.5l-125 -147h-77z" />
<glyph unicode=" "  horiz-adv-x="376" />
<glyph unicode="&#x09;" horiz-adv-x="376" />
<glyph unicode="&#xa0;" horiz-adv-x="376" />
<glyph unicode="!" horiz-adv-x="622" d="M225 70q0 20 35 53t53 33q25 0 56 -33q31 -34 30 -55q0 -23 -32.5 -55.5t-55.5 -32.5q-20 0 -53 32.5t-33 57.5zM227 1270q0 39 52 53q49 14 83 14q27 0 27 -22q-4 -145 -27 -402q-27 -289 -28 -393v-55q0 -10 -1 -26.5t-1 -20.5v-37q0 -18 -4 -31q0 -2 -2 -10t-4 -10 q-4 -10 -11 -15q-8 -4 -14 -4q-8 0 -14 6q-8 6 -11 17q-2 2 -2 8t-2 10q-4 12 -4 23v10q-37 458 -37 885z" />
<glyph unicode="&#x22;" horiz-adv-x="677" d="M49 999.5q0 20.5 37 200.5q41 199 51 242q15 61 86 61q33 0 51 -22t19 -43q0 -25 -19 -70q-12 -29 -59 -121q-37 -72 -55 -114l-23 -52l-18 -43q-10 -27 -15 -32q-10 -16 -16 -21q-10 -6 -16 -6q-23 0 -23 20.5zM242 1006q0 43 57 163q25 51 53 146q33 104 58 143 q28 43 73 43q33 0 49.5 -16.5t16.5 -34.5t-4 -31q-6 -18 -19 -43l-22 -45l-31 -51l-33 -49q-2 -4 -12 -18.5l-22 -32.5l-29 -45q-6 -12 -14.5 -25.5l-18.5 -30.5l-27 -43q-10 -16 -18 -30.5t-18 -20.5q-6 -4 -17 -4q-22 0 -22 25z" />
<glyph unicode="#" horiz-adv-x="872" d="M49 526v70h201l43 154h-242v69h262l162 588h84l-164 -588h170l164 588h82l-164 -588h178v-69h-196l-43 -154h237v-70h-258l-176 -626h-82l176 626h-170l-172 -626h-84l174 626h-182zM334 596h168l43 154h-168z" />
<glyph unicode="$" horiz-adv-x="1083" d="M102 258q0 31 23 31q18 0 31 -27q16 -37 24 -61q12 -37 72 -78q61 -43 160 -66q59 -12 102 -12v518l-6 2q-6 2 -15.5 6t-19.5 11q-35 18 -49 26t-51 27q-41 20 -56 33q-20 14 -49 37q-33 23 -47 43l-33 45q-16 20 -26 53q-8 25 -8 57q0 80 36 141q39 66 91 95 q53 31 108 49q51 18 90 24l37 7v163h64v-163q12 -2 42.5 -5.5t45.5 -5.5q20 -4 33.5 -6t23.5 -4q14 -2 33 -4q8 -2 18 -2q2 0 5 -1l3 -1l3 -1q3 -1 6 -1l20 4q6 0 14.5 2t14.5 4l12 4q12 0 18 -14q2 -6 11 -55q2 -12 8 -62q0 -2 1 -5t2 -9t1 -13q2 -14 2 -24v-16 q0 -18 -14 -19q-10 0 -15 2q-2 0 -7 5l-7 7q-4 4 -7 6.5t-5 4.5q-8 8 -15 16q-4 4 -8 12l-4 6q-35 49 -94 78q-53 27 -100 33l-41 6v-463l88 -43l82 -41q12 -6 69 -39q41 -25 62 -47l43 -51q23 -29 32 -65q8 -31 9 -76q0 -225 -252 -318q-82 -27 -135 -32v-328h-64v326 q-223 2 -336 51q-39 18 -43 28q-4 12 -14 72q-2 6 -2 15q-4 29 -6 45q-4 33 -7 43q0 4 -2 10q-2 8 -2 10zM299 963q0 -61 55 -123q59 -66 109 -90l53 -29v440q-14 0 -24 -2q-4 0 -52 -16q-33 -10 -65 -33q-31 -20 -53.5 -57t-22.5 -90zM578 47q68 2 133 47q41 25 77.5 78 t36.5 113q0 131 -198 233l-49 23v-494z" />
<glyph unicode="%" horiz-adv-x="1597" d="M90 -68q0 9 19 31l1230 1313q-186 -94 -438 -94q-46 0 -147 12q39 -59 39 -150q0 -168 -129 -292q-127 -125 -291 -125q-115 0 -178 69q-61 68 -62 170q0 170 143 293q144 123 289 123q25 0 113 -16.5t219 -16.5t270 29q123 25 224 57q90 29 102 29q16 0 16 -10 q0 -14 -36 -58l-1285 -1378h-63q-35 0 -35 14zM221 813q0 -43 27 -72q27 -31 78 -30q129 0 249 143q119 139 119 256q0 39 -28 64q-31 27 -72 26q-102 0 -237.5 -139t-135.5 -248zM782 219q0 175 142 295q143 121 290 121q102 0 164 -60q63 -61 64 -180q0 -168 -127 -293 t-291 -125q-119 0 -180 70q-62 71 -62 172zM870 166q0 -45 27 -74q28 -31 80 -31q131 0 250 143.5t119 258.5q0 43 -29 65q-31 25 -74 25q-102 0 -237.5 -139t-135.5 -248z" />
<glyph unicode="&#x26;" horiz-adv-x="1738" d="M90 461q0 92 37 163.5t90 106.5t88 51q31 14 53 21h2l-41 45q-33 35 -65 102q-35 70 -35 127q0 121 96.5 211t253.5 90q121 0 213 -67.5t92 -159.5q0 -71 -49 -129q-49 -59 -125 -59q-39 0 -75 14q-39 14 -39 35q0 12 32 20q31 8 68 35q35 25 35 74q0 68 -53 114 q-51 45 -119 45q-63 0 -119 -45q-51 -43 -51 -106q0 -90 76 -180q80 -96 309 -307l117 -107q53 -51 96 -84l65 -53q4 -4 60 -45q33 -25 39 -31l55 -43l8 10q12 16 19 29q2 6 11 21.5t13 23.5q8 16 25 57q12 31 24 68q8 25 17 82q6 43 6 88q0 82 -14 141q-16 70 -50 78 q-37 10 -217 12l-4 80h547l2 -80q-168 -4 -178 -8q-12 -6 -12 -16q0 -3 6 -19t12 -61q8 -66 8 -133q0 -92 -37 -197q-39 -109 -73 -168l-37 -59l43 -29l43 -29q27 -18 39 -24q25 -14 45 -20.5t45 -12.5q29 -6 51 -6q43 0 84 12q33 10 49 11q20 0 21 -23q0 -66 -70 -111 q-72 -47 -174 -47q-45 0 -121 35q-72 33 -125 70l-49 35q-2 -4 -14 -17q-6 -6 -49 -35q-45 -31 -82 -45q-61 -25 -123 -37q-82 -16 -166 -16q-256 0 -442.5 131t-186.5 371zM281 524q0 -123 86 -225q84 -98 206 -149q125 -51 240 -52q49 0 72 2q27 2 57 11q10 2 26.5 7 t20.5 7q14 4 35 12q10 4 27 13q4 2 10 6t8 4l6 4l-176 129q-213 162 -485 452q-52 -12 -92 -73q-41 -64 -41 -148z" />
<glyph unicode="'" horiz-adv-x="456" d="M49 997q0 29 49 164q8 25 29 101l27 96q9 37 24 74q14 33 37 53q23 18 51 18q31 0 47 -22q14 -20 15 -45q0 -27 -23 -78q-14 -33 -69 -125q-37 -61 -58 -103q-6 -10 -10 -20t-8 -18.5t-13 -22.5q-16 -31 -22 -45q-2 -6 -9 -16.5t-10 -12.5q-8 -14 -16 -18t-16 -4 q-25 -1 -25 24z" />
<glyph unicode="(" horiz-adv-x="638" d="M90 469q0 137 27 256q29 127 69 215q43 90 95 170q53 82 102 131q66 66 94 90q57 49 70 58l26 16l33 -39q-31 -25 -41 -35q-33 -33 -90 -106q-68 -86 -115 -178q-55 -106 -92 -250q-41 -158 -41 -320q0 -174 37 -327q37 -150 90 -252q52 -98 105 -172q51 -72 90 -105 l37 -31l-37 -43q-2 2 -11.5 9.5t-15.5 13.5q-2 2 -13 12t-23.5 23.5l-26.5 27.5q-61 66 -90 101q-41 51 -97 137q-51 80 -92 170q-43 90 -65 199q-25 112 -25 229z" />
<glyph unicode=")" horiz-adv-x="638" d="M35 1366l33 39q18 -10 53 -35q27 -18 115 -106q82 -82 147 -183q61 -92 115 -264q53 -170 53 -348q0 -154 -47 -311q-45 -152 -115 -258q-72 -109 -135 -189q-66 -80 -115 -123l-47 -41l-35 43q4 2 39 33q23 18 86 103q66 86 109 174t84 250q39 154 39 327q0 168 -39 318 q-41 158 -94 252q-57 102 -111 176q-49 70 -96 108z" />
<glyph unicode="*" horiz-adv-x="929" d="M90 760q0 39 47 67q41 27 107 43q94 25 106 29q49 14 49 25q0 20 -77 32q-68 10 -152 41q-78 29 -78 88q0 39 29 62q27 20 51 20q37 0 143.5 -90t118.5 -90q8 0 8 19q0 20 -32 129q-31 102 -31 114q0 47 26.5 74t63.5 27t63.5 -27t26.5 -86q0 -31 -29 -123 q-31 -98 -30 -121q0 -14 10 -14q14 0 108.5 90t143.5 90q37 0 57 -18q23 -18 23 -47q0 -49 -49 -80q-55 -35 -105 -43q-37 -6 -102 -23q-49 -12 -49 -24q0 -14 45 -29q35 -12 98 -27q52 -12 98 -43q45 -31 45 -73q0 -29 -16 -51.5t-49 -22.5q-53 0 -152 92q-100 94 -104 94 q-10 0 -10 -22q0 -25 28 -117q27 -86 27 -115q0 -37 -24.5 -61.5t-59.5 -24.5q-33 0 -60 25q-29 25 -28 55q0 27 31 133q29 100 28 123q0 8 -4 8q-10 0 -57 -47q-49 -49 -107 -92q-59 -45 -102 -45q-37 0 -55.5 24.5t-18.5 51.5z" />
<glyph unicode="+" horiz-adv-x="1560" d="M164 422v119q274 0 368 -2q166 -4 170 -4l29 -3q-10 31 -10 568h121l-11 -568q55 8 568 9v-119q-272 0 -367 2q-168 4 -172 4l-29 2q10 -68 11 -567h-121q0 272 2 366q4 166 4 170l4 31q-51 -8 -567 -8z" />
<glyph unicode="," horiz-adv-x="456" d="M72 -270q0 12 22 28q4 4 49 31q28 18 50 55q23 39 22 90q0 31 -14 56q-12 22 -31 30q-12 6 -29 19q-14 10 -14 22q0 23 41 60t53 37q4 0 33 -8q18 -6 51 -48q31 -41 31 -106q0 -61 -26.5 -127t-65.5 -105q-63 -63 -146 -63q-26 0 -26 29z" />
<glyph unicode="-" horiz-adv-x="643" d="M70 494v122l505 150v-125z" />
<glyph unicode="." horiz-adv-x="456" d="M127 84q0 23 41 57.5t57 34.5q29 0 64 -41q33 -39 33 -61q0 -27 -39 -60q-41 -35 -64 -34q-18 0 -55 38.5t-37 65.5z" />
<glyph unicode="/" horiz-adv-x="903" d="M35 -473l698 1919h96l-698 -1919h-96z" />
<glyph unicode="0" horiz-adv-x="1079" d="M111 393q0 178 120 312q119 131 316 131q176 0 301 -115q123 -114 123 -295q0 -180 -121 -313q-119 -131 -309 -131q-176 0 -303 116.5t-127 294.5zM211 412q0 -135 96 -237.5t242 -102.5q129 0 225 94q98 96 98 237q0 129 -96 236q-95 104 -239 104q-131 0 -228 -94 q-98 -96 -98 -237z" />
<glyph unicode="1" horiz-adv-x="690" d="M76 0v66h78q84 0 100 10t16 53v533q0 25 -2 30q-2 8 -18.5 20.5t-48.5 12.5h-121v63h213h26q2 0 21 7q8 2 12 4q6 4 10 10q2 2 4.5 4t2.5 4q0 1 1 5q2 5 3 9l4 17h45q-8 -188 -8 -408v-313q0 -41 18 -51q20 -10 74 -10h110v-66h-540z" />
<glyph unicode="2" horiz-adv-x="987" d="M76 16q0 9 86 68l188 127q106 74 189 168q86 98 86 180q0 70 -58 125t-147 55q-63 0 -103 -16q-45 -18 -59 -37q-18 -23 -31 -37q-14 -18 -26 -18q-20 0 -21 20q0 70 88 127.5t233.5 57.5t221.5 -78t76 -152q0 -184 -217 -340q-78 -57 -123 -86l-101 -63q-33 -20 -32 -25 q0 -6 24 -6q158 0 279 27q131 29 192 51q74 27 76 26q16 0 16 -18q0 -12 -18 -82t-27 -78q-12 -12 -92 -12h-672q-28 0 -28 16z" />
<glyph unicode="3" horiz-adv-x="880" d="M12 -453q0 29 29 29q8 0 35 -6q63 -14 76 -16q43 -8 104 -9q143 0 258 88q117 89 117 240q0 74 -25 129q-27 57 -63 84q-35 25 -68 39q-18 8 -59 16q-6 2 -16.5 3t-16.5 1q-12 2 -29 2q-14 0 -20 2.5t-15 10.5q-6 6 -6 14q0 18 19 29q23 10 43 16q25 6 59 29q33 20 62 59 q55 77 55 178q0 76 -49 150q-47 72 -148 72q-80 0 -131 -25q-55 -27 -80 -45q-29 -23 -43 -23q-25 0 -24 31q0 18 20 45q18 25 60 62q31 29 104 55q68 25 150 24q131 0 208 -75q82 -78 82 -205q0 -195 -165 -303l-41 -23q10 -2 34 -6q16 -2 73.5 -24.5t96.5 -55.5 q41 -35 74 -100q35 -70 35 -152q0 -141 -88 -241q-88 -98 -207 -144q-111 -41 -244 -41q-96 0 -176 18.5t-80 67.5z" />
<glyph unicode="4" horiz-adv-x="1226" d="M76 14q0 6 168 174l624 621q23 23 29 22q16 0 16 -49v-655h240l-43 -127h-197v-479l-145 -62v541h-664q-28 0 -28 14zM289 127h479v477z" />
<glyph unicode="5" horiz-adv-x="948" d="M35 -420q0 25 20 25q10 0 45 -21q52 -37 234 -37q147 0 252 117q106 119 106 266q0 96 -30 170q-29 68 -82 115q-49 43 -113 68q-70 27 -119 35t-110 8q-4 0 -50 -4q-23 -2 -38 -3v101q0 10 -7 96q-2 23 -4 42.5t-2 39.5q0 12 -1 36.5t-3 35.5l-6 53q-2 14 -2 37l-2 12 q0 25 31 25q6 0 22.5 -1t48 -2t62.5 -1q152 -4 168 -5q119 0 215 17q12 2 22 22.5t10 36.5l3 21l49 -6l-25 -174q-10 -59 -43 -60q-46 0 -221 25q-174 25 -182 24q-74 0 -74 -233q0 -47 8 -55q10 -10 43 -11q18 0 69.5 6.5t76.5 6.5q455 0 454 -453q0 -49 -12 -109 q-12 -53 -51 -127q-39 -72 -92 -125q-49 -49 -150 -88q-95 -37 -215 -36q-106 0 -182 24q-72 23 -99 49q-24 25 -24 37z" />
<glyph unicode="6" horiz-adv-x="1042" d="M111 580q0 309 182 534t418 225q31 0 108 -20q70 -18 70 -47q0 -25 -29 -25l-5 1l-14.5 3l-19.5 4q-35 6 -63 7q-104 0 -201 -58q-95 -55 -160 -153q-66 -100 -86 -177q-20 -74 -32 -157q-12 -82 -15 -84q59 102 142 143q86 43 163 43q96 0 179 -39q76 -37 112 -98 q41 -70 55 -121q16 -61 17 -119q0 -217 -109 -342q-106 -123 -272 -123q-209 0 -324 170q-116 173 -116 433zM279 483q0 -172 96 -303q96 -129 207 -129q86 0 137 80q53 82 53 223q0 168 -78 264.5t-196 96.5q-92 0 -155.5 -70t-63.5 -162z" />
<glyph unicode="7" horiz-adv-x="907" d="M55 639q0 57 21 147q2 12 41 13h641q25 0 28 -2q6 -2 7 -23q0 -184 -123 -672q-123 -489 -191 -612q-16 -23 -22 -22q-14 0 -60 12q-31 8 -61 14q-25 6 -25 21q0 18 31 65q18 27 98 195q66 135 144 370q47 137 84 308q33 150 32 202q0 29 -49 29q-160 0 -385 -37 q-63 -10 -98 -20q-53 -14 -64 -21q-16 -8 -26 -8q-23 0 -23 41z" />
<glyph unicode="8" horiz-adv-x="1046" d="M111 319q0 55 20 105q22 52 49.5 86t67.5 68q39 33 69 51l58 33q28 15 31 18q-106 63 -175 154q-68 88 -67 188q0 147 106 238q102 88 271 88q137 0 241.5 -86t104.5 -203q0 -68 -27 -123q-29 -61 -63 -96q-49 -49 -74 -68q-49 -37 -64 -43l-26 -12q2 -2 31 -17 q12 -6 29.5 -17t21.5 -13q10 -6 24.5 -15.5l32.5 -21.5q39 -27 62 -51q35 -41 51 -62q29 -39 39 -74q14 -47 14 -84q0 -158 -119 -270t-295 -112q-172 0 -292.5 91.5t-120.5 247.5zM233 330q0 -121 96.5 -197t213.5 -76q113 0 188.5 74t75.5 182q0 18 -4 47q-4 23 -17 46 q-12 20 -20 36q-8 12 -33 35l-39 33q-14 10 -51 33q-14 8 -24.5 15t-15.5 10t-13 7l-64 37l-65 39l-25 -14q-8 -4 -53 -43q-39 -33 -70 -70q-33 -39 -55 -88q-25 -51 -25 -106zM295 1063q0 -53 27 -100q31 -53 65 -86q37 -35 78 -66q14 -10 65 -43l27 -14q2 2 8 5t15 7 q12 4 51 31q35 23 65 57q33 37 52 76q23 49 22 98q0 92 -80 166t-176 74q-121 0 -170 -60q-49 -57 -49 -145z" />
<glyph unicode="9" horiz-adv-x="1052" d="M111 418q0 180 110.5 290.5t274.5 110.5q209 0 327 -149q121 -152 121 -426q0 -199 -80 -377t-221 -287q-143 -111 -315 -110q-51 0 -99 10q-41 8 -57 18t-16 19q0 35 53 34q12 0 43 -6q20 -4 51 -4q115 0 205 60q94 63 147 151q55 94 86 193q31 100 31 192 q-4 -6 -10 -16l-7 -7l-13.5 -13.5t-14.5 -16.5q-27 -31 -55 -47q-35 -20 -82 -35q-55 -16 -107 -16q-113 0 -190.5 45t-114.5 116q-35 68 -51 138q-16 72 -16 133zM262 469q0 -43 12 -98q10 -49 41 -119q29 -70 93 -111q63 -43 155 -43q98 0 153.5 65.5t55.5 158.5 q0 162 -90 299q-88 133 -209 133q-68 0 -139 -74q-72 -76 -72 -211z" />
<glyph unicode=":" horiz-adv-x="538" d="M172 82q0 18 39 55t65 37q23 0 58 -41t35 -57q0 -29 -39 -61.5t-63.5 -32.5t-59.5 38.5t-35 61.5zM172 715q0 27 39 65q35 35 57 35q27 0 64 -37t37 -57q0 -25 -35 -62q-37 -39 -62 -38q-22 0 -61 36q-39 38 -39 58z" />
<glyph unicode=";" horiz-adv-x="538" d="M117 -266q0 12 22 28q16 12 47 29q27 14 50 53q20 35 20 90q0 31 -14 56q-12 23 -29 30q-18 9 -31 19q-14 10 -14 22q0 20 37 59.5t49 39.5t37 -13q23 -12 55 -53q31 -40 31 -98q0 -61 -26.5 -127t-65.5 -105q-63 -63 -138 -63q-30 0 -30 33zM172 715q0 27 39 65 q35 35 57 35q27 0 64 -37t37 -57q0 -25 -35 -62q-37 -39 -62 -38q-22 0 -61 36q-39 38 -39 58z" />
<glyph unicode="&#x3c;" horiz-adv-x="1556" d="M121 477v45l1317 631v-137l-1104 -516l1104 -516v-138z" />
<glyph unicode="=" horiz-adv-x="1603" d="M184 250v121h1237v-121h-1237zM184 592v121h1237v-121h-1237z" />
<glyph unicode="&#x3e;" horiz-adv-x="1556" d="M121 -16l1104 516l-1104 516v137l1317 -631v-45l-1317 -631v138z" />
<glyph unicode="?" horiz-adv-x="811" d="M164 1237q0 31 61.5 80t120.5 49q80 0 211 -129q133 -129 133 -266q0 -94 -57 -160q-51 -61 -131 -131q-84 -74 -121 -117q-41 -47 -41 -94t25 -84q27 -39 47 -57q25 -20 24 -35q0 -27 -30 -27q-47 0 -117 76q-68 74 -68 184q0 80 55.5 149.5t124.5 121.5q76 55 125 114 q55 68 56 136q0 57 -82 112t-183 55q-2 0 -20 -1t-35 -1h-72q-26 0 -26 25zM291 78q0 29 39 61q41 35 61 35q23 0 59.5 -37t36.5 -59q0 -20 -36 -58q-39 -39 -64 -38q-23 0 -59 38q-37 42 -37 58z" />
<glyph unicode="@" horiz-adv-x="1546" d="M131 403q0 238 162 416q160 176 438 176q125 0 207 -88q80 -86 80 -211v-293q0 -78 24 -120q25 -45 107 -66q20 -6 20 -16.5t-20 -22.5q-106 -70 -121 -74q-33 25 -47 39l-31 31q-4 4 -14 17.5l-16 21.5l-29 37q-41 -55 -107 -92q-72 -39 -133 -39q-76 0 -133 39t-57 114 q0 127 119 220q123 94 292 94v162q0 57 -45 114q-47 59 -137 60q-188 0 -305 -152q-115 -147 -115 -354q0 -215 135.5 -368.5t399.5 -153.5q223 0 385 139q158 137 158 405q0 102 -29 195q-27 88 -70 143q-37 49 -82 90l-69 62q-29 25 -29 33q0 23 21 22q14 0 53 -16 q31 -12 84 -60q49 -43 94 -100t75.5 -155.5t30.5 -213.5q0 -305 -194 -465q-197 -162 -463 -161q-305 0 -471 174q-168 177 -168 417zM606 334q0 -106 121 -107q78 0 113 35q33 33 32 80v188q-119 0 -192.5 -61t-73.5 -135z" />
<glyph unicode="A" horiz-adv-x="1484" d="M55 80h25q57 0 76 20q18 23 67 131l133 295l84 189q39 82 45 98q10 23 17.5 37t9.5 22l14 35l209 508h43q125 -328 445 -1098q66 -160 94 -204q20 -33 84 -33h31l-2 -80h-467l2 80h61q90 0 90 24q0 10 -20 64l-152 373h-475l-162 -361q-20 -47 -20 -65q0 -23 14 -29 t70 -6h84v-80h-398zM508 631h401l-194 485z" />
<glyph unicode="B" horiz-adv-x="1140" d="M55 1284l4 82h453q255 0 369 -98q113 -98 112 -238q0 -104 -78 -180q-82 -78 -184 -109q158 -33 236 -145q76 -109 75 -244q0 -147 -92 -231q-88 -80 -227 -101q-135 -20 -361 -20h-290v80h61q53 0 69.5 10t16.5 49v1071q0 49 -22 62q-20 12 -84 12h-58zM381 705l4 -549 q0 -41 24.5 -53.5t108.5 -12.5q330 0 330 277q0 100 -47 172q-46 71 -123 104q-86 39 -150 49q-70 13 -147 13zM385 764h201q96 0 157 78q59 74 60 164q0 100 -86 186q-84 84 -271 84q-61 0 -61 -47v-465z" />
<glyph unicode="C" horiz-adv-x="1507" d="M111 643q0 170 69 320q68 143 178 229q109 84 240 131t254 47q127 0 225 -16q92 -15 135 -31q45 -16 50 -16q25 0 28 10q4 12 4 47v18h78q6 -195 25 -391l-74 -2q-4 37 -6 58q0 8 -1 18t-2 16t-1 11q-4 16 -4 30q0 10 -6 23q0 2 -4.5 6t-4.5 6q-4 10 -14 14q-6 4 -10 5.5 t-8 3.5q-2 0 -5.5 3t-9.5 6t-12 5q-33 14 -37 16q-51 27 -145 45q-98 18 -195 19q-252 0 -412 -166q-162 -168 -161 -406q0 -254 178 -450q176 -195 442 -195q147 0 285 78q139 80 143 133l6 172h72l-12 -299l-29 -18q-8 -4 -76 -41q-55 -29 -120 -55q-53 -23 -148 -41 q-89 -18 -172 -19q-348 0 -547 183q-196 182 -196 493z" />
<glyph unicode="D" horiz-adv-x="1521" d="M55 1366h553q193 0 320 -16q120 -15 221 -74q139 -84 213 -227q72 -141 72 -314q0 -96 -21 -184q-23 -94 -80 -195q-63 -109 -145 -180q-92 -80 -234 -127q-147 -49 -333 -49h-529l-2 80h55q76 0 91 12q16 12 16 78v1040q0 55 -14 64q-16 10 -91 10h-86zM418 174 q0 -65 24 -80q23 -14 150 -14q154 0 270 37q125 39 189 92q72 59 116.5 137t63.5 160q18 80 18 166q0 115 -39 217q-39 100 -116 188q-78 86 -211 140q-135 53 -305 53h-76q-53 0 -68 -17q-16 -20 -16 -79v-1000z" />
<glyph unicode="E" horiz-adv-x="1259" d="M55 1366h1055q2 -156 10 -322l-80 -4q-2 94 -10 154q-6 53 -14 66q-8 14 -25 16q-14 2 -100 2h-348q-80 0 -101 -14q-18 -12 -18 -82v-285q0 -59 8 -70q10 -12 60 -12h309q53 0 65 16q12 15 13 87v77l75 -2v-489h-75v106q0 86 -11 99q-12 16 -63 16h-307 q-49 0 -61.5 -12.5t-12.5 -50.5v-484q0 -55 12.5 -69.5t52.5 -14.5q427 3 504 12q76 8 88 46l1 2l1 2l33 172l70 -11l-51 -317h-1039v80h54q82 0 94 10q14 12 14 68v1038q0 61 -22 74q-25 14 -121 14h-58z" />
<glyph unicode="F" horiz-adv-x="1214" d="M55 1366h1051q2 -156 10 -322l-80 -4q-2 94 -10 154q-6 53 -14 66q-8 14 -25 16q-14 2 -100 2h-348q-80 0 -101 -14q-18 -12 -18 -82v-285q0 -59 8 -70q10 -12 59 -12h310q53 0 65 14.5t12 83.5v80h76v-489h-76v104q0 84 -12 100.5t-61 16.5h-307q-49 0 -61.5 -12.5 t-12.5 -50.5v-484q0 -59 10 -78q12 -20 51 -20h137v-80h-526v80h60q74 0 88 12t14 66v1038q0 66 -25 78q-20 10 -172 10z" />
<glyph unicode="G" horiz-adv-x="1624" d="M111 610q0 193 90 369t270 293q181 117 418 117q186 0 418 -95v103h82l14 -447l-80 -2l-14 213q-12 10 -52 35q-37 25 -147 59q-106 35 -238 35q-143 0 -255.5 -49t-180.5 -131q-68 -83 -104 -184q-37 -102 -37 -217q0 -258 164 -457t436 -199q102 0 194.5 29t124.5 55 l35 29v366h-243l-2 80h565l2 -80h-156v-419l-115 -50q-102 -47 -135 -59q-37 -14 -131 -33q-89 -18 -178 -18q-190 0 -332 53q-145 55 -235 148q-86 88 -133 208q-45 115 -45 248z" />
<glyph unicode="H" horiz-adv-x="1472" d="M55 1284v82h510v-82h-53q-74 0 -96 -16q-20 -14 -21 -74v-389h666v405q0 55 -14 64q-16 10 -93 10h-86l-2 82h520v-82h-57q-70 0 -86 -14.5t-16 -71.5v-1034q0 -55 20 -70q23 -14 103 -14h69l-2 -80h-510l-2 80h60q68 0 82 14.5t14 75.5v537h-666v-537q0 -61 22.5 -75.5 t125.5 -14.5h59l-4 -80h-524l-2 80h53q80 0 90 10q14 14 14 80v1047q0 49 -20 57q-25 10 -100 10h-54z" />
<glyph unicode="I" horiz-adv-x="657" d="M55 1284l2 82h514v-82h-34q-80 0 -105 -14q-20 -12 -20 -80v-1016q0 -66 16 -80t94 -14h80l2 -80h-524l-2 80h53q82 0 98.5 14.5t16.5 75.5v1040q0 55 -15 64q-16 10 -90 10h-86z" />
<glyph unicode="J" horiz-adv-x="622" d="M-156 -430q0 41 47 84q46 43 80 43q31 0 72 -57q39 -55 70 -56q133 0 133 367v1259q0 49 -14.5 61.5t-77.5 12.5h-76v82h491l-4 -82h-65q-57 0 -72 -14q-16 -16 -16 -80v-1194q0 -199 -54 -285q-25 -41 -96 -112q-68 -68 -121 -95q-63 -33 -137 -32q-57 0 -110 32 q-50 31 -50 66z" />
<glyph unicode="K" horiz-adv-x="1488" d="M55 1284v82h512v-82h-65q-59 0 -74 -14q-16 -16 -16 -80v-471l598 485q51 43 51 60q0 20 -94 20h-80l-4 82h491v-82h-53q-63 0 -94 -18q-25 -14 -154 -115l-463 -371l619 -645q53 -55 88 -55h119l-4 -80h-322l-623 684l-75 -61v-449q0 -70 24.5 -82t136.5 -12h45v-80 h-524l-2 80h55q74 0 86.5 12t12.5 78v1040q0 55 -15 64q-16 10 -90 10h-86z" />
<glyph unicode="L" horiz-adv-x="1193" d="M55 1284l2 82h525v-82h-93q-55 0 -71.5 -12t-16.5 -64v-1034q0 -51 12.5 -65.5t55.5 -14.5q420 4 516 21q31 2 43 34.5t41 196.5l72 -4l-68 -342h-989l-2 80h57q74 0 84 10q12 12 13 68v1059q0 43 -23 55q-22 12 -86 12h-72z" />
<glyph unicode="M" horiz-adv-x="1681" d="M76 0v80h20q86 0 103 14q18 14 20 82l19 1000q0 4 1 14t1 16v23q0 37 -11 45q-14 10 -47 10h-104l-2 82h309l467 -1094l459 1094h327v-82h-69q-66 0 -84 -10q-23 -12 -23 -55v-1045q0 -66 16.5 -80t108.5 -14h41l2 -80h-497l-3 80h41q90 0 107 14q18 16 18 76v940 l-315 -743l-125 -310q-20 -51 -26.5 -61t-16.5 -10q-14 0 -80 145l-411 952l-9 -933q0 -51 29 -60q35 -10 176 -10v-80h-442z" />
<glyph unicode="N" horiz-adv-x="1521" d="M55 1366h318l839 -1083v927q0 49 -22.5 61.5t-89.5 12.5h-72l4 82h436v-82h-47q-68 0 -90 -16.5t-22 -73.5v-1180v-22q0 -8 -2 -14.5t-7 -10.5q-2 -2 -10 -2h-28h-9l-4 1l-4 1q-4 0 -6 2t-2 4t-2 4q-4 4 -8 11q-2 2 -5 7t-5 7l-893 1147l10 -975q0 -65 24 -80 q23 -14 127 -14h35v-80h-430v80h62q55 0 71 16q14 14 15 74v1090l-21 24h-160z" />
<glyph unicode="O" horiz-adv-x="1632" d="M111 670q0 178 59 315q61 141 162 229q101 89 227 136q123 45 262 45q184 0 338 -76q158 -78 262 -244q102 -162 103 -393q0 -139 -45 -262t-133.5 -227.5t-225.5 -163.5q-141 -61 -315 -62q-166 0 -303 59.5t-219 159.5q-84 102 -127 226q-45 129 -45 258zM295 737 q0 -168 63 -325q59 -152 195 -254q133 -102 307 -103q201 0 338 150q139 152 139 426q0 309 -170 495q-168 184 -389 185q-76 0 -155.5 -29t-153.5 -88q-80 -63 -127 -180q-47 -115 -47 -277z" />
<glyph unicode="P" horiz-adv-x="1167" d="M55 0v80h64q55 0 63 8q10 10 11 51v1071q0 49 -12.5 61.5t-65.5 12.5h-54l2 82h422q168 0 263 -16q88 -14 157 -72q174 -141 174 -367q0 -152 -112 -262q-114 -111 -320 -110q-25 0 -86 4q-16 2 -78 12q-49 10 -63 12q-43 10 -45 11l-17 4v-443q0 -41 19 -51 q16 -8 121 -8h102v-80h-545zM358 643q51 -39 193 -39q166 0 250 78q86 80 86 233q0 172 -133 271q-131 98 -334 98q-37 0 -49 -16q-12 -14 -13 -78v-547z" />
<glyph unicode="Q" horiz-adv-x="1632" d="M111 670q0 178 59 315q61 141 162 229q101 89 227 136q123 45 262 45q184 0 338 -76q158 -78 262 -244q102 -162 103 -393q0 -215 -103 -385q-100 -168 -266 -252l-129 -47q88 -37 201 -127q125 -100 223 -166q102 -70 170 -70q41 0 63 11q29 12 35 12q18 0 19 -23 q0 -14 -8 -30q-10 -20 -29 -39q-22 -22 -68 -37q-49 -16 -112 -16q-78 0 -164 36.5t-133 71.5q-31 23 -136 113l-49 42.5l-39.5 35t-19.5 16.5q-74 59 -131 98q-39 27 -65.5 35t-69.5 14q-84 10 -92 13q-90 20 -181 73q-94 55 -164 134q-74 82 -118 206q-47 130 -47 269z M295 737q0 -168 63 -325q59 -152 195 -254q133 -102 307 -103q201 0 338 150q139 152 139 426q0 309 -170 495q-168 184 -389 185q-76 0 -155.5 -29t-153.5 -88q-80 -63 -127 -180q-47 -115 -47 -277z" />
<glyph unicode="R" horiz-adv-x="1419" d="M47 1284l2 82h471q166 0 254 -20q94 -23 162 -78q147 -121 147 -287q0 -106 -69 -195q-72 -90 -223 -129l393 -522q45 -55 88 -55h88l4 -80h-297l-438 631h-25q-6 0 -14 -1t-10 -1q-129 0 -187 12v-502q0 -43 21 -51q18 -8 121 -8h104l-4 -80h-545v80h47q68 0 78 8 q12 10 12 51v1071q0 47 -28 60q-33 14 -95 14h-57zM393 709q27 -20 131 -21q186 0 271 64q86 63 86 198q0 147 -113 242q-111 92 -313 92q-37 0 -49 -16q-12 -14 -13 -78v-481z" />
<glyph unicode="S" horiz-adv-x="1056" d="M51 348l72 8l27 -127q16 -70 26 -82t70 -34q123 -45 254 -45q115 0 194 67q78 66 78 180q0 89 -67 154q-70 66 -195 133l-84 47q-109 63 -143 90q-53 41 -98.5 113t-45.5 166q0 156 123 260t285 104q41 0 92 -10q29 -6 78 -20l35 -11q14 0 20 13q8 16 8 26l2 15l70 4 l31 -375l-74 -2l-18 182q-109 82 -279 82q-94 0 -168 -63q-70 -61 -70 -156q0 -88 66 -154q63 -63 190 -133l113 -61q139 -78 217 -160t78 -194q0 -156 -125 -269q-127 -115 -340 -114q-82 0 -155.5 18t-81.5 18q-37 0 -37 -43l2 -26l-70 -6q-9 58 -80 405z" />
<glyph unicode="T" horiz-adv-x="1288" d="M23 1036q18 170 30 330h1182q-12 -154 -16 -213q-6 -106 -9 -115l-73 2q12 141 12 168q0 41 -21 54q-25 14 -84 14h-235q-74 0 -92 -14q-14 -12 -15 -84v-1004q0 -63 21 -78q23 -16 98 -16h82l2 -80l-540 2v78h32q98 0 119 12t21 74v995q0 82 -14.5 98.5t-76.5 16.5h-215 q-27 0 -37 -2t-26 -2q-4 0 -21 -10l-16 -10.5t-10 -18.5q-4 -10 -8 -23q-4 -10 -7 -32q-4 -33 -4 -37q0 -27 -2 -49q0 -10 -1 -30t-3 -28z" />
<glyph unicode="U" horiz-adv-x="1474" d="M55 1284v82h492l2 -82h-78q-63 0 -86 -14q-25 -15 -25 -62v-757q0 -43 5 -66q6 -34 30 -92q25 -57 68 -100q45 -45 127 -78q84 -33 198 -33q125 0 205 27q82 27 127 65.5t66 106.5q25 80 26 122q4 70 5 144v663q0 49 -21 62q-22 12 -92 12h-72l4 82h385v-82h-28 q-47 0 -63.5 -16.5t-16.5 -73.5v-727q0 -504 -525 -504q-317 0 -456 133q-137 131 -137 344v770q0 49 -15 62q-16 12 -69 12h-56z" />
<glyph unicode="V" horiz-adv-x="1558" d="M55 1284v82h514l-2 -82h-108q-49 0 -49 -27q0 -23 28 -96l381 -946l430 989q10 31 11 39q0 18 -14.5 26.5t-35.5 12.5q-12 2 -51 2h-65l-4 82h415l-4 -82h-59q-47 0 -70 -29q-12 -14 -80 -161q-31 -76 -41 -93l-458 -1032h-35l-475 1155q-47 117 -68 138q-23 23 -88 22 h-72z" />
<glyph unicode="W" horiz-adv-x="2127" d="M76 1284v82h454l-2 -82h-45q-121 0 -121 -45q0 -12 5 -22l354 -975l338 864l-15 41q-4 8 -7 19.5t-6 19.5t-5 12q-4 10 -18 39q-12 23 -29 37q-12 10 -37 10h-100v82h487v-82h-108q-34 0 -43 -6q-10 -6 -10.5 -26.5t36.5 -131.5l299 -872l365 956q8 25 8 35q0 28 -25 37 q-23 8 -75 8h-54v82h351l2 -82h-25q-51 0 -65 -20q-18 -27 -54 -121l-452 -1176h-35l-348 1024l-398 -1022h-32l-435 1186q-31 82 -55 107q-23 23 -65 22h-35z" />
<glyph unicode="X" horiz-adv-x="1554" d="M55 0v80q12 0 29.5 1t21.5 1h35q18 0 31 6l21 10q9 3 24 19l13.5 14l9.5 10l32 37q33 37 39 43l391 443l-403 510q-68 84 -90 98q-20 12 -119 12v82h520v-82h-55q-43 0 -68 -4q-18 -2 -18 -16q0 -18 74 -121l266 -357l274 310q70 80 101 121q18 25 18 40q0 27 -96 27h-57 l2 82h438v-82q-98 0 -119 -10q-25 -12 -90 -84l-420 -463l262 -334q172 -221 224 -268q47 -45 118 -45h35l2 -80h-528v80h49q102 0 102 26q0 14 -84 123l-288 371l-369 -426q-47 -53 -47 -73.5t82 -20.5h74v-80h-437z" />
<glyph unicode="Y" horiz-adv-x="1347" d="M76 1284l2 82h459v-82h-41q-66 0 -82 -4q-25 -6 -25 -23q0 -10 37 -71l293 -461l358 508q12 22 13 24q0 27 -134 27h-32l-2 82h372v-82h-10q-51 0 -72 -12q-23 -12 -65 -74l-399 -577v-447q0 -63 16 -80q14 -14 104 -14h93l-3 -80h-575l2 80h82q78 0 96.5 12t18.5 78v467 l-336 522q-61 95 -80 111q-16 14 -90 14z" />
<glyph unicode="Z" horiz-adv-x="1357" d="M55 41q0 8 13 27q8 12 43 51l26 28.5t15 16.5l919 1040h-835q-40 0 -50 -18q-8 -18 -18 -115q0 -2 -1 -6t-2 -11t-1 -14q-4 -33 -4 -41l-82 5q28 224 31 362h1116q63 0 63 -20q0 -4 -8 -21q-4 -8 -16 -29q-4 -6 -21 -28l-16 -23l-10 -10l-932 -1065h811q83 0 92 12 q16 20 39 178l78 -2q0 -6 -2.5 -21t-5.5 -43t-7 -56q-20 -158 -26 -238h-1164q-45 0 -45 41z" />
<glyph unicode="[" horiz-adv-x="665" d="M180 -473v1919h453v-62h-326v-1798h326v-59h-453z" />
<glyph unicode="\" horiz-adv-x="903" d="M76 1446h96l698 -1919h-96z" />
<glyph unicode="]" horiz-adv-x="665" d="M35 -414h325v1798h-325v62h452v-1919h-452v59z" />
<glyph unicode="^" horiz-adv-x="829" d="M82 678l321 655h25l322 -655h-129l-205 434l-205 -434h-129z" />
<glyph unicode="_" horiz-adv-x="460" d="M41 -121h381v-88h-381v88z" />
<glyph unicode="`" horiz-adv-x="796" d="M195 1290h143l106 -332h-73z" />
<glyph unicode="a" horiz-adv-x="776" d="M55 133q0 127 119 219q123 94 293 94v123q0 72 -24.5 109t-112.5 37q-135 -4 -166 -64q4 -20 8 -33l5 -21l3 -13q4 -16 4 -23q0 -25 -24 -39q-23 -14 -41 -14q-47 0 -47 74q0 27 14 57q16 37 51 74q39 43 115 69q80 29 178 29q33 0 49 -4q27 -6 57.5 -20.5t53.5 -53.5 q20 -35 20 -86v-383q0 -74 27 -121q25 -43 106 -65q18 -6 19 -17q0 -12 -19 -22q-101 -68 -122 -74q-33 25 -48 39l-30 31l-31 37q-6 6 -12 15t-10.5 14t-6.5 8q-35 -49 -108 -93q-66 -39 -131 -39q-74 0 -131.5 39t-57.5 117zM199 193q0 -43 30.5 -74t92.5 -31q78 0 112 35 q33 33 33 78v190q-119 0 -193 -61q-75 -63 -75 -137z" />
<glyph unicode="b" horiz-adv-x="1032" d="M25 1423q82 14 294 58v-793q4 0 27 21l47 34q27 20 56 35q39 20 73 29q47 10 86 10q182 0 278.5 -112.5t96.5 -270.5q0 -176 -115 -315q-113 -137 -307 -137q-83 0 -178 30l-96 31q-18 0 -47 -23q-31 -25 -47 -24q-23 0 -23 47v43q0 16 4 98q2 41 2 133v1004q0 61 -29 61 q-10 0 -116 -22zM319 201q0 -66 68 -107q66 -39 152 -39q51 0 96 13q47 12 92 41q49 31 80 94q29 59 29 157q0 109 -35 189q-33 74 -88.5 106.5t-89.5 40.5q-41 10 -68 11q-143 0 -236 -76v-430z" />
<glyph unicode="c" horiz-adv-x="823" d="M49 373q0 180 101 313q101 135 276 135q63 0 129 -16q57 -14 100 -41t62 -45q23 -23 22 -33q0 -27 -49 -45q-43 -16 -76 -16q-31 0 -102.5 57t-122.5 57q-74 0 -119 -57t-61 -127q-14 -63 -14 -133q0 -172 92 -248q94 -78 207 -78q83 0 141 12.5t86 24.5t37 12 q16 0 16 -18q0 -37 -112 -96q-109 -57 -228 -58q-109 0 -190 35q-78 33 -119 96q-43 66 -59 125q-17 58 -17 144z" />
<glyph unicode="d" horiz-adv-x="1046" d="M49 379q0 178 123 303q123 127 279 127q154 -4 264 -90v610q0 57 -29 57q-6 0 -135 -26l-4 63q106 18 311 74v-1354q0 -47 4 -71q2 -16 23 -17q9 0 24 6q2 0 47 15l28 7t30 9v-55l-295 -90q0 12 1 42.5t1 47.5v59q0 29 -2 33v-2q-94 -119 -238 -145q-34 -6 -67 -7 q-152 0 -258.5 113t-106.5 291zM199 451q0 -145 88 -252t233 -107q55 0 103 21q51 23 69 41l23 20v440q-6 10 -31 35q-27 27 -90 60q-70 37 -143 36q-104 0 -178 -83.5t-74 -210.5z" />
<glyph unicode="e" horiz-adv-x="843" d="M49 375q0 199 103 319q104 123 260 123q152 0 246 -94t94 -168q0 -14 -10.5 -22.5t-22.5 -8.5l-514 -61v-12q0 -4 -1 -9.5t-1 -7.5q0 -152 86 -237q84 -84 217 -84q72 0 131 24q63 27 94 47q37 25 47 25q18 0 19 -25q0 -27 -45 -71q-49 -49 -136 -93q-94 -47 -192 -47 q-102 0 -178 39q-80 41 -119 105q-43 70 -59 127q-19 63 -19 131zM209 535l352 45q0 2 -2 8t-4 10q-2 2 -9 15.5t-14 25.5q-16 31 -32 51q-16 18 -49 39q-31 18 -60 19q-63 0 -115 -58q-53 -59 -67 -155z" />
<glyph unicode="f" horiz-adv-x="581" d="M35 705l24 98h125v221q0 55 2 76q6 51 13 82q10 47 32 94q14 33 60 84q41 47 94 80q70 43 170 43q68 0 113 -18.5t45 -55.5q0 -29 -39 -80q-41 -53 -68 -53q-15 0 -31 31q-16 35 -38 61q-25 31 -56 31q-53 0 -86 -39q-35 -41 -47 -105q-14 -74 -16 -104q-4 -53 -4 -78 v-270h229l-22 -98h-207v-578q0 -41 18 -51q20 -10 111 -10h28l-2 -66h-426l-2 66h43q53 0 69.5 10t16.5 45v584h-149z" />
<glyph unicode="g" horiz-adv-x="911" d="M-16 -313q0 162 211 247l73 25q-14 0 -22 2q-4 0 -19.5 5l-27.5 9q-23 6 -60 23q-27 12 -47 35q-23 27 -22 53q0 90 163 139l27 6q-2 0 -9 2.5t-11 4.5q-10 4 -47 28q-27 16 -58 51q-27 31 -47 80t-20 113q0 125 98 217t225 92q90 0 164 -43q70 -41 135 -41q35 0 58 8 q27 10 30 15q10 10 19 24l10 23h43v-51q0 -74 -12.5 -92.5t-69.5 -18.5h-33q-55 0 -55 -6t12.5 -20.5t24.5 -47.5q10 -25 10 -73q0 -119 -94 -201q-96 -84 -242 -84q-83 0 -129 -18q-47 -18 -47 -56q0 -16 10 -31q8 -10 33 -14q2 0 17.5 -3t23.5 -3h49h8h68q16 0 40.5 1 t31.5 1q373 0 372 -229q0 -152 -157 -275t-394 -123q-131 0 -231 58q-102 59 -102 168zM141 -289q0 -70 60 -112q58 -43 178 -43q133 0 239.5 65.5t106.5 181.5q0 152 -256 152q-139 0 -233.5 -78t-94.5 -166zM238 524q0 -119 51 -184.5t119 -65.5q59 0 102 55.5t43 159.5 q0 119 -49 186.5t-119 67.5q-61 0 -104 -57q-43 -60 -43 -162z" />
<glyph unicode="h" horiz-adv-x="948" d="M37 66h22q51 0 76 8q18 6 19 39v1216q0 61 -33 62q-10 0 -84 -13v72q66 6 260 37v-830q2 0 25 21q8 6 36 29q6 4 9.5 6t10.5 8l17 14q35 25 47 29l47 22q31 12 54 19q18 4 55 4q55 0 94 -21q41 -23 58 -47q23 -35 30 -77q10 -53 13 -89q2 -25 2 -96v-354q0 -40 12 -49 q14 -10 76 -10h32v-66h-393l-2 66h33q59 0 80 10q18 10 18 47v416q0 82 -43 118.5t-96 36.5q-101 0 -215 -98v-483q0 -29 20 -39q16 -8 84 -8h37l-2 -66h-397z" />
<glyph unicode="i" horiz-adv-x="540" d="M55 770q151 25 289 61v-710q0 -35 18 -45q20 -10 109 -10h37v-66h-445v66h19q80 0 98 8q20 8 21 39v546q0 39 -6 52q-6 14 -25 14q-25 0 -113 -16zM209 1217q0 25 32.5 55.5t53 30.5t53.5 -33q35 -35 35 -55.5t-35 -55.5t-53 -35q-27 0 -57 37q-29 36 -29 56z" />
<glyph unicode="j" horiz-adv-x="507" d="M-135 -455q0 33 39 68q35 33 71 33q12 0 54 -43q41 -45 57 -45q94 0 94 278v801q0 35 -2 45q-2 14 -12 27q-9 12 -31 12q-8 0 -90 -19l-10 62q53 8 289 63v-925q0 -158 -29 -238q-27 -76 -86 -119q-98 -80 -184 -80q-51 0 -105 27q-55 28 -55 53zM156 1217 q0 25 32.5 55.5t53 30.5t53.5 -33q35 -35 35 -55.5t-35 -55.5t-53 -35q-25 0 -55.5 37.5t-30.5 55.5z" />
<glyph unicode="k" horiz-adv-x="964" d="M35 1432l266 53v-1075l375 305q14 12 14 18q0 14 -43 15h-61v55h329l-2 -55h-30q-55 0 -113 -46l-291 -231l305 -356q2 -2 15 -19q6 -8 12 -14l4 -3q4 -3 6 -5q6 -6 13 -6h18q2 0 10 -1t15 -1h55l-2 -66h-242l-319 393l-72 -55v-221q0 -34 18 -43q16 -8 88 -8h56l2 -66 h-420v66h22q70 0 82.5 6t12.5 39v1177q0 57 -6 76q-6 20 -25 20q-16 0 -88 -18z" />
<glyph unicode="l" horiz-adv-x="534" d="M35 1440q141 20 301 47v-1366q0 -35 24 -45q27 -10 107 -10h35v-66h-447v66h45q53 0 74 10q18 10 19 45v1167q0 66 -6.5 84.5t-30.5 18.5q-23 0 -117 -21z" />
<glyph unicode="m" horiz-adv-x="1413" d="M35 705v63l287 57q-4 -94 -5 -149q2 0 6.5 4t14.5 11t18 14q23 16 68 45q41 25 84 41q52 18 98 18q41 0 76 -18.5t51 -42.5q16 -23 23 -41l10 -29q174 131 285 131q66 0 108 -25q41 -23 60 -69q14 -37 22 -84q6 -37 6 -92v-422q0 -37 17 -43q25 -8 96 -8h20v-66h-397v66 q78 0 102 8q18 6 19 41v424q0 90 -28.5 122.5t-96.5 32.5q-53 0 -107 -18q-55 -18 -73 -33l-23 -16q8 -57 8 -148v-379q0 -29 15 -30q20 -4 88 -4h18v-66h-389l-2 66h25q63 0 82 6q20 6 20 26v441q0 156 -129 155q-96 0 -190 -65v-518q0 -31 16 -37q20 -8 92 -8h10v-66h-399 l-2 66h57q51 0 66 8q16 10 16 37v505v54q0 12 -4 32q-2 14 -10 18.5t-19 4.5z" />
<glyph unicode="n" horiz-adv-x="946" d="M35 66h20q66 0 80 10q12 10 12 59v488q0 66 -6 84t-24 18l-8 -2q-8 -2 -29 -6l-41 -8v63l252 51q-6 -74 -6 -145l6 5q6 5 19.5 14.5l27.5 19.5q49 37 115 63q70 29 141 29q49 0 82 -12q35 -12 55 -39q16 -23 33 -53q10 -18 16 -70q6 -46 6 -74q0 -8 1 -34.5t1 -47.5v-352 q0 -41 23 -51q25 -10 102 -10l-2 -66h-381l-2 66h47q43 0 58 10q12 10 12 51v412q0 88 -31 120q-31 35 -102 35q-39 0 -98 -16q-57 -16 -88 -33l-35 -16v-494q0 -49 16.5 -59t106.5 -10h26l-4 -66h-399z" />
<glyph unicode="o" horiz-adv-x="935" d="M51 399q0 176 103 297q106 125 303 125q100 0 176 -30q86 -35 125 -74q45 -45 76 -107q27 -53 40 -118q12 -55 13 -115q0 -174 -117 -291t-309 -117q-195 0 -303 129q-107 127 -107 301zM215 449q0 -152 78 -277q76 -123 194 -123q117 0 172.5 96.5t55.5 237.5 q0 180 -78 272q-80 96 -199 97q-95 0 -159 -80q-64 -78 -64 -223z" />
<glyph unicode="p" horiz-adv-x="1003" d="M29 -465q98 0 116 8q23 10 23 41v1069q0 57 -33 58q-14 0 -22 -2l-33 -9q-20 -6 -37 -10l-2 66q74 14 270 67v-168q25 25 45 41q39 31 111 70q76 41 149 41q143 0 241.5 -117t98.5 -278q0 -188 -108 -314q-108 -123 -283 -123l-254 35v-424q0 -34 31 -43q27 -8 131 -8h31 l-2 -65h-471zM311 113q102 -70 248 -70q90 0 154 57q61 55 80 119q18 61 18 127q0 139 -84 239.5t-203 100.5q-18 0 -47 -4q-23 -4 -41 -12q-8 -4 -21.5 -9.5t-15.5 -5.5q-18 -8 -32 -18q-15 -12 -25 -19q-2 -2 -7 -8t-11 -10q-8 -8 -13 -8v-479z" />
<glyph unicode="q" horiz-adv-x="983" d="M49 377q0 197 139 319q135 121 314 121q63 0 125 -18q63 -18 102 -37q41 -18 47 -19q41 0 47 68h41q-18 -393 -18 -541v-651q0 -59 16 -72q14 -12 96 -12h37v-65h-516l-6 65h72q96 0 126.5 12.5t30.5 57.5v514q-2 -2 -12 -9.5t-28 -19.5q-10 -8 -44 -33q-6 -4 -43 -26 q-33 -20 -49 -25l-51 -12q-41 -8 -61 -8q-168 0 -266.5 116.5t-98.5 274.5zM190 455q0 -137 97 -240q98 -104 217 -104q23 0 59 8q35 8 47 16q25 16 37 27q23 18 29 26l16 23l10 10v445q-102 76 -217 75q-141 0 -219 -92q-76 -90 -76 -194z" />
<glyph unicode="r" horiz-adv-x="698" d="M35 764q113 23 299 67v-231l10 18q2 6 6 12.5t9.5 13.5t7.5 13q10 16 34 50q22 28 43 49q18 18 52 37q29 16 57 16q33 0 65 -14q28 -12 37 -25l11 -12l-78 -203l-33 12v27q0 47 -49 47q-53 0 -110.5 -45t-57.5 -100v-346q0 -57 20 -70q25 -14 109 -14h88v-66h-489v66h38 q59 0 76 12q14 12 15 72v499q0 47 -5 58q-6 16 -24 16q-2 0 -14.5 -2t-46 -8t-64.5 -13z" />
<glyph unicode="s" horiz-adv-x="708" d="M45 289l64 4l20 -170q109 -80 225 -80q57 0 88 37t31 80q0 33 -22 67q-20 33 -45 51.5t-74 51.5l-74 49q-154 101 -154 227q0 84 72 144q74 61 178 61q59 0 119 -18l59 -19q18 0 19 62l65 -2v-310h-65l-2 146q-66 68 -193 67q-41 0 -80 -28q-37 -29 -36 -70q0 -27 20 -57 q18 -29 33 -37l59 -43l92 -62q58 -40 93 -67q37 -29 61 -72q27 -45 27 -96q0 -96 -70 -164q-71 -68 -197 -68q-43 0 -88 7q-18 2 -77 14q-31 6 -35 6q-18 0 -19 -27v-10q0 -2 1 -6l1 -4l-59 -4z" />
<glyph unicode="t" horiz-adv-x="645" d="M45 707q0 4 16 26q10 14 54 58q23 23 47 53l57 69l55 68q18 25 25 25q12 0 12 -15v-203h277l-13 -98h-264v-477q0 -121 138 -121q35 0 71 10q34 9 55 19q6 2 11.5 5t8.5 4l3 1q14 0 14 -20q0 -43 -81.5 -88.5t-161.5 -45.5q-104 0 -152 60q-49 61 -49 160v493h-98 q-25 1 -25 17z" />
<glyph unicode="u" horiz-adv-x="944" d="M35 731v62q168 16 250 30v-512q0 -109 32.5 -162t137.5 -53q61 0 106 19q47 18 64 41l14 18v500q0 41 -8 51t-33 10q-80 0 -90 -10l-6 63q141 10 280 35v-596q0 -113 6.5 -137t30.5 -24q8 0 92 22v-65q-31 -6 -252 -66q-2 57 -14 145l-37 -36q-29 -25 -94 -60 q-72 -37 -131 -37q-76 0 -125 24.5t-74 74.5q-25 51 -34 100q-8 43 -9 115v403q0 33 -8 41q-10 10 -31 10l-32 -4q-17 -2 -35 -2z" />
<glyph unicode="v" horiz-adv-x="942" d="M35 737v66h368l-2 -66h-28q-37 0 -53.5 -6t-16.5 -22q0 -10 23 -72l182 -434q51 123 174 387q41 92 41 117q0 10 -4 18q-2 4 -19 8q-10 2 -26 2q-2 0 -16.5 1t-24.5 1h-6v66h282v-66h-12q-49 0 -70 -32q-25 -39 -102 -209l-240 -533l-28 2l-289 662q-33 78 -55 96 q-17 14 -78 14z" />
<glyph unicode="w" horiz-adv-x="1613" d="M35 737v66h430l-2 -66h-62q-61 0 -61 -35q0 -18 20 -65l191 -444l217 473q-18 49 -39 59q-22 12 -67 12h-76l-4 66h442v-66q-66 0 -88 -6q-20 -6 -21 -24q0 -10 19 -60l190 -452l219 462q16 39 17 52q0 29 -90 28h-53v66h362l2 -66q-47 0 -59 -2q-18 -3 -43 -18 q-23 -14 -39 -47l-340 -705l-45 2l-248 611l-277 -615l-43 2l-284 662q-39 86 -51 96q-21 14 -117 14z" />
<glyph unicode="x" horiz-adv-x="1064" d="M35 0l2 66h16q49 0 76 12q29 12 76 57l258 258l-264 281l-20.5 21.5t-16.5 17.5q-6 4 -37 16q-23 8 -64 8v66h445v-66h-41q-96 0 -96 -22q0 -12 22 -41l160 -185l164 173q39 41 39 55q0 20 -92 20v66h360v-66q-92 0 -115 -8q-27 -10 -76 -59l-231 -230l285 -301 q51 -51 71 -63q16 -10 68 -10h6v-66h-414v66q104 0 105 24q0 8 -41 55l-170 199l-205 -217q-27 -27 -26 -41q0 -20 96 -20h49v-66h-389z" />
<glyph unicode="y" horiz-adv-x="958" d="M14 -438q0 86 78 86q10 0 26.5 -2t33.5 -2q61 0 225 313l61 119l-256 551q-2 4 -7 16t-7 18.5t-5 12.5t-6 9t-3 5t-4.5 8t-6.5 11q-6 14 -12 16l-12 6q-6 6 -21 6h-24q-4 0 -15.5 1t-19.5 1l-4 66h391l-4 -66h-35q-40 0 -55 -6q-16 -6 -17 -22q0 -10 25 -72l174 -391 l129 291q68 151 68 172q0 16 -18.5 22t-71.5 6h-29v66h334v-66h-49h-21q-6 0 -18 -4l-13 -4q-4 0 -10 -6l-8 -8q-2 -2 -8 -15q-2 -4 -6.5 -10t-4.5 -8t-3 -10t-7 -15q-8 -16 -12 -28l-311 -688q-88 -188 -133 -269q-61 -109 -101 -143q-43 -40 -67 -49q-27 -10 -58 -10 q-39 0 -59 26q-23 29 -23 66z" />
<glyph unicode="z" horiz-adv-x="899" d="M49 20q0 16 57 76l531 574h-418q-51 0 -63 -17q-10 -12 -23 -112l-53 2l33 291h51q0 -29 6 -35t39 -6h551q70 0 69 -15q0 -6 -10 -16l-31 -31q-27 -27 -36 -41l-519 -565h439q57 0 69 27q14 31 23 157h67q0 -6 -3 -49t-7 -82q-9 -101 -12 -178h-700q-60 0 -60 20z" />
<glyph unicode="{" horiz-adv-x="573" d="M35 471v39l26 4q20 2 27 6q2 0 9 2l14 4q20 6 24 11l19 18q16 16 18 23q4 20 12 34q9 18 13 43q4 33 6 53.5t2 71.5q0 61 -2 117q-4 111 -4 133q0 184 82 299q84 117 260 117v-60q-68 0 -115 -28q-45 -27 -64 -82q-23 -66 -26 -107q-6 -51 -6 -127q0 -59 6 -155 q4 -63 4 -139q0 -205 -137 -256q135 -53 135 -259q0 -10 -4 -137t-4 -155q0 -45 4 -103q4 -59 12 -94q12 -55 33 -84q20 -31 63 -53q39 -20 99 -21v-59q-342 0 -342 424q0 20 4 131t4 119q0 41 -4 98q-2 39 -17 70q-4 10 -8 17t-6 12t-6 14q-10 20 -29 30q-16 10 -31 15 l-36 8q-8 2 -16.5 3t-12.5 2t-6 1z" />
<glyph unicode="|" horiz-adv-x="448" d="M180 -473v1919h90v-1919h-90z" />
<glyph unicode="}" horiz-adv-x="573" d="M35 -414q59 0 98 20.5t61.5 53.5t34.5 84q14 59 17 92q2 29 2 105q0 92 -4 155q-6 96 -6 137q0 207 137 259q-137 51 -137 256q0 12 4 139t4 155q0 76 -6 127q-4 41 -27 107q-18 55 -63 82q-47 29 -115 28v60q178 0 262 -117q82 -115 82 -299q0 -23 -4 -133.5t-4 -116.5 q0 -53 2 -75q2 -33 10 -62q8 -33 10 -45q3 -18 19 -31q8 -6 18 -22q6 -8 27 -15q23 -6 24.5 -8t30.5 -8q18 -4 29 -4v-39q-2 0 -6.5 -1t-12.5 -2t-16 -3l-37 -8l-29 -15q-25 -14 -30 -30q-4 -6 -8.5 -17.5t-10.5 -25.5q-14 -31 -16 -70q-4 -57 -4 -98q0 -8 4 -119t4 -131 q0 -424 -344 -424v59z" />
<glyph unicode="~" horiz-adv-x="2037" d="M123 457q4 18 10 51q6 31 43 110q37 82 84 140q53 66 137 112q90 49 199 50q125 0 260 -58q137 -57 238 -125q104 -70 225 -127t221 -57t176 90q82 96 107 182l28 93l66 -13q0 -6 -8 -33q-14 -49 -23 -67l-37 -90q-20 -51 -57 -97q-35 -43 -84 -86q-45 -39 -112.5 -63.5 t-145.5 -24.5q-127 0 -268 56q-135 53 -241.5 120.5t-227.5 120.5q-127 55 -230 56q-180 0 -266 -242q-18 -51 -29 -113z" />
<glyph unicode="&#xa1;" horiz-adv-x="622" d="M225 1249q0 23 33 55.5t55 32.5q16 0 51 -34.5t35 -55.5q0 -18 -34 -53q-33 -33 -52 -33q-27 0 -57 33q-31 33 -31 55zM236 2q2 113 28 401q23 258 27 394q0 8 1 26.5t1 28.5v45q0 6 1 18.5t1 20.5q0 25 2 31q2 4 2 10t2 10q4 10 10 14q8 4 16.5 4.5t14.5 -6.5 q4 -4 8 -16l6 -18q2 -6 2 -21l2 -10q37 -459 37 -887q0 -35 -53 -51q-55 -16 -81.5 -16.5t-26.5 22.5z" />
<glyph unicode="&#xa2;" horiz-adv-x="872" d="M49 449q0 178 112.5 311t315.5 133l148 592l82 -10l-170 -588q109 -18 182.5 -80t73.5 -143q0 -49 -35 -89q-34 -37 -86 -36q-43 0 -76 28.5t-33 67.5t39 76q41 37 41 49q0 23 -37 45q-37 20 -84 24l-196 -723q68 -61 166 -61q168 0 286 166l2 2l45 -43l-2 -3 q-2 -3 -6 -7t-8 -10q-6 -6 -17.5 -18.5t-17.5 -18.5q-14 -16 -53 -45q-23 -16 -68 -45q-35 -23 -84 -35.5t-100 -12.5q-88 0 -168 37l-106 -426l-72 19l127 436q-201 127 -201 408zM213 436q0 -175 68 -276l178 663q-117 -23 -180 -129q-66 -108 -66 -258z" />
<glyph unicode="&#xa3;" horiz-adv-x="888" d="M35 47q0 47 35 80q39 35 102 66q53 25 74 38q43 47 43 211v9q0 4 -1 6t-2 6t-1 10q-2 10 -2 29h-228v80h219q-18 188 -18 225q0 264 106 407q102 139 271 140q90 0 155 -54q68 -55 68 -133q0 -41 -25 -69q-25 -27 -53 -27q-68 0 -86 100q-10 47 -14 58q-6 16 -29 37 q-25 20 -63 20q-63 0 -111 -53q-51 -57 -51 -172q0 -2 1 -17.5t1 -42v-57.5v-209q0 -68 -10 -153h243v-80h-256q-15 -71 -36.5 -135.5t-36.5 -92.5l-17 -28q9 6 25 6q57 0 113 -33q52 -31 86 -67q39 -43 71 -68q43 -33 76 -33t53.5 26.5t20.5 63.5q0 33 -41 78t-41 76 q0 29 18 53q16 23 45 23q47 0 78 -54q33 -55 33 -116q0 -94 -68 -162q-70 -70 -176 -70q-41 0 -65 8q-31 10 -52 29q-37 33 -38 35l-37 47l-35 49q-51 63 -82 64q-23 0 -41 -35q-23 -43 -35 -80q-14 -41 -45 -78q-29 -35 -72 -35q-33 0 -51 21q-18 22 -18 53z" />
<glyph unicode="&#xa4;" horiz-adv-x="1064" d="M35 90q0 25 37 62l139 141q-80 104 -80 244q0 133 78 239l-137 142q-37 37 -37 61.5t16 40.5q14 14 37 14q27 0 64 -37l141 -141q108 80 239 80q135 0 242 -80l141 141q35 35 62 35q25 0 41 -16q14 -14 14 -37q0 -25 -37 -61l-141 -144q84 -115 84 -242q0 -125 -84 -237 l141 -143q37 -37 37 -61.5t-18 -39.5q-20 -16 -37 -16q-25 0 -62 37l-141 141q-106 -80 -242 -80q-133 0 -239 78l-141 -139q-35 -35 -64 -35q-23 0 -39 16q-14 14 -14 37zM248 532q0 -119 84 -202.5t200 -83.5q115 0 201 86t86 203q0 119 -86 204q-88 88 -201 88 q-119 0 -202 -88q-82 -84 -82 -207z" />
<glyph unicode="&#xa5;" horiz-adv-x="1306" d="M55 1284l2 82h459v-82h-51q-96 0 -96 -27q0 -12 69 -122l260 -410l359 508q12 22 12 24q0 27 -133 27h-33l-2 82h373v-82h-10q-47 0 -72 -14q-23 -12 -66 -72l-274 -395h219l-24 -98h-277l-43 -70v-133h344l-24 -99h-320v-229q0 -65 18 -80q16 -14 101 -14h94l-2 -80 h-576l3 80h81q78 0 96.5 12t18.5 78v233h-323l24 99h299v149l-31 54h-292l24 98h193l-230 356q-61 95 -80 111q-16 14 -90 14z" />
<glyph unicode="&#xa6;" horiz-adv-x="448" d="M180 295h90v-768h-90v768zM180 678v768h90v-768h-90z" />
<glyph unicode="&#xa7;" horiz-adv-x="917" d="M111 604q0 119 59 174.5t137 55.5q2 0 6 -1.5t9 -1.5h12q0 4 -17 21q-23 23 -41 49q-8 10 -45 72q-23 37 -38 94q-16 59 -17 107q0 131 78 198q74 66 184 66q120 0 191 -62q70 -61 69 -139q0 -115 -102 -115q-47 0 -88 27q-43 28 -43 61q0 18 24 58q23 37 23 55 q0 20 -16 33q-18 14 -43 14q-174 0 -174 -164q0 -63 55 -131q68 -82 133 -135q68 -53 156 -139q72 -70 131 -174q55 -98 55 -209q0 -135 -51 -186.5t-125 -51.5q-12 0 -70 10q201 -188 201 -368q0 -123 -82 -187q-84 -66 -197 -65q-119 0 -204 68q-88 70 -88 180 q0 66 34 110q33 41 86 41q25 0 70 -32.5t45 -67.5q0 -23 -41 -74q-39 -47 -39 -74q0 -33 33 -61q29 -27 108 -27q61 0 117 43t56 109q0 76 -50 139q-51 68 -163 162q-119 98 -160 143q-178 185 -178 375zM203 682q0 -72 82 -188q78 -113 180 -195q98 -80 153 -80q47 0 78 25 q33 27 33 69q0 72 -86 193q-88 123 -176 205q-92 86 -123 86q-63 0 -102 -33t-39 -82z" />
<glyph unicode="&#xa8;" horiz-adv-x="796" d="M170 1124q0 18 37 54q35 33 51 32q25 0 55.5 -36.5t30.5 -55.5q0 -25 -35 -55q-34 -31 -55 -31q-18 0 -51 32.5t-33 59.5zM469 1124q0 18 37 54q35 33 53 32q25 0 55 -36q29 -35 29 -56q0 -25 -35 -55q-34 -31 -55 -31q-18 0 -51 32.5t-33 59.5z" />
<glyph unicode="&#xa9;" horiz-adv-x="1652" d="M90 485q0 305 215 525q215 217 533 217q309 0 518 -217q209 -219 209 -524.5t-207 -528.5q-205 -219 -522 -219q-328 0 -537 213q-209 211 -209 534zM180 485q0 -283 186.5 -475t471.5 -192q262 0 450 194q186 193 187 477q0 268 -181 461q-182 195 -458 195 q-274 0 -465 -195q-191 -193 -191 -465zM334 463q0 158 82 274q82 115 190 164q111 49 228 49q80 0 147 -12q74 -12 102 -27q8 -4 31 -13t35 -15l31 -15v-143q0 -33 -6 -33q-4 0 -29 27l-58 59q-31 31 -100 60q-66 27 -149 26q-162 0 -264.5 -114.5t-102.5 -266.5 q0 -162 115 -288q113 -125 284 -125q63 0 129 20q57 18 93 47q37 31 59 56q14 16 35 47q14 20 16 20q4 0 4 -35v-112q-6 -6 -43 -35q-27 -20 -125 -55t-202 -35q-231 0 -366.5 139t-135.5 336z" />
<glyph unicode="&#xaa;" horiz-adv-x="784" d="M90 948q0 102 103 176q104 76 247 76v98q0 55 -22.5 84t-91.5 29q-115 0 -140 -49q3 -9 7 -25q2 -8 5 -15t3 -11q2 -6 2 -19q0 -18 -21 -30q-22 -12 -37 -13q-41 0 -41 60q0 18 13 45q8 18 45 59q33 37 96 57q68 23 154 23q31 0 61 -6q27 -6 62 -37q33 -31 32 -88v-309 q0 -57 23 -97q20 -37 90 -55q16 -4 16 -12t-16 -19q-78 -47 -105 -59q-31 20 -47 37q-10 10 -39 47q-14 18 -32 37q-35 -47 -92 -78q-61 -33 -113 -33q-66 0 -113 33q-49 35 -49 94zM217 997q0 -82 100 -82q68 0 95 27q29 29 28 62v149q-100 0 -161.5 -49.5t-61.5 -106.5z " />
<glyph unicode="&#xab;" horiz-adv-x="776" d="M82 442l311 273l33 -37l-190 -236l190 -233l-33 -39zM352 442l312 273l32 -37l-190 -236l190 -233l-32 -39z" />
<glyph unicode="&#xac;" horiz-adv-x="1472" d="M164 422v119h1147v-609h-121v490h-1026z" />
<glyph unicode="&#xad;" horiz-adv-x="643" d="M70 494v122l505 150v-125z" />
<glyph unicode="&#xae;" horiz-adv-x="1024" d="M90 1118q0 180 123 305q123 127 299 127q178 0 301 -127q123 -125 123 -305q0 -184 -115 -305q-117 -123 -309 -123q-176 0 -299 125q-123 127 -123 303zM154 1116q0 -154 106 -258q108 -104 258 -104q158 0 256 104.5t98 257.5q0 156 -104 266.5t-250 110.5 q-151 0 -258 -111q-106 -108 -106 -266zM297 1348l2 49h168q111 0 158 -37q55 -43 55 -113q0 -88 -98 -121l133 -176q12 -16 24 -16h21l2 -49h-103l-157 225h-13h-36h-10.5t-7.5 1l-3 1v-170q0 -8 2 -8h19h39l-3 -49h-186v49h21q29 0 28 6v391q0 16 -26 17h-29zM432 1155 q6 -2 37 -2q72 0 94 21q25 23 25 63q0 49 -37 80t-107 31q-6 0 -10 -5q-2 -2 -2 -20v-168z" />
<glyph unicode="&#xaf;" horiz-adv-x="796" d="M176 1065v98h471v-98h-471z" />
<glyph unicode="&#xb0;" horiz-adv-x="673" d="M90 1245.5q0 102.5 74 175.5q72 72 174 72t174 -72q74 -74 74 -176t-74 -176q-72 -72 -174 -72t-174 72q-74 74 -74 176.5zM164 1245.5q0 -71.5 51 -123.5q53 -53 123 -53q72 0 125 53q51 51 51 123t-51 123t-125 51q-72 0 -123 -51t-51 -122.5z" />
<glyph unicode="&#xb1;" horiz-adv-x="1482" d="M164 -47v121h1157v-121h-1157zM164 592v119l528 -9q-10 92 -10 447h121q0 -193 -2 -266l-4 -146l-4 -35q90 8 528 9v-119l-528 8q10 -88 10 -446h-121q0 201 2 274q3 111 6 141l2 31q-73 -8 -528 -8z" />
<glyph unicode="&#xb2;" horiz-adv-x="815" d="M82 512q0 8 68 72l145 147q78 80 145 195q66 111 66 202q0 53 -20.5 92.5t-51.5 57.5q-27 16 -57 22q-37 8 -51 9q-71 0 -111 -19q-41 -18 -59.5 -36.5t-26.5 -18.5q-16 0 -16 18q0 49 77.5 96.5t190.5 47.5q135 0 215 -74q78 -72 78 -184q0 -89 -68 -191 q-72 -106 -149 -176q-82 -74 -149.5 -129t-67.5 -59q0 -6 28 -6q129 0 238 18q131 23 160 33q51 18 57 18q12 0 12 -16q0 -12 -12 -64q-12 -53 -25 -59q-8 -8 -71 -8h-508q-37 0 -37 12z" />
<glyph unicode="&#xb3;" horiz-adv-x="847" d="M82 578q0 23 27 22l67 -27q68 -25 160 -24q127 0 178 63q53 66 53 138q0 66 -59 129q-57 59 -148 75q-8 2 -26 2q-6 0 -13.5 2.5t-9.5 2.5q-10 0 -16 2t-10 6t-4 10q0 2 1 6l1 4q0 2 4 6l4 2q4 2 4 4l8 5q8 4 14 4q2 0 6.5 1t8.5 1q12 0 16 2q58 12 92 49q35 39 41 63 q8 37 8 56q0 47 -40 88q-43 43 -113 43q-61 0 -94 -17q-39 -18 -58 -34q-20 -16 -32 -17q-18 0 -19 23q0 18 25 47q29 31 88 57q68 29 145 29q109 0 182 -47q78 -49 78 -135q0 -133 -184 -207l-53 -17q10 -2 34.5 -6t75.5 -20q59 -20 94 -41q40 -25 74 -74q35 -51 35 -106 q0 -135 -109 -201q-115 -70 -262 -70q-96 0 -188 33q-86 31 -86 68z" />
<glyph unicode="&#xb4;" horiz-adv-x="796" d="M352 958l107 332h143l-176 -332h-74z" />
<glyph unicode="&#xb5;" horiz-adv-x="1058" d="M35 -307q0 86 18 176q18 86 56 217q29 100 53 203q41 180 74 342q18 98 26 119q8 25 23 24q18 0 51 -12q35 -12 35 -35q0 -27 -45 -278q-47 -264 -47 -293q0 -66 36 -66q61 0 152 103q92 106 160 219q63 106 121 239l22 51q2 8 7 19.5t7 15.5q2 8 7 21q0 4 8 10q4 4 6 4 l5 1q5 1 9 1q33 0 58 -10q31 -12 30 -27l-6 -26q-6 -27 -23.5 -98.5l-35.5 -145.5q-63 -262 -64 -320q0 -23 14.5 -35t34.5 -12q33 0 58 33q29 39 43 66q18 33 33 32q25 0 24 -32q0 -68 -84 -156q-83 -86 -190 -86q-82 0 -82 135q0 55 20.5 164t20.5 115q0 8 -4 8 q-2 0 -23 -33q-6 -8 -14 -22.5t-23.5 -37l-27.5 -40.5q-47 -72 -107 -137q-133 -145 -240 -146q-29 0 -47 21q-14 16 -22 45q-6 23 -8 22.5t-13 -41.5q-12 -49 -16 -94q-8 -74 -8 -90q0 -41 24 -102q23 -55 23 -68q0 -14 -17 -41q-14 -23 -53 -23q-59 1 -59 101z" />
<glyph unicode="&#xb6;" horiz-adv-x="1433" d="M90 698q0 324 219 523q223 201 535 200q88 0 149.5 -18.5t83.5 -40.5q20 -20 21 -39q0 -16 -11 -27q-12 -12 -26 -12q-8 0 -78 37q-68 35 -158 35q-45 0 -71 -4q-40 -6 -43 -6v-1375q47 -10 145 -20q102 -10 176 -19q53 -6 160 -30q76 -18 123 -62q45 -43 45 -106 q0 -53 -23 -86q-27 -39 -63 -39q-55 0 -55 53q0 6 8 27q6 15 6 24q0 55 -131 92q-156 43 -326 76q-201 39 -278 76q-205 94 -305 287q-103 194 -103 454zM430 88q80 -68 205 -100v1337q-125 -31 -205 -100v-1137z" />
<glyph unicode="&#xb7;" horiz-adv-x="409" d="M119 686q0 20 34.5 53t53.5 33q25 0 55.5 -37t30.5 -55q0 -23 -35 -53q-34 -31 -55 -31q-18 0 -51 32.5t-33 57.5z" />
<glyph unicode="&#xb8;" horiz-adv-x="796" d="M291 -424l43 49q59 -20 100 -20q45 0 71.5 26.5t26.5 75.5t-45 73.5t-106 24.5q-31 0 -41 -2l-25 35l58 176h47l-45 -149q2 0 7 1t9 1h19q98 0 165 -37q70 -39 70 -119q0 -76 -67.5 -119t-153.5 -43q-43 0 -78 7q-27 4 -45 14z" />
<glyph unicode="&#xb9;" horiz-adv-x="702" d="M143 500v59q127 4 140 8q20 8 20 49v633q0 37 -12 47q-10 8 -55 9h-84l2 57h180q14 0 31 4q14 4 20 10l12 13q2 4 11 16q6 12 10 16l28 -2q-12 -190 -12 -325v-478q0 -39 23 -49q18 -8 114 -8h52v-59h-480z" />
<glyph unicode="&#xba;" horiz-adv-x="823" d="M90 1161q0 139 80 238q82 100 231 100q74 0 136 -24q66 -27 98 -60q35 -35 59 -84q20 -39 31 -94q10 -51 10 -94q0 -139 -90 -233.5t-239 -94.5q-151 0 -234 105q-82 102 -82 241zM231 1200q0 -125 54 -219q55 -98 139 -98q82 0 121 75.5t39 188.5q0 139 -56 217 q-55 76 -139 76q-66 0 -113 -62q-45 -59 -45 -178z" />
<glyph unicode="&#xbb;" horiz-adv-x="778" d="M82 209l190 233l-190 236l33 37l311 -273l-311 -272zM354 209l191 233l-191 236l33 37l311 -273l-311 -272z" />
<glyph unicode="&#xbc;" horiz-adv-x="1951" d="M143 500v59q127 4 140 8q20 8 20 49v633q0 37 -12 47q-10 8 -55 9h-84l2 57h180q14 0 31 4q14 4 20 10l12 13q2 4 11 16q6 12 10 16l28 -2q-12 -190 -12 -325v-478q0 -39 23 -49q18 -8 114 -8h52v-59h-480zM416 -76l1059 1510h104l-1059 -1510h-104zM1122 256q0 16 49 72 q270 291 500 567q12 14 25 14q10 0 10 -35v-514h166l-33 -114h-133v-266h-129v266h-434q-21 0 -21 10zM1284 360h293v338z" />
<glyph unicode="&#xbd;" horiz-adv-x="2019" d="M143 500v59q127 4 140 8q20 8 20 49v633q0 37 -12 47q-10 8 -55 9h-84l2 57h180q14 0 31 4q14 4 20 10l12 13q2 4 11 16q6 12 10 16l28 -2q-12 -190 -12 -325v-478q0 -39 23 -49q18 -8 114 -8h52v-59h-480zM416 -76l1059 1510h104l-1059 -1510h-104zM1286 12q0 8 66 72 l145 147q78 80 145 195q68 114 68 203q0 59 -20 94q-23 37 -52 55q-31 18 -57 25q-29 6 -51 6q-71 0 -111 -18q-41 -18 -59.5 -37t-26.5 -19q-16 0 -16 19q0 53 75.5 98t192.5 45q135 0 213 -72q80 -74 80 -186q0 -89 -68 -190q-68 -100 -149 -175l-150 -129 q-68 -55 -67.5 -61t29.5 -6q135 0 239 18q129 23 158 33q51 18 57 18q12 0 12 -16q0 -4 -14 -65q-12 -51 -22 -58q-8 -8 -72 -8h-508q-37 0 -37 12z" />
<glyph unicode="&#xbe;" horiz-adv-x="2015" d="M82 578q0 23 27 22l67 -27q68 -25 160 -24q127 0 178 63q53 66 53 138q0 66 -59 129q-57 59 -148 75q-8 2 -26 2q-6 0 -13.5 2.5t-9.5 2.5q-10 0 -16 2t-10 6t-4 10q0 2 1 6l1 4q0 2 4 6l4 2q4 2 4 4l8 5q8 4 14 4q2 0 6.5 1t8.5 1q12 0 16 2q58 12 92 49q35 39 41 63 q8 37 8 56q0 47 -40 88q-43 43 -113 43q-61 0 -94 -17q-39 -18 -58 -34q-20 -16 -32 -17q-18 0 -19 23q0 18 25 47q29 31 88 57q68 29 145 29q109 0 182 -47q78 -49 78 -135q0 -133 -184 -207l-53 -17q10 -2 34.5 -6t75.5 -20q59 -20 94 -41q40 -25 74 -74q35 -51 35 -106 q0 -135 -109 -201q-115 -70 -262 -70q-96 0 -188 33q-86 31 -86 68zM479 -76l1059 1510h104l-1058 -1510h-105zM1186 256q0 16 49 72q270 291 500 567q12 14 24 14q10 0 10 -35v-514h166l-32 -114h-134v-266h-129v266h-434q-20 0 -20 10zM1348 360h292v338z" />
<glyph unicode="&#xbf;" horiz-adv-x="811" d="M123 379q0 92 57 158q66 72 131 131q84 74 121 116q41 47 41 96.5t-24 82.5q-29 39 -48 55q-25 22 -24 37q0 27 29 26q49 0 118 -75q68 -74 68 -185q0 -76 -57 -149q-53 -68 -123 -119q-76 -55 -125 -115q-55 -68 -56 -137q0 -57 82 -113q84 -55 183 -55h53q14 0 37.5 1 t34.5 1q29 0 28 -24q0 -31 -61.5 -80t-120.5 -49q-78 0 -211 129t-133 268zM326 1272q0 20 36.5 57t63.5 37q23 0 59 -39q37 -41 37 -57q0 -29 -39 -62q-41 -35 -61 -34q-23 0 -59.5 36.5t-36.5 61.5z" />
<glyph unicode="&#xc0;" horiz-adv-x="1484" d="M55 80h25q57 0 76 20q18 23 67 131l133 295l84 189q39 82 45 98q10 23 17.5 37t9.5 22l14 35l209 508h43q125 -328 445 -1098q66 -160 94 -204q20 -33 84 -33h31l-2 -80h-467l2 80h61q90 0 90 24q0 10 -20 64l-152 373h-475l-162 -361q-20 -47 -20 -65q0 -23 14 -29 t70 -6h84v-80h-398zM508 631h401l-194 485zM551 1780h143l107 -291h-74z" />
<glyph unicode="&#xc1;" horiz-adv-x="1484" d="M55 80h25q57 0 76 20q18 23 67 131l133 295l84 189q39 82 45 98q10 23 17.5 37t9.5 22l14 35l209 508h43q125 -328 445 -1098q66 -160 94 -204q20 -33 84 -33h31l-2 -80h-467l2 80h61q90 0 90 24q0 10 -20 64l-152 373h-475l-162 -361q-20 -47 -20 -65q0 -23 14 -29 t70 -6h84v-80h-398zM508 631h401l-194 485zM709 1489l106 291h143l-176 -291h-73z" />
<glyph unicode="&#xc2;" horiz-adv-x="1484" d="M55 80h25q57 0 76 20q18 23 67 131l133 295l84 189q39 82 45 98q10 23 17.5 37t9.5 22l14 35l209 508h43q125 -328 445 -1098q66 -160 94 -204q20 -33 84 -33h31l-2 -80h-467l2 80h61q90 0 90 24q0 10 -20 64l-152 373h-475l-162 -361q-20 -47 -20 -65q0 -23 14 -29 t70 -6h84v-80h-398zM508 631h401l-194 485zM547 1528q57 80 164 244h120q70 -111 164 -244h-118q-8 10 -17.5 20.5l-19.5 22.5q-37 41 -47 53l-43 51l-125 -147h-78z" />
<glyph unicode="&#xc3;" horiz-adv-x="1484" d="M55 80h25q57 0 76 20q18 23 67 131l133 295l84 189q39 82 45 98q10 23 17.5 37t9.5 22l14 35l209 508h43q125 -328 445 -1098q66 -160 94 -204q20 -33 84 -33h31l-2 -80h-467l2 80h61q90 0 90 24q0 10 -20 64l-152 373h-475l-162 -361q-20 -47 -20 -65q0 -23 14 -29 t70 -6h84v-80h-398zM508 631h401l-194 485zM512 1542q2 4 2 12q2 7 2 11q2 10 16 53q8 25 31 65q12 23 43 50q28 25 62 24q41 0 88 -24l61 -33q39 -20 70 -21q29 0 55 23q25 23 35 47l8 23l29 -9q0 -4 -2 -8t-3 -7t-2 -9t-3 -10q-10 -39 -23 -64q-18 -41 -51 -67.5 t-72 -26.5q-34 0 -74 18l-63 31q-39 20 -86 20q-33 0 -57 -26q-20 -25 -29 -53l-8 -27z" />
<glyph unicode="&#xc4;" horiz-adv-x="1484" d="M55 80h25q57 0 76 20q18 23 67 131l133 295l84 189q39 82 45 98q10 23 17.5 37t9.5 22l14 35l209 508h43q125 -328 445 -1098q66 -160 94 -204q20 -33 84 -33h31l-2 -80h-467l2 80h61q90 0 90 24q0 10 -20 64l-152 373h-475l-162 -361q-20 -47 -20 -65q0 -23 14 -29 t70 -6h84v-80h-398zM508 631h401l-194 485zM520 1661q0 18 37 53q35 33 53 33q23 0 53.5 -37t30.5 -55q0 -25 -35 -56q-34 -31 -55 -30q-18 0 -51 32.5t-33 59.5zM821 1661q0 20 35 53t53 33q25 0 55.5 -37t30.5 -55q0 -25 -34 -56t-56 -30q-18 0 -51 32.5t-33 59.5z" />
<glyph unicode="&#xc5;" horiz-adv-x="1484" d="M55 80h25q57 0 76 20q18 23 67 131l133 295l84 189q39 82 45 98q10 23 17.5 37t9.5 22l14 35l209 508h43q125 -328 445 -1098q66 -160 94 -204q20 -33 84 -33h31l-2 -80h-467l2 80h61q90 0 90 24q0 10 -20 64l-152 373h-475l-162 -361q-20 -47 -20 -65q0 -23 14 -29 t70 -6h84v-80h-398zM508 631h401l-194 485zM590 1644.5q0 63.5 51 116.5q52 55 117 56q66 0 115 -49.5t49 -115t-48 -110.5q-51 -47 -112 -47q-70 0 -121 43t-51 106.5zM662 1647q0 -43 26 -68q25 -23 72 -23q92 0 92 97q0 53 -28.5 75.5t-65.5 22.5q-53 0 -74 -35 q-22 -38 -22 -69z" />
<glyph unicode="&#xc6;" horiz-adv-x="2154" d="M55 0l2 80h35q43 0 76 26q35 29 102 125l746 1055l-131 -2l-2 82h1122q2 -156 10 -322l-80 -4q-2 94 -10 154q-6 53 -14 66q-8 14 -25 16q-14 2 -100 2h-348q-82 0 -101 -14q-16 -12 -16 -82v-285q0 -59 8 -70q10 -12 60 -12h307q53 0 65.5 16.5t12.5 81.5v82l75 -2v-489 h-75v104q0 84 -10.5 100.5t-61.5 16.5h-309q-45 0 -60 -10q-12 -10 -12 -53v-484q0 -57 10 -69q12 -14 53 -15q427 3 504 12q76 8 88 46l1 2l1 2l33 172l70 -11l-51 -317h-1037v80h29q94 0 115 10q18 9 18 68v383h-551l-256 -361q-37 -52 -37 -74q0 -14 21 -20q22 -6 80 -6 h61v-80h-418zM668 631h487v602q0 33 -8 41q-10 10 -29 10z" />
<glyph unicode="&#xc7;" horiz-adv-x="1507" d="M111 643q0 170 69 320q68 143 178 229q109 84 240 131t254 47q127 0 225 -16q92 -15 135 -31q45 -16 50 -16q25 0 28 10q4 12 4 47v18h78q6 -195 25 -391l-74 -2q-4 37 -6 58q0 8 -1 18t-2 16t-1 11q-4 16 -4 30q0 10 -6 23q0 2 -4.5 6t-4.5 6q-4 10 -14 14q-6 4 -10 5.5 t-8 3.5q-2 0 -5.5 3t-9.5 6t-12 5q-33 14 -37 16q-51 27 -145 45q-98 18 -195 19q-252 0 -412 -166q-162 -168 -161 -406q0 -254 178 -450q176 -195 442 -195q147 0 285 78q139 80 143 133l6 172h72l-12 -299q-43 -29 -76 -47q-57 -33 -188 -78q-141 -49 -275 -49l-31 -102 q2 0 7.5 1t9.5 1h18q98 0 166 -37q70 -39 70 -119q0 -78 -66 -119q-68 -43 -155 -43q-43 0 -76 7q-27 4 -45 14l-13 6l43 49q59 -20 101 -20q45 0 71.5 26.5t26.5 75.5t-45 73.5t-106 24.5q-31 0 -41 -2l-25 35l43 129q-332 9 -516 191q-186 182 -186 485z" />
<glyph unicode="&#xc8;" horiz-adv-x="1259" d="M55 1366h1055q2 -156 10 -322l-80 -4q-2 94 -10 154q-6 53 -14 66q-8 14 -25 16q-14 2 -100 2h-348q-80 0 -101 -14q-18 -12 -18 -82v-285q0 -59 8 -70q10 -12 60 -12h309q53 0 65 16q12 15 13 87v77l75 -2v-489h-75v106q0 86 -11 99q-12 16 -63 16h-307 q-49 0 -61.5 -12.5t-12.5 -50.5v-484q0 -55 12.5 -69.5t52.5 -14.5q427 3 504 12q76 8 88 46l1 2l1 2l33 172l70 -11l-51 -317h-1039v80h54q82 0 94 10q14 12 14 68v1038q0 61 -22 74q-25 14 -121 14h-58zM426 1780h143l107 -291h-74z" />
<glyph unicode="&#xc9;" horiz-adv-x="1259" d="M55 1366h1055q2 -156 10 -322l-80 -4q-2 94 -10 154q-6 53 -14 66q-8 14 -25 16q-14 2 -100 2h-348q-80 0 -101 -14q-18 -12 -18 -82v-285q0 -59 8 -70q10 -12 60 -12h309q53 0 65 16q12 15 13 87v77l75 -2v-489h-75v106q0 86 -11 99q-12 16 -63 16h-307 q-49 0 -61.5 -12.5t-12.5 -50.5v-484q0 -55 12.5 -69.5t52.5 -14.5q427 3 504 12q76 8 88 46l1 2l1 2l33 172l70 -11l-51 -317h-1039v80h54q82 0 94 10q14 12 14 68v1038q0 61 -22 74q-25 14 -121 14h-58zM584 1489l106 291h144l-177 -291h-73z" />
<glyph unicode="&#xca;" horiz-adv-x="1259" d="M55 1366h1055q2 -156 10 -322l-80 -4q-2 94 -10 154q-6 53 -14 66q-8 14 -25 16q-14 2 -100 2h-348q-80 0 -101 -14q-18 -12 -18 -82v-285q0 -59 8 -70q10 -12 60 -12h309q53 0 65 16q12 15 13 87v77l75 -2v-489h-75v106q0 86 -11 99q-12 16 -63 16h-307 q-49 0 -61.5 -12.5t-12.5 -50.5v-484q0 -55 12.5 -69.5t52.5 -14.5q427 3 504 12q76 8 88 46l1 2l1 2l33 172l70 -11l-51 -317h-1039v80h54q82 0 94 10q14 12 14 68v1038q0 61 -22 74q-25 14 -121 14h-58zM422 1528q57 80 164 244h121q70 -111 163 -244h-118 q-8 10 -17.5 20.5l-19.5 22.5q-37 41 -47 53l-43 51l-125 -147h-78z" />
<glyph unicode="&#xcb;" horiz-adv-x="1259" d="M55 1366h1055q2 -156 10 -322l-80 -4q-2 94 -10 154q-6 53 -14 66q-8 14 -25 16q-14 2 -100 2h-348q-80 0 -101 -14q-18 -12 -18 -82v-285q0 -59 8 -70q10 -12 60 -12h309q53 0 65 16q12 15 13 87v77l75 -2v-489h-75v106q0 86 -11 99q-12 16 -63 16h-307 q-49 0 -61.5 -12.5t-12.5 -50.5v-484q0 -55 12.5 -69.5t52.5 -14.5q427 3 504 12q76 8 88 46l1 2l1 2l33 172l70 -11l-51 -317h-1039v80h54q82 0 94 10q14 12 14 68v1038q0 61 -22 74q-25 14 -121 14h-58zM395 1661q0 18 37 53q35 33 53 33q23 0 53.5 -37t30.5 -55 q0 -25 -34 -56t-56 -30q-18 0 -51 32.5t-33 59.5zM696 1661q0 20 35 53t53 33q25 0 55.5 -37t30.5 -55q0 -25 -34 -56t-56 -30q-18 0 -51 32.5t-33 59.5z" />
<glyph unicode="&#xcc;" horiz-adv-x="657" d="M55 1284l2 82h514v-82h-34q-80 0 -105 -14q-20 -12 -20 -80v-1016q0 -66 16 -80t94 -14h80l2 -80h-524l-2 80h53q82 0 98.5 14.5t16.5 75.5v1040q0 55 -15 64q-16 10 -90 10h-86zM117 1780h143l107 -291h-74z" />
<glyph unicode="&#xcd;" horiz-adv-x="657" d="M55 1284l2 82h514v-82h-34q-80 0 -105 -14q-20 -12 -20 -80v-1016q0 -66 16 -80t94 -14h80l2 -80h-524l-2 80h53q82 0 98.5 14.5t16.5 75.5v1040q0 55 -15 64q-16 10 -90 10h-86zM274 1489l107 291h143l-176 -291h-74z" />
<glyph unicode="&#xce;" horiz-adv-x="657" d="M55 1284l2 82h514v-82h-34q-80 0 -105 -14q-20 -12 -20 -80v-1016q0 -66 16 -80t94 -14h80l2 -80h-524l-2 80h53q82 0 98.5 14.5t16.5 75.5v1040q0 55 -15 64q-16 10 -90 10h-86zM113 1528q57 80 163 244h121q70 -111 164 -244h-119l-17 20.5l-19 22.5l-46 53l-25.5 29.5 t-19.5 21.5l-125 -147h-77z" />
<glyph unicode="&#xcf;" horiz-adv-x="657" d="M55 1284l2 82h514v-82h-34q-80 0 -105 -14q-20 -12 -20 -80v-1016q0 -66 16 -80t94 -14h80l2 -80h-524l-2 80h53q82 0 98.5 14.5t16.5 75.5v1040q0 55 -15 64q-16 10 -90 10h-86zM86 1661q0 18 37 53q35 33 53 33q25 0 55 -37q29 -35 29 -55q0 -25 -35 -56 q-34 -31 -55 -30q-18 0 -51 32.5t-33 59.5zM387 1661q0 18 37 53q35 33 51 33q25 0 55.5 -37t30.5 -55q0 -25 -35 -56q-34 -31 -55 -30q-18 0 -51 32.5t-33 59.5z" />
<glyph unicode="&#xd0;" horiz-adv-x="1521" d="M55 1366h553q193 0 320 -16q120 -15 221 -74q139 -84 213 -227q72 -141 72 -314q0 -96 -21 -184q-23 -94 -80 -195q-63 -109 -145 -180q-92 -80 -234 -127q-147 -49 -333 -49h-529l-2 80h49q78 0 97 12q16 10 16 78v485h-156l2 99h154v456q0 55 -14 64q-16 10 -91 10h-86 zM418 174q0 -65 24 -80q23 -14 150 -14q154 0 270 37q125 39 189 92q72 59 116.5 137t63.5 160q18 80 18 166q0 115 -39 217q-39 100 -116 188q-78 86 -211 140q-135 53 -305 53h-76q-53 0 -68 -17q-16 -20 -16 -79v-420h418l-2 -99h-416v-481z" />
<glyph unicode="&#xd1;" horiz-adv-x="1521" d="M55 1366h318l839 -1083v927q0 49 -22.5 61.5t-89.5 12.5h-72l4 82h436v-82h-47q-68 0 -90 -16.5t-22 -73.5v-1180v-22q0 -8 -2 -14.5t-7 -10.5q-2 -2 -10 -2h-28h-9l-4 1l-4 1q-4 0 -6 2t-2 4t-2 4q-4 4 -8 11q-2 2 -5 7t-5 7l-893 1147l10 -975q0 -65 24 -80 q23 -14 127 -14h35v-80h-430v80h62q55 0 71 16q14 14 15 74v1090l-21 24h-160zM522 1542q2 4 3 12q2 7 1 11q2 10 17 53q8 25 30 65q12 23 43 50q28 25 62 24q43 0 88 -24l61 -33q39 -20 70 -21q29 0 55 23q23 20 33 47l10 23l29 -9q-4 -20 -8 -34q-8 -27 -25 -64 q-18 -41 -51 -67.5t-72 -26.5q-34 0 -73 18l-64 31q-39 20 -86 20q-33 0 -57.5 -26.5t-30.5 -52.5l-6 -27z" />
<glyph unicode="&#xd2;" horiz-adv-x="1632" d="M111 670q0 178 59 315q61 141 162 229q101 89 227 136q123 45 262 45q184 0 338 -76q158 -78 262 -244q102 -162 103 -393q0 -139 -45 -262t-133.5 -227.5t-225.5 -163.5q-141 -61 -315 -62q-166 0 -303 59.5t-219 159.5q-84 102 -127 226q-45 129 -45 258zM295 737 q0 -168 63 -325q59 -152 195 -254q133 -102 307 -103q201 0 338 150q139 152 139 426q0 309 -170 495q-168 184 -389 185q-76 0 -155.5 -29t-153.5 -88q-80 -63 -127 -180q-47 -115 -47 -277zM606 1780h144l106 -291h-74z" />
<glyph unicode="&#xd3;" horiz-adv-x="1632" d="M111 670q0 178 59 315q61 141 162 229q101 89 227 136q123 45 262 45q184 0 338 -76q158 -78 262 -244q102 -162 103 -393q0 -139 -45 -262t-133.5 -227.5t-225.5 -163.5q-141 -61 -315 -62q-166 0 -303 59.5t-219 159.5q-84 102 -127 226q-45 129 -45 258zM295 737 q0 -168 63 -325q59 -152 195 -254q133 -102 307 -103q201 0 338 150q139 152 139 426q0 309 -170 495q-168 184 -389 185q-76 0 -155.5 -29t-153.5 -88q-80 -63 -127 -180q-47 -115 -47 -277zM764 1489l106 291h144l-176 -291h-74z" />
<glyph unicode="&#xd4;" horiz-adv-x="1632" d="M111 670q0 178 59 315q61 141 162 229q101 89 227 136q123 45 262 45q184 0 338 -76q158 -78 262 -244q102 -162 103 -393q0 -139 -45 -262t-133.5 -227.5t-225.5 -163.5q-141 -61 -315 -62q-166 0 -303 59.5t-219 159.5q-84 102 -127 226q-45 129 -45 258zM295 737 q0 -168 63 -325q59 -152 195 -254q133 -102 307 -103q201 0 338 150q139 152 139 426q0 309 -170 495q-168 184 -389 185q-76 0 -155.5 -29t-153.5 -88q-80 -63 -127 -180q-47 -115 -47 -277zM602 1528q57 80 164 244h121q70 -111 164 -244h-119q-8 10 -17.5 20.5 l-19.5 22.5q-37 41 -47 53l-43 51l-125 -147h-78z" />
<glyph unicode="&#xd5;" horiz-adv-x="1632" d="M111 670q0 178 59 315q61 141 162 229q101 89 227 136q123 45 262 45q184 0 338 -76q158 -78 262 -244q102 -162 103 -393q0 -139 -45 -262t-133.5 -227.5t-225.5 -163.5q-141 -61 -315 -62q-166 0 -303 59.5t-219 159.5q-84 102 -127 226q-45 129 -45 258zM295 737 q0 -168 63 -325q59 -152 195 -254q133 -102 307 -103q201 0 338 150q139 152 139 426q0 309 -170 495q-168 184 -389 185q-76 0 -155.5 -29t-153.5 -88q-80 -63 -127 -180q-47 -115 -47 -277zM567 1542q2 4 3 12q2 7 1 11q2 10 17 53q8 25 30 65q12 23 44 50q28 25 61 24 q43 0 88 -24l61 -33q39 -20 70 -21q29 0 55 23q23 20 33 47l10 23l29 -9q-4 -20 -8 -34q-8 -27 -25 -64q-18 -41 -51 -67.5t-72 -26.5q-34 0 -73 18l-64 31q-39 20 -86 20q-33 0 -57.5 -26.5t-30.5 -52.5l-6 -27z" />
<glyph unicode="&#xd6;" horiz-adv-x="1632" d="M111 670q0 178 59 315q61 141 162 229q101 89 227 136q123 45 262 45q184 0 338 -76q158 -78 262 -244q102 -162 103 -393q0 -139 -45 -262t-133.5 -227.5t-225.5 -163.5q-141 -61 -315 -62q-166 0 -303 59.5t-219 159.5q-84 102 -127 226q-45 129 -45 258zM295 737 q0 -168 63 -325q59 -152 195 -254q133 -102 307 -103q201 0 338 150q139 152 139 426q0 309 -170 495q-168 184 -389 185q-76 0 -155.5 -29t-153.5 -88q-80 -63 -127 -180q-47 -115 -47 -277zM575 1661q0 18 37 53q35 33 54 33q25 0 55 -37q29 -35 29 -55q0 -25 -35 -56 q-34 -31 -56 -30q-18 0 -51 32.5t-33 59.5zM877 1661q0 18 36 53q35 33 52 33q25 0 55.5 -37t30.5 -55q0 -25 -35 -56q-34 -31 -55 -30q-18 0 -51 32.5t-33 59.5z" />
<glyph unicode="&#xd7;" horiz-adv-x="1204" d="M123 86l407 395l-407 396l86 84l393 -408l395 408l86 -84l-407 -396l407 -395l-86 -84l-395 408l-393 -408z" />
<glyph unicode="&#xd8;" horiz-adv-x="1632" d="M111 670q0 178 59 315q61 141 162 229q101 89 227 136q123 45 262 45q168 0 316 -70l84 143l84 -49l-82 -139q301 -199 301 -598q0 -139 -45 -262t-133.5 -227.5t-225.5 -163.5q-141 -61 -315 -62q-170 0 -305 62l-135 -236l-84 49l133 232q-150 96 -226 254 q-77 162 -77 342zM295 737q0 -154 51 -288q55 -145 148 -238l577 1003q-133 96 -293 97q-76 0 -155.5 -29t-153.5 -88q-80 -63 -127 -180q-47 -115 -47 -277zM569 145q133 -90 291 -90q201 0 338 150q139 152 139 426q0 324 -188 518z" />
<glyph unicode="&#xd9;" horiz-adv-x="1474" d="M55 1284v82h492l2 -82h-78q-63 0 -86 -14q-25 -15 -25 -62v-757q0 -43 5 -66q6 -34 30 -92q25 -57 68 -100q45 -45 127 -78q84 -33 198 -33q125 0 205 27q82 27 127 65.5t66 106.5q25 80 26 122q4 70 5 144v663q0 49 -21 62q-22 12 -92 12h-72l4 82h385v-82h-28 q-47 0 -63.5 -16.5t-16.5 -73.5v-727q0 -504 -525 -504q-317 0 -456 133q-137 131 -137 344v770q0 49 -15 62q-16 12 -69 12h-56zM569 1780h144l106 -291h-74z" />
<glyph unicode="&#xda;" horiz-adv-x="1474" d="M55 1284v82h492l2 -82h-78q-63 0 -86 -14q-25 -15 -25 -62v-757q0 -43 5 -66q6 -34 30 -92q25 -57 68 -100q45 -45 127 -78q84 -33 198 -33q125 0 205 27q82 27 127 65.5t66 106.5q25 80 26 122q4 70 5 144v663q0 49 -21 62q-22 12 -92 12h-72l4 82h385v-82h-28 q-47 0 -63.5 -16.5t-16.5 -73.5v-727q0 -504 -525 -504q-317 0 -456 133q-137 131 -137 344v770q0 49 -15 62q-16 12 -69 12h-56zM727 1489l107 291h143l-176 -291h-74z" />
<glyph unicode="&#xdb;" horiz-adv-x="1474" d="M55 1284v82h492l2 -82h-78q-63 0 -86 -14q-25 -15 -25 -62v-757q0 -43 5 -66q6 -34 30 -92q25 -57 68 -100q45 -45 127 -78q84 -33 198 -33q125 0 205 27q82 27 127 65.5t66 106.5q25 80 26 122q4 70 5 144v663q0 49 -21 62q-22 12 -92 12h-72l4 82h385v-82h-28 q-47 0 -63.5 -16.5t-16.5 -73.5v-727q0 -504 -525 -504q-317 0 -456 133q-137 131 -137 344v770q0 49 -15 62q-16 12 -69 12h-56zM565 1528q57 80 164 244h121q70 -111 164 -244h-119q-8 10 -17.5 20.5l-19.5 22.5l-47 53q-12 14 -22.5 27.5t-20.5 23.5l-125 -147h-78z" />
<glyph unicode="&#xdc;" horiz-adv-x="1474" d="M55 1284v82h492l2 -82h-78q-63 0 -86 -14q-25 -15 -25 -62v-757q0 -43 5 -66q6 -34 30 -92q25 -57 68 -100q45 -45 127 -78q84 -33 198 -33q125 0 205 27q82 27 127 65.5t66 106.5q25 80 26 122q4 70 5 144v663q0 49 -21 62q-22 12 -92 12h-72l4 82h385v-82h-28 q-47 0 -63.5 -16.5t-16.5 -73.5v-727q0 -504 -525 -504q-317 0 -456 133q-137 131 -137 344v770q0 49 -15 62q-16 12 -69 12h-56zM539 1661q0 18 36 53q35 33 54 33q25 0 55 -37q29 -35 29 -55q0 -25 -35 -56q-34 -31 -55 -30q-18 0 -51 32.5t-33 59.5zM840 1661 q0 20 34.5 53t53.5 33q25 0 55.5 -37t30.5 -55q0 -25 -35 -56q-34 -31 -55 -30q-18 0 -51 32.5t-33 59.5z" />
<glyph unicode="&#xdd;" horiz-adv-x="1347" d="M76 1284l2 82h459v-82h-41q-66 0 -82 -4q-25 -6 -25 -23q0 -10 37 -71l293 -461l358 508q12 22 13 24q0 27 -134 27h-32l-2 82h372v-82h-10q-51 0 -72 -12q-23 -12 -65 -74l-399 -577v-447q0 -63 16 -80q14 -14 104 -14h93l-3 -80h-575l2 80h82q78 0 96.5 12t18.5 78v467 l-336 522q-61 95 -80 111q-16 14 -90 14zM657 1489l107 291h143l-176 -291h-74z" />
<glyph unicode="&#xde;" horiz-adv-x="1220" d="M55 1284l2 82h514v-82h-65q-59 0 -76 -14q-18 -15 -18 -80v-76h127q168 0 262 -16q88 -14 157 -72q174 -141 175 -364q0 -150 -113 -261q-117 -113 -320 -112q-25 0 -86 4q-37 2 -79 10q-18 4 -34 8t-28 6q-8 2 -23.5 5.5t-21.5 5.5l-16 4v-158q0 -63 16 -80 q14 -14 90 -14h84l2 -80h-524l-2 80h67q70 0 84 14q16 16 17 76v1040q0 55 -15 64q-16 10 -90 10h-86zM412 393q51 -39 192 -39q166 0 250 78q86 80 86 234q0 174 -133 272q-129 96 -334 96q-37 0 -49 -18.5t-12 -77.5v-545z" />
<glyph unicode="&#xdf;" horiz-adv-x="1048" d="M35 66h20q76 0 92.5 8t16.5 47v584h-115l31 98h86v221q0 43 4 96q2 35 23 105q18 63 61 118q39 51 111 97q70 43 170 43q120 0 190 -86q72 -88 72 -197q0 -58 -62 -123l-123 -135q-63 -74 -63 -133q0 -86 164 -250l84 -82l5 -4q5 -4 13 -12t16 -17l37 -36l10 -12 q9 -11 19 -21q25 -25 31 -37q2 -2 7 -15.5t9 -21.5q14 -25 17 -43q4 -29 4 -47q0 -31 -11 -68q-6 -20 -36 -71q-23 -37 -87 -62q-61 -25 -145 -24q-46 0 -92 12q-39 10 -49 10q-14 0 -15 -24l2 -23l-61 -2l-37 289l66 6l20 -131q94 -70 187 -70q45 0 77.5 26.5t32.5 76.5 q0 90 -151 231l-64 62q-94 88 -125 163q-25 61 -24 127q0 71 36 135q39 68 76 103q35 33 78 86q37 47 37 82q0 133 -67.5 194.5t-137.5 61.5q-35 0 -59 -12q-45 -20 -74 -97q-28 -74 -31 -123q-4 -66 -4 -96v-946q0 -41 12 -51q14 -10 41 -10h33v-66h-356z" />
<glyph unicode="&#xe0;" horiz-adv-x="776" d="M55 133q0 127 119 219q123 94 293 94v123q0 72 -24.5 109t-112.5 37q-135 -4 -166 -64q4 -20 8 -33l5 -21l3 -13q4 -16 4 -23q0 -25 -24 -39q-23 -14 -41 -14q-47 0 -47 74q0 27 14 57q16 37 51 74q39 43 115 69q80 29 178 29q33 0 49 -4q27 -6 57.5 -20.5t53.5 -53.5 q20 -35 20 -86v-383q0 -74 27 -121q25 -43 106 -65q18 -6 19 -17q0 -12 -19 -22q-101 -68 -122 -74q-33 25 -48 39l-30 31l-31 37q-6 6 -12 15t-10.5 14t-6.5 8q-35 -49 -108 -93q-66 -39 -131 -39q-74 0 -131.5 39t-57.5 117zM156 1290h143l107 -332h-74zM199 193 q0 -43 30.5 -74t92.5 -31q78 0 112 35q33 33 33 78v190q-119 0 -193 -61q-75 -63 -75 -137z" />
<glyph unicode="&#xe1;" horiz-adv-x="776" d="M55 133q0 127 119 219q123 94 293 94v123q0 72 -24.5 109t-112.5 37q-135 -4 -166 -64q4 -20 8 -33l5 -21l3 -13q4 -16 4 -23q0 -25 -24 -39q-23 -14 -41 -14q-47 0 -47 74q0 27 14 57q16 37 51 74q39 43 115 69q80 29 178 29q33 0 49 -4q27 -6 57.5 -20.5t53.5 -53.5 q20 -35 20 -86v-383q0 -74 27 -121q25 -43 106 -65q18 -6 19 -17q0 -12 -19 -22q-101 -68 -122 -74q-33 25 -48 39l-30 31l-31 37q-6 6 -12 15t-10.5 14t-6.5 8q-35 -49 -108 -93q-66 -39 -131 -39q-74 0 -131.5 39t-57.5 117zM199 193q0 -43 30.5 -74t92.5 -31q78 0 112 35 q33 33 33 78v190q-119 0 -193 -61q-75 -63 -75 -137zM313 958l107 332h143l-176 -332h-74z" />
<glyph unicode="&#xe2;" horiz-adv-x="776" d="M55 133q0 127 119 219q123 94 293 94v123q0 72 -24.5 109t-112.5 37q-135 -4 -166 -64q4 -20 8 -33l5 -21l3 -13q4 -16 4 -23q0 -25 -24 -39q-23 -14 -41 -14q-47 0 -47 74q0 27 14 57q16 37 51 74q39 43 115 69q80 29 178 29q33 0 49 -4q27 -6 57.5 -20.5t53.5 -53.5 q20 -35 20 -86v-383q0 -74 27 -121q25 -43 106 -65q18 -6 19 -17q0 -12 -19 -22q-101 -68 -122 -74q-33 25 -48 39l-30 31l-31 37q-6 6 -12 15t-10.5 14t-6.5 8q-35 -49 -108 -93q-66 -39 -131 -39q-74 0 -131.5 39t-57.5 117zM152 958q57 86 163 281h121q119 -217 164 -281 h-119q-16 20 -39 52q-8 14 -20 31.5l-27 39.5q-18 29 -41 62q-18 -27 -39 -62q-14 -25 -47 -71l-39 -52h-77zM199 193q0 -43 30.5 -74t92.5 -31q78 0 112 35q33 33 33 78v190q-119 0 -193 -61q-75 -63 -75 -137z" />
<glyph unicode="&#xe3;" horiz-adv-x="776" d="M55 133q0 127 119 219q123 94 293 94v123q0 72 -24.5 109t-112.5 37q-135 -4 -166 -64q4 -20 8 -33l5 -21l3 -13q4 -16 4 -23q0 -25 -24 -39q-23 -14 -41 -14q-47 0 -47 74q0 27 14 57q16 37 51 74q39 43 115 69q80 29 178 29q33 0 49 -4q27 -6 57.5 -20.5t53.5 -53.5 q20 -35 20 -86v-383q0 -74 27 -121q25 -43 106 -65q18 -6 19 -17q0 -12 -19 -22q-101 -68 -122 -74q-33 25 -48 39l-30 31l-31 37q-6 6 -12 15t-10.5 14t-6.5 8q-35 -49 -108 -93q-66 -39 -131 -39q-74 0 -131.5 39t-57.5 117zM113 989q4 12 6 23q4 25 14 53q12 35 29 65 q10 18 45 50q27 25 61 24q47 0 88 -22l62 -33q39 -20 67 -21q63 0 97 84l2 7l30 -7q0 -4 -10 -36q-6 -22 -24 -62q-20 -43 -50 -67q-33 -27 -71 -27q-37 0 -76 16l-64 33q-39 20 -86 21q-66 0 -90 -101l-2 -6zM199 193q0 -43 30.5 -74t92.5 -31q78 0 112 35q33 33 33 78v190 q-119 0 -193 -61q-75 -63 -75 -137z" />
<glyph unicode="&#xe4;" horiz-adv-x="776" d="M55 133q0 127 119 219q123 94 293 94v123q0 72 -24.5 109t-112.5 37q-135 -4 -166 -64q4 -20 8 -33l5 -21l3 -13q4 -16 4 -23q0 -25 -24 -39q-23 -14 -41 -14q-47 0 -47 74q0 27 14 57q16 37 51 74q39 43 115 69q80 29 178 29q33 0 49 -4q27 -6 57.5 -20.5t53.5 -53.5 q20 -35 20 -86v-383q0 -74 27 -121q25 -43 106 -65q18 -6 19 -17q0 -12 -19 -22q-101 -68 -122 -74q-33 25 -48 39l-30 31l-31 37q-6 6 -12 15t-10.5 14t-6.5 8q-35 -49 -108 -93q-66 -39 -131 -39q-74 0 -131.5 39t-57.5 117zM131 1124q0 18 37 54q35 33 51 32 q25 0 55.5 -36.5t30.5 -55.5q0 -25 -35 -55q-34 -31 -55 -31q-18 0 -51 32.5t-33 59.5zM199 193q0 -43 30.5 -74t92.5 -31q78 0 112 35q33 33 33 78v190q-119 0 -193 -61q-75 -63 -75 -137zM430 1124q0 18 37 54q35 33 53 32q25 0 55 -36q29 -35 29 -56q0 -25 -35 -55 q-34 -31 -55 -31q-18 0 -51 32.5t-33 59.5z" />
<glyph unicode="&#xe5;" horiz-adv-x="776" d="M55 133q0 127 119 219q123 94 293 94v123q0 72 -24.5 109t-112.5 37q-135 -4 -166 -64q4 -20 8 -33l5 -21l3 -13q4 -16 4 -23q0 -25 -24 -39q-23 -14 -41 -14q-47 0 -47 74q0 27 14 57q16 37 51 74q39 43 115 69q80 29 178 29q33 0 49 -4q27 -6 57.5 -20.5t53.5 -53.5 q20 -35 20 -86v-383q0 -74 27 -121q25 -43 106 -65q18 -6 19 -17q0 -12 -19 -22q-101 -68 -122 -74q-33 25 -48 39l-30 31l-31 37q-6 6 -12 15t-10.5 14t-6.5 8q-35 -49 -108 -93q-66 -39 -131 -39q-74 0 -131.5 39t-57.5 117zM199 193q0 -43 30.5 -74t92.5 -31q78 0 112 35 q33 33 33 78v190q-119 0 -193 -61q-75 -63 -75 -137zM207 1104q0 61 51 115q53 57 115 57q68 0 117 -49t49 -114.5t-47 -111.5q-51 -47 -113 -47q-68 0 -121 43q-51 44 -51 107zM276 1106q0 -41 27 -66q28 -25 74 -24q90 0 90 96q0 53 -28.5 75.5t-65.5 22.5q-52 0 -74 -36 q-23 -39 -23 -68z" />
<glyph unicode="&#xe6;" horiz-adv-x="1298" d="M66 123q0 135 143 229t323 94v35q0 8 1.5 19.5t1.5 15.5q0 37 -5 78q-2 29 -18 59q-16 33 -49 47q-31 14 -86 15q-135 -4 -166 -64q18 -82 18 -90q0 -25 -24 -39q-23 -14 -39 -14q-47 0 -47 74q0 72 84 151.5t223 79.5q29 0 57.5 -6t45 -14.5t32.5 -24.5q6 -6 14.5 -15.5 t10.5 -11.5q4 -4 16 -32l12 -29q0 -4 3.5 -14.5l5.5 -16.5l6 -20q25 78 96 133q70 55 152 55q138 0 233 -92q96 -92 96 -170q0 -14 -12 -23q-10 -8 -20 -8l-508 -57v-33q0 -154 81.5 -237.5t217.5 -83.5q70 0 131 22q58 22 92 43q33 20 45 21q18 0 18 -25q0 -20 -45 -70 q-41 -43 -133 -88q-89 -43 -190 -43q-98 0 -176 53.5t-121 135.5l-11 -21q-6 -12 -34 -47q-33 -41 -60 -59q-39 -27 -88 -47q-53 -20 -121 -21q-78 0 -141 39q-65 41 -65 117zM215 180q0 -47 30.5 -71.5t76.5 -24.5q76 0 137 30.5t86 61.5l22 31q-31 123 -32 184 q-125 0 -222 -69q-98 -71 -98 -142zM674 541l342 39q-2 2 -3 8t-1 10q-2 8 -19 41q-16 31 -32 51q-18 20 -45 39t-64 19q-66 0 -113 -54q-51 -57 -65 -153z" />
<glyph unicode="&#xe7;" horiz-adv-x="823" d="M49 373q0 180 101 313q101 135 276 135q63 0 129 -16q57 -14 100 -41t62 -45q23 -23 22 -33q0 -27 -49 -45q-43 -16 -76 -16q-31 0 -102.5 57t-122.5 57q-74 0 -119 -57t-61 -127q-14 -63 -14 -133q0 -172 92 -248q94 -78 207 -78q83 0 141 12.5t86 24.5t37 12 q16 0 16 -18q0 -35 -108 -94q-104 -55 -224 -60l-32 -108q2 0 7 1t9 1h18q98 0 166 -37q70 -39 70 -119q0 -78 -66 -119q-68 -43 -155 -43q-41 0 -76 7q-27 4 -45 14l-12 6l43 49q59 -20 100 -20q45 0 71.5 26.5t26.5 75.5t-45 74q-47 25 -106 24q-31 0 -41 -2l-25 35 l45 137q-96 6 -168 43q-74 39 -108 95q-39 61 -53 123q-17 69 -17 137z" />
<glyph unicode="&#xe8;" horiz-adv-x="843" d="M49 375q0 199 103 319q104 123 260 123q152 0 246 -94t94 -168q0 -14 -10.5 -22.5t-22.5 -8.5l-514 -61v-12q0 -4 -1 -9.5t-1 -7.5q0 -152 86 -237q84 -84 217 -84q72 0 131 24q63 27 94 47q37 25 47 25q18 0 19 -25q0 -27 -45 -71q-49 -49 -136 -93q-94 -47 -192 -47 q-102 0 -178 39q-80 41 -119 105q-43 70 -59 127q-19 63 -19 131zM207 1290h143l107 -332h-74zM209 535l352 45q0 2 -2 8t-4 10q-2 2 -9 15.5t-14 25.5q-16 31 -32 51q-16 18 -49 39q-31 18 -60 19q-63 0 -115 -58q-53 -59 -67 -155z" />
<glyph unicode="&#xe9;" horiz-adv-x="843" d="M49 375q0 199 103 319q104 123 260 123q152 0 246 -94t94 -168q0 -14 -10.5 -22.5t-22.5 -8.5l-514 -61v-12q0 -4 -1 -9.5t-1 -7.5q0 -152 86 -237q84 -84 217 -84q72 0 131 24q63 27 94 47q37 25 47 25q18 0 19 -25q0 -27 -45 -71q-49 -49 -136 -93q-94 -47 -192 -47 q-102 0 -178 39q-80 41 -119 105q-43 70 -59 127q-19 63 -19 131zM209 535l352 45q0 2 -2 8t-4 10q-2 2 -9 15.5t-14 25.5q-16 31 -32 51q-16 18 -49 39q-31 18 -60 19q-63 0 -115 -58q-53 -59 -67 -155zM365 958l106 332h143l-176 -332h-73z" />
<glyph unicode="&#xea;" horiz-adv-x="843" d="M49 375q0 199 103 319q104 123 260 123q152 0 246 -94t94 -168q0 -14 -10.5 -22.5t-22.5 -8.5l-514 -61v-12q0 -4 -1 -9.5t-1 -7.5q0 -152 86 -237q84 -84 217 -84q72 0 131 24q63 27 94 47q37 25 47 25q18 0 19 -25q0 -27 -45 -71q-49 -49 -136 -93q-94 -47 -192 -47 q-102 0 -178 39q-80 41 -119 105q-43 70 -59 127q-19 63 -19 131zM203 958q57 86 164 281h120q119 -217 164 -281h-119q-29 33 -40 52l-46 71q-12 20 -40 62q-18 -27 -39 -62q-14 -25 -48 -71l-38 -52h-78zM209 535l352 45q0 2 -2 8t-4 10q-2 2 -9 15.5t-14 25.5 q-16 31 -32 51q-16 18 -49 39q-31 18 -60 19q-63 0 -115 -58q-53 -59 -67 -155z" />
<glyph unicode="&#xeb;" horiz-adv-x="843" d="M49 375q0 199 103 319q104 123 260 123q152 0 246 -94t94 -168q0 -14 -10.5 -22.5t-22.5 -8.5l-514 -61v-12q0 -4 -1 -9.5t-1 -7.5q0 -152 86 -237q84 -84 217 -84q72 0 131 24q63 27 94 47q37 25 47 25q18 0 19 -25q0 -27 -45 -71q-49 -49 -136 -93q-94 -47 -192 -47 q-102 0 -178 39q-80 41 -119 105q-43 70 -59 127q-19 63 -19 131zM182 1124q0 20 35 53t53 33q25 0 55.5 -36.5t30.5 -55.5q0 -25 -34 -55q-34 -31 -56 -31q-18 0 -51 32.5t-33 59.5zM209 535l352 45q0 2 -2 8t-4 10q-2 2 -9 15.5t-14 25.5q-16 31 -32 51q-16 18 -49 39 q-31 18 -60 19q-63 0 -115 -58q-53 -59 -67 -155zM481 1124q0 18 37 54q35 33 53 32q23 0 53.5 -36.5t30.5 -55.5q0 -25 -34 -55q-34 -31 -56 -31q-18 0 -51 32.5t-33 59.5z" />
<glyph unicode="&#xec;" horiz-adv-x="540" d="M53 1290h144l106 -332h-74zM55 770q151 25 289 61v-710q0 -35 18 -45q20 -10 109 -10h37v-66h-445v66h19q80 0 98 8q20 8 21 39v546q0 39 -6 52q-6 14 -25 14q-25 0 -113 -16z" />
<glyph unicode="&#xed;" horiz-adv-x="540" d="M55 770q151 25 289 61v-710q0 -35 18 -45q20 -10 109 -10h37v-66h-445v66h19q80 0 98 8q20 8 21 39v546q0 39 -6 52q-6 14 -25 14q-25 0 -113 -16zM211 958l106 332h144l-176 -332h-74z" />
<glyph unicode="&#xee;" horiz-adv-x="540" d="M49 958q57 86 164 281h121q119 -217 164 -281h-119q-16 20 -39 52q-49 70 -49 71q-25 41 -39 62q-18 -27 -39 -62q-14 -25 -47 -71l-39 -52h-78zM55 770q151 25 289 61v-710q0 -35 18 -45q20 -10 109 -10h37v-66h-445v66h19q80 0 98 8q20 8 21 39v546q0 39 -6 52 q-6 14 -25 14q-25 0 -113 -16z" />
<glyph unicode="&#xef;" horiz-adv-x="540" d="M49 1124q0 18 37 54q35 33 51 32q25 0 55.5 -36.5t30.5 -55.5q0 -25 -35 -55q-34 -31 -55 -31q-18 0 -51 32.5t-33 59.5zM55 770q151 25 289 61v-710q0 -35 18 -45q20 -10 109 -10h37v-66h-445v66h19q80 0 98 8q20 8 21 39v546q0 39 -6 52q-6 14 -25 14q-25 0 -113 -16z M309 1124q0 20 35 53t53 33q25 0 55.5 -36.5t30.5 -55.5q0 -25 -34 -55q-34 -31 -56 -31q-18 0 -51 32.5t-33 59.5z" />
<glyph unicode="&#xf0;" horiz-adv-x="940" d="M51 391q0 170 105 297q104 125 286 125q49 0 72 -4q35 -6 66 -18q12 -4 26.5 -11.5l18.5 -9.5q12 -4 45 -25q8 -6 16 -11t12 -8t7 -3q-12 90 -56 195q-41 102 -80 161l-37 58q-170 -82 -229 -115l-72 76l240 112q-95 138 -289 258h144q137 -76 249 -211q199 88 207 91 l74 -68q-41 -14 -90 -35q-57 -25 -82 -37q-41 -20 -47 -22q254 -346 254 -748q0 -127 -39 -219t-104 -147q-63 -53 -127 -78t-132 -25q-213 0 -325.5 125t-112.5 297zM215 418q0 -145 82 -254q84 -111 217 -111q41 0 76 15q33 14 71.5 55t59.5 121q23 84 22 196l-20 176 q-6 6 -20.5 17.5t-20.5 17.5q-23 20 -94 58q-71 37 -129 36q-106 0 -174 -98q-70 -100 -70 -229z" />
<glyph unicode="&#xf1;" horiz-adv-x="946" d="M35 66h20q66 0 80 10q12 10 12 59v488q0 66 -6 84t-24 18l-8 -2q-8 -2 -29 -6l-41 -8v63l252 51q-6 -74 -6 -145l6 5q6 5 19.5 14.5l27.5 19.5q49 37 115 63q70 29 141 29q49 0 82 -12q35 -12 55 -39q16 -23 33 -53q10 -18 16 -70q6 -46 6 -74q0 -8 1 -34.5t1 -47.5v-352 q0 -41 23 -51q25 -10 102 -10l-2 -66h-381l-2 66h47q43 0 58 10q12 10 12 51v412q0 88 -31 120q-31 35 -102 35q-39 0 -98 -16q-57 -16 -88 -33l-35 -16v-494q0 -49 16.5 -59t106.5 -10h26l-4 -66h-399zM229 989q2 8 7 23q2 10 16 53q14 45 27 65q10 18 45 50q28 25 61 24 q47 0 88 -22l62 -33q39 -20 67 -21q63 0 96 84l2 7l31 -7l-8 -36q-6 -22 -25 -62q-18 -41 -51 -67.5t-72 -26.5q-37 0 -75 16l-64 33q-39 20 -86 21q-66 0 -90 -101l-2 -6z" />
<glyph unicode="&#xf2;" horiz-adv-x="935" d="M51 399q0 176 103 297q106 125 303 125q100 0 176 -30q86 -35 125 -74q45 -45 76 -107q27 -53 40 -118q12 -55 13 -115q0 -174 -117 -291t-309 -117q-195 0 -303 129q-107 127 -107 301zM215 449q0 -152 78 -277q76 -123 194 -123q117 0 172.5 96.5t55.5 237.5 q0 180 -78 272q-80 96 -199 97q-95 0 -159 -80q-64 -78 -64 -223zM252 1290h143l107 -332h-74z" />
<glyph unicode="&#xf3;" horiz-adv-x="935" d="M51 399q0 176 103 297q106 125 303 125q100 0 176 -30q86 -35 125 -74q45 -45 76 -107q27 -53 40 -118q12 -55 13 -115q0 -174 -117 -291t-309 -117q-195 0 -303 129q-107 127 -107 301zM215 449q0 -152 78 -277q76 -123 194 -123q117 0 172.5 96.5t55.5 237.5 q0 180 -78 272q-80 96 -199 97q-95 0 -159 -80q-64 -78 -64 -223zM410 958l106 332h143l-176 -332h-73z" />
<glyph unicode="&#xf4;" horiz-adv-x="935" d="M51 399q0 176 103 297q106 125 303 125q100 0 176 -30q86 -35 125 -74q45 -45 76 -107q27 -53 40 -118q12 -55 13 -115q0 -174 -117 -291t-309 -117q-195 0 -303 129q-107 127 -107 301zM215 449q0 -152 78 -277q76 -123 194 -123q117 0 172.5 96.5t55.5 237.5 q0 180 -78 272q-80 96 -199 97q-95 0 -159 -80q-64 -78 -64 -223zM248 958q57 86 164 281h120q119 -217 164 -281h-118q-16 20 -39 52q-33 47 -47 71q-12 20 -41 62q-18 -27 -39 -62q-14 -25 -47 -71l-39 -52h-78z" />
<glyph unicode="&#xf5;" horiz-adv-x="935" d="M51 399q0 176 103 297q106 125 303 125q100 0 176 -30q86 -35 125 -74q45 -45 76 -107q27 -53 40 -118q12 -55 13 -115q0 -174 -117 -291t-309 -117q-195 0 -303 129q-107 127 -107 301zM209 989q2 4 2 12q2 7 2 11t3 12l7 19.5t8 21.5q14 45 27 65q10 18 45 50 q28 25 62 24q47 0 88 -22l61 -33q39 -20 68 -21q63 0 96 84l2 7l31 -7q-6 -27 -8.5 -37t-26.5 -61q-20 -43 -49 -67q-33 -27 -72 -27q-37 0 -76 16l-63 33q-39 20 -86 21q-66 0 -90 -101l-2 -6zM215 449q0 -152 78 -277q76 -123 194 -123q117 0 172.5 96.5t55.5 237.5 q0 180 -78 272q-80 96 -199 97q-95 0 -159 -80q-64 -78 -64 -223z" />
<glyph unicode="&#xf6;" horiz-adv-x="935" d="M51 399q0 176 103 297q106 125 303 125q100 0 176 -30q86 -35 125 -74q45 -45 76 -107q27 -53 40 -118q12 -55 13 -115q0 -174 -117 -291t-309 -117q-195 0 -303 129q-107 127 -107 301zM215 449q0 -152 78 -277q76 -123 194 -123q117 0 172.5 96.5t55.5 237.5 q0 180 -78 272q-80 96 -199 97q-95 0 -159 -80q-64 -78 -64 -223zM227 1124q0 20 35 53t53 33q25 0 55.5 -36.5t30.5 -55.5q0 -25 -34 -55q-34 -31 -56 -31q-18 0 -51 32.5t-33 59.5zM526 1124q0 18 37 54q35 33 53 32q23 0 53.5 -36.5t30.5 -55.5q0 -25 -34 -55 q-34 -31 -56 -31q-18 0 -51 32.5t-33 59.5z" />
<glyph unicode="&#xf7;" horiz-adv-x="1480" d="M143 422v119h1196v-119h-1196zM616 160q0 51 37 88t88.5 37t87.5 -37q35 -35 35 -88q0 -51 -35 -86q-37 -37 -88 -37t-88 37t-37 86zM616 803q0 51 37 88q35 35 88.5 35t88 -35t34.5 -88t-35 -88q-37 -37 -88 -37t-88 37t-37 88z" />
<glyph unicode="&#xf8;" horiz-adv-x="933" d="M49 399q0 176 103 297q106 125 303 125q111 0 192 -35l43 74l55 -33l-40 -71q96 -61 139 -166q41 -100 41 -213q0 -174 -117 -291t-309 -117q-96 0 -185 41l-71 -125l-58 31l72 127q-82 61 -125 156q-43 96 -43 200zM213 449q0 -154 78 -279l303 524q-63 57 -158 58 q-95 0 -160 -80q-63 -78 -63 -223zM336 117q68 -68 149 -68q117 0 172.5 96.5t55.5 237.5q0 162 -72 262z" />
<glyph unicode="&#xf9;" horiz-adv-x="944" d="M35 731v62q168 16 250 30v-512q0 -109 32.5 -162t137.5 -53q61 0 106 19q47 18 64 41l14 18v500q0 41 -8 51t-33 10q-80 0 -90 -10l-6 63q141 10 280 35v-596q0 -113 6.5 -137t30.5 -24q8 0 92 22v-65q-31 -6 -252 -66q-2 57 -14 145l-37 -36q-29 -25 -94 -60 q-72 -37 -131 -37q-76 0 -125 24.5t-74 74.5q-25 51 -34 100q-8 43 -9 115v403q0 33 -8 41q-10 10 -31 10l-32 -4q-17 -2 -35 -2zM248 1290h143l107 -332h-74z" />
<glyph unicode="&#xfa;" horiz-adv-x="944" d="M35 731v62q168 16 250 30v-512q0 -109 32.5 -162t137.5 -53q61 0 106 19q47 18 64 41l14 18v500q0 41 -8 51t-33 10q-80 0 -90 -10l-6 63q141 10 280 35v-596q0 -113 6.5 -137t30.5 -24q8 0 92 22v-65q-31 -6 -252 -66q-2 57 -14 145l-37 -36q-29 -25 -94 -60 q-72 -37 -131 -37q-76 0 -125 24.5t-74 74.5q-25 51 -34 100q-8 43 -9 115v403q0 33 -8 41q-10 10 -31 10l-32 -4q-17 -2 -35 -2zM406 958l106 332h143l-176 -332h-73z" />
<glyph unicode="&#xfb;" horiz-adv-x="944" d="M35 731v62q168 16 250 30v-512q0 -109 32.5 -162t137.5 -53q61 0 106 19q47 18 64 41l14 18v500q0 41 -8 51t-33 10q-80 0 -90 -10l-6 63q141 10 280 35v-596q0 -113 6.5 -137t30.5 -24q8 0 92 22v-65q-31 -6 -252 -66q-2 57 -14 145l-37 -36q-29 -25 -94 -60 q-72 -37 -131 -37q-76 0 -125 24.5t-74 74.5q-25 51 -34 100q-8 43 -9 115v403q0 33 -8 41q-10 10 -31 10l-32 -4q-17 -2 -35 -2zM244 958q57 86 164 281h120q119 -217 164 -281h-119q-29 33 -41 52l-45 71q-18 29 -41 62q-29 -41 -40 -62q-23 -39 -46 -71l-38 -52h-78z" />
<glyph unicode="&#xfc;" horiz-adv-x="944" d="M35 731v62q168 16 250 30v-512q0 -109 32.5 -162t137.5 -53q61 0 106 19q47 18 64 41l14 18v500q0 41 -8 51t-33 10q-80 0 -90 -10l-6 63q141 10 280 35v-596q0 -113 6.5 -137t30.5 -24q8 0 92 22v-65q-31 -6 -252 -66q-2 57 -14 145l-37 -36q-29 -25 -94 -60 q-72 -37 -131 -37q-76 0 -125 24.5t-74 74.5q-25 51 -34 100q-8 43 -9 115v403q0 33 -8 41q-10 10 -31 10l-32 -4q-17 -2 -35 -2zM223 1124q0 20 35 53t53 33q25 0 55.5 -36.5t30.5 -55.5q0 -25 -35 -55q-34 -31 -55 -31q-18 0 -51 32.5t-33 59.5zM522 1124q0 18 37 54 q35 33 53 32q23 0 53.5 -36.5t30.5 -55.5q0 -25 -34 -55q-34 -31 -56 -31q-18 0 -51 32.5t-33 59.5z" />
<glyph unicode="&#xfd;" horiz-adv-x="958" d="M14 -438q0 86 78 86q10 0 26.5 -2t33.5 -2q61 0 225 313l61 119l-256 551q-2 4 -7 16t-7 18.5t-5 12.5t-6 9t-3 5t-4.5 8t-6.5 11q-6 14 -12 16l-12 6q-6 6 -21 6h-24q-4 0 -15.5 1t-19.5 1l-4 66h391l-4 -66h-35q-40 0 -55 -6q-16 -6 -17 -22q0 -10 25 -72l174 -391 l129 291q68 151 68 172q0 16 -18.5 22t-71.5 6h-29v66h334v-66h-49h-21q-6 0 -18 -4l-13 -4q-4 0 -10 -6l-8 -8q-2 -2 -8 -15q-2 -4 -6.5 -10t-4.5 -8t-3 -10t-7 -15q-8 -16 -12 -28l-311 -688q-88 -188 -133 -269q-61 -109 -101 -143q-43 -40 -67 -49q-27 -10 -58 -10 q-39 0 -59 26q-23 29 -23 66zM442 958l107 332h143l-176 -332h-74z" />
<glyph unicode="&#xfe;" horiz-adv-x="1034" d="M41 1440q141 20 301 47v-832q25 25 45 41q39 31 111 70q76 41 149 41q143 0 241.5 -117t98.5 -278q0 -188 -108 -314q-108 -123 -283 -123l-254 35v-424q0 -35 29 -43q27 -8 133 -8h31l-3 -65h-471l-2 65q98 0 117 8q23 10 23 41v1704q0 66 -6.5 84.5t-30.5 18.5 q-23 0 -117 -21zM342 113q102 -70 248 -70q92 0 155 57q57 51 78 119q18 61 19 127q0 139 -84 239.5t-203 100.5q-14 0 -47 -4q-25 -3 -43 -12q-4 -2 -35 -15q-15 -6 -30.5 -18l-24.5 -19q-10 -10 -21 -18q-8 -8 -12 -8v-479z" />
<glyph unicode="&#xff;" horiz-adv-x="958" d="M14 -438q0 86 78 86q10 0 26.5 -2t33.5 -2q61 0 225 313l61 119l-256 551q-2 4 -7 16t-7 18.5t-5 12.5t-6 9t-3 5t-4.5 8t-6.5 11q-6 14 -12 16l-12 6q-6 6 -21 6h-24q-4 0 -15.5 1t-19.5 1l-4 66h391l-4 -66h-35q-40 0 -55 -6q-16 -6 -17 -22q0 -10 25 -72l174 -391 l129 291q68 151 68 172q0 16 -18.5 22t-71.5 6h-29v66h334v-66h-49h-21q-6 0 -18 -4l-13 -4q-4 0 -10 -6l-8 -8q-2 -2 -8 -15q-2 -4 -6.5 -10t-4.5 -8t-3 -10t-7 -15q-8 -16 -12 -28l-311 -688q-88 -188 -133 -269q-61 -109 -101 -143q-43 -40 -67 -49q-27 -10 -58 -10 q-39 0 -59 26q-23 29 -23 66zM260 1124q0 18 37 54q35 33 51 32q25 0 55.5 -36.5t30.5 -55.5q0 -25 -35 -55q-34 -31 -55 -31q-18 0 -51 32.5t-33 59.5zM559 1124q0 18 37 54q35 33 53 32q25 0 56 -36q29 -35 28 -56q0 -25 -35 -55q-34 -31 -55 -31q-18 0 -51 32.5t-33 59.5 z" />
<glyph unicode="&#x100;" horiz-adv-x="1484" d="M55 80h25q57 0 76 20q18 23 67 131l133 295l84 189q39 82 45 98q10 23 17.5 37t9.5 22l14 35l209 508h43q125 -328 445 -1098q66 -160 94 -204q20 -33 84 -33h31l-2 -80h-467l2 80h61q90 0 90 24q0 10 -20 64l-152 373h-475l-162 -361q-20 -47 -20 -65q0 -23 14 -29 t70 -6h84v-80h-398zM508 631h401l-194 485zM532 1612v98h472v-98h-472z" />
<glyph unicode="&#x101;" horiz-adv-x="776" d="M55 133q0 127 119 219q123 94 293 94v123q0 72 -24.5 109t-112.5 37q-135 -4 -166 -64q4 -20 8 -33l5 -21l3 -13q4 -16 4 -23q0 -25 -24 -39q-23 -14 -41 -14q-47 0 -47 74q0 27 14 57q16 37 51 74q39 43 115 69q80 29 178 29q33 0 49 -4q27 -6 57.5 -20.5t53.5 -53.5 q20 -35 20 -86v-383q0 -74 27 -121q25 -43 106 -65q18 -6 19 -17q0 -12 -19 -22q-101 -68 -122 -74q-33 25 -48 39l-30 31l-31 37q-6 6 -12 15t-10.5 14t-6.5 8q-35 -49 -108 -93q-66 -39 -131 -39q-74 0 -131.5 39t-57.5 117zM137 1065v98h471v-98h-471zM199 193 q0 -43 30.5 -74t92.5 -31q78 0 112 35q33 33 33 78v190q-119 0 -193 -61q-75 -63 -75 -137z" />
<glyph unicode="&#x102;" horiz-adv-x="1484" d="M55 80h25q57 0 76 20q18 23 67 131l133 295l84 189q39 82 45 98q10 23 17.5 37t9.5 22l14 35l209 508h43q125 -328 445 -1098q66 -160 94 -204q20 -33 84 -33h31l-2 -80h-467l2 80h61q90 0 90 24q0 10 -20 64l-152 373h-475l-162 -361q-20 -47 -20 -65q0 -23 14 -29 t70 -6h84v-80h-398zM508 631h401l-194 485zM551 1724q0 2 1 9.5t1 13.5v25h102v-19q0 -53 27 -86q25 -31 104 -31q49 0 88 31t39 88l-1 3q-1 3 -1 5v9h52v-15q0 -223 -203 -223q-113 0 -160 59q-49 61 -49 131z" />
<glyph unicode="&#x103;" horiz-adv-x="776" d="M55 133q0 127 119 219q123 94 293 94v123q0 72 -24.5 109t-112.5 37q-135 -4 -166 -64q4 -20 8 -33l5 -21l3 -13q4 -16 4 -23q0 -25 -24 -39q-23 -14 -41 -14q-47 0 -47 74q0 27 14 57q16 37 51 74q39 43 115 69q80 29 178 29q33 0 49 -4q27 -6 57.5 -20.5t53.5 -53.5 q20 -35 20 -86v-383q0 -74 27 -121q25 -43 106 -65q18 -6 19 -17q0 -12 -19 -22q-101 -68 -122 -74q-33 25 -48 39l-30 31l-31 37q-6 6 -12 15t-10.5 14t-6.5 8q-35 -49 -108 -93q-66 -39 -131 -39q-74 0 -131.5 39t-57.5 117zM156 1208l2 31h102q-2 -10 -2 -41 q2 -55 41 -90q35 -33 88 -33q52 0 92 37q39 37 39 107l-2 20h51q2 -10 2 -35q0 -113 -57 -172t-149.5 -59t-149.5 61q-57 59 -57 174zM199 193q0 -43 30.5 -74t92.5 -31q78 0 112 35q33 33 33 78v190q-119 0 -193 -61q-75 -63 -75 -137z" />
<glyph unicode="&#x104;" horiz-adv-x="1484" d="M55 80h13q63 0 86 22q20 20 69 129l133 295l84 189q39 82 45 98q10 23 17.5 37t9.5 22l14 35l209 508h43q39 -102 445 -1098q66 -170 96 -208q23 -29 102 -29h11l-2 -80h-197q-100 0 -184 -102.5t-84 -196.5q0 -59 28.5 -100t79.5 -41q49 0 80 14q41 18 53 29 q16 14 25 14q12 0 12 -12q0 -37 -72 -88q-76 -53 -167 -54q-90 0 -136 52q-47 53 -47 129q0 74 45 143q49 76 101 121q55 49 100 100t45 88q0 33 -41 133l-127 312h-475l-162 -361q-20 -47 -20 -65q0 -23 14 -29t70 -6h84v-80h-398zM508 631h401l-194 485z" />
<glyph unicode="&#x105;" horiz-adv-x="776" d="M55 133q0 127 119 219q123 94 293 94v123q0 72 -24.5 109t-112.5 37q-135 -4 -166 -64q4 -20 8 -33l5 -21l3 -13q4 -16 4 -23q0 -25 -24 -39q-23 -14 -41 -14q-47 0 -47 74q0 27 14 57q16 37 51 74q39 43 115 69q80 29 178 29q33 0 49 -4q27 -6 57.5 -20.5t53.5 -53.5 q20 -35 20 -86v-383q0 -72 27 -119q25 -43 106 -67q18 -6 19 -17q0 -12 -19 -22l-106 -64q-88 -53 -139 -127q-49 -71 -49 -141q0 -8 4 -37q2 -10 14 -49q8 -27 33 -45q23 -16 57 -16q49 0 80 14q41 18 53 29q16 14 23 14q14 0 14 -12q0 -37 -72 -88q-76 -53 -168 -54 q-104 0 -143 57.5t-39 129.5q0 92 86 192q86 102 189 156q-25 20 -97 111q-35 -49 -108 -93q-66 -39 -131 -39q-74 0 -131.5 39t-57.5 117zM199 193q0 -43 30.5 -74t92.5 -31q78 0 112 35q33 33 33 78v190q-119 0 -193 -61q-75 -63 -75 -137z" />
<glyph unicode="&#x106;" horiz-adv-x="1507" d="M111 643q0 170 69 320q68 143 178 229q109 84 240 131t254 47q127 0 225 -16q92 -15 135 -31q45 -16 50 -16q25 0 28 10q4 12 4 47v18h78q6 -195 25 -391l-74 -2q-4 37 -6 58q0 8 -1 18t-2 16t-1 11q-4 16 -4 30q0 10 -6 23q0 2 -4.5 6t-4.5 6q-4 10 -14 14q-6 4 -10 5.5 t-8 3.5q-2 0 -5.5 3t-9.5 6t-12 5q-33 14 -37 16q-51 27 -145 45q-98 18 -195 19q-252 0 -412 -166q-162 -168 -161 -406q0 -254 178 -450q176 -195 442 -195q147 0 285 78q139 80 143 133l6 172h72l-12 -299l-29 -18q-8 -4 -76 -41q-55 -29 -120 -55q-53 -23 -148 -41 q-89 -18 -172 -19q-348 0 -547 183q-196 182 -196 493zM786 1489l107 291h143l-176 -291h-74z" />
<glyph unicode="&#x107;" horiz-adv-x="823" d="M49 373q0 180 101 313q101 135 276 135q63 0 129 -16q57 -14 100 -41t62 -45q23 -23 22 -33q0 -27 -49 -45q-43 -16 -76 -16q-31 0 -102.5 57t-122.5 57q-74 0 -119 -57t-61 -127q-14 -63 -14 -133q0 -172 92 -248q94 -78 207 -78q83 0 141 12.5t86 24.5t37 12 q16 0 16 -18q0 -37 -112 -96q-109 -57 -228 -58q-109 0 -190 35q-78 33 -119 96q-43 66 -59 125q-17 58 -17 144zM379 958l106 332h144l-176 -332h-74z" />
<glyph unicode="&#x108;" horiz-adv-x="1507" d="M111 643q0 170 69 320q68 143 178 229q109 84 240 131t254 47q127 0 225 -16q92 -15 135 -31q45 -16 50 -16q25 0 28 10q4 12 4 47v18h78q6 -195 25 -391l-74 -2q-4 37 -6 58q0 8 -1 18t-2 16t-1 11q-4 16 -4 30q0 10 -6 23q0 2 -4.5 6t-4.5 6q-4 10 -14 14q-6 4 -10 5.5 t-8 3.5q-2 0 -5.5 3t-9.5 6t-12 5q-33 14 -37 16q-51 27 -145 45q-98 18 -195 19q-252 0 -412 -166q-162 -168 -161 -406q0 -254 178 -450q176 -195 442 -195q147 0 285 78q139 80 143 133l6 172h72l-12 -299l-29 -18q-8 -4 -76 -41q-55 -29 -120 -55q-53 -23 -148 -41 q-89 -18 -172 -19q-348 0 -547 183q-196 182 -196 493zM625 1528q57 80 163 244h121q70 -111 164 -244h-119l-17 20.5l-19 22.5l-46 53l-25.5 29.5t-19.5 21.5l-125 -147h-77z" />
<glyph unicode="&#x109;" horiz-adv-x="823" d="M49 373q0 180 101 313q101 135 276 135q63 0 129 -16q57 -14 100 -41t62 -45q23 -23 22 -33q0 -27 -49 -45q-43 -16 -76 -16q-31 0 -102.5 57t-122.5 57q-74 0 -119 -57t-61 -127q-14 -63 -14 -133q0 -172 92 -248q94 -78 207 -78q83 0 141 12.5t86 24.5t37 12 q16 0 16 -18q0 -37 -112 -96q-109 -57 -228 -58q-109 0 -190 35q-78 33 -119 96q-43 66 -59 125q-17 58 -17 144zM217 958q57 86 164 281h121q119 -217 164 -281h-119q-16 20 -39 52q-49 70 -49 71q-25 41 -39 62q-18 -27 -39 -62q-14 -25 -47 -71l-39 -52h-78z" />
<glyph unicode="&#x10a;" horiz-adv-x="1507" d="M111 643q0 170 69 320q68 143 178 229q109 84 240 131t254 47q127 0 225 -16q92 -15 135 -31q45 -16 50 -16q25 0 28 10q4 12 4 47v18h78q6 -195 25 -391l-74 -2q-4 37 -6 58q0 8 -1 18t-2 16t-1 11q-4 16 -4 30q0 10 -6 23q0 2 -4.5 6t-4.5 6q-4 10 -14 14q-6 4 -10 5.5 t-8 3.5q-2 0 -5.5 3t-9.5 6t-12 5q-33 14 -37 16q-51 27 -145 45q-98 18 -195 19q-252 0 -412 -166q-162 -168 -161 -406q0 -254 178 -450q176 -195 442 -195q147 0 285 78q139 80 143 133l6 172h72l-12 -299l-29 -18q-8 -4 -76 -41q-55 -29 -120 -55q-53 -23 -148 -41 q-89 -18 -172 -19q-348 0 -547 183q-196 182 -196 493zM760 1661q0 20 34.5 53t53.5 33q25 0 55.5 -37t30.5 -55q0 -25 -35 -56q-34 -31 -55 -30q-18 0 -51 32.5t-33 59.5z" />
<glyph unicode="&#x10b;" horiz-adv-x="823" d="M49 373q0 180 101 313q101 135 276 135q63 0 129 -16q57 -14 100 -41t62 -45q23 -23 22 -33q0 -27 -49 -45q-43 -16 -76 -16q-31 0 -102.5 57t-122.5 57q-74 0 -119 -57t-61 -127q-14 -63 -14 -133q0 -172 92 -248q94 -78 207 -78q83 0 141 12.5t86 24.5t37 12 q16 0 16 -18q0 -37 -112 -96q-109 -57 -228 -58q-109 0 -190 35q-78 33 -119 96q-43 66 -59 125q-17 58 -17 144zM377 1124q0 25 32.5 55.5t53 30.5t53.5 -32q35 -35 35 -55.5t-35 -55.5t-53 -35q-29 0 -57.5 34.5t-28.5 57.5z" />
<glyph unicode="&#x10c;" horiz-adv-x="1507" d="M111 643q0 170 69 320q68 143 178 229q109 84 240 131t254 47q127 0 225 -16q92 -15 135 -31q45 -16 50 -16q25 0 28 10q4 12 4 47v18h78q6 -195 25 -391l-74 -2q-4 37 -6 58q0 8 -1 18t-2 16t-1 11q-4 16 -4 30q0 10 -6 23q0 2 -4.5 6t-4.5 6q-4 10 -14 14q-6 4 -10 5.5 t-8 3.5q-2 0 -5.5 3t-9.5 6t-12 5q-33 14 -37 16q-51 27 -145 45q-98 18 -195 19q-252 0 -412 -166q-162 -168 -161 -406q0 -254 178 -450q176 -195 442 -195q147 0 285 78q139 80 143 133l6 172h72l-12 -299l-29 -18q-8 -4 -76 -41q-55 -29 -120 -55q-53 -23 -148 -41 q-89 -18 -172 -19q-348 0 -547 183q-196 182 -196 493zM606 1772h119l127 -148l125 148h78q-57 -80 -164 -244h-121q-70 111 -164 244z" />
<glyph unicode="&#x10d;" horiz-adv-x="823" d="M49 373q0 180 101 313q101 135 276 135q63 0 129 -16q57 -14 100 -41t62 -45q23 -23 22 -33q0 -27 -49 -45q-43 -16 -76 -16q-31 0 -102.5 57t-122.5 57q-74 0 -119 -57t-61 -127q-14 -63 -14 -133q0 -172 92 -248q94 -78 207 -78q83 0 141 12.5t86 24.5t37 12 q16 0 16 -18q0 -37 -112 -96q-109 -57 -228 -58q-109 0 -190 35q-78 33 -119 96q-43 66 -59 125q-17 58 -17 144zM199 1239h118l39 -51l50 -74q31 -51 38 -61l54 82q49 80 71 104h78q-57 -86 -164 -281h-121q-110 205 -163 281z" />
<glyph unicode="&#x10e;" horiz-adv-x="1521" d="M55 1366h553q193 0 320 -16q120 -15 221 -74q139 -84 213 -227q72 -141 72 -314q0 -96 -21 -184q-23 -94 -80 -195q-63 -109 -145 -180q-92 -80 -234 -127q-147 -49 -333 -49h-529l-2 80h55q76 0 91 12q16 12 16 78v1040q0 55 -14 64q-16 10 -91 10h-86zM418 174 q0 -65 24 -80q23 -14 150 -14q154 0 270 37q125 39 189 92q72 59 116.5 137t63.5 160q18 80 18 166q0 115 -39 217q-39 100 -116 188q-78 86 -211 140q-135 53 -305 53h-76q-53 0 -68 -17q-16 -20 -16 -79v-1000zM520 1720h119l127 -147l125 147h78l-164 -243h-121 q-70 110 -164 243z" />
<glyph unicode="&#x10f;" horiz-adv-x="1046" d="M49 379q0 178 123 303q123 127 279 127q154 -4 264 -90v610q0 57 -29 57q-6 0 -135 -26l-4 63q106 18 311 74v-1354q0 -47 4 -71q2 -16 23 -17q9 0 24 6q2 0 47 15l28 7t30 9v-55l-295 -90q0 12 1 42.5t1 47.5v59q0 29 -2 33v-2q-94 -119 -238 -145q-34 -6 -67 -7 q-152 0 -258.5 113t-106.5 291zM199 451q0 -145 88 -252t233 -107q55 0 103 21q51 23 69 41l23 20v440q-6 10 -31 35q-27 27 -90 60q-70 37 -143 36q-104 0 -178 -83.5t-74 -210.5zM948 1044l35 340l129 -16l-96 -334z" />
<glyph unicode="&#x110;" horiz-adv-x="1521" d="M55 1366h553q193 0 320 -16q120 -15 221 -74q139 -84 213 -227q72 -141 72 -314q0 -96 -21 -184q-23 -94 -80 -195q-63 -109 -145 -180q-92 -80 -234 -127q-147 -49 -333 -49h-529l-2 80h49q78 0 97 12q16 10 16 78v485h-156l2 99h154v456q0 55 -14 64q-16 10 -91 10h-86 zM418 174q0 -65 24 -80q23 -14 150 -14q154 0 270 37q125 39 189 92q72 59 116.5 137t63.5 160q18 80 18 166q0 115 -39 217q-39 100 -116 188q-78 86 -211 140q-135 53 -305 53h-76q-53 0 -68 -17q-16 -20 -16 -79v-420h418l-2 -99h-416v-481z" />
<glyph unicode="&#x111;" horiz-adv-x="1046" d="M49 379q0 178 123 303q123 127 279 127q154 -4 264 -90v342h-219v90h219v178q0 57 -29 57q-6 0 -135 -26l-4 63q106 18 311 74v-346h133v-90h-133v-918q0 -47 4 -71q2 -16 23 -17q9 0 24 6q2 0 47 15l28 7t30 9v-55l-295 -90q0 12 1 42.5t1 47.5v59q0 29 -2 33v-2 q-94 -119 -238 -145q-34 -6 -67 -7q-152 0 -258.5 113t-106.5 291zM199 451q0 -145 88 -252t233 -107q55 0 103 21q51 23 69 41l23 20v440q-6 10 -31 35q-27 27 -90 60q-70 37 -143 36q-104 0 -178 -83.5t-74 -210.5z" />
<glyph unicode="&#x112;" horiz-adv-x="1259" d="M55 1366h1055q2 -156 10 -322l-80 -4q-2 94 -10 154q-6 53 -14 66q-8 14 -25 16q-14 2 -100 2h-348q-80 0 -101 -14q-18 -12 -18 -82v-285q0 -59 8 -70q10 -12 60 -12h309q53 0 65 16q12 15 13 87v77l75 -2v-489h-75v106q0 86 -11 99q-12 16 -63 16h-307 q-49 0 -61.5 -12.5t-12.5 -50.5v-484q0 -55 12.5 -69.5t52.5 -14.5q427 3 504 12q76 8 88 46l1 2l1 2l33 172l70 -11l-51 -317h-1039v80h54q82 0 94 10q14 12 14 68v1038q0 61 -22 74q-25 14 -121 14h-58zM408 1612v98h471v-98h-471z" />
<glyph unicode="&#x113;" horiz-adv-x="843" d="M49 375q0 199 103 319q104 123 260 123q152 0 246 -94t94 -168q0 -14 -10.5 -22.5t-22.5 -8.5l-514 -61v-12q0 -4 -1 -9.5t-1 -7.5q0 -152 86 -237q84 -84 217 -84q72 0 131 24q63 27 94 47q37 25 47 25q18 0 19 -25q0 -27 -45 -71q-49 -49 -136 -93q-94 -47 -192 -47 q-102 0 -178 39q-80 41 -119 105q-43 70 -59 127q-19 63 -19 131zM188 1065v98h471v-98h-471zM209 535l352 45q0 2 -2 8t-4 10q-2 2 -9 15.5t-14 25.5q-16 31 -32 51q-16 18 -49 39q-31 18 -60 19q-63 0 -115 -58q-53 -59 -67 -155z" />
<glyph unicode="&#x114;" horiz-adv-x="1259" d="M55 1366h1055q2 -156 10 -322l-80 -4q-2 94 -10 154q-6 53 -14 66q-8 14 -25 16q-14 2 -100 2h-348q-80 0 -101 -14q-18 -12 -18 -82v-285q0 -59 8 -70q10 -12 60 -12h309q53 0 65 16q12 15 13 87v77l75 -2v-489h-75v106q0 86 -11 99q-12 16 -63 16h-307 q-49 0 -61.5 -12.5t-12.5 -50.5v-484q0 -55 12.5 -69.5t52.5 -14.5q427 3 504 12q76 8 88 46l1 2l1 2l33 172l70 -11l-51 -317h-1039v80h54q82 0 94 10q14 12 14 68v1038q0 61 -22 74q-25 14 -121 14h-58zM426 1724v23q0 6 1 14t1 11h102v-19q0 -55 25 -86t107 -31 q47 0 88 31q39 31 38 88l-1 3q-1 3 -1 5v9h52v-15q0 -223 -203 -223q-113 0 -160 59q-49 61 -49 131z" />
<glyph unicode="&#x115;" horiz-adv-x="843" d="M49 375q0 199 103 319q104 123 260 123q152 0 246 -94t94 -168q0 -14 -10.5 -22.5t-22.5 -8.5l-514 -61v-12q0 -4 -1 -9.5t-1 -7.5q0 -152 86 -237q84 -84 217 -84q72 0 131 24q63 27 94 47q37 25 47 25q18 0 19 -25q0 -27 -45 -71q-49 -49 -136 -93q-94 -47 -192 -47 q-102 0 -178 39q-80 41 -119 105q-43 70 -59 127q-19 63 -19 131zM207 1208l2 31h102q-2 -10 -2 -41q2 -57 39 -90q35 -33 90 -33q52 0 92 37q39 37 39 107l-2 20h51q2 -10 3 -35q0 -113 -57.5 -172t-149.5 -59q-89 0 -148 61q-59 63 -59 174zM209 535l352 45q0 2 -2 8 t-4 10q-2 2 -9 15.5t-14 25.5q-16 31 -32 51q-16 18 -49 39q-31 18 -60 19q-63 0 -115 -58q-53 -59 -67 -155z" />
<glyph unicode="&#x116;" horiz-adv-x="1259" d="M55 1366h1055q2 -156 10 -322l-80 -4q-2 94 -10 154q-6 53 -14 66q-8 14 -25 16q-14 2 -100 2h-348q-80 0 -101 -14q-18 -12 -18 -82v-285q0 -59 8 -70q10 -12 60 -12h309q53 0 65 16q12 15 13 87v77l75 -2v-489h-75v106q0 86 -11 99q-12 16 -63 16h-307 q-49 0 -61.5 -12.5t-12.5 -50.5v-484q0 -55 12.5 -69.5t52.5 -14.5q427 3 504 12q76 8 88 46l1 2l1 2l33 172l70 -11l-51 -317h-1039v80h54q82 0 94 10q14 12 14 68v1038q0 61 -22 74q-25 14 -121 14h-58zM557 1661q0 18 37 53q35 33 51 33q25 0 55.5 -37t30.5 -55 q0 -25 -35 -56q-34 -31 -55 -30q-18 0 -51 32.5t-33 59.5z" />
<glyph unicode="&#x117;" horiz-adv-x="843" d="M49 375q0 199 103 319q104 123 260 123q152 0 246 -94t94 -168q0 -14 -10.5 -22.5t-22.5 -8.5l-514 -61v-12q0 -4 -1 -9.5t-1 -7.5q0 -152 86 -237q84 -84 217 -84q72 0 131 24q63 27 94 47q37 25 47 25q18 0 19 -25q0 -27 -45 -71q-49 -49 -136 -93q-94 -47 -192 -47 q-102 0 -178 39q-80 41 -119 105q-43 70 -59 127q-19 63 -19 131zM209 535l352 45q0 2 -2 8t-4 10q-2 2 -9 15.5t-14 25.5q-16 31 -32 51q-16 18 -49 39q-31 18 -60 19q-63 0 -115 -58q-53 -59 -67 -155zM362 1124q0 25 33 56q35 31 54 30q20 0 53 -32q35 -35 35 -55.5 t-35 -55.5t-53 -35q-29 0 -58 34.5t-29 57.5z" />
<glyph unicode="&#x118;" horiz-adv-x="1259" d="M55 1366h1055q2 -156 10 -322l-80 -4q-2 94 -10 154q-6 53 -14 66q-8 14 -25 16q-14 2 -100 2h-348q-80 0 -101 -14q-18 -12 -18 -82v-285q0 -59 8 -70q10 -12 60 -12h309q59 0 67 16q10 20 11 109v55l75 -2v-489h-75q-4 186 -9 198q-23 23 -65 23h-307 q-49 0 -61.5 -12.5t-12.5 -50.5v-484q0 -55 12.5 -69.5t52.5 -14.5q427 3 504 12q76 8 88 46l1 2l1 2l33 172l70 -11l-51 -317h-70q-59 0 -157.5 -86t-98.5 -186q0 -66 41 -117t104 -51q51 0 92 28.5t44 28.5q14 0 14 -12q0 -35 -65.5 -88.5t-158 -53.5t-151.5 52 q-63 53 -63 145q0 201 290 340h-860v80h29q94 0 115 10q18 9 18 68v1038q0 63 -20.5 75.5t-120.5 12.5h-60z" />
<glyph unicode="&#x119;" horiz-adv-x="843" d="M49 375q0 199 103 319q104 123 260 123q152 0 246 -94t94 -168q0 -14 -10.5 -22.5t-22.5 -8.5l-514 -61v-12q0 -4 -1 -9.5t-1 -7.5q0 -152 86 -237q84 -84 217 -84q35 0 69 6q37 6 64 18q18 8 47 23q23 10 41 24l29 17q41 23 41 -13q0 -20 -41 -67q-20 -25 -94 -78 q-63 -47 -95 -74q-135 -113 -135 -223q0 -76 37 -131t109 -55q49 0 102 28l27.5 15.5t19.5 10.5l6 3q14 0 15 -12q0 -33 -74 -88q-72 -53 -166 -54q-96 0 -157.5 49.5t-61.5 145.5q0 152 239 336q-66 -18 -118 -19q-170 0 -265 119q-96 121 -96 281zM209 535l352 45 q0 2 -2 8t-4 10q-2 2 -9 15.5t-14 25.5q-16 31 -32 51q-16 18 -49 39q-31 18 -60 19q-63 0 -115 -58q-53 -59 -67 -155z" />
<glyph unicode="&#x11a;" horiz-adv-x="1259" d="M55 1366h1055q2 -156 10 -322l-80 -4q-2 94 -10 154q-6 53 -14 66q-8 14 -25 16q-14 2 -100 2h-348q-80 0 -101 -14q-18 -12 -18 -82v-285q0 -59 8 -70q10 -12 60 -12h309q53 0 65 16q12 15 13 87v77l75 -2v-489h-75v106q0 86 -11 99q-12 16 -63 16h-307 q-49 0 -61.5 -12.5t-12.5 -50.5v-484q0 -55 12.5 -69.5t52.5 -14.5q427 3 504 12q76 8 88 46l1 2l1 2l33 172l70 -11l-51 -317h-1039v80h54q82 0 94 10q14 12 14 68v1038q0 61 -22 74q-25 14 -121 14h-58zM403 1772h119l127 -148l125 148h78q-57 -80 -164 -244h-121 q-70 111 -164 244z" />
<glyph unicode="&#x11b;" horiz-adv-x="843" d="M49 375q0 199 103 319q104 123 260 123q152 0 246 -94t94 -168q0 -14 -10.5 -22.5t-22.5 -8.5l-514 -61v-12q0 -4 -1 -9.5t-1 -7.5q0 -152 86 -237q84 -84 217 -84q72 0 131 24q63 27 94 47q37 25 47 25q18 0 19 -25q0 -27 -45 -71q-49 -49 -136 -93q-94 -47 -192 -47 q-102 0 -178 39q-80 41 -119 105q-43 70 -59 127q-19 63 -19 131zM184 1239h119l39 -51q31 -45 49 -74q31 -51 39 -61l53 82q49 80 72 104h78q-57 -86 -164 -281h-121q-111 205 -164 281zM209 535l352 45q0 2 -2 8t-4 10q-2 2 -9 15.5t-14 25.5q-16 31 -32 51q-16 18 -49 39 q-31 18 -60 19q-63 0 -115 -58q-53 -59 -67 -155z" />
<glyph unicode="&#x11c;" horiz-adv-x="1624" d="M111 610q0 193 90 369t270 293q181 117 418 117q186 0 418 -95v103h82l14 -447l-80 -2l-14 213q-12 10 -52 35q-37 25 -147 59q-106 35 -238 35q-143 0 -255.5 -49t-180.5 -131q-68 -83 -104 -184q-37 -102 -37 -217q0 -258 164 -457t436 -199q102 0 194.5 29t124.5 55 l35 29v366h-243l-2 80h565l2 -80h-156v-419l-115 -50q-102 -47 -135 -59q-37 -14 -131 -33q-89 -18 -178 -18q-190 0 -332 53q-145 55 -235 148q-86 88 -133 208q-45 115 -45 248zM633 1528q57 80 164 244h121q70 -111 163 -244h-118q-8 10 -17.5 20.5l-19.5 22.5 q-37 41 -47 53l-43 51l-125 -147h-78z" />
<glyph unicode="&#x11d;" horiz-adv-x="911" d="M-16 -313q0 162 211 247l73 25q-14 0 -22 2q-4 0 -19.5 5l-27.5 9q-23 6 -60 23q-27 12 -47 35q-23 27 -22 53q0 90 163 139l27 6q-2 0 -9 2.5t-11 4.5q-10 4 -47 28q-27 16 -58 51q-27 31 -47 80t-20 113q0 125 98 217t225 92q90 0 164 -43q70 -41 135 -41q35 0 58 8 q27 10 30 15q10 10 19 24l10 23h43v-51q0 -74 -12.5 -92.5t-69.5 -18.5h-33q-55 0 -55 -6t12.5 -20.5t24.5 -47.5q10 -25 10 -73q0 -119 -94 -201q-96 -84 -242 -84q-83 0 -129 -18q-47 -18 -47 -56q0 -16 10 -31q8 -10 33 -14q2 0 17.5 -3t23.5 -3h49h8h68q16 0 40.5 1 t31.5 1q373 0 372 -229q0 -152 -157 -275t-394 -123q-131 0 -231 58q-102 59 -102 168zM141 -289q0 -70 60 -112q58 -43 178 -43q133 0 239.5 65.5t106.5 181.5q0 152 -256 152q-139 0 -233.5 -78t-94.5 -166zM182 958q57 86 164 281h121q119 -217 164 -281h-119 q-16 20 -39 52q-10 18 -22.5 35.5l-24.5 35.5l-41 62q-29 -41 -41 -62q-12 -18 -23.5 -37.5t-21.5 -33.5l-39 -52h-78zM238 524q0 -119 51 -184.5t119 -65.5q59 0 102 55.5t43 159.5q0 119 -49 186.5t-119 67.5q-61 0 -104 -57q-43 -60 -43 -162z" />
<glyph unicode="&#x11e;" horiz-adv-x="1624" d="M111 610q0 193 90 369t270 293q181 117 418 117q186 0 418 -95v103h82l14 -447l-80 -2l-14 213q-12 10 -52 35q-37 25 -147 59q-106 35 -238 35q-143 0 -255.5 -49t-180.5 -131q-68 -83 -104 -184q-37 -102 -37 -217q0 -258 164 -457t436 -199q102 0 194.5 29t124.5 55 l35 29v366h-243l-2 80h565l2 -80h-156v-419l-115 -50q-102 -47 -135 -59q-37 -14 -131 -33q-89 -18 -178 -18q-190 0 -332 53q-145 55 -235 148q-86 88 -133 208q-45 115 -45 248zM637 1724q0 2 1 9.5t1 13.5v25h102v-19q0 -53 27 -86q25 -31 104 -31q49 0 88 31t39 88l-1 3 q-1 3 -1 5v9h52v-15q0 -223 -203 -223q-113 0 -160 59q-49 61 -49 131z" />
<glyph unicode="&#x11f;" horiz-adv-x="911" d="M-16 -313q0 162 211 247l73 25q-14 0 -22 2q-4 0 -19.5 5l-27.5 9q-23 6 -60 23q-27 12 -47 35q-23 27 -22 53q0 90 163 139l27 6q-2 0 -9 2.5t-11 4.5q-10 4 -47 28q-27 16 -58 51q-27 31 -47 80t-20 113q0 125 98 217t225 92q90 0 164 -43q70 -41 135 -41q35 0 58 8 q27 10 30 15q10 10 19 24l10 23h43v-51q0 -74 -12.5 -92.5t-69.5 -18.5h-33q-55 0 -55 -6t12.5 -20.5t24.5 -47.5q10 -25 10 -73q0 -119 -94 -201q-96 -84 -242 -84q-83 0 -129 -18q-47 -18 -47 -56q0 -16 10 -31q8 -10 33 -14q2 0 17.5 -3t23.5 -3h49h8h68q16 0 40.5 1 t31.5 1q373 0 372 -229q0 -152 -157 -275t-394 -123q-131 0 -231 58q-102 59 -102 168zM141 -289q0 -70 60 -112q58 -43 178 -43q133 0 239.5 65.5t106.5 181.5q0 152 -256 152q-139 0 -233.5 -78t-94.5 -166zM186 1208l2 31h103q-2 -10 -2 -41q2 -55 41 -90q35 -33 88 -33 q52 0 92 37q39 37 39 107l-2 20h51q2 -10 2 -35q0 -109 -59 -172q-57 -59 -147.5 -59t-149.5 61q-58 59 -58 174zM238 524q0 -119 51 -184.5t119 -65.5q59 0 102 55.5t43 159.5q0 119 -49 186.5t-119 67.5q-61 0 -104 -57q-43 -60 -43 -162z" />
<glyph unicode="&#x120;" horiz-adv-x="1624" d="M111 610q0 193 90 369t270 293q181 117 418 117q186 0 418 -95v103h82l14 -447l-80 -2l-14 213q-12 10 -52 35q-37 25 -147 59q-106 35 -238 35q-143 0 -255.5 -49t-180.5 -131q-68 -83 -104 -184q-37 -102 -37 -217q0 -258 164 -457t436 -199q102 0 194.5 29t124.5 55 l35 29v366h-243l-2 80h565l2 -80h-156v-419l-115 -50q-102 -47 -135 -59q-37 -14 -131 -33q-89 -18 -178 -18q-190 0 -332 53q-145 55 -235 148q-86 88 -133 208q-45 115 -45 248zM768 1661q0 18 37 53q35 33 51 33q25 0 55.5 -37t30.5 -55q0 -25 -35 -56q-34 -31 -55 -30 q-18 0 -51 32.5t-33 59.5z" />
<glyph unicode="&#x121;" horiz-adv-x="911" d="M-16 -313q0 162 211 247l73 25q-14 0 -22 2q-4 0 -19.5 5l-27.5 9q-23 6 -60 23q-27 12 -47 35q-23 27 -22 53q0 90 163 139l27 6q-2 0 -9 2.5t-11 4.5q-10 4 -47 28q-27 16 -58 51q-27 31 -47 80t-20 113q0 125 98 217t225 92q90 0 164 -43q70 -41 135 -41q35 0 58 8 q27 10 30 15q10 10 19 24l10 23h43v-51q0 -74 -12.5 -92.5t-69.5 -18.5h-33q-55 0 -55 -6t12.5 -20.5t24.5 -47.5q10 -25 10 -73q0 -119 -94 -201q-96 -84 -242 -84q-83 0 -129 -18q-47 -18 -47 -56q0 -16 10 -31q8 -10 33 -14q2 0 17.5 -3t23.5 -3h49h8h68q16 0 40.5 1 t31.5 1q373 0 372 -229q0 -152 -157 -275t-394 -123q-131 0 -231 58q-102 59 -102 168zM141 -289q0 -70 60 -112q58 -43 178 -43q133 0 239.5 65.5t106.5 181.5q0 152 -256 152q-139 0 -233.5 -78t-94.5 -166zM238 524q0 -119 51 -184.5t119 -65.5q59 0 102 55.5t43 159.5 q0 119 -49 186.5t-119 67.5q-61 0 -104 -57q-43 -60 -43 -162zM342 1124q0 25 33 56q35 31 53 30q20 0 53 -32q35 -35 35 -55.5t-35 -55.5t-53 -35q-29 0 -57.5 34.5t-28.5 57.5z" />
<glyph unicode="&#x122;" horiz-adv-x="1624" d="M111 610q0 193 90 369t270 293q181 117 418 117q186 0 418 -95v103h82l14 -447l-80 -2l-14 213q-12 10 -52 35q-37 25 -147 59q-106 35 -238 35q-143 0 -255.5 -49t-180.5 -131q-68 -83 -104 -184q-37 -102 -37 -217q0 -258 164 -457t436 -199q102 0 194.5 29t124.5 55 l35 29v366h-243l-2 80h565l2 -80h-156v-419l-115 -50q-102 -47 -135 -59q-37 -14 -131 -33q-89 -18 -178 -18q-190 0 -332 53q-145 55 -235 148q-86 88 -133 208q-45 115 -45 248zM733 -459q0 16 27 31q28 15 55 43q29 29 29 72q0 37 -22.5 53t-47 22.5t-24.5 16.5q0 6 8 16 l45 58q18 18 28 18q8 0 50 -23q51 -29 59 -49q10 -25 10 -55q0 -88 -71 -154q-70 -63 -125 -63q-21 0 -21 14z" />
<glyph unicode="&#x123;" horiz-adv-x="911" d="M-16 -313q0 162 211 247l73 25q-14 0 -22 2q-4 0 -19.5 5l-27.5 9q-23 6 -60 23q-27 12 -47 35q-23 27 -22 53q0 90 163 139l27 6q-2 0 -9 2.5t-11 4.5q-10 4 -47 28q-27 16 -58 51q-27 31 -47 80t-20 113q0 125 98 217t225 92q90 0 164 -43q70 -41 135 -41q35 0 58 8 q27 10 30 15q10 10 19 24l10 23h43v-51q0 -74 -12.5 -92.5t-69.5 -18.5h-33q-55 0 -55 -6t12.5 -20.5t24.5 -47.5q10 -25 10 -73q0 -119 -94 -201q-96 -84 -242 -84q-83 0 -129 -18q-47 -18 -47 -56q0 -16 10 -31q8 -10 33 -14q2 0 17.5 -3t23.5 -3h49h8h68q16 0 40.5 1 t31.5 1q373 0 372 -229q0 -152 -157 -275t-394 -123q-131 0 -231 58q-102 59 -102 168zM141 -289q0 -70 60 -112q58 -43 178 -43q133 0 239.5 65.5t106.5 181.5q0 152 -256 152q-139 0 -233.5 -78t-94.5 -166zM238 524q0 -119 51 -184.5t119 -65.5q59 0 102 55.5t43 159.5 q0 119 -49 186.5t-119 67.5q-61 0 -104 -57q-43 -60 -43 -162zM297 1083q0 88 71.5 154t125.5 66q23 0 22.5 -16.5t-27.5 -31.5q-28 -15 -55 -43q-29 -29 -28 -71q0 -35 22 -54q16 -14 45 -22q23 -6 23 -16q0 -2 -7 -15l-43 -57q-18 -18 -28 -19q-14 0 -53 21q-47 27 -58 49 q-10 24 -10 55z" />
<glyph unicode="&#x124;" horiz-adv-x="1472" d="M55 1284v82h510v-82h-53q-74 0 -96 -16q-20 -14 -21 -74v-389h666v405q0 55 -14 64q-16 10 -93 10h-86l-2 82h520v-82h-57q-70 0 -86 -14.5t-16 -71.5v-1034q0 -55 20 -70q23 -14 103 -14h69l-2 -80h-510l-2 80h60q68 0 82 14.5t14 75.5v537h-666v-537q0 -61 22.5 -75.5 t125.5 -14.5h59l-4 -80h-524l-2 80h53q80 0 90 10q14 14 14 80v1047q0 49 -20 57q-25 10 -100 10h-54zM516 1528q57 80 164 244h121q70 -111 164 -244h-119q-8 10 -17.5 20.5l-19.5 22.5q-37 41 -47 53l-43 51l-125 -147h-78z" />
<glyph unicode="&#x125;" horiz-adv-x="948" d="M37 66h22q51 0 76 8q18 6 19 39v1216q0 61 -33 62q-10 0 -84 -13v72q66 6 260 37v-830q2 0 25 21q8 6 36 29q6 4 9.5 6t10.5 8l17 14q35 25 47 29l47 22q31 12 54 19q18 4 55 4q55 0 94 -21q41 -23 58 -47q23 -35 30 -77q10 -53 13 -89q2 -25 2 -96v-354q0 -40 12 -49 q14 -10 76 -10h32v-66h-393l-2 66h33q59 0 80 10q18 10 18 47v416q0 82 -43 118.5t-96 36.5q-101 0 -215 -98v-483q0 -29 20 -39q16 -8 84 -8h37l-2 -66h-397zM305 1528q57 80 164 244h121q70 -111 164 -244h-119q-8 10 -17.5 20.5l-19.5 22.5l-21.5 25.5l-23.5 27.5l-45 51 l-125 -147h-78z" />
<glyph unicode="&#x126;" horiz-adv-x="1472" d="M55 1284v82h510v-82h-78q-53 0 -73 -16q-18 -15 -19 -74v-98h666v114q0 53 -16.5 63.5t-90.5 10.5h-86l-2 82h520v-82h-67q-57 0 -74 -14q-18 -16 -18 -72v-102h162l-3 -99h-159v-833q0 -55 20 -70q23 -14 103 -14h69l-2 -80h-510l-2 80h41q83 0 98 12q16 12 17 78v537 h-666v-537q0 -59 23 -76q20 -14 114 -14h70l-4 -80h-524l-2 80h78q55 0 67 12t12 78v827h-170v99h170v121q0 45 -20 57q-18 10 -98 10h-56zM395 805h666v192h-666v-192z" />
<glyph unicode="&#x127;" horiz-adv-x="948" d="M35 66h22q47 0 58 2q16 4 28 12q10 8 11 33v948h-119v90h119v178q0 61 -33 62q-10 0 -84 -13v72q66 6 260 37v-336h215v-90h-215v-404q2 0 25 21q8 6 36 29q6 4 9.5 6t10.5 8l17 14q35 25 47 29l47 22q31 12 54 19q18 4 55 4q55 0 94 -21q41 -23 58 -47q23 -35 30 -77 q10 -53 13 -89q2 -25 2 -96v-354q0 -40 12 -49q14 -10 55 -10h53v-66h-393l-2 66h33q59 0 80 10q18 10 18 47v416q0 82 -43 118.5t-96 36.5q-101 0 -215 -98v-483q0 -33 20 -39q29 -8 115 -8h6l-2 -66h-399z" />
<glyph unicode="&#x128;" horiz-adv-x="657" d="M55 1284l2 82h514v-82h-34q-80 0 -105 -14q-20 -12 -20 -80v-1016q0 -66 16 -80t94 -14h80l2 -80h-524l-2 80h53q82 0 98.5 14.5t16.5 75.5v1040q0 55 -15 64q-16 10 -90 10h-86zM78 1542q4 12 6 22.5t16 53.5q14 45 27 65q10 18 45 50q29 25 61 24q41 0 89 -24l61 -33 q39 -20 70 -21q29 0 55 23q25 23 35 47l8 23l29 -9q-4 -20 -8.5 -34.5t-26.5 -63.5q-20 -43 -49 -68q-33 -27 -72 -26q-34 0 -74 18l-63 31q-39 20 -86 20q-31 0 -55.5 -26.5t-30.5 -52.5l-9 -27z" />
<glyph unicode="&#x129;" horiz-adv-x="540" d="M10 989q2 4 3 12q2 7 1 11q2 10 17 53q8 25 30 65q12 23 43 50q28 25 62 24q47 0 88 -22l61 -33q39 -20 68 -21q63 0 96 84l2 7l31 -7l-8 -36q-6 -22 -25 -62q-18 -41 -51 -67.5t-72 -26.5q-37 0 -75 16l-64 33q-39 20 -86 21q-66 0 -90 -101l-2 -6zM55 770 q151 25 289 61v-710q0 -35 18 -45q20 -10 109 -10h37v-66h-445v66h19q80 0 98 8q20 8 21 39v546q0 39 -6 52q-6 14 -25 14q-25 0 -113 -16z" />
<glyph unicode="&#x12a;" horiz-adv-x="657" d="M55 1284l2 82h514v-82h-34q-80 0 -105 -14q-20 -12 -20 -80v-1016q0 -66 16 -80t94 -14h80l2 -80h-524l-2 80h53q82 0 98.5 14.5t16.5 75.5v1040q0 55 -15 64q-16 10 -90 10h-86zM98 1612v98h471v-98h-471z" />
<glyph unicode="&#x12b;" horiz-adv-x="540" d="M35 1065v98h471v-98h-471zM55 770q151 25 289 61v-710q0 -35 18 -45q20 -10 109 -10h37v-66h-445v66h19q80 0 98 8q20 8 21 39v546q0 39 -6 52q-6 14 -25 14q-25 0 -113 -16z" />
<glyph unicode="&#x12c;" horiz-adv-x="657" d="M55 1284l2 82h514v-82h-34q-80 0 -105 -14q-20 -12 -20 -80v-1016q0 -66 16 -80t94 -14h80l2 -80h-524l-2 80h53q82 0 98.5 14.5t16.5 75.5v1040q0 55 -15 64q-16 10 -90 10h-86zM117 1724q0 2 1 9.5t1 13.5v25h102v-19q0 -55 24.5 -86t106.5 -31q49 0 88 31t39 88l-1 3 q-1 3 -1 5v9h51v-15q0 -223 -202 -223q-113 0 -160 59q-49 61 -49 131z" />
<glyph unicode="&#x12d;" horiz-adv-x="540" d="M53 1208l2 31h103q-2 -10 -2 -41q2 -57 39 -90q35 -33 90 -33q52 0 92 37q39 37 39 107l-2 20h51q2 -10 2 -35q0 -109 -59 -172q-57 -59 -148 -59q-92 0 -149 61q-58 59 -58 174zM55 770q151 25 289 61v-710q0 -35 18 -45q20 -10 109 -10h37v-66h-445v66h19q80 0 98 8 q20 8 21 39v546q0 39 -6 52q-6 14 -25 14q-25 0 -113 -16z" />
<glyph unicode="&#x12e;" horiz-adv-x="657" d="M55 1284l2 82h514v-82h-65q-59 0 -76 -14q-18 -15 -18 -80v-1016q0 -63 16 -80q14 -14 100 -14h74l2 -80h-233q-94 -131 -95 -248q0 -188 148 -188q55 0 90 14l37 16q12 0 12 -12q0 -31 -57 -74q-55 -41 -143.5 -40.5t-152 51.5t-63.5 151q0 76 35 146q34 68 129 184 h-231l-2 80h41q90 0 108.5 12t18.5 78v1040q0 55 -15 64q-16 10 -90 10h-86z" />
<glyph unicode="&#x12f;" horiz-adv-x="540" d="M55 770q151 25 289 61v-710q0 -37 21 -45q25 -10 112 -10h31v-66h-203q-92 -129 -92 -248q0 -188 147 -188q51 0 86 14q39 16 41 16q12 0 13 -12q0 -31 -58 -74q-55 -41 -143 -40.5t-151.5 51.5t-63.5 151q0 76 35 146q34 68 129 184h-185v66h39q59 0 78 8q20 8 21 39 v546q0 39 -6 52q-6 14 -25 14q-25 0 -113 -16zM209 1217q0 25 32.5 55.5t53 30.5t53.5 -33q35 -35 35 -55.5t-35 -55.5t-53 -35q-27 0 -57 37q-29 36 -29 56z" />
<glyph unicode="&#x130;" horiz-adv-x="657" d="M55 1284l2 82h514v-82h-34q-80 0 -105 -14q-20 -12 -20 -80v-1016q0 -66 16 -80t94 -14h80l2 -80h-524l-2 80h53q82 0 98.5 14.5t16.5 75.5v1040q0 55 -15 64q-16 10 -90 10h-86zM248 1661q0 20 34.5 53t53.5 33q25 0 55.5 -37t30.5 -55q0 -25 -35 -56q-34 -31 -55 -30 q-18 0 -51 32.5t-33 59.5z" />
<glyph unicode="&#x131;" horiz-adv-x="540" d="M55 770q151 25 289 61v-710q0 -35 18 -45q20 -10 109 -10h37v-66h-445v66h19q80 0 98 8q20 8 21 39v546q0 39 -6 52q-6 14 -25 14q-25 0 -113 -16z" />
<glyph unicode="&#x132;" horiz-adv-x="1282" d="M55 1284l2 82h514v-82h-34q-80 0 -105 -14q-20 -12 -20 -80v-1016q0 -66 16 -80t94 -14h80l2 -80h-524l-2 80h53q82 0 98.5 14.5t16.5 75.5v1040q0 55 -15 64q-16 10 -90 10h-86zM504 -430q0 41 47 84q46 43 80 43q31 0 71 -57q39 -55 70 -56q133 0 133 367v1259 q0 49 -14 61.5t-78 12.5h-76v82h492l-4 -82h-66q-57 0 -72 -14q-16 -16 -16 -80v-1194q0 -195 -53 -285q-29 -49 -96 -112q-74 -72 -121 -95q-63 -33 -137 -32q-57 0 -111 32q-49 31 -49 66z" />
<glyph unicode="&#x133;" horiz-adv-x="1050" d="M55 770q151 25 289 61v-710q0 -35 18 -45q20 -10 109 -10h37v-66h-445v66h19q80 0 98 8q20 8 21 39v546q0 39 -6 52q-6 14 -25 14q-25 0 -113 -16zM209 1217q0 25 32.5 55.5t53 30.5t53.5 -33q35 -35 35 -55.5t-35 -55.5t-53 -35q-27 0 -57 37q-29 36 -29 56zM408 -455 q0 33 38 68q35 33 72 33q14 0 53 -43q41 -45 58 -45q94 0 94 278v801q0 35 -2 45q-2 14 -12 27q-9 12 -31 12q-6 0 -90 -19l-10 62q53 8 288 63v-925q0 -158 -28 -238q-27 -76 -86 -119q-98 -80 -185 -80q-51 0 -104 27q-55 28 -55 53zM698 1217q0 25 33 55q35 31 53 31 q20 0 54 -33q35 -35 34.5 -55.5t-35 -55.5t-53.5 -35q-27 0 -57 37q-29 36 -29 56z" />
<glyph unicode="&#x134;" horiz-adv-x="622" d="M-156 -430q0 41 47 84q46 43 80 43q31 0 72 -57q39 -55 70 -56q133 0 133 367v1259q0 49 -14.5 61.5t-77.5 12.5h-76v82h491l-4 -82h-65q-57 0 -72 -14q-16 -16 -16 -80v-1194q0 -199 -54 -285q-25 -41 -96 -112q-68 -68 -121 -95q-63 -33 -137 -32q-57 0 -110 32 q-50 31 -50 66zM102 1528q57 80 164 244h121q70 -111 164 -244h-119l-17 20.5l-20 22.5l-45 53q-10 12 -26.5 29.5t-18.5 21.5l-125 -147h-78z" />
<glyph unicode="&#x135;" horiz-adv-x="507" d="M-135 -455q0 33 39 68q35 33 71 33q12 0 54 -43q41 -45 57 -45q94 0 94 278v801q0 35 -2 45q-2 14 -12 27q-9 12 -31 12q-8 0 -90 -19l-10 62q53 8 289 63v-925q0 -158 -29 -238q-27 -76 -86 -119q-98 -80 -184 -80q-51 0 -105 27q-55 28 -55 53zM-4 958q57 86 164 281 h121q119 -217 163 -281h-118q-16 20 -39 52q-49 70 -49 71q-25 41 -39 62q-18 -27 -39 -62q-14 -25 -47 -71l-39 -52h-78z" />
<glyph unicode="&#x136;" horiz-adv-x="1488" d="M55 1284v82h512v-82h-65q-59 0 -74 -14q-16 -16 -16 -80v-471l598 485q51 43 51 60q0 20 -94 20h-80l-4 82h491v-82h-53q-63 0 -94 -18q-25 -14 -154 -115l-463 -371l619 -645q53 -55 88 -55h119l-4 -80h-322l-623 684l-75 -61v-449q0 -70 24.5 -82t136.5 -12h45v-80 h-524l-2 80h55q74 0 86.5 12t12.5 78v1040q0 55 -15 64q-16 10 -90 10h-86zM674 -485q0 16 28 32q23 12 54 43q29 29 28 70q0 35 -24 53q-20 16 -45 23q-23 6 -23 16q0 6 8 17l43 57q18 18 28.5 18t51.5 -22q47 -27 58 -49q10 -25 10 -56q0 -88 -72 -153q-70 -63 -125 -64 q-20 1 -20 15z" />
<glyph unicode="&#x137;" horiz-adv-x="964" d="M35 1432l266 53v-1075l375 305q14 12 14 18q0 14 -43 15h-61v55h329l-2 -55h-30q-55 0 -113 -46l-291 -231l305 -356q2 -2 15 -19q6 -8 12 -14l4 -3q4 -3 6 -5q6 -6 13 -6h18q2 0 10 -1t15 -1h55l-2 -66h-242l-319 393l-72 -55v-221q0 -34 18 -43q16 -8 88 -8h56l2 -66 h-420v66h22q70 0 82.5 6t12.5 39v1177q0 57 -6 76q-6 20 -25 20q-16 0 -88 -18zM389 -485q0 18 27 32q28 15 55 43q29 29 29 70q0 35 -23 53q-18 16 -45 23q-25 6 -24 16q0 6 8 17l43 57q18 18 28.5 18t51.5 -22q47 -27 57 -49q10 -25 10 -56q0 -88 -71 -153 q-70 -63 -125 -64q-21 1 -21 15z" />
<glyph unicode="&#x139;" horiz-adv-x="1193" d="M55 1284l2 82h525v-82h-93q-55 0 -71.5 -12t-16.5 -64v-1034q0 -51 12.5 -65.5t55.5 -14.5q420 4 516 21q31 2 43 34.5t41 196.5l72 -4l-68 -342h-989l-2 80h57q74 0 84 10q12 12 13 68v1059q0 43 -23 55q-22 12 -86 12h-72zM266 1489l107 291h143l-176 -291h-74z" />
<glyph unicode="&#x13a;" horiz-adv-x="536" d="M35 1440q141 20 301 47v-1366q0 -39 33 -49q12 -2 133 -6v-66h-447v66q100 2 119 10q18 10 19 45v1167q0 66 -6.5 84.5t-30.5 18.5q-23 0 -117 -21zM150 1511l98 269h143l-158 -258z" />
<glyph unicode="&#x13b;" horiz-adv-x="1193" d="M55 1284l2 82h525v-82h-93q-55 0 -71.5 -12t-16.5 -64v-1034q0 -51 12.5 -65.5t55.5 -14.5q420 4 516 21q31 2 43 34.5t41 196.5l72 -4l-68 -342h-989l-2 80h57q74 0 84 10q12 12 13 68v1059q0 43 -23 55q-22 12 -86 12h-72zM489 -412q0 16 27 31q33 18 57 43 q27 27 27 72q0 35 -25 53q-20 16 -45 23q-23 6 -22 16q0 6 8 16l43 58q18 18 28.5 18t51.5 -22q49 -27 57 -48q10 -25 11 -57q0 -88 -72 -153q-70 -63 -125 -64q-21 0 -21 14z" />
<glyph unicode="&#x13c;" horiz-adv-x="534" d="M35 1440q141 20 301 47v-1366q0 -35 24 -45q27 -10 107 -10h35v-66h-447v66h45q53 0 74 10q18 10 19 45v1167q0 66 -6.5 84.5t-30.5 18.5q-23 0 -117 -21zM160 -411.5q0 14.5 28 30.5q23 12 54 43q29 29 28 72q0 35 -22 53q-18 14 -47 23q-23 6 -23 16q0 6 8 16l43 58 q18 18 28.5 18t51.5 -22q49 -27 58 -48q10 -25 10 -57q0 -88 -72 -153q-70 -63 -125 -64q-20 0 -20 14.5z" />
<glyph unicode="&#x13d;" horiz-adv-x="1193" d="M55 1284l2 82h525v-82h-93q-55 0 -71.5 -12t-16.5 -64v-1034q0 -51 12.5 -65.5t55.5 -14.5q420 4 516 21q31 2 43 34.5t41 196.5l72 -4l-68 -342h-989l-2 80h57q74 0 84 10q12 12 13 68v1059q0 43 -23 55q-22 12 -86 12h-72zM676 1044l35 340l129 -16l-97 -334z" />
<glyph unicode="&#x13e;" horiz-adv-x="534" d="M35 1440q141 20 301 47v-1366q0 -35 24 -45q27 -10 107 -10h35v-66h-447v66h45q53 0 74 10q18 10 19 45v1167q0 66 -6.5 84.5t-30.5 18.5q-23 0 -117 -21zM438 1044l35 340l129 -16l-96 -334z" />
<glyph unicode="&#x13f;" horiz-adv-x="1193" d="M55 1284l2 82h525v-82h-93q-55 0 -71.5 -12t-16.5 -64v-1034q0 -51 12.5 -65.5t55.5 -14.5q420 4 516 21q31 2 43 34.5t41 196.5l72 -4l-68 -342h-989l-2 80h57q74 0 84 10q12 12 13 68v1059q0 43 -23 55q-22 12 -86 12h-72zM838 686q0 18 36 53q35 33 52 33 q25 0 55.5 -37t30.5 -55q0 -23 -35 -53q-34 -31 -55 -31q-18 0 -51 32.5t-33 57.5z" />
<glyph unicode="&#x140;" horiz-adv-x="917" d="M35 1440q141 20 301 47v-1366q0 -35 24 -45q27 -10 107 -10h35v-66h-447v66h45q53 0 74 10q18 10 19 45v1167q0 66 -6.5 84.5t-30.5 18.5q-23 0 -117 -21zM627 686q0 20 34.5 53t53.5 33q25 0 55.5 -37t30.5 -55q0 -23 -35 -53q-34 -31 -55 -31q-18 0 -51 32.5t-33 57.5z " />
<glyph unicode="&#x141;" horiz-adv-x="1193" d="M55 1284l2 82h525v-82h-93q-55 0 -71.5 -12t-16.5 -64v-497l381 106l6 -98l-387 -101v-444q0 -51 12.5 -65.5t55.5 -14.5q420 4 516 21q31 2 43 34.5t41 196.5l72 -4l-68 -342h-989l-2 80h47q80 0 92 10q14 12 15 68v420l-156 -48l-10 99l166 41v547q0 43 -21 55 q-22 12 -80 12h-80z" />
<glyph unicode="&#x142;" horiz-adv-x="536" d="M37 1440q141 20 301 47v-664l141 58l6 -99l-147 -49v-612q0 -35 24 -45q27 -10 117 -10h25v-66h-449v66h45q49 0 74 10q20 8 21 45v561l-144 -57l-4 100l148 47v516q0 66 -6.5 84.5t-30.5 18.5q-23 0 -117 -21z" />
<glyph unicode="&#x143;" horiz-adv-x="1521" d="M55 1366h318l839 -1083v927q0 49 -22.5 61.5t-89.5 12.5h-72l4 82h436v-82h-47q-68 0 -90 -16.5t-22 -73.5v-1180v-22q0 -8 -2 -14.5t-7 -10.5q-2 -2 -10 -2h-28h-9l-4 1l-4 1q-4 0 -6 2t-2 4t-2 4q-4 4 -8 11q-2 2 -5 7t-5 7l-893 1147l10 -975q0 -65 24 -80 q23 -14 127 -14h35v-80h-430v80h62q55 0 71 16q14 14 15 74v1090l-21 24h-160zM719 1489l106 291h144l-176 -291h-74z" />
<glyph unicode="&#x144;" horiz-adv-x="946" d="M35 66h20q66 0 80 10q12 10 12 59v488q0 66 -6 84t-24 18l-8 -2q-8 -2 -29 -6l-41 -8v63l252 51q-6 -74 -6 -145l6 5q6 5 19.5 14.5l27.5 19.5q49 37 115 63q70 29 141 29q49 0 82 -12q35 -12 55 -39q16 -23 33 -53q10 -18 16 -70q6 -46 6 -74q0 -8 1 -34.5t1 -47.5v-352 q0 -41 23 -51q25 -10 102 -10l-2 -66h-381l-2 66h47q43 0 58 10q12 10 12 51v412q0 88 -31 120q-31 35 -102 35q-39 0 -98 -16q-57 -16 -88 -33l-35 -16v-494q0 -49 16.5 -59t106.5 -10h26l-4 -66h-399zM430 958l107 332h143l-176 -332h-74z" />
<glyph unicode="&#x145;" horiz-adv-x="1521" d="M55 1366h318l839 -1083v927q0 49 -22.5 61.5t-89.5 12.5h-72l4 82h436v-82h-47q-68 0 -90 -16.5t-22 -73.5v-1180v-22q0 -8 -2 -14.5t-7 -10.5q-2 -2 -10 -2h-28h-9l-4 1l-4 1q-4 0 -6 2t-2 4t-2 4q-4 4 -8 11q-2 2 -5 7t-5 7l-893 1147l10 -975q0 -65 24 -80 q23 -14 127 -14h35v-80h-430v80h62q55 0 71 16q14 14 15 74v1090l-21 24h-160zM672 -485q0 16 28 32q23 12 54 43q29 29 28 70q0 35 -22 53q-18 14 -47 23q-23 6 -23 16q0 6 8 17l43 57q18 18 28.5 18t51.5 -22q47 -27 58 -49q10 -25 10 -56q0 -88 -72 -153 q-70 -63 -125 -64q-20 1 -20 15z" />
<glyph unicode="&#x146;" horiz-adv-x="946" d="M35 66h20q66 0 80 10q12 10 12 59v488q0 66 -6 84t-24 18l-8 -2q-8 -2 -29 -6l-41 -8v63l252 51q-6 -74 -6 -145l6 5q6 5 19.5 14.5l27.5 19.5q49 37 115 63q70 29 141 29q49 0 82 -12q35 -12 55 -39q16 -23 33 -53q10 -18 16 -70q6 -46 6 -74q0 -8 1 -34.5t1 -47.5v-352 q0 -41 23 -51q25 -10 102 -10l-2 -66h-381l-2 66h47q43 0 58 10q12 10 12 51v412q0 88 -31 120q-31 35 -102 35q-39 0 -98 -16q-57 -16 -88 -33l-35 -16v-494q0 -49 16.5 -59t106.5 -10h26l-4 -66h-399zM375 -485q0 16 28 32q23 12 54 43q29 29 28 70q0 35 -24 53 q-20 16 -45 23q-23 6 -23 16q0 6 8 17l43 57q18 18 28.5 18t51.5 -22q47 -27 58 -49q10 -25 10 -56q0 -88 -72 -153q-70 -63 -125 -64q-20 1 -20 15z" />
<glyph unicode="&#x147;" horiz-adv-x="1521" d="M55 1366h318l839 -1083v927q0 49 -22.5 61.5t-89.5 12.5h-72l4 82h436v-82h-47q-68 0 -90 -16.5t-22 -73.5v-1180v-22q0 -8 -2 -14.5t-7 -10.5q-2 -2 -10 -2h-28h-9l-4 1l-4 1q-4 0 -6 2t-2 4t-2 4q-4 4 -8 11q-2 2 -5 7t-5 7l-893 1147l10 -975q0 -65 24 -80 q23 -14 127 -14h35v-80h-430v80h62q55 0 71 16q14 14 15 74v1090l-21 24h-160zM539 1772h118l127 -148l125 148h78q-57 -80 -164 -244h-121q-69 111 -163 244z" />
<glyph unicode="&#x148;" horiz-adv-x="946" d="M35 66h20q66 0 80 10q12 10 12 59v488q0 66 -6 84t-24 18l-8 -2q-8 -2 -29 -6l-41 -8v63l252 51q-6 -74 -6 -145l6 5q6 5 19.5 14.5l27.5 19.5q49 37 115 63q70 29 141 29q49 0 82 -12q35 -12 55 -39q16 -23 33 -53q10 -18 16 -70q6 -46 6 -74q0 -8 1 -34.5t1 -47.5v-352 q0 -41 23 -51q25 -10 102 -10l-2 -66h-381l-2 66h47q43 0 58 10q12 10 12 51v412q0 88 -31 120q-31 35 -102 35q-39 0 -98 -16q-57 -16 -88 -33l-35 -16v-494q0 -49 16.5 -59t106.5 -10h26l-4 -66h-399zM250 1239h119l39 -51l20 -31.5l27 -42.5q18 -29 41 -61l53 82 q49 80 72 104h77q-57 -86 -163 -281h-121q-111 205 -164 281z" />
<glyph unicode="&#x149;" horiz-adv-x="1443" d="M141 976.5q0 18.5 31 39.5q37 25 64 55q33 37 32 90q0 43 -26 66q-25 23 -51.5 31t-26.5 20q0 4 8 18l49 72q16 25 33 25q10 0 57 -29t64 -55q14 -27 14 -76q0 -115 -82 -195q-83 -80 -141 -80q-25 0 -25 18.5zM532 66h21q66 0 80 10q12 10 12 59v488q0 66 -6 84t-25 18 l-8 -2q-8 -2 -28.5 -6l-40.5 -8v63l251 51q-6 -74 -6 -145q2 2 52 39q43 33 118 63q70 29 140 29q47 0 82 -12q33 -12 53 -39q23 -29 35 -53.5t18 -69.5q4 -31 4 -74q0 -8 1 -34.5t1 -47.5v-352q0 -41 23 -51q25 -10 102 -10l-2 -66h-381l-2 66h47q43 0 57 10q12 10 13 51 v412q0 88 -31 120q-31 35 -102 35q-39 0 -99 -16q-61 -16 -90 -33l-33 -16v-494q0 -49 16.5 -59t106.5 -10h27l-4 -66h-399z" />
<glyph unicode="&#x14c;" horiz-adv-x="1632" d="M111 670q0 178 59 315q61 141 162 229q101 89 227 136q123 45 262 45q184 0 338 -76q158 -78 262 -244q102 -162 103 -393q0 -139 -45 -262t-133.5 -227.5t-225.5 -163.5q-141 -61 -315 -62q-166 0 -303 59.5t-219 159.5q-84 102 -127 226q-45 129 -45 258zM295 737 q0 -168 63 -325q59 -152 195 -254q133 -102 307 -103q201 0 338 150q139 152 139 426q0 309 -170 495q-168 184 -389 185q-76 0 -155.5 -29t-153.5 -88q-80 -63 -127 -180q-47 -115 -47 -277zM588 1612v98h471v-98h-471z" />
<glyph unicode="&#x14d;" horiz-adv-x="935" d="M51 399q0 176 103 297q106 125 303 125q100 0 176 -30q86 -35 125 -74q45 -45 76 -107q27 -53 40 -118q12 -55 13 -115q0 -174 -117 -291t-309 -117q-195 0 -303 129q-107 127 -107 301zM215 449q0 -152 78 -277q76 -123 194 -123q117 0 172.5 96.5t55.5 237.5 q0 180 -78 272q-80 96 -199 97q-95 0 -159 -80q-64 -78 -64 -223zM233 1065v98h472v-98h-472z" />
<glyph unicode="&#x14e;" horiz-adv-x="1632" d="M111 670q0 178 59 315q61 141 162 229q101 89 227 136q123 45 262 45q184 0 338 -76q158 -78 262 -244q102 -162 103 -393q0 -139 -45 -262t-133.5 -227.5t-225.5 -163.5q-141 -61 -315 -62q-166 0 -303 59.5t-219 159.5q-84 102 -127 226q-45 129 -45 258zM295 737 q0 -168 63 -325q59 -152 195 -254q133 -102 307 -103q201 0 338 150q139 152 139 426q0 309 -170 495q-168 184 -389 185q-76 0 -155.5 -29t-153.5 -88q-80 -63 -127 -180q-47 -115 -47 -277zM606 1724v23q0 6 1 14t1 11h103v-19q0 -53 26 -86q25 -31 105 -31q47 0 88 31 q39 31 39 88v8q0 2 -1 5l-1 4h51v-15q0 -223 -203 -223q-113 0 -160 59q-49 61 -49 131z" />
<glyph unicode="&#x14f;" horiz-adv-x="935" d="M51 399q0 176 103 297q106 125 303 125q100 0 176 -30q86 -35 125 -74q45 -45 76 -107q27 -53 40 -118q12 -55 13 -115q0 -174 -117 -291t-309 -117q-195 0 -303 129q-107 127 -107 301zM215 449q0 -152 78 -277q76 -123 194 -123q117 0 172.5 96.5t55.5 237.5 q0 180 -78 272q-80 96 -199 97q-95 0 -159 -80q-64 -78 -64 -223zM252 1208l2 31h102q-2 -10 -2 -41q2 -57 39 -90q35 -33 90 -33q52 0 92 37q39 37 39 107l-2 20h52q2 -10 2 -35q0 -113 -57.5 -172t-149.5 -59q-89 0 -148 61q-59 63 -59 174z" />
<glyph unicode="&#x150;" horiz-adv-x="1632" d="M111 670q0 178 59 315q61 141 162 229q101 89 227 136q123 45 262 45q184 0 338 -76q158 -78 262 -244q102 -162 103 -393q0 -139 -45 -262t-133.5 -227.5t-225.5 -163.5q-141 -61 -315 -62q-166 0 -303 59.5t-219 159.5q-84 102 -127 226q-45 129 -45 258zM295 737 q0 -168 63 -325q59 -152 195 -254q133 -102 307 -103q201 0 338 150q139 152 139 426q0 309 -170 495q-168 184 -389 185q-76 0 -155.5 -29t-153.5 -88q-80 -63 -127 -180q-47 -115 -47 -277zM598 1489l107 291h143l-176 -291h-74zM899 1489l105 291h145l-176 -291h-74z" />
<glyph unicode="&#x151;" horiz-adv-x="935" d="M51 399q0 176 103 297q106 125 303 125q100 0 176 -30q86 -35 125 -74q45 -45 76 -107q27 -53 40 -118q12 -55 13 -115q0 -174 -117 -291t-309 -117q-195 0 -303 129q-107 127 -107 301zM215 449q0 -152 78 -277q76 -123 194 -123q117 0 172.5 96.5t55.5 237.5 q0 180 -78 272q-80 96 -199 97q-95 0 -159 -80q-64 -78 -64 -223zM233 958l107 332h143l-176 -332h-74zM535 958l106 332h143l-176 -332h-73z" />
<glyph unicode="&#x152;" horiz-adv-x="2156" d="M113 670q0 178 59 315q61 141 162 229q101 89 227 136q123 45 262 45q96 0 194.5 -14.5t227.5 -14.5h760q2 -131 12 -322l-82 -4q-2 94 -10 154q-6 51 -12 66q-6 12 -25 16q-14 2 -102 2h-348q-82 0 -101 -14q-16 -12 -16 -82v-285q0 -59 8 -70q9 -12 55 -12h312 q53 0 65.5 16.5t12.5 81.5v82l75 -2v-489h-75v104q0 84 -10.5 100.5t-61.5 16.5h-309q-45 0 -60 -10q-12 -10 -12 -53v-484q0 -57 10 -69q12 -14 53 -15q427 3 504 12q76 8 88 46l1 2l1 2l33 172l70 -11l-51 -317h-762q-25 0 -215.5 -16.5t-247.5 -16.5q-166 0 -303 60 q-133 57 -217 159.5t-127 225.5q-45 129 -45 258zM295 737q0 -119 39 -245q35 -117 106 -220q70 -100 178 -157q113 -59 244 -60q80 0 150 15q68 14 108 32l35 17v1124q-172 68 -375 68q-55 0 -121 -17q-55 -14 -129 -57q-59 -35 -118 -104q-49 -57 -84 -166 q-33 -101 -33 -230z" />
<glyph unicode="&#x153;" horiz-adv-x="1517" d="M53 399q0 178 103 299q104 123 301 123q131 0 219 -57q90 -59 117 -152q43 94 122.5 149.5t169.5 55.5q147 0 242 -94q96 -96 96 -168q0 -14 -12 -23q-10 -8 -18 -8l-516 -61v-29q0 -150 84 -237q82 -84 217 -84q72 0 133 24q63 27 96 47q37 25 45 25q16 0 16 -25 q0 -27 -38.5 -71.5t-127 -92t-186.5 -47.5q-244 0 -317 213q-41 -104 -131 -161q-90 -55 -207 -56q-194 0 -301 129q-107 127 -107 301zM215 449q0 -152 78 -277q76 -123 194 -123q117 0 172.5 96.5t55.5 237.5q0 180 -78 272q-80 96 -199 97q-95 0 -159 -80 q-64 -78 -64 -223zM883 535l352 45q0 2 -2 8t-4 10l-21 41q-12 25 -34 51q-18 23 -48 39q-31 18 -61 19q-63 0 -115 -58q-53 -59 -67 -155z" />
<glyph unicode="&#x154;" horiz-adv-x="1419" d="M47 1284l2 82h471q166 0 254 -20q94 -23 162 -78q147 -121 147 -287q0 -106 -69 -195q-72 -90 -223 -129l393 -522q45 -55 88 -55h88l4 -80h-297l-438 631h-25q-6 0 -14 -1t-10 -1q-129 0 -187 12v-502q0 -43 21 -51q18 -8 121 -8h104l-4 -80h-545v80h47q68 0 78 8 q12 10 12 51v1071q0 47 -28 60q-33 14 -95 14h-57zM393 709q27 -20 131 -21q186 0 271 64q86 63 86 198q0 147 -113 242q-111 92 -313 92q-37 0 -49 -16q-12 -14 -13 -78v-481zM532 1489l107 291h143l-176 -291h-74z" />
<glyph unicode="&#x155;" horiz-adv-x="698" d="M35 764q113 23 299 67v-231l10 18q2 6 6 12.5t9.5 13.5t7.5 13q10 16 34 50q22 28 43 49q18 18 52 37q29 16 57 16q33 0 65 -14q28 -12 37 -25l11 -12l-78 -203l-33 12v27q0 47 -49 47q-53 0 -110.5 -45t-57.5 -100v-346q0 -57 20 -70q25 -14 109 -14h88v-66h-489v66h38 q59 0 76 12q14 12 15 72v499q0 47 -5 58q-6 16 -24 16q-2 0 -14.5 -2t-46 -8t-64.5 -13zM352 958l107 332h143l-176 -332h-74z" />
<glyph unicode="&#x156;" horiz-adv-x="1419" d="M47 1284l2 82h471q166 0 254 -20q94 -23 162 -78q147 -121 147 -287q0 -106 -69 -195q-72 -90 -223 -129l393 -522q45 -55 88 -55h88l4 -80h-297l-438 631h-25q-6 0 -14 -1t-10 -1q-129 0 -187 12v-502q0 -43 21 -51q18 -8 121 -8h104l-4 -80h-545v80h47q68 0 78 8 q12 10 12 51v1071q0 47 -28 60q-33 14 -95 14h-57zM393 709q27 -20 131 -21q186 0 271 64q86 63 86 198q0 147 -113 242q-111 92 -313 92q-37 0 -49 -16q-12 -14 -13 -78v-481zM598 -412q0 16 27 31q33 18 57 43q27 27 27 72q0 37 -22.5 53t-47.5 22.5t-25 16.5q0 6 9 16 l45 58q18 18 28.5 18t48.5 -22q47 -27 60 -50q10 -25 10 -55q0 -88 -72 -153q-70 -63 -125 -64q-20 0 -20 14z" />
<glyph unicode="&#x157;" horiz-adv-x="698" d="M35 764q113 23 299 67v-231l10 18q2 6 6 12.5t9.5 13.5t7.5 13q10 16 34 50q22 28 43 49q18 18 52 37q29 16 57 16q33 0 65 -14q28 -12 37 -25l11 -12l-78 -203l-33 12v27q0 47 -49 47q-53 0 -110.5 -45t-57.5 -100v-346q0 -57 20 -70q25 -14 109 -14h88v-66h-489v66h38 q59 0 76 12q14 12 15 72v499q0 47 -5 58q-6 16 -24 16q-2 0 -14.5 -2t-46 -8t-64.5 -13zM242 -411.5q0 14.5 28 30.5q23 12 54 43q29 29 28 72q0 35 -22 53q-18 14 -47 23q-23 6 -23 16q0 6 8 16l43 58q18 18 28.5 18t51.5 -22q49 -27 58 -48q10 -25 10 -57q0 -88 -72 -153 q-70 -63 -125 -64q-20 0 -20 14.5z" />
<glyph unicode="&#x158;" horiz-adv-x="1419" d="M47 1284l2 82h471q166 0 254 -20q94 -23 162 -78q147 -121 147 -287q0 -106 -69 -195q-72 -90 -223 -129l393 -522q45 -55 88 -55h88l4 -80h-297l-438 631h-25q-6 0 -14 -1t-10 -1q-129 0 -187 12v-502q0 -43 21 -51q18 -8 121 -8h104l-4 -80h-545v80h47q68 0 78 8 q12 10 12 51v1071q0 47 -28 60q-33 14 -95 14h-57zM352 1772h119l127 -148l125 148h78q-57 -80 -164 -244h-121q-70 111 -164 244zM393 709q27 -20 131 -21q186 0 271 64q86 63 86 198q0 147 -113 242q-111 92 -313 92q-37 0 -49 -16q-12 -14 -13 -78v-481z" />
<glyph unicode="&#x159;" horiz-adv-x="698" d="M35 764q113 23 299 67v-231l10 18q2 6 6 12.5t9.5 13.5t7.5 13q10 16 34 50q22 28 43 49q18 18 52 37q29 16 57 16q33 0 65 -14q28 -12 37 -25l11 -12l-78 -203l-33 12v27q0 47 -49 47q-53 0 -110.5 -45t-57.5 -100v-346q0 -57 20 -70q25 -14 109 -14h88v-66h-489v66h38 q59 0 76 12q14 12 15 72v499q0 47 -5 58q-6 16 -24 16q-2 0 -14.5 -2t-46 -8t-64.5 -13zM172 1239h119l39 -51l20 -31.5l27 -42.5q18 -29 41 -61l53 82q49 80 72 104h78q-57 -86 -164 -281h-121q-111 205 -164 281z" />
<glyph unicode="&#x15a;" horiz-adv-x="1056" d="M51 348l72 8l27 -127q16 -70 26 -82t70 -34q123 -45 254 -45q115 0 194 67q78 66 78 180q0 89 -67 154q-70 66 -195 133l-84 47q-109 63 -143 90q-53 41 -98.5 113t-45.5 166q0 156 123 260t285 104q41 0 92 -10q29 -6 78 -20l35 -11q14 0 20 13q8 16 8 26l2 15l70 4 l31 -375l-74 -2l-18 182q-109 82 -279 82q-94 0 -168 -63q-70 -61 -70 -156q0 -88 66 -154q63 -63 190 -133l113 -61q139 -78 217 -160t78 -194q0 -156 -125 -269q-127 -115 -340 -114q-82 0 -155.5 18t-81.5 18q-37 0 -37 -43l2 -26l-70 -6q-9 58 -80 405zM489 1489 l107 291h143l-176 -291h-74z" />
<glyph unicode="&#x15b;" horiz-adv-x="708" d="M45 289l64 4l20 -170q109 -80 225 -80q57 0 88 37t31 80q0 33 -22 67q-20 33 -45 51.5t-74 51.5l-74 49q-154 101 -154 227q0 84 72 144q74 61 178 61q59 0 119 -18l59 -19q18 0 19 62l65 -2v-310h-65l-2 146q-66 68 -193 67q-41 0 -80 -28q-37 -29 -36 -70q0 -27 20 -57 q18 -29 33 -37l59 -43l92 -62q58 -40 93 -67q37 -29 61 -72q27 -45 27 -96q0 -96 -70 -164q-71 -68 -197 -68q-43 0 -88 7q-18 2 -77 14q-31 6 -35 6q-18 0 -19 -27v-10q0 -2 1 -6l1 -4l-59 -4zM307 958l107 332h143l-176 -332h-74z" />
<glyph unicode="&#x15c;" horiz-adv-x="1056" d="M51 348l72 8l27 -127q16 -70 26 -82t70 -34q123 -45 254 -45q115 0 194 67q78 66 78 180q0 89 -67 154q-70 66 -195 133l-84 47q-109 63 -143 90q-53 41 -98.5 113t-45.5 166q0 156 123 260t285 104q41 0 92 -10q29 -6 78 -20l35 -11q14 0 20 13q8 16 8 26l2 15l70 4 l31 -375l-74 -2l-18 182q-109 82 -279 82q-94 0 -168 -63q-70 -61 -70 -156q0 -88 66 -154q63 -63 190 -133l113 -61q139 -78 217 -160t78 -194q0 -156 -125 -269q-127 -115 -340 -114q-82 0 -155.5 18t-81.5 18q-37 0 -37 -43l2 -26l-70 -6q-9 58 -80 405zM328 1528 q57 80 164 244h120q70 -111 164 -244h-119l-39 43q-4 4 -43 53q-10 12 -26.5 29.5t-18.5 21.5l-124 -147h-78z" />
<glyph unicode="&#x15d;" horiz-adv-x="708" d="M45 289l64 4l20 -170q109 -80 225 -80q57 0 88 37t31 80q0 33 -22 67q-20 33 -45 51.5t-74 51.5l-74 49q-154 101 -154 227q0 84 72 144q74 61 178 61q59 0 119 -18l59 -19q18 0 19 62l65 -2v-310h-65l-2 146q-66 68 -193 67q-41 0 -80 -28q-37 -29 -36 -70q0 -27 20 -57 q18 -29 33 -37l59 -43l92 -62q58 -40 93 -67q37 -29 61 -72q27 -45 27 -96q0 -96 -70 -164q-71 -68 -197 -68q-43 0 -88 7q-18 2 -77 14q-31 6 -35 6q-18 0 -19 -27v-10q0 -2 1 -6l1 -4l-59 -4zM145 958q57 86 164 281h121q119 -217 164 -281h-119q-16 20 -39 52 q-10 16 -23.5 33.5t-25.5 37.5q-14 20 -22.5 36t-16.5 26q-18 -27 -39 -62q-14 -25 -47 -71l-39 -52h-78z" />
<glyph unicode="&#x15e;" horiz-adv-x="1056" d="M51 348l72 8l27 -127q16 -70 26 -82t70 -34q123 -45 254 -45q115 0 194 67q78 66 78 180q0 89 -67 154q-70 66 -195 133l-84 47q-109 63 -143 90q-53 41 -98.5 113t-45.5 166q0 156 123 260t285 104q41 0 92 -10q29 -6 78 -20l35 -11q14 0 20 13q8 16 8 26l2 15l70 4 l31 -375l-74 -2l-18 182q-109 82 -279 82q-94 0 -168 -63q-70 -61 -70 -156q0 -88 66 -154q63 -63 190 -133l113 -61q139 -78 217 -160t78 -194q0 -150 -119 -262.5t-319 -120.5l-35 -117q2 0 8 1t10 1h17q98 0 166 -37q70 -39 69 -119q0 -76 -67.5 -119t-153.5 -43 q-43 0 -78 7q-27 4 -45 14l-10 6l43 49q59 -20 100 -20q45 0 72 26.5t27 75.5t-45.5 73.5t-106.5 24.5q-31 0 -41 -2l-24 35l47 144q-86 4 -140 18q-68 18 -77 18q-37 0 -37 -43l2 -26l-70 -6q-9 58 -80 405z" />
<glyph unicode="&#x15f;" horiz-adv-x="708" d="M45 289l64 4l20 -170q109 -80 225 -80q57 0 88 37t31 80q0 33 -22 67q-20 33 -45 51.5t-74 51.5l-74 49q-154 101 -154 227q0 84 72 144q74 61 178 61q59 0 119 -18l59 -19q18 0 19 62l65 -2v-310h-65l-2 146q-66 68 -193 67q-41 0 -80 -28q-37 -29 -36 -70q0 -27 20 -57 q18 -29 33 -37l59 -43l92 -62q58 -40 93 -67q37 -29 61 -72q27 -45 27 -96q0 -94 -68 -162q-66 -66 -190 -70l-33 -108q2 0 7 1t9 1h19q98 0 166 -37q70 -39 69 -119q0 -76 -67.5 -119t-153.5 -43q-43 0 -78 7q-27 4 -45 14l-10 6l43 49q59 -20 100 -20q45 0 72 26.5 t27 75.5t-45.5 73.5t-106.5 24.5q-31 0 -41 -2l-25 35l45 137q-53 4 -73 9q-31 4 -60 12q-16 4 -28 4q-18 0 -19 -27v-10q0 -2 1 -6l1 -4l-59 -4z" />
<glyph unicode="&#x160;" horiz-adv-x="1056" d="M51 348l72 8l27 -127q16 -70 26 -82t70 -34q123 -45 254 -45q115 0 194 67q78 66 78 180q0 89 -67 154q-70 66 -195 133l-84 47q-109 63 -143 90q-53 41 -98.5 113t-45.5 166q0 156 123 260t285 104q41 0 92 -10q29 -6 78 -20l35 -11q14 0 20 13q8 16 8 26l2 15l70 4 l31 -375l-74 -2l-18 182q-109 82 -279 82q-94 0 -168 -63q-70 -61 -70 -156q0 -88 66 -154q63 -63 190 -133l113 -61q139 -78 217 -160t78 -194q0 -156 -125 -269q-127 -115 -340 -114q-82 0 -155.5 18t-81.5 18q-37 0 -37 -43l2 -26l-70 -6q-9 58 -80 405zM309 1772h119 l127 -148l125 148h78q-57 -80 -164 -244h-121q-70 111 -164 244z" />
<glyph unicode="&#x161;" horiz-adv-x="708" d="M45 289l64 4l20 -170q109 -80 225 -80q57 0 88 37t31 80q0 33 -22 67q-20 33 -45 51.5t-74 51.5l-74 49q-154 101 -154 227q0 84 72 144q74 61 178 61q59 0 119 -18l59 -19q18 0 19 62l65 -2v-310h-65l-2 146q-66 68 -193 67q-41 0 -80 -28q-37 -29 -36 -70q0 -27 20 -57 q18 -29 33 -37l59 -43l92 -62q58 -40 93 -67q37 -29 61 -72q27 -45 27 -96q0 -96 -70 -164q-71 -68 -197 -68q-43 0 -88 7q-18 2 -77 14q-31 6 -35 6q-18 0 -19 -27v-10q0 -2 1 -6l1 -4l-59 -4zM127 1239h119l39 -51l20 -31.5l27 -42.5q18 -29 41 -61l53 82q49 80 72 104h77 q-57 -86 -163 -281h-121q-111 205 -164 281z" />
<glyph unicode="&#x162;" horiz-adv-x="1288" d="M23 1036q18 170 30 330h1182q-12 -154 -16 -213q-6 -106 -9 -115l-73 2q12 141 12 168q0 41 -21 54q-25 14 -84 14h-235q-74 0 -92 -14q-14 -12 -15 -84v-1004q0 -63 21 -78q23 -16 98 -16h82l2 -80h-266l-41 -135q2 0 8 1t10 1h17q98 0 166 -37q70 -39 69 -119 q0 -76 -67.5 -119t-153.5 -43q-41 0 -76 7q-29 6 -47 14l-10 6l43 49q59 -20 100 -20q45 0 72 26.5t27 75.5t-45 74q-47 25 -107 24q-31 0 -41 -2l-24 35l53 164h-227v78h32q98 0 119 12t21 74v995q0 82 -14.5 98.5t-76.5 16.5h-215q-27 0 -37 -2t-26 -2q-4 0 -21 -10 l-16 -10.5t-10 -18.5q-4 -10 -8 -23q-4 -10 -7 -32q-4 -33 -4 -37q0 -27 -2 -49q0 -10 -1 -30t-3 -28z" />
<glyph unicode="&#x163;" horiz-adv-x="645" d="M45 707q0 4 16 26q10 14 54 58q23 23 47 53l57 69l55 68q18 25 25 25q12 0 12 -15v-203h277l-13 -98h-264v-477q0 -121 138 -121q35 0 71 10q34 9 55 19q6 2 11.5 5t8.5 4l3 1q14 0 14 -20q0 -39 -77 -86q-74 -43 -156 -48l-35 -112q2 0 8 1t10 1h17q98 0 166 -37 q70 -39 69 -119q0 -76 -67.5 -119t-153.5 -43q-41 0 -76 7q-29 6 -47 14l-10 6l43 49q59 -20 100 -20q45 0 72 26.5t27 75.5t-45 74q-47 25 -107 24q-31 0 -41 -2l-24 35l47 142q-164 23 -164 217v493h-98q-25 1 -25 17z" />
<glyph unicode="&#x164;" horiz-adv-x="1288" d="M23 1036q18 170 30 330h1182q-12 -154 -16 -213q-6 -106 -9 -115l-73 2q12 141 12 168q0 41 -21 54q-25 14 -84 14h-235q-74 0 -92 -14q-14 -12 -15 -84v-1004q0 -63 21 -78q23 -16 98 -16h82l2 -80l-540 2v78h32q98 0 119 12t21 74v995q0 82 -14.5 98.5t-76.5 16.5h-215 q-27 0 -37 -2t-26 -2q-4 0 -21 -10l-16 -10.5t-10 -18.5q-4 -10 -8 -23q-4 -10 -7 -32q-4 -33 -4 -37q0 -27 -2 -49q0 -10 -1 -30t-3 -28zM389 1772h119l127 -148l125 148h78q-57 -80 -164 -244h-121q-70 111 -164 244z" />
<glyph unicode="&#x165;" horiz-adv-x="645" d="M45 707q0 4 16 26q10 14 54 58q23 23 47 53l57 69l55 68q18 25 25 25q12 0 12 -15v-203h277l-13 -98h-264v-477q0 -121 138 -121q35 0 71 10q34 9 55 19q6 2 11.5 5t8.5 4l3 1q14 0 14 -20q0 -43 -81.5 -88.5t-161.5 -45.5q-104 0 -152 60q-49 61 -49 160v493h-98 q-25 1 -25 17zM418 1044l35 340l129 -16l-97 -334z" />
<glyph unicode="&#x166;" horiz-adv-x="1288" d="M23 1036q18 170 30 330h1182q-12 -154 -16 -213q-6 -106 -9 -115l-73 2q12 141 12 168q0 41 -21 54q-25 14 -84 14h-235q-74 0 -92 -14q-14 -12 -15 -84v-441h338v-98h-338v-465q0 -63 19 -78q20 -16 88 -16h94l2 -80l-540 2v78h63q74 0 92 12q16 10 17 74v473h-326 l-2 98h328v424q0 82 -14.5 98.5t-76.5 16.5h-215q-27 0 -37 -2t-26 -2q-4 0 -21 -10l-16 -10.5t-10 -18.5q-4 -10 -8 -23q-4 -10 -7 -32q-4 -33 -4 -37q0 -27 -2 -49q0 -10 -1 -30t-3 -28z" />
<glyph unicode="&#x167;" horiz-adv-x="645" d="M45 707q0 4 16 26q10 14 54 58q23 23 47 53l57 69l55 68q18 25 25 25q12 0 12 -15v-203h277l-13 -98h-264v-219h258l-6 -88h-252v-170q0 -121 138 -121q35 0 71 10q34 9 55 19q6 2 11.5 5t8.5 4l3 1q14 0 14 -20q0 -43 -81.5 -88.5t-161.5 -45.5q-104 0 -152 60 q-49 61 -49 160v186h-96v88h96v219h-98q-25 1 -25 17z" />
<glyph unicode="&#x168;" horiz-adv-x="1474" d="M55 1284v82h492l2 -82h-78q-63 0 -86 -14q-25 -15 -25 -62v-757q0 -43 5 -66q6 -34 30 -92q25 -57 68 -100q45 -45 127 -78q84 -33 198 -33q125 0 205 27q82 27 127 65.5t66 106.5q25 80 26 122q4 70 5 144v663q0 49 -21 62q-22 12 -92 12h-72l4 82h385v-82h-28 q-47 0 -63.5 -16.5t-16.5 -73.5v-727q0 -504 -525 -504q-317 0 -456 133q-137 131 -137 344v770q0 49 -15 62q-16 12 -69 12h-56zM530 1542q0 2 1 8t4 15q0 4 3 12l7 19.5t8 21.5q14 45 27 65q10 18 45 50q28 25 61 24q43 0 88 -24l62 -33q39 -20 69 -21q29 0 56 23 q23 20 32 47l11 23l28 -9q-4 -20 -8 -34q-8 -27 -25 -64q-18 -41 -51 -67.5t-71 -26.5q-34 0 -74 18l-64 31q-39 20 -86 20q-33 0 -57.5 -26.5t-30.5 -52.5l-6 -27z" />
<glyph unicode="&#x169;" horiz-adv-x="944" d="M35 731v62q168 16 250 30v-512q0 -109 32.5 -162t137.5 -53q61 0 106 19q47 18 64 41l14 18v500q0 41 -8 51t-33 10q-80 0 -90 -10l-6 63q141 10 280 35v-596q0 -113 6.5 -137t30.5 -24q8 0 92 22v-65q-31 -6 -252 -66q-2 57 -14 145l-37 -36q-29 -25 -94 -60 q-72 -37 -131 -37q-76 0 -125 24.5t-74 74.5q-25 51 -34 100q-8 43 -9 115v403q0 33 -8 41q-10 10 -31 10l-32 -4q-17 -2 -35 -2zM205 989q4 12 6 22.5t16 53.5q12 35 29 65q12 23 43 50q29 25 61 24q43 0 89 -22l61 -33q39 -20 68 -21q63 0 96 84l2 7l31 -7 q-6 -27 -8.5 -37t-26.5 -61q-20 -43 -49 -67q-33 -27 -72 -27q-37 0 -76 16l-63 33q-39 20 -86 21q-66 0 -90 -101l-3 -6z" />
<glyph unicode="&#x16a;" horiz-adv-x="1474" d="M55 1284v82h492l2 -82h-78q-63 0 -86 -14q-25 -15 -25 -62v-757q0 -43 5 -66q6 -34 30 -92q25 -57 68 -100q45 -45 127 -78q84 -33 198 -33q125 0 205 27q82 27 127 65.5t66 106.5q25 80 26 122q4 70 5 144v663q0 49 -21 62q-22 12 -92 12h-72l4 82h385v-82h-28 q-47 0 -63.5 -16.5t-16.5 -73.5v-727q0 -504 -525 -504q-317 0 -456 133q-137 131 -137 344v770q0 49 -15 62q-16 12 -69 12h-56zM551 1612v98h471v-98h-471z" />
<glyph unicode="&#x16b;" horiz-adv-x="944" d="M35 731v62q168 16 250 30v-512q0 -109 32.5 -162t137.5 -53q61 0 106 19q47 18 64 41l14 18v500q0 41 -8 51t-33 10q-80 0 -90 -10l-6 63q141 10 280 35v-596q0 -113 6.5 -137t30.5 -24q8 0 92 22v-65q-31 -6 -252 -66q-2 57 -14 145l-37 -36q-29 -25 -94 -60 q-72 -37 -131 -37q-76 0 -125 24.5t-74 74.5q-25 51 -34 100q-8 43 -9 115v403q0 33 -8 41q-10 10 -31 10l-32 -4q-17 -2 -35 -2zM229 1065v98h471v-98h-471z" />
<glyph unicode="&#x16c;" horiz-adv-x="1474" d="M55 1284v82h492l2 -82h-78q-63 0 -86 -14q-25 -15 -25 -62v-757q0 -43 5 -66q6 -34 30 -92q25 -57 68 -100q45 -45 127 -78q84 -33 198 -33q125 0 205 27q82 27 127 65.5t66 106.5q25 80 26 122q4 70 5 144v663q0 49 -21 62q-22 12 -92 12h-72l4 82h385v-82h-28 q-47 0 -63.5 -16.5t-16.5 -73.5v-727q0 -504 -525 -504q-317 0 -456 133q-137 131 -137 344v770q0 49 -15 62q-16 12 -69 12h-56zM569 1724v23q0 6 1 14t1 11h103v-19q0 -53 26 -86q25 -31 105 -31q47 0 88 31q39 31 39 88v8q0 2 -1 5l-1 4h51v-15q0 -223 -203 -223 q-113 0 -160 59q-49 61 -49 131z" />
<glyph unicode="&#x16d;" horiz-adv-x="944" d="M35 731v62q168 16 250 30v-512q0 -109 32.5 -162t137.5 -53q61 0 106 19q47 18 64 41l14 18v500q0 41 -8 51t-33 10q-80 0 -90 -10l-6 63q141 10 280 35v-596q0 -113 6.5 -137t30.5 -24q8 0 92 22v-65q-31 -6 -252 -66q-2 57 -14 145l-37 -36q-29 -25 -94 -60 q-72 -37 -131 -37q-76 0 -125 24.5t-74 74.5q-25 51 -34 100q-8 43 -9 115v403q0 33 -8 41q-10 10 -31 10l-32 -4q-17 -2 -35 -2zM248 1208l2 31h102q-2 -10 -2 -41q2 -57 39 -90q35 -33 90 -33q52 0 92 37q39 37 39 107l-2 20h51q2 -10 3 -35q0 -113 -57.5 -172t-149.5 -59 q-89 0 -148 61q-59 63 -59 174z" />
<glyph unicode="&#x16e;" horiz-adv-x="1474" d="M55 1284v82h492l2 -82h-78q-63 0 -86 -14q-25 -15 -25 -62v-757q0 -43 5 -66q6 -34 30 -92q25 -57 68 -100q45 -45 127 -78q84 -33 198 -33q125 0 205 27q82 27 127 65.5t66 106.5q25 80 26 122q4 70 5 144v663q0 49 -21 62q-22 12 -92 12h-72l4 82h385v-82h-28 q-47 0 -63.5 -16.5t-16.5 -73.5v-727q0 -504 -525 -504q-317 0 -456 133q-137 131 -137 344v770q0 49 -15 62q-16 12 -69 12h-56zM608 1645q0 59 54 116q51 55 114 56q66 0 115 -49.5t49 -115t-47 -110.5q-51 -47 -113 -47q-68 0 -121 43q-51 44 -51 107zM680 1647 q0 -43 27 -68q25 -23 71 -23q92 0 92 97q0 53 -28.5 75.5t-65.5 22.5q-53 0 -74 -35q-22 -38 -22 -69z" />
<glyph unicode="&#x16f;" horiz-adv-x="944" d="M35 731v62q168 16 250 30v-512q0 -109 32.5 -162t137.5 -53q61 0 106 19q47 18 64 41l14 18v500q0 41 -8 51t-33 10q-80 0 -90 -10l-6 63q141 10 280 35v-596q0 -113 6.5 -137t30.5 -24q8 0 92 22v-65q-31 -6 -252 -66q-2 57 -14 145l-37 -36q-29 -25 -94 -60 q-72 -37 -131 -37q-76 0 -125 24.5t-74 74.5q-25 51 -34 100q-8 43 -9 115v403q0 33 -8 41q-10 10 -31 10l-32 -4q-17 -2 -35 -2zM299 1104q0 61 51 115q53 57 115 57q68 0 117 -49t49 -114.5t-47 -111.5q-51 -47 -113 -47q-70 0 -121 43.5t-51 106.5zM369 1106 q0 -41 28.5 -65.5t71.5 -24.5q90 0 90 96q0 53 -28.5 75.5t-65.5 22.5q-52 0 -74 -36q-22 -39 -22 -68z" />
<glyph unicode="&#x170;" horiz-adv-x="1474" d="M55 1284v82h492l2 -82h-78q-63 0 -86 -14q-25 -15 -25 -62v-757q0 -43 5 -66q6 -34 30 -92q25 -57 68 -100q45 -45 127 -78q84 -33 198 -33q125 0 205 27q82 27 127 65.5t66 106.5q25 80 26 122q4 70 5 144v663q0 49 -21 62q-22 12 -92 12h-72l4 82h385v-82h-28 q-47 0 -63.5 -16.5t-16.5 -73.5v-727q0 -504 -525 -504q-317 0 -456 133q-137 131 -137 344v770q0 49 -15 62q-16 12 -69 12h-56zM561 1489l107 291h143l-176 -291h-74zM862 1489l105 291h145l-176 -291h-74z" />
<glyph unicode="&#x171;" horiz-adv-x="944" d="M35 731v62q168 16 250 30v-512q0 -109 32.5 -162t137.5 -53q61 0 106 19q47 18 64 41l14 18v500q0 41 -8 51t-33 10q-80 0 -90 -10l-6 63q141 10 280 35v-596q0 -113 6.5 -137t30.5 -24q8 0 92 22v-65q-31 -6 -252 -66q-2 57 -14 145l-37 -36q-29 -25 -94 -60 q-72 -37 -131 -37q-76 0 -125 24.5t-74 74.5q-25 51 -34 100q-8 43 -9 115v403q0 33 -8 41q-10 10 -31 10l-32 -4q-17 -2 -35 -2zM229 958l107 332h143l-176 -332h-74zM530 958l107 332h143l-176 -332h-74z" />
<glyph unicode="&#x172;" horiz-adv-x="1474" d="M55 1284v82h492l2 -82h-49q-12 0 -26.5 -1t-18.5 -1t-15.5 -1t-17.5 -1q-23 0 -29 -4t-16 -14q-12 -12 -15 -23q-2 -8 -2 -31v-757q0 -43 5 -66q6 -34 30 -92q25 -57 68 -100q45 -45 127 -78q84 -33 198 -33q125 0 205 27q82 27 127 65.5t66 106.5q25 80 26 122 q4 70 5 144v663q0 49 -21 62q-22 12 -92 12h-72l4 82h385v-82q-4 0 -15 -1t-17 -1h-25q-12 0 -21 -2q-12 -2 -14 -8l-8 -17q-6 -9 -6 -24q0 -4 -1 -16.5t-1 -20.5v-727q0 -483 -488 -502q-70 -106 -69 -213q0 -188 147 -188q51 0 86 14q39 16 41 16q12 0 12 -12 q0 -31 -57 -74q-55 -41 -143 -40.5t-151.5 51.5t-63.5 151q0 72 30 137q33 70 105 158q-303 6 -434 137q-133 133 -133 338v770q0 49 -15 62q-16 12 -69 12h-56z" />
<glyph unicode="&#x173;" horiz-adv-x="946" d="M35 731v62q168 16 250 30v-512q0 -109 32.5 -162t137.5 -53q61 0 106 19q47 18 64 41l14 18v500q0 41 -8 51t-33 10q-80 0 -90 -10l-6 63q141 10 280 35v-596q0 -113 6.5 -137t30.5 -24q8 0 92 22v-65q-131 -31 -157 -39q-80 -23 -113 -88.5t-33 -137.5q0 -90 43 -143 q43 -51 113 -51q43 0 74 14q37 16 39 16q12 0 12 -12q0 -35 -58 -74q-59 -41 -137 -40q-88 0 -149.5 55t-61.5 158q0 123 80 221q47 59 94 80q-6 82 -12 120l-37 -36q-29 -25 -94 -60q-72 -37 -131 -37q-76 0 -125 24.5t-74 74.5q-25 51 -34 100q-8 43 -9 115v403 q0 33 -8 41q-10 10 -31 10l-32 -4q-17 -2 -35 -2z" />
<glyph unicode="&#x174;" horiz-adv-x="2127" d="M76 1284v82h454l-2 -82h-45q-121 0 -121 -45q0 -12 5 -22l354 -975l338 864l-15 41q-4 8 -7 19.5t-6 19.5t-5 12q-4 10 -18 39q-12 23 -29 37q-12 10 -37 10h-100v82h487v-82h-108q-34 0 -43 -6q-10 -6 -10.5 -26.5t36.5 -131.5l299 -872l365 956q8 25 8 35q0 28 -25 37 q-23 8 -75 8h-54v82h351l2 -82h-25q-51 0 -65 -20q-18 -27 -54 -121l-452 -1176h-35l-348 1024l-398 -1022h-32l-435 1186q-31 82 -55 107q-23 23 -65 22h-35zM870 1528q57 80 164 244h121q70 -111 164 -244h-119l-17 20.5l-20 22.5l-45 53l-25.5 29.5t-19.5 21.5l-125 -147 h-78z" />
<glyph unicode="&#x175;" horiz-adv-x="1613" d="M35 737v66h430l-2 -66h-62q-61 0 -61 -35q0 -18 20 -65l191 -444l217 473q-18 49 -39 59q-22 12 -67 12h-76l-4 66h442v-66q-66 0 -88 -6q-20 -6 -21 -24q0 -10 19 -60l190 -452l219 462q16 39 17 52q0 29 -90 28h-53v66h362l2 -66q-47 0 -59 -2q-18 -3 -43 -18 q-23 -14 -39 -47l-340 -705l-45 2l-248 611l-277 -615l-43 2l-284 662q-39 86 -51 96q-21 14 -117 14zM596 958q57 86 164 281h121q119 -217 163 -281h-118q-16 20 -39 52q-49 70 -49 71q-25 41 -39 62q-18 -27 -39 -62q-14 -25 -47 -71l-39 -52h-78z" />
<glyph unicode="&#x176;" horiz-adv-x="1347" d="M76 1284l2 82h459v-82h-41q-66 0 -82 -4q-25 -6 -25 -23q0 -10 37 -71l293 -461l358 508q12 22 13 24q0 27 -134 27h-32l-2 82h372v-82h-10q-51 0 -72 -12q-23 -12 -65 -74l-399 -577v-447q0 -63 16 -80q14 -14 104 -14h93l-3 -80h-575l2 80h82q78 0 96.5 12t18.5 78v467 l-336 522q-61 95 -80 111q-16 14 -90 14zM496 1528q57 80 163 244h121q70 -111 164 -244h-119l-17 20.5l-20 22.5l-45 53q-10 12 -26.5 29.5t-18.5 21.5l-125 -147h-77z" />
<glyph unicode="&#x177;" horiz-adv-x="958" d="M14 -438q0 86 78 86q10 0 26.5 -2t33.5 -2q61 0 225 313l61 119l-256 551q-2 4 -7 16t-7 18.5t-5 12.5t-6 9t-3 5t-4.5 8t-6.5 11q-6 14 -12 16l-12 6q-6 6 -21 6h-24q-4 0 -15.5 1t-19.5 1l-4 66h391l-4 -66h-35q-40 0 -55 -6q-16 -6 -17 -22q0 -10 25 -72l174 -391 l129 291q68 151 68 172q0 16 -18.5 22t-71.5 6h-29v66h334v-66h-49h-21q-6 0 -18 -4l-13 -4q-4 0 -10 -6l-8 -8q-2 -2 -8 -15q-2 -4 -6.5 -10t-4.5 -8t-3 -10t-7 -15q-8 -16 -12 -28l-311 -688q-88 -188 -133 -269q-61 -109 -101 -143q-43 -40 -67 -49q-27 -10 -58 -10 q-39 0 -59 26q-23 29 -23 66zM281 958q57 86 163 281h121q119 -217 164 -281h-119q-16 20 -39 52q-8 14 -20 31.5l-27 39.5q-18 29 -41 62q-18 -27 -39 -62q-14 -25 -47 -71l-39 -52h-77z" />
<glyph unicode="&#x178;" horiz-adv-x="1347" d="M76 1284l2 82h459v-82h-41q-66 0 -82 -4q-25 -6 -25 -23q0 -10 37 -71l293 -461l358 508q12 22 13 24q0 27 -134 27h-32l-2 82h372v-82h-10q-51 0 -72 -12q-23 -12 -65 -74l-399 -577v-447q0 -63 16 -80q14 -14 104 -14h93l-3 -80h-575l2 80h82q78 0 96.5 12t18.5 78v467 l-336 522q-61 95 -80 111q-16 14 -90 14zM469 1661q0 18 37 53q35 33 53 33q25 0 55 -37q29 -35 29 -55q0 -25 -35 -56q-34 -31 -55 -30q-18 0 -51 32.5t-33 59.5zM770 1661q0 18 37 53q35 33 51 33q25 0 55.5 -37t30.5 -55q0 -25 -35 -56q-34 -31 -55 -30q-18 0 -51 32.5 t-33 59.5z" />
<glyph unicode="&#x179;" horiz-adv-x="1357" d="M55 41q0 8 13 27q8 12 43 51l26 28.5t15 16.5l919 1040h-835q-40 0 -50 -18q-8 -18 -18 -115q0 -2 -1 -6t-2 -11t-1 -14q-4 -33 -4 -41l-82 5q28 224 31 362h1116q63 0 63 -20q0 -4 -8 -21q-4 -8 -16 -29q-4 -6 -21 -28l-16 -23l-10 -10l-932 -1065h811q83 0 92 12 q16 20 39 178l78 -2q0 -6 -2.5 -21t-5.5 -43t-7 -56q-20 -158 -26 -238h-1164q-45 0 -45 41zM623 1489l106 291h143l-176 -291h-73z" />
<glyph unicode="&#x17a;" horiz-adv-x="899" d="M49 20q0 16 57 76l531 574h-418q-51 0 -63 -17q-10 -12 -23 -112l-53 2l33 291h51q0 -29 6 -35t39 -6h551q70 0 69 -15q0 -6 -10 -16l-31 -31q-27 -27 -36 -41l-519 -565h439q57 0 69 27q14 31 23 157h67q0 -6 -3 -49t-7 -82q-9 -101 -12 -178h-700q-60 0 -60 20z M408 958l106 332h143l-176 -332h-73z" />
<glyph unicode="&#x17b;" horiz-adv-x="1357" d="M55 41q0 8 13 27q8 12 43 51l26 28.5t15 16.5l919 1040h-835q-40 0 -50 -18q-8 -18 -18 -115q0 -2 -1 -6t-2 -11t-1 -14q-4 -33 -4 -41l-82 5q28 224 31 362h1116q63 0 63 -20q0 -4 -8 -21q-4 -8 -16 -29q-4 -6 -21 -28l-16 -23l-10 -10l-932 -1065h811q83 0 92 12 q16 20 39 178l78 -2q0 -6 -2.5 -21t-5.5 -43t-7 -56q-20 -158 -26 -238h-1164q-45 0 -45 41zM596 1661q0 18 37 53q35 33 51 33q25 0 55.5 -37t30.5 -55q0 -25 -35 -56q-34 -31 -55 -30q-18 0 -51 32.5t-33 59.5z" />
<glyph unicode="&#x17c;" horiz-adv-x="899" d="M49 20q0 16 57 76l531 574h-418q-51 0 -63 -17q-10 -12 -23 -112l-53 2l33 291h51q0 -29 6 -35t39 -6h551q70 0 69 -15q0 -6 -10 -16l-31 -31q-27 -27 -36 -41l-519 -565h439q57 0 69 27q14 31 23 157h67q0 -6 -3 -49t-7 -82q-9 -101 -12 -178h-700q-60 0 -60 20z M406 1124q0 25 32.5 55.5t53 30.5t53.5 -32q35 -35 35 -55.5t-35 -55.5t-53 -35q-27 0 -56 35q-30 37 -30 57z" />
<glyph unicode="&#x17d;" horiz-adv-x="1357" d="M55 41q0 8 13 27q8 12 43 51l26 28.5t15 16.5l919 1040h-835q-40 0 -50 -18q-8 -18 -18 -115q0 -2 -1 -6t-2 -11t-1 -14q-4 -33 -4 -41l-82 5q28 224 31 362h1116q63 0 63 -20q0 -4 -8 -21q-4 -8 -16 -29q-4 -6 -21 -28l-16 -23l-10 -10l-932 -1065h811q83 0 92 12 q16 20 39 178l78 -2q0 -6 -2.5 -21t-5.5 -43t-7 -56q-20 -158 -26 -238h-1164q-45 0 -45 41zM442 1772h119l127 -148l125 148h78q-57 -80 -164 -244h-121q-70 111 -164 244z" />
<glyph unicode="&#x17e;" horiz-adv-x="899" d="M49 20q0 16 57 76l531 574h-418q-51 0 -63 -17q-10 -12 -23 -112l-53 2l33 291h51q0 -29 6 -35t39 -6h551q70 0 69 -15q0 -6 -10 -16l-31 -31q-27 -27 -36 -41l-519 -565h439q57 0 69 27q14 31 23 157h67q0 -6 -3 -49t-7 -82q-9 -101 -12 -178h-700q-60 0 -60 20z M227 1239h119l39 -51q31 -45 49 -74q31 -51 39 -61l53 82q49 80 72 104h78q-57 -86 -164 -281h-121q-111 205 -164 281z" />
<glyph unicode="&#x17f;" horiz-adv-x="512" d="M35 66h37q61 0 78 10q14 8 14 45v584h-115l31 98h86v221q0 43 4 96q2 35 23 105q18 63 61 118q39 51 111 97q70 43 170 43q70 0 112 -19q45 -18 45 -55q0 -25 -39 -80q-37 -53 -65 -53q-14 0 -29 31q-14 27 -41 61q-25 31 -57 31q-51 0 -84 -39q-37 -45 -49 -105 q-14 -74 -17 -104q-4 -53 -4 -78v-946q0 -43 17 -51q20 -10 88 -10h53l-2 -66h-426z" />
<glyph unicode="&#x218;" horiz-adv-x="1056" d="M51 348l72 8l27 -127q16 -70 26 -82t70 -34q123 -45 254 -45q115 0 194 67q78 66 78 180q0 89 -67 154q-70 66 -195 133l-84 47q-109 63 -143 90q-53 41 -98.5 113t-45.5 166q0 156 123 260t285 104q41 0 92 -10q29 -6 78 -20l35 -11q14 0 20 13q8 16 8 26l2 15l70 4 l31 -375l-74 -2l-18 182q-109 82 -279 82q-94 0 -168 -63q-70 -61 -70 -156q0 -88 66 -154q63 -63 190 -133l113 -61q139 -78 217 -160t78 -194q0 -156 -125 -269q-127 -115 -340 -114q-82 0 -155.5 18t-81.5 18q-37 0 -37 -43l2 -26l-70 -6q-9 58 -80 405zM385 -485 q0 18 27 32q33 18 57 43q27 27 27 70q0 35 -23 53q-18 14 -47 23q-23 6 -23 16q0 6 9 17l43 57q18 18 28.5 18t51.5 -22q47 -27 57 -49q10 -25 10 -56q0 -88 -72 -153q-70 -63 -124 -64q-21 1 -21 15z" />
<glyph unicode="&#x219;" horiz-adv-x="708" d="M45 289l64 4l20 -170q109 -80 225 -80q57 0 88 37t31 80q0 33 -22 67q-20 33 -45 51.5t-74 51.5l-74 49q-154 101 -154 227q0 84 72 144q74 61 178 61q59 0 119 -18l59 -19q18 0 19 62l65 -2v-310h-65l-2 146q-66 68 -193 67q-41 0 -80 -28q-37 -29 -36 -70q0 -27 20 -57 q18 -29 33 -37l59 -43l92 -62q58 -40 93 -67q37 -29 61 -72q27 -45 27 -96q0 -96 -70 -164q-71 -68 -197 -68q-43 0 -88 7q-18 2 -77 14q-31 6 -35 6q-18 0 -19 -27v-10q0 -2 1 -6l1 -4l-59 -4zM254 -485q0 18 27 32q33 18 57 43q27 27 27 70q0 35 -23 53q-18 14 -47 23 q-23 6 -23 16q0 6 9 17l43 57q18 18 28 18t51 -22q47 -27 58 -49q10 -25 10 -56q0 -88 -72 -153q-70 -63 -125 -64q-20 1 -20 15z" />
<glyph unicode="&#x21a;" horiz-adv-x="1288" d="M23 1036q18 170 30 330h1182q-12 -154 -16 -213q-6 -106 -9 -115l-73 2q12 141 12 168q0 41 -21 54q-25 14 -84 14h-235q-74 0 -92 -14q-14 -12 -15 -84v-1004q0 -63 21 -78q23 -16 98 -16h82l2 -80l-540 2v78h32q98 0 119 12t21 74v995q0 82 -14.5 98.5t-76.5 16.5h-215 q-27 0 -37 -2t-26 -2q-4 0 -21 -10l-16 -10.5t-10 -18.5q-4 -10 -8 -23q-4 -10 -7 -32q-4 -33 -4 -37q0 -27 -2 -49q0 -10 -1 -30t-3 -28zM518 -485q0 18 27 32q28 15 55 43q29 29 29 70q0 37 -23 53q-20 14 -47 23q-23 6 -22 16q0 6 8 17l43 57q18 18 28.5 18t51.5 -22 q47 -27 57 -49q10 -25 10 -56q0 -88 -71 -153q-70 -63 -125 -64q-21 1 -21 15z" />
<glyph unicode="&#x21b;" horiz-adv-x="645" d="M45 707q0 4 16 26q10 14 54 58q23 23 47 53l57 69l55 68q18 25 25 25q12 0 12 -15v-203h277l-13 -98h-264v-477q0 -121 138 -121q35 0 71 10q34 9 55 19q6 2 11.5 5t8.5 4l3 1q14 0 14 -20q0 -43 -81.5 -88.5t-161.5 -45.5q-104 0 -152 60q-49 61 -49 160v493h-98 q-25 1 -25 17zM264 -485q0 18 27 32q28 15 55 43q29 29 29 70q0 37 -23 53q-20 14 -47 23q-23 6 -22 16q0 6 8 17l43 57q18 18 28.5 18t51.5 -22q47 -27 57 -49q10 -25 10 -56q0 -88 -71 -153q-70 -63 -125 -64q-21 1 -21 15z" />
<glyph unicode="&#x237;" horiz-adv-x="507" d="M-135 -455q0 33 39 68q35 33 71 33q12 0 54 -43q41 -45 57 -45q94 0 94 278v801q0 35 -2 45q-2 14 -12 27q-9 12 -31 12q-8 0 -90 -19l-10 62q53 8 289 63v-925q0 -158 -29 -238q-27 -76 -86 -119q-98 -80 -184 -80q-51 0 -105 27q-55 28 -55 53z" />
<glyph unicode="&#x2bb;" horiz-adv-x="796" d="M305 1083q0 88 72 154t125 66q23 0 22 -17q0 -14 -28 -31q-23 -12 -54 -43q-29 -29 -28 -71q0 -35 22 -54q16 -14 45 -22q23 -6 23 -16q0 -2 -6 -15l-43 -57q-18 -18 -29 -19q-14 0 -53 21q-47 27 -58 49q-10 24 -10 55z" />
<glyph unicode="&#x2bc;" horiz-adv-x="796" d="M330 1044l35 340l129 -16l-97 -334z" />
<glyph unicode="&#x2c0;" horiz-adv-x="796" />
<glyph unicode="&#x2c6;" horiz-adv-x="796" d="M190 958q57 86 164 281h121q119 -217 164 -281h-119q-16 20 -39 52q-8 14 -20 31.5l-27 39.5q-18 29 -41 62q-18 -27 -39 -62q-14 -25 -47 -71l-39 -52h-78z" />
<glyph unicode="&#x2c7;" horiz-adv-x="796" d="M172 1239h119l39 -51l20 -31.5l27 -42.5q18 -29 41 -61l53 82q49 80 72 104h78q-57 -86 -164 -281h-121q-111 205 -164 281z" />
<glyph unicode="&#x2c8;" horiz-adv-x="796" />
<glyph unicode="&#x2d8;" horiz-adv-x="796" d="M195 1208l2 31h102q-2 -10 -2 -41q2 -55 41 -90q35 -33 88 -33q52 0 92 37q39 37 39 107l-2 20h51q2 -10 2 -35q0 -113 -57 -172t-150 -59q-89 0 -147 61q-59 63 -59 174z" />
<glyph unicode="&#x2d9;" horiz-adv-x="796" d="M350 1124q0 25 33 56q35 31 53 30q20 0 53 -32q35 -35 35 -55.5t-34.5 -55.5t-53.5 -35q-29 0 -57.5 34.5t-28.5 57.5z" />
<glyph unicode="&#x2da;" horiz-adv-x="796" d="M246 1104q0 61 51 115q53 57 115 57q68 0 117 -49t49 -114.5t-48 -111.5q-51 -47 -112 -47q-66 0 -119 43.5t-53 106.5zM315 1106q0 -41 27 -66q28 -25 74 -24q90 0 90 96q0 53 -28.5 75.5t-65.5 22.5q-52 0 -74 -36q-23 -39 -23 -68z" />
<glyph unicode="&#x2db;" horiz-adv-x="796" d="M338 -330q0 76 35 146q34 68 129 184h57q-92 -129 -92 -248q0 -188 147 -188q51 0 86 14q39 16 41 16q12 0 13 -12q0 -31 -58 -74q-55 -41 -143 -40.5t-151.5 51.5t-63.5 151z" />
<glyph unicode="&#x2dc;" horiz-adv-x="796" d="M152 989q4 12 6 23q6 25 14 53q12 35 29 65q10 18 45 50q28 25 61 24q47 0 88 -22l62 -33q39 -20 67 -21q63 0 97 84l2 7l30 -7q0 -4 -10 -36q-6 -22 -25 -62q-20 -43 -49 -67q-33 -27 -71 -27q-37 0 -76 16l-64 33q-39 20 -86 21q-66 0 -90 -101l-2 -6z" />
<glyph unicode="&#x2dd;" horiz-adv-x="796" d="M176 958l107 332h143l-176 -332h-74zM477 958l107 332h143l-176 -332h-74z" />
<glyph unicode="&#x300;" d="M-604 1290h143l107 -332h-74z" />
<glyph unicode="&#x301;" d="M-446 958l106 332h143l-176 -332h-73z" />
<glyph unicode="&#x302;" d="M-608 958q57 86 164 281h120q119 -217 164 -281h-119q-29 33 -40 52l-46 71q-18 29 -41 62q-29 -41 -40 -62q-23 -39 -46 -71l-38 -52h-78z" />
<glyph unicode="&#x303;" d="M-647 989q4 12 6 22.5t16 53.5q14 45 27 65q10 18 45 50q29 25 61 24q43 0 89 -22l61 -33q39 -20 68 -21q63 0 96 84l2 7l31 -7q-6 -27 -8.5 -37t-26.5 -61q-20 -43 -49 -67q-33 -27 -72 -27q-37 0 -76 16l-63 33q-39 20 -86 21q-66 0 -90 -101l-2 -6z" />
<glyph unicode="&#x304;" d="M-623 1065v98h471v-98h-471z" />
<glyph unicode="&#x306;" d="M-604 1208l2 31h102q-2 -10 -2 -41q2 -57 39 -90q35 -33 90 -33q52 0 92 37q39 37 39 107l-2 20h51q2 -10 3 -35q0 -113 -57.5 -172t-149.5 -59q-89 0 -148 61q-59 63 -59 174z" />
<glyph unicode="&#x307;" d="M-449 1124q0 25 33 56q35 31 54 30q20 0 53 -32q35 -35 35 -55.5t-35 -55.5t-53 -35q-29 0 -58 34.5t-29 57.5z" />
<glyph unicode="&#x308;" d="M-629 1124q0 20 35 53t53 33q25 0 55.5 -36.5t30.5 -55.5q0 -25 -34 -55q-34 -31 -56 -31q-18 0 -51 32.5t-33 59.5zM-330 1124q0 18 37 54q35 33 53 32q23 0 53.5 -36.5t30.5 -55.5q0 -25 -34 -55q-34 -31 -56 -31q-18 0 -51 32.5t-33 59.5z" />
<glyph unicode="&#x30a;" d="M-553 1104q0 61 51 115q53 57 115 57q68 0 117 -49t49 -114.5t-47 -111.5q-51 -47 -113 -47q-70 0 -121 43.5t-51 106.5zM-483 1106q0 -41 28.5 -65.5t71.5 -24.5q90 0 90 96q0 53 -28.5 75.5t-65.5 22.5q-52 0 -74 -36q-22 -39 -22 -68z" />
<glyph unicode="&#x30b;" d="M-623 958l107 332h143l-176 -332h-74zM-322 958l107 332h143l-176 -332h-74z" />
<glyph unicode="&#x30c;" d="M-627 1239h119l39 -51q31 -45 49 -74q31 -51 39 -61l53 82q49 80 72 104h78q-57 -86 -164 -281h-121q-111 205 -164 281z" />
<glyph unicode="&#x312;" d="M-494 1083q0 88 72 154t125 66q23 0 23 -16.5t-27 -31.5q-33 -18 -57 -43q-27 -27 -27 -71q0 -35 23 -54q16 -14 45 -22q23 -6 22 -16q0 -2 -6 -15l-43 -57q-18 -18 -29 -19q-14 0 -53 21q-47 27 -57 49q-11 24 -11 55z" />
<glyph unicode="&#x315;" d="M-469 1044l35 340l129 -16l-96 -334z" />
<glyph unicode="&#x326;" d="M-504 -485q0 18 27 32q28 15 55 43q29 29 29 70q0 35 -23 53q-18 16 -45 23q-25 6 -24 16q0 6 8 17l43 57q18 18 28.5 18t51.5 -22q47 -27 57 -49q10 -25 10 -56q0 -88 -71 -153q-70 -63 -125 -64q-21 1 -21 15z" />
<glyph unicode="&#x327;" d="M-508 -424l43 49q59 -20 100 -20q45 0 72 26.5t27 75.5t-45 73.5t-107 24.5q-31 0 -41 -2l-24 35l57 176h47l-45 -149q2 0 8 1t10 1h17q98 0 166 -37q70 -39 69 -119q0 -76 -67.5 -119t-153.5 -43q-43 0 -76 7q-29 6 -47 14z" />
<glyph unicode="&#x328;" d="M-461 -330q0 76 35 146q34 68 129 184h57q-92 -129 -92 -248q0 -188 148 -188q53 0 88 14l39 16q12 0 12 -12q0 -31 -57 -74q-55 -41 -143.5 -40.5t-152 51.5t-63.5 151z" />
<glyph unicode="&#x2000;" horiz-adv-x="1024" />
<glyph unicode="&#x2001;" horiz-adv-x="2048" />
<glyph unicode="&#x2002;" horiz-adv-x="1024" />
<glyph unicode="&#x2003;" horiz-adv-x="2048" />
<glyph unicode="&#x2004;" horiz-adv-x="679" />
<glyph unicode="&#x2005;" horiz-adv-x="512" />
<glyph unicode="&#x2006;" horiz-adv-x="337" />
<glyph unicode="&#x2007;" horiz-adv-x="1083" />
<glyph unicode="&#x2008;" horiz-adv-x="456" />
<glyph unicode="&#x2009;" horiz-adv-x="337" />
<glyph unicode="&#x200a;" horiz-adv-x="202" />
<glyph unicode="&#x200b;" />
<glyph unicode="&#x200c;" />
<glyph unicode="&#x200d;" />
<glyph unicode="&#x200e;" />
<glyph unicode="&#x200f;" />
<glyph unicode="&#x2010;" horiz-adv-x="643" d="M70 494v122l505 150v-125z" />
<glyph unicode="&#x2011;" horiz-adv-x="643" d="M70 494v122l505 150v-125z" />
<glyph unicode="&#x2012;" horiz-adv-x="1083" d="M0 541v88h1085v-88h-1085z" />
<glyph unicode="&#x2013;" horiz-adv-x="1024" d="M0 541v88h1024v-88h-1024z" />
<glyph unicode="&#x2014;" horiz-adv-x="2048" d="M0 541v88h2048v-88h-2048z" />
<glyph unicode="&#x2015;" horiz-adv-x="2048" d="M0 541v88h2048v-88h-2048z" />
<glyph unicode="&#x2018;" horiz-adv-x="495" d="M141 1116q0 113 82 195t144 82q23 0 22 -21q0 -18 -31 -37q-25 -14 -61 -55q-33 -37 -33 -90q0 -43 25 -66q25 -20 53 -30q27 -8 27 -21q0 -4 -9 -18l-51 -74q-16 -23 -30.5 -23t-59.5 27q-47 29 -63 55q-15 27 -15 76z" />
<glyph unicode="&#x2019;" horiz-adv-x="495" d="M141 976.5q0 18.5 31 39.5q37 25 64 55q33 37 32 90q0 43 -26 66q-25 23 -51.5 31t-26.5 20q0 4 8 18l49 72q16 25 33 25q10 0 57 -29t64 -55q14 -27 14 -76q0 -115 -82 -195q-83 -80 -141 -80q-25 0 -25 18.5z" />
<glyph unicode="&#x201a;" horiz-adv-x="495" d="M141 -242q0 16 31 39q37 25 64 56q33 37 32 90q0 45 -26.5 67.5t-51.5 28.5q-27 6 -26 18q0 4 8 21l49 72q16 23 33 22q12 0 57 -27q47 -29 64 -55q14 -27 14 -76q0 -115 -82 -194q-83 -80 -141 -80q-25 0 -25 18z" />
<glyph unicode="&#x201b;" horiz-adv-x="495" d="M141 1233v27q0 4 1 11t1 9q0 4 3.5 9t3.5 7q2 6 6 15q2 4 10 12q6 6 6 8t12 10l11 9q4 4 12 8l12 6q47 29 60 29q15 0 30 -25l51 -72l9 -18q0 -12 -27 -21q-29 -10 -53 -30q-25 -23 -25 -66q0 -53 33 -90q31 -34 61 -55q31 -20 31 -39t-22 -19q-58 0 -142 80t-84 195z " />
<glyph unicode="&#x201c;" horiz-adv-x="845" d="M141 1116q0 113 82 195t144 82q23 0 22 -21q0 -18 -31 -37q-25 -14 -61 -55q-33 -37 -33 -90q0 -43 25 -66q25 -20 53 -30q27 -8 27 -21q0 -4 -9 -18l-51 -74q-16 -23 -30.5 -23t-59.5 27q-47 29 -63 55q-15 27 -15 76zM492 1116q0 111 83 195q82 82 142 82q23 0 22 -21 q0 -14 -20 -31q-18 -15 -43 -30q-25 -14 -43 -47q-18 -31 -19 -74q0 -45 27 -65.5t53 -30.5q25 -8 25 -21q0 -4 -8 -18l-52 -74q-16 -23 -30.5 -23t-59.5 27q-47 29 -63 55q-14 27 -14 76z" />
<glyph unicode="&#x201d;" horiz-adv-x="843" d="M141 976.5q0 18.5 31 39.5q37 25 64 55q33 37 32 90q0 43 -26 66q-25 23 -51.5 31t-26.5 20q0 4 8 18l49 72q16 25 33 25q10 0 57 -29t64 -55q14 -27 14 -76q0 -115 -82 -195q-83 -80 -141 -80q-25 0 -25 18.5zM489 976.5q0 18.5 31 39.5q37 25 64 55q33 37 32 90 q0 43 -26 66q-25 23 -51.5 31t-26.5 20q0 4 8 18l49 72q16 25 33 25q10 0 57.5 -29t63.5 -55q14 -27 14 -76q0 -115 -82 -195q-83 -80 -141 -80q-25 0 -25 18.5z" />
<glyph unicode="&#x201e;" horiz-adv-x="843" d="M141 -242q0 16 31 39q37 25 64 56q33 37 32 90q0 45 -26.5 67.5t-51.5 28.5q-27 6 -26 18q0 4 8 21l49 72q16 23 33 22q12 0 57 -27q47 -29 64 -55q14 -27 14 -76q0 -115 -82 -194q-83 -80 -141 -80q-25 0 -25 18zM489 -242q0 16 31 39q37 25 64 56q33 37 32 90 q0 45 -26.5 67.5t-50.5 28.5q-27 6 -27 18q0 4 8 21l49 72q16 23 33 22q12 0 57 -27q47 -29 64 -55q14 -27 14 -76q0 -115 -82 -194q-83 -80 -141 -80q-25 0 -25 18z" />
<glyph unicode="&#x201f;" horiz-adv-x="845" d="M141 1233v27q0 4 1 11t1 9q0 4 3.5 9t3.5 7q2 6 6 15q2 4 10 12q6 6 6 8t12 10l11 9q4 4 12 8l12 6q47 29 60 29q15 0 30 -25l51 -72l9 -18q0 -12 -27 -21q-29 -10 -53 -30q-25 -23 -25 -66q0 -53 33 -90q31 -34 61 -55q31 -20 31 -39t-22 -19q-58 0 -142 80t-84 195z M492 1233q0 6 1 14t1 12.5t1 11.5t1 9q0 4 4 16q2 6 6 14.5t8 12.5l8 8q0 4 10 10l13 9q2 4 10 8q12 6 14 6q47 29 60 29q15 0 30 -25l52 -72q8 -14 8 -18q0 -12 -25 -21q-27 -10 -53.5 -30.5t-26.5 -65.5q0 -43 19 -74q18 -33 43 -47q25 -15 43 -30q20 -16 20 -33 q0 -18 -22 -19q-58 0 -142 80q-83 80 -83 195z" />
<glyph unicode="&#x2020;" horiz-adv-x="958" d="M90 848q0 47 33 72q37 27 61 26q43 0 142 -37q92 -35 127 -35q4 0 4 5q0 57 -37 235q-39 188 -39 217q0 74 29 115q27 39 71 39q47 0 74 -35q29 -39 29 -113q0 -31 -33 -209q-35 -190 -35 -237q0 -16 6 -17q41 2 119 37q80 35 121 35q33 0 72 -22q37 -22 36 -68 q0 -47 -34 -72q-33 -25 -76 -24q-37 0 -117 33q-86 35 -129 34q-6 0 -6 -4l76 -397q-43 -178 -43 -766q0 -35 -18.5 -72t-43.5 -37q-29 0 -47 35q-16 33 -16 72q0 246 -10 457q-8 170 -21 252l-10 59q84 371 84 399l-6 4q-33 0 -125 -34.5t-135 -34.5q-8 0 -33 4 q-20 4 -45 24q-25 23 -25 60z" />
<glyph unicode="&#x2021;" horiz-adv-x="958" d="M90 23q0 49 35 73.5t78 24.5q31 0 117 -35t129 -35q4 0 4 6q0 12 -16.5 74t-33.5 109l-16 49l66 221l-68 211q74 221 74 254l-6 4q-33 0 -125 -35t-135 -35q-20 0 -33 2q-20 4 -45 25q-25 22 -25 61q0 45 35 74q33 27 61 27q46 0 142 -37q94 -37 125 -37q4 0 4 4 q0 59 -37 158q-39 104 -39 139q0 74 29 102q31 31 75 31q96 0 97 -125q0 -27 -33 -131t-33 -162q0 -16 6 -16q43 4 117 39q72 35 121 35q35 0 74 -23q37 -22 36 -67q0 -49 -34 -74q-33 -25 -76 -25q-33 0 -119 35t-127 35q-6 0 -6 -6l65 -252l-65 -211l70 -221 q-76 -197 -76 -234l8 -4q37 0 125 35t133 35q20 0 33 -2q18 -3 43 -25q27 -23 26 -61q0 -45 -34 -74q-33 -27 -62 -27q-45 0 -139 37t-125 37q-4 0 -4 -4q0 -53 39 -160q37 -100 37 -139q0 -70 -31 -100.5t-76 -30.5q-96 0 -96 125q0 27 32.5 131t32.5 162q0 16 -6 16 q-43 -4 -116 -39q-72 -35 -121 -35q-35 0 -74 23q-37 22 -37 68z" />
<glyph unicode="&#x2022;" horiz-adv-x="851" d="M180 616q0 98 72 175q72 74 174 73q98 0 174 -71q74 -72 74 -175q0 -98 -72 -174q-70 -74 -174 -73q-98 0 -174 71q-74 70 -74 174z" />
<glyph unicode="&#x2026;" horiz-adv-x="1374" d="M127 84q0 23 41 57.5t57 34.5q29 0 64 -41q33 -39 33 -61q0 -27 -39 -60q-41 -35 -64 -34q-18 0 -55 38.5t-37 65.5zM586 84q0 23 41 57.5t57 34.5q29 0 64 -41q33 -39 32 -61q0 -27 -39 -60q-41 -35 -63 -34q-18 0 -55 38.5t-37 65.5zM1044 84q0 25 39 57q41 35 60 35 q29 0 63 -41q33 -39 33 -61q0 -27 -39 -60q-41 -35 -63 -34q-18 0 -55.5 38.5t-37.5 65.5z" />
<glyph unicode="&#x202f;" horiz-adv-x="337" />
<glyph unicode="&#x2032;" horiz-adv-x="456" d="M49 997q0 29 49 164q8 25 29 101l27 96q9 37 24 74q14 33 37 53q23 18 51 18q31 0 47 -22q14 -20 15 -45q0 -27 -23 -78q-14 -33 -69 -125q-37 -61 -58 -103q-6 -10 -10 -20t-8 -18.5t-13 -22.5q-16 -31 -22 -45q-2 -6 -9 -16.5t-10 -12.5q-8 -14 -16 -18t-16 -4 q-25 -1 -25 24z" />
<glyph unicode="&#x2033;" horiz-adv-x="677" d="M49 999.5q0 20.5 37 200.5q41 199 51 242q15 61 86 61q33 0 51 -22t19 -43q0 -25 -19 -70q-12 -29 -59 -121q-37 -72 -55 -114l-23 -52l-18 -43q-10 -27 -15 -32q-10 -16 -16 -21q-10 -6 -16 -6q-23 0 -23 20.5zM242 1006q0 43 57 163q25 51 53 146q33 104 58 143 q28 43 73 43q33 0 49.5 -16.5t16.5 -34.5t-4 -31q-6 -18 -19 -43l-22 -45l-31 -51l-33 -49q-2 -4 -12 -18.5l-22 -32.5l-29 -45q-6 -12 -14.5 -25.5l-18.5 -30.5l-27 -43q-10 -16 -18 -30.5t-18 -20.5q-6 -4 -17 -4q-22 0 -22 25z" />
<glyph unicode="&#x2039;" horiz-adv-x="505" d="M82 442l311 273l33 -37l-190 -236l190 -233l-33 -39z" />
<glyph unicode="&#x203a;" horiz-adv-x="505" d="M82 209l190 233l-190 236l33 37l311 -273l-311 -272z" />
<glyph unicode="&#x203e;" horiz-adv-x="796" />
<glyph unicode="&#x2044;" horiz-adv-x="497" d="M-289 -76l1059 1510h104l-1058 -1510h-105z" />
<glyph unicode="&#x2053;" horiz-adv-x="2037" d="M123 457q4 18 10 51q6 31 43 110q37 82 84 140q53 66 137 112q90 49 199 50q125 0 260 -58q137 -57 238 -125q104 -70 225 -127t221 -57t176 90q82 96 107 182l28 93l66 -13q0 -6 -8 -33q-14 -49 -23 -67l-37 -90q-20 -51 -57 -97q-35 -43 -84 -86q-45 -39 -112.5 -63.5 t-145.5 -24.5q-127 0 -268 56q-135 53 -241.5 120.5t-227.5 120.5q-127 55 -230 56q-180 0 -266 -242q-18 -51 -29 -113z" />
<glyph unicode="&#x205f;" horiz-adv-x="452" />
<glyph unicode="&#x2060;" />
<glyph unicode="&#x20ac;" horiz-adv-x="1198" d="M35 555l39 96h135q39 143 137 238q94 92 191 127q90 33 178 33q119 0 211 -37t184 -123l-45 -101q-8 14 -34.5 41t-65.5 54q-40 28 -105 49q-61 20 -137 20q-119 0 -238 -71q-115 -70 -174 -230h699l-39 -96h-680v-16q0 -4 -1 -12.5t-1 -10.5t1 -10t1 -14v-17h645 l-41 -98h-584q49 -145 170 -223t240 -78q96 0 180 39q82 37 113 65q28 25 49 49l2 2l6 -2v-125q-152 -125 -344 -124q-76 0 -143 20q-76 23 -146 63q-74 43 -135 123q-57 76 -94 191h-168l39 98h113v80h-158z" />
<glyph unicode="&#x2212;" horiz-adv-x="1521" d="M164 422v119h1196v-119h-1196z" />
<glyph unicode="&#xe000;" horiz-adv-x="805" d="M0 805h805v-805h-805v805z" />
<glyph unicode="&#xfeff;" />
<glyph horiz-adv-x="1083" d="M55 668q0 248 141.5 438t331.5 190q237 0 369 -190q133 -193 133 -453q0 -268 -135 -470.5t-371 -202.5q-123 0 -221 57q-95 55 -147 153q-51 96 -76 217.5t-25 260.5zM190 676q0 -158 39 -293q41 -143 121 -231q84 -92 193 -93q156 0 243.5 170t87.5 404q0 274 -102 430 q-100 154 -242 154q-152 0 -246 -162t-94 -379z" />
<glyph horiz-adv-x="1083" d="M307 0v66h101q76 0 96 10q18 10 18 57v950q0 55 -14 68q-18 14 -74 14h-112l2 66h221q12 0 33 4q6 2 14 5l8 3q6 2 18 14q8 8 13 17q2 6 8 20l7 14l3 5h35q-16 -299 -16 -473v-707q0 -49 32 -57q37 -10 179 -10h41v-66h-613z" />
<glyph horiz-adv-x="1083" d="M129 16q0 10 25 35l88 94q90 94 131 144q322 373 321 631q0 84 -26 137q-29 55 -70 80q-53 31 -76 37q-37 10 -67 10q-80 0 -123 -17q-53 -20 -70 -39l-19.5 -20l-17.5 -18q-16 -16 -30 -17q-23 0 -23 23q0 68 98 127q100 59 244 59q152 0 256 -100q100 -98 100 -234 q0 -213 -268 -530q-43 -51 -147 -156l-123 -119q-45 -41 -45 -49t37 -8q174 0 315 27q152 29 225 51l43 13t32 10t11 3q16 0 17 -18q0 -25 -17 -84q-18 -66 -30 -76q-18 -12 -91 -12h-651q-49 0 -49 16z" />
<glyph horiz-adv-x="1083" d="M102 102q0 29 35 29q14 0 47 -18q35 -18 101 -37q59 -16 155 -17q94 0 158 29q66 31 100 80q35 51 50 92q14 43 14 92q0 96 -84 193q-80 92 -199 114q-6 2 -17 3.5t-18 1.5q-4 0 -15 3t-15 3q-14 0 -21 2q-12 4 -14 8q-4 8 -4 16q0 10 2 15q4 8 8 10q4 4 8 6q2 2 14.5 6 t16.5 4l20 4q10 2 23 7q78 18 127 71q51 53 63 99q12 43 13 81q0 68 -59.5 125.5t-159.5 57.5q-82 0 -132 -21q-47 -18 -79 -45q-29 -23 -43 -22q-25 0 -25 30q0 16 21 43q16 23 59 58t104 55q72 23 150 23q133 0 235 -74q100 -74 101 -197q0 -63 -31 -119 q-35 -63 -69.5 -91.5t-84 -57.5t-69.5 -35l-31 -10q2 0 10 -2t15.5 -3t15.5 -3q33 -8 92 -31q72 -27 117 -62q53 -39 90 -102q41 -70 41 -151q0 -127 -74 -220q-76 -94 -180 -133t-231 -39q-139 0 -242 41q-109 43 -109 88z" />
<glyph horiz-adv-x="1083" d="M16 342q0 20 72 109q412 483 662 802q18 25 28 25q14 0 15 -51v-772h221l-43 -127h-178v-377l-144 -33v410h-604q-29 0 -29 14zM195 455h454v549z" />
<glyph horiz-adv-x="1083" d="M82 113q0 23 22 22q12 0 31 -12l39 -27q25 -16 82 -28q61 -12 150 -13q150 0 254 110.5t104 252.5q0 80 -33 149.5t-80 104.5q-53 39 -112 63q-57 23 -117 33q-61 10 -113 10q-6 0 -88 -4l-6 154q-3 157 -12 221q-8 57 -8 80q0 27 30 26q6 0 22.5 -1t48.5 -2t62 -1 q76 -2 168 -2q127 0 215 15q12 2 22.5 22.5t10.5 36.5l2 18l49 -6l-24 -168q-8 -57 -43 -57q-63 0 -223 23q-174 25 -181 24q-74 0 -73 -248q0 -35 8 -51q6 -10 33 -10q4 0 12 1t24.5 2t30.5 1q37 2 76 2q211 0 340 -104q127 -102 127 -310q0 -43 -14 -106q-12 -53 -50 -119 q-39 -68 -92 -115q-57 -51 -151 -84q-98 -35 -213 -34q-74 0 -136 12q-72 14 -94 26q-27 14 -59 39q-18 14 -33 33q-8 11 -8 21z" />
<glyph horiz-adv-x="1083" d="M117 561q0 301 188.5 520t427.5 219q41 0 108.5 -18t67.5 -47q0 -25 -28 -25q-3 0 -37 7q-45 8 -66 8q-98 0 -200 -56q-94 -51 -162 -147q-68 -95 -92 -172q-23 -68 -39 -158q-14 -74 -15 -80q59 98 144 148q90 51 161 51q104 0 183 -39q80 -39 119 -88q40 -49 61 -111 q25 -68 27 -96q4 -41 4 -49q0 -209 -121 -330t-291 -121q-209 0 -324 164q-116 166 -116 420zM301 469q0 -170 88 -295t199 -125q88 0 153.5 78t65.5 215q0 158 -82 262q-80 100 -199 101q-96 0 -159 -72q-66 -76 -66 -164z" />
<glyph horiz-adv-x="1083" d="M164 1104q0 39 22 147q2 14 41 15h639q20 0 29 -4q6 -4 6 -23q0 -164 -131 -674q-43 -178 -133 -481q-25 -78 -29 -86q-8 -14 -28 -14h-142q-37 0 -37 26q0 8 13 27l39 63q33 51 59 105q29 59 78 178q55 137 94 258q125 367 125 479q0 31 -49 31q-154 0 -385 -39 q-63 -10 -99 -20q-14 -4 -63 -21q-18 -6 -27 -6q-22 0 -22 39z" />
<glyph horiz-adv-x="1083" d="M150 307q0 45 14 86q16 43 39 76q23 31 55 63q28 28 61 50l30 20t26 16q10 6 27.5 15.5t19.5 11.5q22 12 24 12q-109 63 -176 148q-68 86 -67 182q0 141 106.5 229.5t270.5 88.5q135 0 241 -84q104 -83 105 -197q0 -63 -27 -119q-27 -57 -63 -94q-41 -41 -74 -66 q-41 -31 -64 -40l-26 -13q2 0 26.5 -12t42.5 -23q12 -6 47 -30l56 -39q14 -12 49 -47q25 -25 45 -56q10 -16 27 -63q12 -37 12 -74q0 -152 -119 -264q-115 -109 -295 -109q-176 0 -293 91q-120 91 -120 241zM272 317q0 -121 97 -192q98 -74 213 -74q111 0 188 74 q76 74 76 174q0 29 -4 43q-2 4 -5 17.5t-6 19.5q-8 20 -20 35l-25 30q-8 10 -34 31l-39 29q-20 14 -45 28l-50 29q-6 4 -20 12.5t-39 20.5q-51 29 -59 35q-4 -2 -12.5 -7.5t-12.5 -7.5l-53 -41q-33 -27 -70 -65q-29 -31 -55 -88q-25 -52 -25 -103zM334 1028q0 -76 65 -151 q63 -72 131 -111l66 -37q8 4 22 12q12 4 52 31q37 25 65 53q33 33 51 72q23 49 23 96q0 92 -80 164q-82 72 -176 72q-121 0 -170 -57.5t-49 -143.5z" />
<glyph horiz-adv-x="1083" d="M150 137q0 31 26 31q20 0 45 -23q20 -18 78 -47q49 -25 121 -24q109 0 192 55q80 53 125 133q39 70 70 158q27 76 33 133l6 55q-8 -8 -15 -16q-4 -6 -45 -39q-31 -25 -71 -49q-27 -14 -99 -37q-61 -18 -124 -18q-95 0 -166 43q-70 43 -107 110q-31 57 -49 133 q-16 70 -16 127q0 180 112 312q111 129 273 129q203 0 325.5 -166t122.5 -447q0 -190 -57.5 -343.5t-181.5 -260.5q-121 -102 -293 -102q-133 0 -219 49t-86 104zM305 915q0 -43 12 -96q10 -47 41 -117q29 -66 93 -108q66 -43 155 -43q100 0 153.5 59.5t53.5 147.5 q0 169 -86 325t-201 156q-88 0 -155 -92q-66 -91 -66 -232z" />
</font>
</defs>
</svg>
