<?xml version="1.0" standalone="no"?>
<!DOCTYPE svg PUBLIC "-//W3C//DTD SVG 1.1//EN" "http://www.w3.org/Graphics/SVG/1.1/DTD/svg11.dtd" >
<svg xmlns="http://www.w3.org/2000/svg">
<metadata>
This is a custom SVG webfont generated by Font Squirrel.
Copyright   : Copyright c 2010 Barry Schwartz
</metadata>
<defs>
<font id="webfontLPbMpnxQ" horiz-adv-x="0" >
<font-face units-per-em="2048" ascent="1485" descent="-563" />
<missing-glyph horiz-adv-x="376" />
<glyph unicode="fi" horiz-adv-x="946" d="M-156 -420q0 37 17 62q18 29 47 28q6 0 18 -4q6 -2 13 -8l5 -4q5 -4 7 -8q4 -6 8 -15q2 -4 10 -16l8 -16q35 -55 78 -56q49 0 68 105q20 113 41 415q2 55 6 93q20 324 45 581h-143v66h147q12 102 17 158q4 49 10 108q4 45 8 61q6 33 18 60q39 104 140 176q100 74 243 74 q86 0 119 -33q35 -35 35 -76q0 -31 -16.5 -53.5t-38.5 -22.5q-33 0 -76 52q-43 53 -98 53q-152 0 -193 -158q-10 -39 -20 -106q-10 -70 -17 -158q-4 -68 -10 -135h225q78 0 137 6l60 6q12 0 18 -6t6 -31q0 -33 -24 -286q-23 -233 -23 -283q0 -47 19 -47q31 0 137 168l33 -27 q-39 -92 -125 -182q-33 -35 -94 -86q-55 -45 -74 -45q-35 0 -35 45q0 16 26.5 276t26.5 379q0 47 -22 47h-295q-2 -35 -21 -331l-14 -238q-6 -113 -20 -264q-8 -78 -33 -191q-20 -90 -53 -139q-31 -47 -82 -74q-53 -29 -127 -28q-53 0 -99 28q-43 28 -43 80z" />
<glyph unicode="fl" horiz-adv-x="956" d="M-156 -420q0 37 17 62q18 29 47 28q6 0 18 -4q6 -2 13 -8l5 -4q5 -4 7 -8q4 -6 8 -15q2 -4 10 -16l8 -16q35 -55 78 -56q49 0 68 105q20 113 41 415q2 55 6 93q20 324 45 581h-143v66h145q0 6 2 21.5t4 41l4 52.5q10 102 15 124q14 80 18 97q16 66 39 106q27 47 57 78 q115 115 262 115l134 -33q57 45 75 45q20 0 17 -29q-8 -78 -43 -497q-25 -301 -37 -500q-4 -55 -7 -111.5t-5 -81t-2 -30.5q0 -39 16 -39q37 0 139 178l45 -33q-2 -6 -13 -26.5l-19 -34.5q-18 -33 -87 -119q-66 -84 -126 -127q-27 -20 -56 -20q-35 0 -35 61q0 4 4.5 45 t4.5 51q33 668 49 869l16 262q-29 20 -43 37q-22 25 -43 36q-20 12 -53 13q-61 0 -109 -62q-49 -66 -63 -157q-3 -31 -37 -332h154l-5 -66h-153q-16 -225 -23 -354q-4 -66 -7 -122t-5 -81l-2 -24q-25 -399 -82 -541q-57 -143 -231 -143q-53 0 -99 28q-43 28 -43 80z" />
<glyph unicode="ff" horiz-adv-x="987" d="M-156 -420q0 37 17 62q18 29 47 28q6 0 18 -4q6 -2 13 -8l5 -4q5 -4 7 -8q4 -6 8 -15q2 -4 10 -16l8 -16q35 -55 78 -56q49 0 68 105q20 113 41 415q2 55 6 93q20 324 45 581h-143v66h145l4 51q2 8 3 26.5t1 28.5q0 8 1 25.5t3 23.5q8 94 45 181q31 74 78 121 q41 41 99 69q47 23 96 35q35 8 80 8q51 0 90 -20q41 -23 51 -41l12 -23q14 23 29 35q47 47 129 82q78 33 154 33q63 0 94 -31t31 -76q0 -35 -14.5 -55.5t-39.5 -20.5q-31 0 -57 33q-66 66 -113 66q-63 0 -108 -82q-45 -80 -64 -209q-20 -154 -28 -260h155l-4 -66h-156 q-3 -28 -30 -510q-16 -297 -39 -415q-25 -126 -86 -197q-74 -84 -193 -84q-55 0 -92 25q-35 23 -35 77q0 31 15 52q16 23 40.5 22.5t41.5 -26.5q10 -16 34 -50q18 -25 54 -24q72 0 96 141q2 6 33 479q6 109 41 510h-332q-9 -114 -31 -510l-16 -245q-6 -80 -23 -191 q-14 -94 -37 -147q-23 -55 -55 -97q-35 -45 -80 -59q-49 -16 -108 -16q-53 0 -99 28q-43 28 -43 80zM340 803h330q6 39 10 100q0 14 10 115q4 39 15 88q12 59 26 94h-4q-8 0 -68 45q-63 47 -114 47q-160 0 -191 -334z" />
<glyph unicode="ffi" horiz-adv-x="1402" d="M-156 -420q0 37 17 62q18 29 47 28q6 0 18 -4q6 -2 13 -8l5 -4q5 -4 7 -8q4 -6 8 -15q2 -4 10 -16l8 -16q35 -55 78 -56q49 0 68 105q20 113 41 415q2 55 6 93q20 324 45 581h-143v66h145l4 51q2 8 3 26.5t1 28.5q0 8 1 25.5t3 23.5q8 94 45 181q31 74 78 121 q41 41 99 69q47 23 96 35q35 8 80 8q51 0 90 -20q41 -23 51 -41l12 -23q14 23 29 35q47 49 131 82q80 33 162 33q66 0 104 -33q41 -35 41 -74q0 -35 -14 -55.5t-39 -20.5q-27 0 -47 25q-18 20 -57 49q-33 25 -89 25q-143 0 -180 -291q-20 -154 -28 -260h229q80 0 137 6l60 6 q12 0 18 -6t6 -31q0 -33 -24 -286q-23 -233 -23 -283q0 -47 18 -47q31 0 138 168l32 -27q-37 -86 -124 -182q-33 -35 -95 -86q-55 -45 -73 -45q-35 0 -35 45q0 16 26.5 276t26.5 379q0 47 -23 47h-299l-12 -184q-2 -31 -5 -94.5t-5 -93.5q-2 -33 -5 -78t-3 -60 q-18 -287 -41 -420q-20 -121 -84 -192q-74 -84 -193 -84q-55 0 -92 25q-35 23 -35 77q0 31 15 52q16 23 40.5 22.5t41.5 -26.5q10 -16 34 -50q18 -25 54 -24q72 0 96 141q4 20 8 80q8 141 10 168q8 156 15 231q16 236 41 510h-332q-9 -114 -31 -510q-12 -203 -16 -243 q-12 -125 -23 -187q-16 -104 -35 -149q-20 -47 -55 -97q-33 -45 -80 -63q-41 -16 -110 -16q-53 0 -99 28q-43 28 -43 80zM340 803h330q6 39 10 100q0 14 10 115q4 39 15 88q12 59 26 94h-4q-8 0 -68 45q-63 47 -114 47q-160 0 -191 -334z" />
<glyph unicode="ffl" horiz-adv-x="1411" d="M-156 -420q0 37 17 62q18 29 47 28q6 0 18 -4q6 -2 13 -8l5 -4q5 -4 7 -8q4 -6 8 -15q2 -4 10 -16l8 -16q35 -55 78 -56q49 0 68 105q20 113 41 415q2 55 6 93q20 324 45 581h-143v66h145l4 51q2 8 3 26.5t1 28.5q0 8 1 25.5t3 23.5q8 94 45 181q31 74 78 121 q41 41 99 69q47 23 96 35q35 8 80 8q51 0 90 -20q41 -23 51 -41l12 -23q14 23 29 35q115 115 264 115l133 -33q57 45 75.5 45t14.5 -29q-22 -200 -43 -497q-4 -66 -18 -244t-18 -256q-12 -203 -13 -223q0 -39 17 -39q37 0 139 178l43 -33l-33 -61q-25 -43 -84 -119 q-66 -84 -127 -127q-27 -20 -55 -20q-35 0 -35 61q0 4 4 45t4 51q16 313 49 869l15 262q-29 20 -43 37q-22 25 -43 36q-23 12 -54 13q-61 0 -102 -53.5t-63 -145.5q-8 -33 -43 -352h155l-4 -66h-156q-25 -371 -34 -557q-14 -254 -39 -383q-20 -113 -82 -182 q-74 -84 -193 -84q-55 0 -92 25q-35 23 -35 77q0 31 15 52q16 23 40.5 22.5t41.5 -26.5q10 -16 34 -50q18 -25 54 -24q72 0 96 141q6 29 31 432q14 268 43 557h-332q0 -12 -21 -325q-12 -197 -14 -232q-6 -115 -20 -266q-8 -94 -31 -195q-20 -98 -53 -145 q-31 -45 -84.5 -73.5t-126.5 -28.5q-53 0 -99 28q-43 28 -43 80zM340 803h330q6 39 10 100q0 14 10 115q4 39 15 88q12 59 26 94h-4q-8 0 -68 45q-63 47 -114 47q-160 0 -191 -334z" />
<glyph unicode="fj" horiz-adv-x="909" d="M-156 -420q0 37 17 62q18 29 47 28q6 0 18 -4q6 -2 13 -8l5 -4q5 -4 7 -8q4 -6 8 -15q2 -4 10 -16l8 -16q35 -55 78 -56q49 0 68 105q20 113 41 415q2 55 6 93q20 324 45 581h-143v66h147q12 102 17 158q4 49 10 108q4 45 8 61q6 33 18 60q39 104 140 176q100 74 243 74 q86 0 119 -33q35 -35 35 -76q0 -31 -16.5 -53.5t-38.5 -22.5q-33 0 -76 52q-43 53 -98 53q-152 0 -193 -158q-10 -39 -20 -106q-10 -70 -17 -158q-4 -68 -10 -135h221q77 0 141 6l64 6q23 0 22 -27q0 -2 -1 -16l-3 -43l-4 -59l-14 -254q-2 -37 -6 -87t-6 -83t-2 -58l-4 -65 q-4 -47 -5 -64q0 -27 -2 -53l-4 -51q0 -4 -1 -10t-2 -15.5t-1 -17.5q-4 -33 -6 -47q-2 -6 -3 -18.5t-1 -18.5q-2 -8 -5 -22.5t-3 -18.5q-2 -6 -4 -17.5t-4 -17.5q-20 -76 -54 -121q-37 -49 -73 -65q-35 -16 -62 -23q-25 -6 -41 -6q-125 0 -125 96q0 31 15 52q16 23 41 22 q33 0 57 -47t57 -47t51 45q16 43 33 172q20 160 33 455q14 330 14 405q0 47 -22 47h-295q-2 -41 -21 -331q-4 -55 -7 -114t-5 -87.5t-2 -40.5q-6 -117 -20 -260q-8 -86 -33 -191q-20 -92 -53 -139q-31 -45 -84.5 -73.5t-124.5 -28.5q-53 0 -99 28q-43 28 -43 80z" />
<glyph unicode="ffj" horiz-adv-x="1363" d="M-156 -420q0 37 17 62q18 29 47 28q6 0 18 -4q6 -2 13 -8l5 -4q5 -4 7 -8q4 -6 8 -15q2 -4 10 -16l8 -16q35 -55 78 -56q49 0 68 105q20 113 41 415q2 55 6 93q20 324 45 581h-143v66h145l4 51q2 8 3 26.5t1 28.5q0 8 1 25.5t3 23.5q8 94 45 181q31 74 78 121 q41 41 99 69q47 23 96 35q35 8 80 8q51 0 90 -20q41 -23 51 -41l12 -23q14 23 29 35q47 49 131 82q80 33 162 33q66 0 104 -33q41 -35 41 -74q0 -35 -14 -55.5t-39 -20.5q-27 0 -47 25q-18 20 -57 49q-33 25 -89 25q-143 0 -180 -291q-20 -154 -28 -260h221q77 0 141 6l64 6 q25 0 24 -27q0 -10 -6 -118l-9 -123t-9 -131q-9 -147 -13 -228l-4 -65q0 -12 -1 -27.5t-2 -24t-1 -12.5q0 -27 -2 -53l-4 -51q0 -4 -1 -10t-2 -15.5t-1 -17.5t-1 -24.5t-3 -22.5q-3 -15 -6 -37l-5.5 -22.5t-3.5 -18.5q-2 -6 -4 -17.5t-4 -17.5q-18 -70 -53 -121 q-31 -45 -76 -65q-31 -14 -63 -23q-25 -6 -39 -6q-123 0 -123 96q0 29 16.5 51.5t38.5 22.5q31 0 55.5 -47t59.5 -47t49 45q14 41 33 172q18 147 35 459q14 266 14 401q0 47 -35 47h-285l-12 -184q-2 -31 -5 -94.5t-5 -93.5q-2 -33 -5 -78t-3 -60q-18 -287 -41 -420 q-20 -121 -84 -192q-74 -84 -193 -84q-55 0 -92 25q-35 23 -35 77q0 31 15 52q16 23 40.5 22.5t41.5 -26.5q10 -16 34 -50q18 -25 54 -24q72 0 96 141q4 20 8 80q8 141 10 168q8 156 15 231q16 236 41 510h-332q-9 -114 -31 -510q-12 -203 -16 -243q-12 -125 -23 -187 q-16 -104 -35 -149q-20 -47 -55 -97q-33 -45 -80 -63q-41 -16 -110 -16q-53 0 -99 28q-43 28 -43 80zM340 803h330q6 39 10 100q0 14 10 115q4 39 15 88q12 59 26 94h-4q-8 0 -68 45q-63 47 -114 47q-160 0 -191 -334z" />
<glyph unicode="fb" horiz-adv-x="1173" d="M-156 -420q0 37 17 62q18 29 47 28q6 0 18 -4q6 -2 13 -8l5 -4q5 -4 7 -8q4 -6 8 -15q2 -4 10 -16l8 -16q35 -55 78 -56q49 0 68 105q20 113 41 415q2 55 6 93q20 324 45 581h-143v66h145q0 6 2 21.5t4 41l4 52.5q10 102 15 124q14 80 18 97q16 66 39 106q27 47 57 78 q115 115 232 115l119 -23q57 35 73.5 35t16.5 -18q0 -2 -13 -119l-59 -576l-20 -184q88 129 180 199q84 63 141 63q14 0 29 -8q20 -12 35 -29q23 -27 32 -65q12 -46 13 -111q0 -33 -9 -90q-10 -66 -43 -176q-33 -106 -86 -176q-29 -41 -102 -107q-68 -61 -94 -61 q-14 0 -23 2q-20 6 -26 8q-2 2 -10.5 5t-12.5 5l-10 6q-10 6 -17 11l-24 16l-29 21q-6 4 -12 9t-10 8t-6 3q-35 25 -35 53q0 4 6 84q0 6 14 223q14 219 17 269q25 428 24 569q-4 4 -13 11.5t-16 11.5q-12 10 -26 24q-8 8 -27 15q-25 8 -41 8q-46 0 -80 -37q-29 -33 -49 -109 q-18 -72 -30.5 -149.5t-18.5 -179.5q-2 -18 -4 -44t-2 -32h154l-5 -66h-153q-16 -225 -23 -354q-4 -66 -7 -122t-5 -81l-2 -24q-25 -401 -82 -541q-59 -143 -231 -143q-53 0 -99 28q-43 28 -43 80zM696 276q0 -59 33 -106q31 -43 68 -68q33 -20 49 -20q49 0 121 139 q70 137 69 268q0 92 -32 156q-35 66 -78 66q-31 0 -82 -47.5t-90 -116.5q-29 -47 -41 -94q-10 -39 -15 -82q-2 -23 -2 -95z" />
<glyph unicode="ffb" horiz-adv-x="1628" d="M-156 -420q0 37 17 62q18 29 47 28q6 0 18 -4q6 -2 13 -8l5 -4q5 -4 7 -8q4 -6 8 -15q2 -4 10 -16l8 -16q35 -55 78 -56q49 0 68 105q20 113 41 415q2 55 6 93q20 324 45 581h-143v66h145l4 51q2 8 3 26.5t1 28.5q0 8 1 25.5t3 23.5q8 94 45 181q31 74 78 121 q41 41 99 69q47 23 96 35q35 8 80 8q51 0 90 -20q41 -23 51 -41l12 -23q14 23 29 35q115 115 233 115l119 -23q53 35 71.5 35t18.5 -18l-4 -33q0 -8 -3 -35l-8 -75t-11 -97l-47 -455l-19 -184q90 133 178 199q84 63 144 63q16 0 30 -8q20 -12 35 -29q18 -23 31 -65 q12 -46 12 -111q0 -18 -10 -90q-10 -66 -43 -176q-35 -111 -84 -176q-29 -41 -102 -107q-68 -61 -95 -61q-14 0 -22 2q-16 4 -25 8q-4 2 -12 5t-12 5l-10 6q-10 6 -17 11l-24 16l-29 21q-6 4 -12.5 9l-10.5 8t-6 3q-37 29 -37 53q0 4 6 84l17 223q8 125 16 269 q23 410 23 569q-16 16 -33 31q-25 22 -43 31q-16 8 -45 8q-68 0 -102.5 -72t-55.5 -219q-27 -233 -28 -260h155l-4 -66h-156q-25 -371 -34 -557q-14 -254 -39 -383q-20 -113 -82 -182q-74 -84 -193 -84q-55 0 -92 25q-35 23 -35 77q0 31 15 52q16 23 40.5 22.5t41.5 -26.5 q10 -16 34 -50q18 -25 54 -24q72 0 96 141q6 29 31 432q14 268 43 557h-332q0 -12 -21 -325q-12 -197 -14 -232q-6 -115 -20 -266q-8 -94 -31 -195q-20 -98 -53 -145q-31 -45 -84.5 -73.5t-126.5 -28.5q-53 0 -99 28q-43 28 -43 80zM340 803h330q6 39 10 100q0 14 10 115 q4 39 15 88q12 59 26 94h-4q-8 0 -68 45q-63 47 -114 47q-160 0 -191 -334zM1149 276q0 -55 35 -106q31 -43 67 -68q33 -20 47 -20q49 0 121 139t72 268q0 90 -35 156t-76 66q-33 0 -84 -47q-47 -45 -88 -117q-39 -70 -49 -127q-10 -62 -10 -144z" />
<glyph unicode="fh" horiz-adv-x="1341" d="M-156 -420q0 37 17 62q18 29 47 28q6 0 18 -4q6 -2 13 -8l5 -4q5 -4 7 -8q4 -6 8 -15q2 -4 10 -16l8 -16q35 -55 78 -56q49 0 68 105q20 113 41 415q2 55 6 93q20 324 45 581h-143v66h145q0 6 2 21.5t4 41l4 52.5q10 102 15 124q14 80 18 97q16 66 39 106q27 47 57 78 q117 117 234 117q35 0 72 -10q43 -12 51 -17l14 -8q51 45 69.5 45t18.5 -16q0 -27 -8 -111q-6 -80 -27 -283l-30 -309q-29 -340 -29 -342q90 156 205 295q101 123 166 123q76 0 75 -213q0 -74 -22 -219q-20 -131 -21 -180q0 -41 15 -41q31 0 110 114l33 47l33 -22 q-53 -96 -176 -219q-61 -58 -80 -74q-16 -14 -39 -14q-29 0 -29 53q0 27 25 256q25 230 24 301q0 74 -28 74q-46 0 -154 -142q-111 -143 -131 -247q-18 -82 -22 -162l-3 -60q0 -35 -12 -47t-45 -12q-51 0 -51 31q0 4 2 29.5t6 91l8 129.5q8 104 11.5 167.5t9.5 160t12 210.5 q18 301 25 449q-4 2 -14.5 13t-18.5 17q-12 12 -20.5 18.5t-12.5 10.5q-16 12 -31 19q-18 8 -49 8q-47 0 -78 -33q-33 -37 -51 -119q-23 -100 -26 -137l-19 -180q-2 -20 -5 -47t-3 -35h154l-5 -66h-153q-16 -225 -23 -354q-4 -66 -7 -122t-5 -81l-2 -24q-25 -399 -82 -541 q-57 -143 -231 -143q-53 0 -99 28q-43 28 -43 80z" />
<glyph unicode="ffh" horiz-adv-x="1796" d="M-156 -420q0 37 17 62q18 29 47 28q6 0 18 -4q6 -2 13 -8l5 -4q5 -4 7 -8q4 -6 8 -15q2 -4 10 -16l8 -16q35 -55 78 -56q49 0 68 105q20 113 41 415q2 55 6 93q20 324 45 581h-143v66h145l4 51q2 8 3 26.5t1 28.5q0 8 1 25.5t3 23.5q8 94 45 181q31 74 78 121 q41 41 99 69q47 23 96 35q35 8 80 8q51 0 90 -20q41 -23 51 -41l12 -23q14 23 29 35q117 117 233 117q35 0 72 -10q41 -10 49 -17l17 -8q51 45 71 45q18 0 19 -16q0 -4 -10 -111l-10.5 -117l-14.5 -166l-31 -309q-29 -340 -28 -342q90 156 204 295q101 123 166 123 q76 0 76 -213q0 -74 -23 -219q-20 -131 -20 -180q0 -41 14 -41q27 0 111 114l33 47l30 -22q-61 -106 -174 -219q-51 -51 -80 -72q-23 -16 -40 -16q-27 0 -27 53q0 27 24 256q25 230 25 301q0 74 -31 74q-46 0 -153 -142q-111 -143 -131 -247q-14 -72 -21 -162l-2 -60 q0 -35 -12 -47t-47 -12q-51 0 -51 31q0 4 2 29.5t6 91l8 129.5q33 496 35 538q18 301 24 449q-16 12 -35 30q-16 16 -32 29q-14 10 -32.5 18.5t-47.5 8.5q-18 0 -43 -11q-20 -8 -35 -26q-10 -14 -23 -37q-16 -31 -18 -41q-10 -33 -10 -37q-2 -6 -4 -16t-2 -17l-4 -14 q-8 -33 -43 -352h155l-4 -66h-156q-25 -371 -34 -557q-14 -254 -39 -383q-20 -113 -82 -182q-74 -84 -193 -84q-55 0 -92 25q-35 23 -35 77q0 31 15 52q16 23 40.5 22.5t41.5 -26.5q10 -16 34 -50q18 -25 54 -24q72 0 96 141q6 29 31 432q14 268 43 557h-332q0 -12 -21 -325 q-12 -197 -14 -232q-6 -115 -20 -266q-8 -94 -31 -195q-20 -98 -53 -145q-31 -45 -84.5 -73.5t-126.5 -28.5q-53 0 -99 28q-43 28 -43 80zM340 803h330q6 39 10 100q0 14 10 115q4 39 15 88q12 59 26 94h-4q-8 0 -68 45q-63 47 -114 47q-160 0 -191 -334z" />
<glyph unicode="fk" horiz-adv-x="1284" d="M-156 -420q0 37 17 62q18 29 47 28q6 0 18 -4q6 -2 13 -8l5 -4q5 -4 7 -8q4 -6 8 -15q2 -4 10 -16l8 -16q35 -55 78 -56q49 0 68 105q20 113 41 415q2 55 6 93q20 324 45 581h-143v66h145q0 6 2 21.5t4 41l4 52.5q10 102 15 124q14 80 18 97q16 66 39 106q27 47 57 78 q115 115 234 115q86 0 127 -33q59 45 80 45h8q4 0 6 -2t2 -6l1 -4q1 -4 1 -8q0 -15 -55 -578l-49 -487l27.5 17t28.5 20.5t40 27.5q61 43 154 131q94 92 94 150q0 35 -51 34h-39q-2 0 -11.5 -1t-15.5 -1h-31l2 45q80 8 221 9q88 0 89 -21q0 -51 -117 -170q-92 -92 -197 -164 q0 -2 3 -8l5 -10t7.5 -18.5t11.5 -26.5q2 -4 12 -27.5t17 -36.5q27 -55 34 -67l39 -64q20 -31 35 -45q18 -18 33 -18q39 0 117 158l45 -27q-25 -53 -56 -100q-104 -168 -153 -168q-37 0 -99 98q-68 109 -106 197l-45 98l-98 -68l-15 -196l-2 -60q0 -33 -12 -45t-47 -12 q-66 0 -66 29q0 8 10 100q14 121 35 383q25 311 56 754l-11.5 12l-17.5 18q-25 25 -33 31q-20 14 -33 20q-25 10 -47 11q-46 0 -80 -37q-29 -33 -49 -109q-18 -72 -30.5 -149.5t-18.5 -179.5q-2 -18 -4 -44t-2 -32h154l-5 -66h-153q-6 -74 -14 -211l-13 -217q-2 -41 -6 -96 t-4 -70q-25 -385 -84 -530q-59 -141 -229 -141q-53 0 -99 28q-43 28 -43 80z" />
<glyph unicode="ffk" horiz-adv-x="1736" d="M-156 -420q0 37 17 62q18 29 47 28q6 0 18 -4q6 -2 13 -8l5 -4q5 -4 7 -8q4 -6 8 -15q2 -4 10 -16l8 -16q35 -55 78 -56q49 0 68 105q20 113 41 415q2 55 6 93q20 324 45 581h-143v66h145l4 51q2 8 3 26.5t1 28.5q0 8 1 25.5t3 23.5q8 94 45 181q31 74 78 121 q41 41 99 69q47 23 96 35q35 8 80 8q51 0 90 -20q41 -23 51 -41l12 -23q14 23 29 35q115 115 235 115q43 0 70 -8q35 -10 43 -17l12 -8q63 45 82 45h9q4 0 6 -2q4 -4 4 -6v-12q0 -15 -56 -578l-49 -487l27.5 17t29 20.5t40.5 27.5q55 37 151 131q96 92 96 150q0 35 -51 34 h-39q-2 0 -12 -1t-16 -1h-31l4 45q80 8 221 9q88 0 88 -21q0 -49 -119 -170q-92 -92 -196 -164q0 -2 3 -8l5 -10q4 -12 18 -45q10 -23 31 -64l35 -67q16 -33 37 -64q16 -25 37 -45q18 -18 32 -18q39 0 117 158l45 -27q-14 -31 -55 -100q-104 -168 -156 -168q-37 0 -98 98 q-68 109 -106 197l-43 98l-99 -68q-8 -104 -14 -196l-2 -60q0 -33 -12.5 -45t-47.5 -12q-66 0 -65 29q0 27 8 100q20 190 37 383q25 311 55 754l-30 30q-6 6 -12.5 13.5t-10.5 11.5t-8 6q-16 12 -35 20q-25 10 -47 11q-71 0 -105 -74q-33 -70 -51 -217q-20 -154 -28 -260 h155l-4 -66h-156q-3 -28 -30 -510q-16 -297 -39 -415q-25 -126 -86 -197q-74 -84 -193 -84q-55 0 -92 25q-35 23 -35 77q0 31 15 52q16 23 40.5 22.5t41.5 -26.5q10 -16 34 -50q18 -25 54 -24q72 0 96 141q2 6 33 479q6 109 41 510h-332q-9 -114 -31 -510l-16 -245 q-6 -80 -23 -191q-14 -94 -37 -147q-23 -55 -55 -97q-35 -45 -80 -59q-49 -16 -108 -16q-53 0 -99 28q-43 28 -43 80zM340 803h330q6 39 10 100q0 14 10 115q4 39 15 88q12 59 26 94h-4q-8 0 -68 45q-63 47 -114 47q-160 0 -191 -334z" />
<glyph unicode="f&#xfe;" horiz-adv-x="1202" d="M-156 -420q0 37 17 62q18 29 47 28q6 0 18 -4q6 -2 13 -8l5 -4q5 -4 7 -8q4 -6 8 -15q2 -4 10 -16l8 -16q35 -55 78 -56q49 0 68 105q20 113 41 415q2 55 6 93q20 324 45 581h-143v66h145q0 6 2 21.5t4 41l4 52.5q10 102 15 124q14 80 18 97q16 66 39 106q27 47 57 78 q115 115 262 115l134 -33q57 45 75 45q20 0 17 -29q0 -12 -2 -22q-29 -332 -92 -840q14 23 18 27l15 21q15 22 30 38q37 43 72 78q33 31 78 59q45 27 84 27q127 0 127 -221q0 -154 -87 -332q-53 -111 -129 -188q-77 -80 -129 -80q-66 0 -116 57q-2 -96 -13 -205 q-4 -53 -8 -96t-6 -76q-4 -43 -4 -82v-30q0 -8 10 -15q8 -6 29 -6q16 0 37 2q25 2 73 4q25 2 43.5 4t30.5 2l-2 -55l-497 -47v59q127 12 133 17q10 6 14 53q68 854 78 971q0 14 24 309l33 414q-29 20 -43 37q-22 25 -43 36q-20 12 -53 13q-61 0 -109 -62q-49 -66 -63 -157 q-3 -31 -37 -332h154l-5 -66h-153q-16 -225 -23 -354q-4 -66 -7 -122t-5 -81l-2 -24q-25 -399 -82 -541q-57 -143 -231 -143q-53 0 -99 28q-43 28 -43 80zM725 305q0 -115 30.5 -170t78.5 -55q78 0 155.5 121t77.5 260q0 78 -27 149q-29 74 -84 74q-63 0 -147 -121t-84 -258 z" />
<glyph unicode="ff&#xfe;" horiz-adv-x="1654" d="M-156 -420q0 37 17 62q18 29 47 28q6 0 18 -4q6 -2 13 -8l5 -4q5 -4 7 -8q4 -6 8 -15q2 -4 10 -16l8 -16q35 -55 78 -56q49 0 68 105q20 113 41 415q2 55 6 93q20 324 45 581h-143v66h145l4 51q2 8 3 26.5t1 28.5q0 8 1 25.5t3 23.5q8 94 45 181q31 74 78 121 q41 41 99 69q47 23 96 35q35 8 80 8q51 0 90 -20q41 -23 51 -41l12 -23q14 23 29 35q115 115 264 115l133 -33q57 45 75.5 45t14.5 -29q0 -12 -2 -22q-29 -332 -92 -840q0 2 6 11.5t11 15.5l49 59q49 57 69 78q31 31 78 59q45 27 84 27q127 0 127 -221q0 -154 -86 -332 q-51 -104 -131 -188q-78 -80 -127 -80q-61 0 -117 57q-2 -96 -12 -205q-8 -96 -12 -172q-6 -66 -6 -82q0 -8 1 -18t1 -12q0 -8 10 -15q8 -6 26.5 -6t38.5 2q29 2 72 4q25 2 43.5 4t30.5 2l-2 -55l-498 -47v59q127 12 133 17q10 6 15 53l77 971q0 14 25 309l33 414 q-29 20 -43 37q-22 25 -43 36q-23 12 -54 13q-61 0 -102 -53.5t-63 -145.5q-8 -33 -43 -352h155l-4 -66h-156q-25 -371 -34 -557q-14 -254 -39 -383q-20 -113 -82 -182q-74 -84 -193 -84q-55 0 -92 25q-35 23 -35 77q0 31 15 52q16 23 40.5 22.5t41.5 -26.5q10 -16 34 -50 q18 -25 54 -24q72 0 96 141q6 29 31 432q14 268 43 557h-332q0 -12 -21 -325q-12 -197 -14 -232q-6 -115 -20 -266q-8 -94 -31 -195q-20 -98 -53 -145q-31 -45 -84.5 -73.5t-126.5 -28.5q-53 0 -99 28q-43 28 -43 80zM340 803h330q6 39 10 100q0 14 10 115q4 39 15 88 q12 59 26 94h-4q-8 0 -68 45q-63 47 -114 47q-160 0 -191 -334zM1178 305q0 -115 30.5 -170t77.5 -55q78 0 156 121t78 260q0 78 -27 149q-27 74 -84 74q-63 0 -147 -121t-84 -258z" />
<glyph unicode="&#x17f;i" horiz-adv-x="948" d="M-154 -420q0 37 17 62q18 29 47 28q6 0 18 -4q10 -2 15 -8q6 -6 10 -12t8 -15q2 -4 10 -16l9 -16q33 -55 77 -56q49 0 68 105q20 113 41 415q2 55 6 93q39 569 64 800q0 10 2 25q4 29 4 39q0 6 4 47q2 25 10 55q2 4 16 56q10 35 23 59q16 31 31 51q6 8 43 45 q55 49 133 76q82 29 149 29q63 0 103 -33q41 -35 41 -74q0 -35 -14.5 -55.5t-39 -20.5t-45.5 25q-18 20 -57 49q-33 25 -88 25q-164 0 -197 -398q-12 -156 -53 -809q-6 -109 -20 -253q-8 -94 -31 -187q-20 -92 -53 -135q-35 -47 -84 -74q-51 -27 -125 -26q-53 0 -99 28 q-43 28 -43 80zM492 735q240 84 276 84q23 0 23 -31q0 -55 -23 -292q-25 -258 -25 -287q0 -47 17 -47q31 0 137 168l33 -27q-39 -92 -125 -182q-33 -35 -94 -86q-55 -45 -74 -45q-35 0 -35 45q0 16 27 276q29 281 28 379q0 33 -24 33q-18 0 -45 -8q-41 -12 -58 -21l-22 -10z " />
<glyph unicode="&#x17f;l" horiz-adv-x="933" d="M-154 -420q0 37 17 62q18 29 47 28q6 0 18 -4q10 -2 15 -8q6 -6 10 -12t8 -15q2 -4 10 -16l9 -16q33 -55 77 -56q49 0 68 105q20 113 41 415q2 55 6 93l24.5 334.5l19.5 255l9 120.5q16 195 39 289q25 98 94 168q58 58 111 86q53 29 127 29l133 -33q57 45 76 45 q20 0 16 -29q-8 -78 -43 -497q-25 -301 -37 -500q-4 -55 -7 -111.5t-5 -81t-2 -30.5q0 -39 16 -39q39 0 140 178l43 -33l-33 -61q-18 -33 -86 -119t-125 -127q-27 -20 -55 -20q-35 0 -35 61q0 16 6 65q4 33 4 70l62 1092q-8 6 -31 28q-10 10 -18.5 17.5t-12.5 11.5 q-16 12 -31 18q-25 10 -45 11q-77 0 -116 -105q-39 -100 -58 -334q0 -25 -45 -682q-8 -160 -18 -253q-12 -129 -23 -191q-15 -98 -37 -147q-23 -53 -53 -95q-33 -43 -80 -59q-49 -16 -108 -16q-53 0 -99 28q-43 28 -43 80z" />
<glyph unicode="&#x17f;&#x17f;" horiz-adv-x="950" d="M-154 -420q0 37 17 62q18 29 47 28q6 0 18 -4q10 -2 15 -8q6 -6 10 -12t8 -15q2 -4 10 -16l9 -16q33 -55 77 -56q49 0 68 105q20 113 41 415q2 55 6 93q47 676 59 802q8 94 45 181q31 74 78 121q41 41 99 69q47 23 96 35q35 8 80 8q51 0 90 -20q41 -23 51 -41l12 -23 q16 23 29 35q47 47 129 82q78 33 154 33q63 0 94 -31t31 -76q0 -35 -14.5 -55.5t-39.5 -20.5q-31 0 -57 33q-66 66 -113 66q-63 0 -108 -82q-45 -80 -64 -209q-16 -129 -63 -836q-18 -287 -41 -417q-20 -123 -84 -195q-74 -84 -193 -84q-55 0 -92 25q-35 23 -35 77 q0 31 15 52q16 23 40.5 22.5t41.5 -26.5q10 -16 34 -50q18 -25 54 -24q72 0 96 141q2 6 33 479l57 715q14 172 47 258h-4q-8 0 -67 45q-63 47 -115 47q-160 0 -191 -334q-15 -178 -49 -731l-16 -245q-6 -80 -23 -191q-14 -94 -37 -147q-23 -55 -55 -97q-35 -45 -80 -59 q-49 -16 -108 -16q-53 0 -99 28q-43 28 -43 80z" />
<glyph unicode="&#x17f;&#x17f;i" horiz-adv-x="1402" d="M-154 -420q0 37 17 62q18 29 47 28q6 0 18 -4q10 -2 15 -8q6 -6 10 -12t8 -15q2 -4 10 -16l9 -16q33 -55 77 -56q49 0 66 95q16 104 41 393q2 25 3 47t3 44.5t2 33.5l31.5 423.5l21.5 289.5t6 89q8 94 45 181q31 74 78 121q41 41 99 69q47 23 96 35q35 8 80 8 q51 0 90 -20q41 -23 51 -41l12 -23q16 23 29 35q49 49 131 82q80 33 162 33q66 0 104 -33q41 -35 41 -74q0 -35 -14 -55.5t-39 -20.5t-47 25q-18 20 -57 49q-35 25 -88 25q-143 0 -181 -291q0 -2 -1 -7t-2 -15.5t-1 -20.5q-4 -37 -8 -84q-2 -27 -5 -48.5t-5 -37.5 q-14 -162 -41 -625q-18 -287 -41 -418q-20 -121 -84 -192q-74 -84 -193 -84q-55 0 -92 25q-35 23 -35 77q0 31 15 52q16 23 40.5 22.5t41.5 -26.5q10 -16 34 -50q18 -25 54 -24q72 0 96 141q4 20 8 76q8 119 10 162q8 168 15 239q0 6 10 125l20 262l19 238q20 256 55 350h-4 q-8 0 -67 45q-63 47 -115 47q-160 0 -191 -334q-22 -233 -49 -731q-12 -203 -16 -243q-12 -125 -23 -187q-16 -104 -35 -149q-20 -47 -55 -97q-33 -45 -80 -63q-41 -16 -110 -16q-53 0 -99 28q-43 28 -43 80zM946 735q240 84 277 84q23 0 22 -31q0 -35 -24 -292 q-23 -238 -23 -287q0 -47 16 -47q31 0 138 168l32 -27q-37 -86 -124 -182q-33 -35 -95 -86q-55 -45 -73 -45q-35 0 -35 45q0 2 3 29.5t10 99.5l15 147q27 260 27 379q0 33 -25 33q-18 0 -45 -8q-41 -12 -57 -21l-22 -10z" />
<glyph unicode="&#x17f;&#x17f;l" horiz-adv-x="1384" d="M-154 -420q0 37 17 62q18 29 47 28q6 0 18 -4q10 -2 15 -8q6 -6 10 -12t8 -15q2 -4 10 -16l9 -16q33 -55 77 -56q49 0 68 105q20 113 41 415q2 55 6 93q47 676 59 802q8 94 45 181q31 74 78 121q41 41 99 69q47 23 96 35q35 8 80 8q51 0 90 -20q41 -23 51 -41l12 -23 q41 49 84 86q78 63 181 64l133 -33q57 45 75 45q20 0 17 -29q-22 -200 -43 -497q-29 -391 -35 -500q-4 -55 -7 -111.5t-5 -81t-2 -30.5q0 -39 16 -39q37 0 139 178l43 -33l-32 -61q-18 -33 -86 -119t-125 -127q-27 -20 -56 -20q-35 0 -35 61q0 25 3 47q4 45 4 49l65 1131 q-8 6 -30.5 28.5t-30.5 28.5q-14 10 -33 18q-25 10 -45 11q-77 0 -117 -105q-41 -104 -55 -334q-18 -237 -43 -651q-18 -309 -41 -446q-22 -129 -86 -203q-74 -84 -193 -84q-55 0 -92 25q-35 23 -35 77q0 31 15 52q16 23 40.5 22.5t41.5 -26.5q10 -16 34 -50q18 -25 54 -24 q72 0 96 141q3 22 37 516q15 209 49 633q14 207 51 303h-4q-8 0 -67 45q-63 47 -115 47q-160 0 -191 -334q-27 -315 -49 -694q-8 -133 -16 -252q-6 -86 -19 -192q-10 -94 -34 -160q-18 -51 -52 -100q-35 -53 -82 -72q-43 -16 -116 -16q-53 0 -99 28q-43 28 -43 80z" />
<glyph unicode="&#x17f;j" horiz-adv-x="911" d="M-154 -420q0 37 17 62q18 29 47 28q6 0 18 -4q10 -2 15 -8q6 -6 10 -12t8 -15q2 -4 10 -16l9 -16q33 -55 77 -56q49 0 68 105q20 113 41 415q2 55 6 93q39 569 64 800q14 160 38 234q39 104 140 176q102 74 243 74q86 0 119 -33q35 -35 35 -76q0 -31 -16.5 -53.5 t-38.5 -22.5q-33 0 -76 52q-43 53 -98 53q-152 0 -193 -158q-14 -59 -35 -246q-12 -156 -53 -809q-6 -109 -20 -253q-8 -94 -31 -187q-20 -92 -53 -135q-35 -47 -84 -74q-51 -27 -125 -26q-53 0 -99 28q-43 28 -43 80zM354 -367q0 31 15 52q16 23 41 22q33 0 57.5 -47 t57 -47t50.5 45q16 43 33 172q20 160 33 455q14 330 14 405q0 31 -18 31q-23 0 -143 -49l-17 53q248 98 293 98q20 0 21 -35q0 -10 -7 -118q-2 -39 -8 -126t-8 -128q-2 -37 -6 -87t-6 -83t-2 -58q0 -33 -2 -65q0 -12 -1 -27.5t-2 -24t-1 -12.5l-5 -53l-4 -51q0 -4 -1 -10 t-2 -15.5t-1 -17.5q-4 -33 -6 -47q-2 -6 -3 -18.5t-1 -18.5q-2 -8 -5 -22.5t-3 -18.5q0 -6 -4 -17.5t-4 -17.5q-18 -70 -54 -121q-31 -47 -73 -65q-35 -16 -62 -23q-25 -6 -41 -6q-125 0 -125 96z" />
<glyph unicode="&#x17f;&#x17f;j" horiz-adv-x="1363" d="M-154 -420q0 37 17 62q18 29 47 28q6 0 18 -4q10 -2 15 -8q6 -6 10 -12t8 -15q2 -4 10 -16l9 -16q33 -55 77 -56q49 0 66 95q16 104 41 393q2 25 3 47t3 44.5t2 33.5l31.5 423.5l21.5 289.5t6 89q8 94 45 181q31 74 78 121q41 41 99 69q47 23 96 35q35 8 80 8 q51 0 90 -20q41 -23 51 -41l12 -23q16 23 29 35q49 49 131 82q80 33 162 33q66 0 104 -33q41 -35 41 -74q0 -35 -14 -55.5t-39 -20.5t-47 25q-18 20 -57 49q-35 25 -88 25q-143 0 -181 -291q0 -2 -1 -7t-2 -15.5t-1 -20.5q-4 -37 -8 -84q-2 -27 -5 -48.5t-5 -37.5 q-14 -162 -41 -625q-18 -287 -41 -418q-20 -121 -84 -192q-74 -84 -193 -84q-55 0 -92 25q-35 23 -35 77q0 31 15 52q16 23 40.5 22.5t41.5 -26.5q10 -16 34 -50q18 -25 54 -24q72 0 96 141q4 20 8 76q8 119 10 162q8 168 15 239q0 6 10 125l20 262l19 238q20 256 55 350h-4 q-8 0 -67 45q-63 47 -115 47q-160 0 -191 -334q-22 -233 -49 -731q-12 -203 -16 -243q-12 -125 -23 -187q-16 -104 -35 -149q-20 -47 -55 -97q-33 -45 -80 -63q-41 -16 -110 -16q-53 0 -99 28q-43 28 -43 80zM807 -367q0 29 16.5 51.5t40.5 22.5q31 0 55.5 -47t57.5 -47 t51 45q16 43 33 172q18 147 35 459q14 266 14 401q0 31 -20 31q-22 0 -142 -49l-18 53q250 98 293 98q20 0 20 -35q0 -9 -6 -116q-2 -39 -8 -126t-8 -132q-10 -154 -13 -226q-18 -324 -47 -436q-18 -70 -53 -121q-31 -47 -74 -65q-31 -14 -63 -23q-25 -6 -39 -6 q-125 0 -125 96z" />
<glyph unicode="&#x17f;b" horiz-adv-x="1175" d="M-154 -420q0 37 17 62q18 29 47 28q6 0 18 -4q10 -2 15 -8q6 -6 10 -12t8 -15q2 -4 10 -16l9 -16q33 -55 77 -56q49 0 68 105q20 113 41 415q2 55 6 93l24.5 334.5l19.5 255l9 120.5q16 195 39 289q25 98 94 168q115 115 217 115l134 -23q57 35 73.5 35t16.5 -18 q-2 -12 -4 -33l-88 -846q88 129 180 199q84 63 141 63q14 0 29 -8q20 -12 35 -29q23 -27 32 -65q12 -46 13 -111q0 -33 -9 -90q-10 -66 -43 -176q-33 -106 -86 -176q-29 -41 -102 -107q-68 -61 -94 -61q-14 0 -23 2q-20 6 -26 8q-4 2 -11.5 5t-11.5 5q-2 0 -11 6.5l-15 10.5 l-25 16l-29 21q-6 4 -12 9t-10 8t-6 3q-35 25 -35 53q0 3 6 86q2 25 4 58.5l5 83t5 86.5q12 205 17 272q25 421 24 559q-2 2 -12 10.5t-16 14.5q-20 20 -27 24q-16 10 -27 15q-18 6 -41 6q-77 0 -116 -105q-39 -100 -58 -334l-49 -759q-8 -150 -22.5 -262.5t-32.5 -190.5 q-23 -94 -53 -135q-33 -43 -84 -70q-53 -27 -123 -26q-53 0 -99 28q-43 28 -43 80zM698 276q0 -59 33 -106q29 -41 70 -68q33 -20 47 -20q49 0 121 139q70 137 69 268q0 90 -34.5 156t-75.5 66q-31 0 -82 -47.5t-90 -116.5q-29 -47 -41 -94q-10 -39 -15 -82q-2 -23 -2 -95z " />
<glyph unicode="&#x17f;&#x17f;b" horiz-adv-x="1630" d="M-154 -420q0 37 17 62q18 29 47 28q6 0 18 -4q10 -2 15 -8q6 -6 10 -12t8 -15q2 -4 10 -16l9 -16q33 -55 77 -56q49 0 68 105q20 113 41 415q2 55 6 93q47 676 59 802q8 94 45 181q31 74 78 121q41 41 99 69q47 23 96 35q35 8 80 8q51 0 90 -20q41 -23 51 -41l12 -23 q16 23 29 35q115 115 233 115l119 -23q53 35 71.5 35t18.5 -18l-4 -33q0 -8 -3 -35l-8 -75t-11 -97l-47 -455l-19 -184q90 133 178 199q84 63 144 63q16 0 30 -8q20 -12 35 -29q18 -23 31 -65q12 -46 12 -111q0 -18 -10 -90q-10 -66 -43 -176q-35 -111 -84 -176 q-29 -41 -102 -107q-68 -61 -95 -61q-14 0 -22 2q-16 4 -25 8q-4 2 -12 5t-12 5q-2 0 -11.5 6.5l-15.5 10.5l-24 16l-29 21q-6 4 -12.5 9l-10.5 8t-6 3q-37 29 -37 53q0 4 7 84q12 156 16 223q6 125 16 269q23 410 23 569q-2 2 -35 31q-27 25 -41 31q-16 8 -45 8 q-35 0 -57 -15q-25 -14 -43 -53q-12 -25 -29 -69q-14 -39 -23 -101q-14 -102 -14 -106l-12 -125q-14 -145 -47 -705q-14 -254 -39 -383q-20 -113 -82 -182q-74 -84 -193 -84q-55 0 -92 25q-35 23 -35 77q0 31 15 52q16 23 40.5 22.5t41.5 -26.5q10 -16 34 -50q18 -25 54 -24 q72 0 96 141q6 29 31 432l53 705q23 236 53 315h-4q-8 0 -67 45q-63 47 -115 47q-160 0 -191 -334q-18 -199 -49 -716q-2 -29 -5 -80t-5 -72q0 -10 -10 -131q-6 -74 -13 -119l-16 -98q-8 -47 -22 -84q-12 -31 -31 -67.5t-37 -53t-47 -35t-60 -24.5q-34 -6 -73 -6 q-53 0 -99 28q-43 28 -43 80zM1151 276q0 -55 35 -106q31 -43 67 -68q33 -20 47 -20q49 0 121 139t72 268q0 90 -35 156t-76 66q-33 0 -84 -47q-47 -45 -88 -117q-39 -70 -49 -127q-10 -62 -10 -144z" />
<glyph unicode="&#x17f;h" horiz-adv-x="1343" d="M-154 -420q0 37 17 62q18 29 47 28q6 0 18 -4q10 -2 15 -8q6 -6 10 -12t8 -15q2 -4 10 -16l9 -16q33 -55 77 -56q49 0 68 105q20 113 41 415q2 55 6 93l24.5 334.5l19.5 255l9 120.5q16 195 39 289q25 98 94 168q58 58 111 86q53 29 127 29l133 -33q51 45 69.5 45 t18.5 -16q0 -8 -6 -82q-2 -33 -5 -53.5t-7 -61.5t-11 -96q-4 -37 -11 -122t-11 -126q-37 -406 -43 -504q90 156 205 295q101 123 166 123q76 0 75 -213q0 -74 -22 -219q-20 -131 -21 -180q0 -41 15 -41q31 0 110 114l33 47l31 -22q-61 -106 -174 -219q-51 -51 -80 -72 q-23 -16 -41 -16q-27 0 -27 53q0 27 25 256q25 230 24 301q0 74 -28 74q-46 0 -154 -142q-111 -143 -131 -247q-18 -82 -22 -162l-2 -60q0 -37 -11 -47q-12 -12 -47 -12q-51 0 -51 31q0 4 2 29.5t6 91l8 129.5q8 104 11.5 167.5t9.5 160t12 210.5q18 301 25 449 q-16 16 -31 28q-6 4 -17.5 14.5t-15.5 14.5q-14 10 -33 18q-25 10 -47 11q-77 0 -116 -105q-39 -100 -58 -334q-14 -205 -47 -727q-12 -175 -24 -276q-16 -135 -31 -199q-23 -98 -53 -141q-35 -47 -84 -74q-51 -27 -125 -26q-53 0 -99 28q-43 28 -43 80z" />
<glyph unicode="&#x17f;&#x17f;h" horiz-adv-x="1798" d="M-154 -420q0 37 17 62q18 29 47 28q6 0 18 -4q10 -2 15 -8q6 -6 10 -12t8 -15q2 -4 10 -16l9 -16q33 -55 77 -56q49 0 68 105q20 113 41 415q2 55 6 93q47 676 59 802q8 94 45 181q31 74 78 121q41 41 99 69q47 23 96 35q35 8 80 8q51 0 90 -20q41 -23 51 -41l12 -23 q16 23 29 35q117 117 233 117q35 0 72 -10q41 -10 49 -17l17 -8q51 45 71 45q18 0 19 -16q0 -4 -10 -111l-10.5 -117l-14.5 -166l-31 -309q-29 -340 -28 -342q90 156 204 295q101 123 166 123q76 0 76 -213q0 -74 -22 -219q-20 -131 -21 -180q0 -41 14 -41q27 0 111 114 l33 47l30 -22q-61 -106 -174 -219q-51 -51 -79 -72q-23 -16 -41 -16q-27 0 -27 53q0 27 25 256q25 230 24 301q0 74 -31 74q-46 0 -153 -142q-111 -143 -131 -247q-14 -72 -21 -162l-2 -60q0 -35 -12 -47t-47 -12q-51 0 -51 31q0 4 2 29.5t6 91l8 129.5q33 496 35 538 q18 301 24 449q-10 6 -34 30q-23 23 -31 29q-14 10 -32.5 18.5t-49.5 8.5q-18 0 -43 -11q-20 -8 -35 -26q-10 -14 -22 -37q-16 -31 -19 -41q-10 -33 -10 -37q0 -6 -2 -16t-4 -17l-4 -14q-16 -82 -35 -266q-18 -221 -47 -709q-14 -254 -39 -383q-20 -113 -82 -182 q-74 -84 -193 -84q-55 0 -92 25q-35 23 -35 77q0 31 15 52q16 23 40.5 22.5t41.5 -26.5q10 -16 34 -50q18 -25 54 -24q72 0 96 141q4 20 8 76q0 18 3 56t7 95l13 205l53 709q23 236 53 311h-4q-8 0 -67 45q-63 47 -115 47q-160 0 -191 -334q-27 -276 -51 -743 q-6 -131 -20 -283q-9 -101 -31 -202q-20 -100 -53 -152q-27 -43 -82 -76q-53 -31 -131 -30q-53 0 -99 28q-43 28 -43 80z" />
<glyph unicode="&#x17f;k" horiz-adv-x="1284" d="M-154 -420q0 37 17 62q18 29 47 28q6 0 18 -4q10 -2 15 -8q6 -6 10 -12t8 -15q2 -4 10 -16l9 -16q33 -55 77 -56q49 0 68 105q20 113 41 415q2 55 6 93l24.5 334.5l19.5 255l9 120.5q16 195 39 289q25 98 94 168q58 58 111 86q53 29 127 29q41 0 68 -8q35 -10 43 -17 l12 -8q59 45 80 45h8q2 0 4 -2q4 -4 4 -6l1 -4q1 -4 1 -8q0 -15 -55 -578l-49 -487l27.5 17t28.5 20.5t40 27.5q55 37 152 131q96 92 96 150q0 35 -51 34h-39q-2 0 -11.5 -1t-15.5 -1h-31l2 45q80 8 222 9q88 0 88 -21q0 -51 -117 -170q-92 -92 -197 -164q0 -2 3 -8t5.5 -10 t7.5 -18.5t11 -26.5q2 -4 12 -27.5t17 -36.5q29 -55 34 -67l39 -64q20 -31 35 -45q18 -18 33 -18q39 0 117 158l45 -27q-25 -53 -56 -100q-104 -168 -153 -168q-37 0 -99 98q-68 109 -106 197l-45 98l-98 -68l-15 -196l-2 -60q0 -33 -12 -45t-47 -12q-66 0 -66 29q0 12 6 65 q6 52 19 197q2 35 11 144.5t15 174.5q25 285 50 656l-11.5 12l-17.5 18q-25 25 -33 31q-20 14 -33 20q-25 10 -47 11q-84 0 -120 -113q-35 -111 -58 -371q-12 -125 -22 -333q-14 -266 -21 -349q-12 -175 -24 -276q-16 -135 -31 -199q-23 -98 -53 -141q-35 -47 -84 -74 q-51 -27 -125 -26q-53 0 -99 28q-43 28 -43 80z" />
<glyph unicode="&#x17f;&#x17f;k" horiz-adv-x="1738" d="M-154 -420q0 37 17 62q18 29 47 28q6 0 18 -4q10 -2 15 -8q6 -6 10 -12t8 -15q2 -4 10 -16l9 -16q33 -55 77 -56q49 0 68 105q20 113 41 415q2 55 6 93l59 802q8 94 45 181q31 74 78 121q41 41 99 69q47 23 96 35q35 8 80 8q51 0 90 -20q41 -23 51 -41l12 -23 q16 23 29 35q115 115 236 115q43 0 69 -8q35 -10 43 -17l12 -8q63 45 82 45h9q4 0 6 -2q4 -4 4 -6v-12q0 -15 -55 -578l-50 -487l27.5 17t29 20.5t40.5 27.5q55 37 151 131q96 92 96 150q0 35 -51 34h-39q-2 0 -12 -1t-16 -1h-31l4 45q80 8 221 9q88 0 88 -21 q0 -49 -119 -170q-92 -92 -196 -164q0 -2 2 -8t4 -10q2 -6 4 -9t6 -12.5l10 -23.5q10 -23 31 -64l16.5 -33.5l16.5 -33.5q10 -20 39 -64q16 -25 37 -45q18 -18 33 -18q39 0 116 158l45 -27q-14 -31 -55 -100q-104 -168 -156 -168q-39 0 -100 98t-104 197l-43 98l-99 -68 q-8 -104 -14 -196l-2 -60q0 -33 -12.5 -45t-47.5 -12q-66 0 -65 29q0 27 8 100q20 190 37 383q25 311 55 754l-30 30q-6 6 -12.5 13.5t-10.5 11.5t-8 6q-16 12 -35 20q-25 10 -47 11q-71 0 -105 -74q-33 -70 -51 -217q-6 -55 -22 -215q-18 -211 -41 -621q-16 -297 -39 -415 q-25 -126 -86 -197q-74 -84 -193 -84q-55 0 -92 25q-35 23 -35 77q0 31 15 52q16 23 40.5 22.5t41.5 -26.5q10 -16 34 -50q18 -25 54 -24q72 0 96 141q2 6 33 479l47 621q23 260 57 352h-4q-8 0 -67 45q-63 47 -115 47q-160 0 -191 -334q-16 -190 -45 -655 q-27 -459 -63 -602q-31 -119 -92.5 -174t-167.5 -55q-53 0 -99 28q-43 28 -43 80z" />
<glyph unicode="&#x17f;&#xfe;" horiz-adv-x="1179" d="M-154 -420q0 37 17 62q18 29 47 28q6 0 18 -4q10 -2 15 -8q6 -6 10 -12t8 -15q2 -4 10 -16l9 -16q33 -55 77 -56q49 0 68 105q20 113 41 415q2 55 6 93l24.5 334.5l19.5 255l9 120.5q16 195 39 289q25 98 94 168q58 58 111 86q53 29 127 29l133 -33q57 45 76 45 q20 0 16 -29q0 -12 -2 -22q-29 -332 -92 -840q14 23 18 27l16 21q15 22 30 38q49 57 69 78q29 29 80 59q45 27 84 27q127 0 127 -221q0 -154 -86 -332q-53 -111 -129 -188q-77 -80 -129 -80q-61 0 -117 57q-2 -96 -12 -205q-2 -31 -7 -89t-7 -83q-4 -43 -5 -82q0 -8 1.5 -18 t1.5 -12q0 -8 10 -15q8 -6 26 -6q16 0 37 2q31 2 74 4q25 2 43 4t31 2l-2 -55l-498 -47v59q127 12 133 17q10 6 14 53q68 854 78 971q0 14 25 309l33 414q-8 6 -31 28.5t-31 28.5q-14 10 -33 18q-25 10 -45 11q-77 0 -116 -105q-39 -100 -58 -334q0 -25 -45 -682 q-8 -160 -18 -253q-12 -129 -23 -191q-15 -98 -37 -147q-23 -53 -53 -95q-33 -43 -80 -59q-49 -16 -108 -16q-53 0 -99 28q-43 28 -43 80zM702 305q0 -115 31 -170t78 -55q78 0 155.5 121t77.5 260q0 78 -26 149q-27 74 -84 74q-61 0 -148 -121q-84 -117 -84 -258z" />
<glyph unicode="&#x17f;&#x17f;&#xfe;" horiz-adv-x="1630" d="M-154 -420q0 37 17 62q18 29 47 28q6 0 18 -4q10 -2 15 -8q6 -6 10 -12t8 -15q2 -4 10 -16l9 -16q33 -55 77 -56q49 0 68 105q20 113 41 415q2 55 6 93q47 676 59 802q8 94 45 181q31 74 78 121q41 41 99 69q47 23 96 35q35 8 80 8q51 0 90 -20q41 -23 51 -41l12 -23 q41 49 84 86q78 63 181 64l133 -33q57 45 75 45q20 0 17 -29q0 -12 -2 -22q-29 -332 -92 -840q0 2 6 11.5l10 15.5q2 2 9 12t17.5 22.5l20.5 24.5q37 43 72 78q31 31 78 59q45 27 84 27q127 0 127 -221q0 -154 -86 -332q-53 -111 -130 -188q-77 -80 -129 -80q-66 0 -116 57 q-2 -96 -13 -205q-4 -53 -8 -96t-6 -76q-4 -43 -4 -82v-30q0 -8 10 -14.5t28.5 -6.5t39.5 2l72 4q25 2 43 4t30 2l-2 -55l-497 -47v59q127 12 133 17q10 6 14 53q68 854 78 971q0 14 24 309l33 414q-8 6 -30.5 28.5t-30.5 28.5q-14 10 -33 18q-25 10 -45 11q-77 0 -117 -105 q-41 -104 -55 -334q-18 -237 -43 -651q-18 -309 -41 -446q-22 -129 -86 -203q-74 -84 -193 -84q-55 0 -92 25q-35 23 -35 77q0 31 15 52q16 23 40.5 22.5t41.5 -26.5q10 -16 34 -50q18 -25 54 -24q72 0 96 141q3 22 37 516q15 209 49 633q14 207 51 303h-4q-8 0 -67 45 q-63 47 -115 47q-160 0 -191 -334q-27 -315 -49 -694q-8 -133 -16 -252q-6 -86 -19 -192q-10 -94 -34 -160q-18 -51 -52 -100q-35 -53 -82 -72q-43 -16 -116 -16q-53 0 -99 28q-43 28 -43 80zM1153 305q0 -115 30.5 -170t78.5 -55q78 0 155.5 121t77.5 260q0 78 -27 149 q-27 74 -84 74q-63 0 -147 -121t-84 -258z" />
<glyph unicode="f&#x125;" horiz-adv-x="1341" d="M-156 -420q0 37 17 62q18 29 47 28q6 0 18 -4q6 -2 13 -8l5 -4q5 -4 7 -8q4 -6 8 -15q2 -4 10 -16l8 -16q35 -55 78 -56q49 0 68 105q20 113 41 415q2 55 6 93q20 324 45 581h-143v66h145q0 6 2 21.5t4 41l4 52.5q10 102 15 124q14 80 18 97q16 66 39 106q27 47 57 78 q117 117 234 117q35 0 72 -10q43 -12 51 -17l14 -8q51 45 69.5 45t18.5 -16q0 -27 -8 -111q-6 -80 -27 -283l-30 -309q-29 -340 -29 -342q90 156 205 295q101 123 166 123q76 0 75 -213q0 -74 -22 -219q-20 -131 -21 -180q0 -41 15 -41q31 0 110 114l33 47l33 -22 q-53 -96 -176 -219q-61 -58 -80 -74q-16 -14 -39 -14q-29 0 -29 53q0 27 25 256q25 230 24 301q0 74 -28 74q-46 0 -154 -142q-111 -143 -131 -247q-18 -82 -22 -162l-3 -60q0 -35 -12 -47t-45 -12q-51 0 -51 31q0 4 2 29.5t6 91l8 129.5q8 104 11.5 167.5t9.5 160t12 210.5 q18 301 25 449q-4 2 -14.5 13t-18.5 17q-12 12 -20.5 18.5t-12.5 10.5q-16 12 -31 19q-18 8 -49 8q-47 0 -78 -33q-33 -37 -51 -119q-23 -100 -26 -137l-19 -180q-2 -20 -5 -47t-3 -35h154l-5 -66h-153q-16 -225 -23 -354q-4 -66 -7 -122t-5 -81l-2 -24q-25 -399 -82 -541 q-57 -143 -231 -143q-53 0 -99 28q-43 28 -43 80zM799 1528q57 80 164 244h120q70 -111 164 -244h-119l-38 43l-46 53l-43 51l-124 -147h-78z" />
<glyph unicode="ff&#x125;" horiz-adv-x="1796" d="M-156 -420q0 37 17 62q18 29 47 28q6 0 18 -4q6 -2 13 -8l5 -4q5 -4 7 -8q4 -6 8 -15q2 -4 10 -16l8 -16q35 -55 78 -56q49 0 68 105q20 113 41 415q2 55 6 93q20 324 45 581h-143v66h145l4 51q2 8 3 26.5t1 28.5q0 8 1 25.5t3 23.5q8 94 45 181q31 74 78 121 q41 41 99 69q47 23 96 35q35 8 80 8q51 0 90 -20q41 -23 51 -41l12 -23q14 23 29 35q117 117 233 117q35 0 72 -10q41 -10 49 -17l17 -8q51 45 71 45q18 0 19 -16q0 -4 -10 -111l-10.5 -117l-14.5 -166l-31 -309q-29 -340 -28 -342q90 156 204 295q101 123 166 123 q76 0 76 -213q0 -74 -23 -219q-20 -131 -20 -180q0 -41 14 -41q27 0 111 114l33 47l30 -22q-61 -106 -174 -219q-51 -51 -80 -72q-23 -16 -40 -16q-27 0 -27 53q0 27 24 256q25 230 25 301q0 74 -31 74q-46 0 -153 -142q-111 -143 -131 -247q-14 -72 -21 -162l-2 -60 q0 -35 -12 -47t-47 -12q-51 0 -51 31q0 4 2 29.5t6 91l8 129.5q33 496 35 538q18 301 24 449q-16 12 -35 30q-16 16 -32 29q-14 10 -32.5 18.5t-47.5 8.5q-18 0 -43 -11q-20 -8 -35 -26q-10 -14 -23 -37q-16 -31 -18 -41q-10 -33 -10 -37q-2 -6 -4 -16t-2 -17l-4 -14 q-8 -33 -43 -352h155l-4 -66h-156q-25 -371 -34 -557q-14 -254 -39 -383q-20 -113 -82 -182q-74 -84 -193 -84q-55 0 -92 25q-35 23 -35 77q0 31 15 52q16 23 40.5 22.5t41.5 -26.5q10 -16 34 -50q18 -25 54 -24q72 0 96 141q6 29 31 432q14 268 43 557h-332q0 -12 -21 -325 q-12 -197 -14 -232q-6 -115 -20 -266q-8 -94 -31 -195q-20 -98 -53 -145q-31 -45 -84.5 -73.5t-126.5 -28.5q-53 0 -99 28q-43 28 -43 80zM340 803h330q6 39 10 100q0 14 10 115q4 39 15 88q12 59 26 94h-4q-8 0 -68 45q-63 47 -114 47q-160 0 -191 -334zM1253 1528 q57 80 164 244h121q70 -111 164 -244h-119q-8 10 -17.5 20.5l-19.5 22.5l-45 53q-10 12 -26.5 29.5t-18.5 21.5l-125 -147h-78z" />
<glyph unicode=" "  horiz-adv-x="376" />
<glyph unicode="&#x09;" horiz-adv-x="376" />
<glyph unicode="&#xa0;" horiz-adv-x="376" />
<glyph unicode="!" horiz-adv-x="581" d="M205 78q0 29 35 63q33 33 55 33q25 0 55 -37q29 -35 29 -59q0 -18 -35 -57t-61 -39q-20 0 -49 39t-29 57zM276 383q0 10 7 156q2 27 8 146.5t8 195.5q6 197 6 329q0 28 19 43q12 10 75 35q12 6 17 6q18 8 30 9q18 0 19 -23q0 -25 -2 -43q0 -8 -5 -38l-9 -52 q-4 -31 -9.5 -68l-11.5 -75l-35 -236l-47 -332q-2 -4 -3 -14t-1 -14q-2 -10 -2 -25q0 -2 -1 -10t-1 -11q0 -8 -4 -16q-2 -2 -4 -5t-2 -5q-2 -6 -9 -8q-4 -2 -12 -2q-31 0 -31 57z" />
<glyph unicode="&#x22;" horiz-adv-x="677" d="M49 999.5q0 20.5 37 200.5q41 199 51 242q15 61 86 61q33 0 51 -22t19 -43q0 -25 -19 -70q-12 -29 -59 -121q-37 -72 -55 -114l-23 -52l-18 -43q-10 -27 -15 -32q-10 -16 -16 -21q-10 -6 -16 -6q-23 0 -23 20.5zM242 1006q0 43 57 163q25 51 53 146q33 104 58 143 q28 43 73 43q33 0 49.5 -16.5t16.5 -34.5t-4 -31q-6 -18 -19 -43l-22 -45l-31 -51l-33 -49q-2 -4 -12 -18.5l-22 -32.5l-29 -45q-6 -12 -14.5 -25.5l-18.5 -30.5l-27 -43q-10 -16 -18 -30.5t-18 -20.5q-6 -4 -17 -4q-22 0 -22 25z" />
<glyph unicode="#" horiz-adv-x="872" d="M49 526v70h201l43 154h-242v69h262l162 588h84l-164 -588h170l164 588h82l-164 -588h178v-69h-196l-43 -154h237v-70h-258l-176 -626h-82l176 626h-170l-172 -626h-84l174 626h-182zM334 596h168l43 154h-168z" />
<glyph unicode="$" horiz-adv-x="972" d="M82 264q4 31 29 31q12 0 20 -25q16 -41 27 -63q18 -37 49 -74q33 -39 92 -63q61 -25 150 -25l32 514l-82 53l-36.5 23.5l-34 22t-21.5 14.5q-37 29 -69 61q-39 39 -58 80q-18 39 -18 90q0 207 239 273q71 18 129 18l11 162h59l-10 -162q47 -6 84 -10q14 -2 31.5 -6 t21.5 -4q18 -3 31 -7l16 -4q4 -4 6 -4h8l21 4q6 0 14 2t15 4l12 5h8q4 0 4 -9q0 -2 1 -5t1 -5t1 -7t1 -9v-23v-29q0 -12 4 -40v-35q0 -10 1 -20.5t1 -12.5q0 -18 -14 -18q-6 0 -14 4q-4 2 -13 10l-10 10q0 2 -4 8t-6 10.5t-6 9.5t-4 7q-70 100 -215 119l-31 -463 q184 -102 244 -154q94 -86 94 -200q0 -160 -107 -246q-108 -86 -282 -92l-25 -320h-59l22 320q-206 9 -307 61q-4 2 -8 5t-6 3l-12 6q-2 0 -7 11q0 2 -1 5t-3 5q-4 4 -4 12q0 4 -1 9t-1 7.5t-1 10.5t-1 14v27q0 29 -2 45q0 6 -1 19.5t-3 19.5q-2 10 -2 20zM299 965 q0 -47 20 -88q18 -39 50 -72q27 -29 57 -53q33 -27 49 -33l21 -10l30 430h-6q-25 0 -51 -6q-53 -12 -72 -19q-47 -16 -71 -53q-27 -39 -27 -96zM508 47q111 2 184 57q70 51 70 156q0 82 -55 150q-61 74 -109 98l-55 27z" />
<glyph unicode="%" horiz-adv-x="1597" d="M90 -68q0 9 19 31l1230 1313q-186 -94 -438 -94q-46 0 -147 12q39 -59 39 -150q0 -168 -129 -292q-127 -125 -291 -125q-115 0 -178 69q-61 68 -62 170q0 170 143 293q144 123 289 123q25 0 113 -16.5t219 -16.5t270 29q123 25 224 57q90 29 102 29q16 0 16 -10 q0 -14 -36 -58l-1285 -1378h-63q-35 0 -35 14zM221 813q0 -43 27 -72q27 -31 78 -30q129 0 249 143q119 139 119 256q0 39 -28 64q-31 27 -72 26q-102 0 -237.5 -139t-135.5 -248zM782 219q0 175 142 295q143 121 290 121q102 0 164 -60q63 -61 64 -180q0 -168 -127 -293 t-291 -125q-119 0 -180 70q-62 71 -62 172zM870 166q0 -45 27 -74q28 -31 80 -31q131 0 250 143.5t119 258.5q0 43 -29 65q-31 25 -74 25q-102 0 -237.5 -139t-135.5 -248z" />
<glyph unicode="&#x26;" horiz-adv-x="1765" d="M92 399q0 102 41 191q39 84 98.5 131t114.5 76q61 33 98 41l41 8l-16 8q-29 14 -41 23q-18 12 -47 41q-16 16 -39 61q-16 33 -16 80q0 129 123 235q121 106 346 107q143 0 243 -60q98 -58 99 -172q0 -82 -54 -129q-51 -45 -125 -45q-49 0 -90 21q-43 20 -43 53 q0 16 11 18q14 4 22 -6q20 -20 51 -20q43 0 70 32.5t27 80.5q0 66 -58 114q-58 49 -172 49q-121 0 -198 -86q-76 -84 -76 -172q0 -108 55 -159q53 -49 139 -54q72 0 72 -24q0 -18 -14 -25q-8 -4 -45 -8q-109 -2 -199 -45q-86 -41 -133 -102q-51 -68 -70 -125 q-23 -68 -22 -123q0 -53 20 -111q18 -53 65.5 -106.5t143.5 -86t234 -32.5q152 0 262 47t164 125q59 86 81 164q25 86 25 184q0 51 -33 53q-68 10 -133 11q-33 0 -76 -7q-52 -6 -92 -49q-39 -41 -39 -88q0 -41 21 -63q22 -25 55 -25q16 0 35 6l18 6q4 2 10.5 -4t6.5 -12 q0 -16 -27 -29q-25 -12 -45 -12q-76 0 -115 47q-41 51 -41 119q0 100 74 176q74 78 199 78q63 0 163.5 -8.5t196.5 -8.5q86 0 144 46q59 47 59 110q0 72 -57 72q-8 0 -16.5 -2t-16.5 -2q-23 0 -23 20q0 37 76 37q113 0 113 -160q0 -88 -25 -143q-55 -129 -266 -129h-14 q-43 0 -50 -66q-37 -301 -213 -452q-174 -150 -471 -150q-326 0 -467 111q-139 108 -139 319z" />
<glyph unicode="'" horiz-adv-x="456" d="M49 997q0 29 49 164q8 25 29 101l27 96q9 37 24 74q14 33 37 53q23 18 51 18q31 0 47 -22q14 -20 15 -45q0 -27 -23 -78q-14 -33 -69 -125q-37 -61 -58 -103q-6 -10 -10 -20t-8 -18.5t-13 -22.5q-16 -31 -22 -45q-2 -6 -9 -16.5t-10 -12.5q-8 -14 -16 -18t-16 -4 q-25 -1 -25 24z" />
<glyph unicode="(" horiz-adv-x="638" d="M92 469q0 137 27 256q29 127 69 215q43 90 95 170q53 82 102 131q66 66 94 90q57 49 70 58l26 16l33 -39q-31 -25 -41 -35q-33 -33 -90 -106q-68 -86 -115 -178q-55 -106 -92 -250q-41 -158 -41 -320q0 -174 37 -327q37 -150 90 -252q45 -86 107 -172q53 -76 88 -105 l37 -31l-37 -43q-2 2 -11.5 9.5t-15.5 13.5q-2 2 -13 12t-23.5 23.5l-26.5 27.5q-61 66 -90 101q-41 51 -97 137q-51 80 -92 170q-43 90 -65 199q-25 112 -25 229z" />
<glyph unicode=")" horiz-adv-x="638" d="M35 1366l33 39q18 -10 53 -35q27 -18 115 -106q82 -82 147 -183q61 -92 115 -264q53 -170 53 -348q0 -154 -47 -311q-45 -152 -115 -258q-72 -109 -135 -189q-66 -80 -115 -123l-47 -41l-35 43q4 2 39 33q23 18 86 103q66 86 109 174t84 250q39 154 39 327q0 168 -39 318 q-41 158 -94 252q-57 102 -111 176q-49 70 -96 108z" />
<glyph unicode="*" horiz-adv-x="929" d="M90 760q0 39 47 67q41 27 107 43q94 25 106 29q49 14 49 25q0 20 -77 32q-68 10 -152 41q-78 29 -78 88q0 39 29 62q27 20 51 20q37 0 143.5 -90t118.5 -90q8 0 8 19q0 20 -32 129q-31 102 -31 114q0 47 26.5 74t63.5 27t63.5 -27t26.5 -86q0 -31 -29 -123 q-31 -98 -30 -121q0 -14 10 -14q14 0 108.5 90t143.5 90q37 0 57 -18q23 -18 23 -47q0 -49 -49 -80q-55 -35 -105 -43q-37 -6 -102 -23q-49 -12 -49 -24q0 -14 45 -29q35 -12 98 -27q52 -12 98 -43q45 -31 45 -73q0 -29 -16 -51.5t-49 -22.5q-53 0 -152 92q-100 94 -104 94 q-10 0 -10 -22q0 -25 28 -117q27 -86 27 -115q0 -37 -24.5 -61.5t-59.5 -24.5q-33 0 -60 25q-29 25 -28 55q0 27 31 133q29 100 28 123q0 8 -4 8q-10 0 -57 -47q-49 -49 -107 -92q-59 -45 -102 -45q-37 0 -55.5 24.5t-18.5 51.5z" />
<glyph unicode="+" horiz-adv-x="1560" d="M164 422v119q274 0 368 -2q166 -4 170 -4l29 -3q-10 31 -10 568h121l-11 -568q55 8 568 9v-119q-272 0 -367 2q-168 4 -172 4l-29 2q10 -68 11 -567h-121q0 272 2 366q4 166 4 170l4 31q-51 -8 -567 -8z" />
<glyph unicode="," horiz-adv-x="456" d="M72 -270q0 12 22 28q4 4 49 31q28 18 50 55q23 39 22 90q0 31 -14 56q-12 22 -31 30q-12 6 -29 19q-14 10 -14 22q0 23 41 60t53 37q4 0 33 -8q18 -6 51 -48q31 -41 31 -106q0 -61 -26.5 -127t-65.5 -105q-63 -63 -146 -63q-26 0 -26 29z" />
<glyph unicode="-" horiz-adv-x="643" d="M70 494v122l505 150v-125z" />
<glyph unicode="." horiz-adv-x="456" d="M127 84q0 23 41 57.5t57 34.5q29 0 64 -41q33 -39 33 -61q0 -27 -39 -60q-41 -35 -64 -34q-18 0 -55 38.5t-37 65.5z" />
<glyph unicode="/" horiz-adv-x="903" d="M35 -473l698 1919h96l-698 -1919h-96z" />
<glyph unicode="0" horiz-adv-x="1040" d="M111 354q0 188 125 326q127 139 319 139q163 0 270 -104q106 -104 107 -266q0 -190 -129 -328q-129 -139 -314 -139q-162 0 -270 104t-108 268zM207 381q0 -127 86 -219t219 -92q139 0 231 96q92 95 93 252q0 127 -82 221t-215 94q-154 0 -244 -96q-88 -94 -88 -256z" />
<glyph unicode="1" horiz-adv-x="667" d="M76 0l2 63q154 4 168 11q20 10 22 53l45 401q8 76 9 127q0 39 -23 47.5t-88 8.5h-72l8 61h197q45 0 68 14q14 10 32 45h37q-78 -696 -78 -722q0 -28 19 -37q16 -8 63 -9h109l-2 -63h-516z" />
<glyph unicode="2" horiz-adv-x="956" d="M76 16q0 10 88 68l192 127q109 70 193 166q86 98 86 182q0 68 -49 117t-131 49q-51 0 -103 -20q-46 -18 -67 -43q-8 -10 -14.5 -16.5l-12.5 -12.5t-12 -15q-20 -20 -29 -20q-18 0 -18 20q6 66 104 133.5t236 67.5q135 0 198 -71q66 -76 66 -148q0 -61 -35 -119 q-37 -61 -80 -104q-45 -45 -125 -101q-98 -68 -121 -81l-118 -68q-6 -2 -12.5 -6t-10.5 -7t-6 -3q-27 -25 -2 -27h49q145 0 266 25q104 20 187 51q74 27 75 26q12 0 13 -18q0 -8 -23 -80q-20 -66 -31 -76q-12 -12 -88 -12h-639q-26 0 -26 16z" />
<glyph unicode="3" horiz-adv-x="870" d="M12 -412q0 31 31 31q4 0 27 -8q12 -4 67 -17q39 -8 103 -8q143 0 266 98.5t123 266.5q0 176 -170 211q-31 6 -43 6q-33 0 -39 4q-10 6 -10 18q0 14 26 27l76 35q47 23 84 70q76 90 76 196q0 74 -43 135q-41 59 -119 60q-98 0 -176 -49q-31 -23 -35 -27q-18 -16 -35 -21 q-10 -2 -16 7q-6 10 -4 22q3 15 24 43q23 31 62 60q47 37 106 55q72 23 142 22q109 0 174 -61.5t65 -165.5q0 -221 -239 -360l28 -7q12 -2 64 -22q39 -16 78 -47q39 -33 63 -78q29 -53 29 -119q0 -92 -37 -172q-35 -76 -94 -129q-55 -49 -134 -88q-70 -35 -147.5 -51.5 t-142.5 -16.5q-72 0 -152 23q-78 22 -78 57z" />
<glyph unicode="4" horiz-adv-x="1193" d="M76 10q0 8 20 27l803 772q23 23 33 22.5t10 -49.5l-47 -655h225l-43 -127h-190l-33 -477l-145 -62l36 539h-643q-26 0 -26 10zM281 127h473l37 494z" />
<glyph unicode="5" horiz-adv-x="1056" d="M35 -350q0 35 31 35q14 0 61 -33q74 -49 176 -49q174 0 291 116.5t117 294.5q0 80 -29 144q-29 66 -70 96q-47 37 -90 51q-55 20 -86 23q-45 4 -61 4h-35h-11t-9.5 -1t-7.5 -1h-3q-27 0 -26 24q0 10 8 64q2 14 16 90q2 10 7 38.5t8 39.5l20 121q10 72 18 77q6 6 19 7 q4 0 41 -1.5t69 -1.5h129q152 0 228 9q35 4 69 71l54 -14q-8 -47 -43 -129q-34 -80 -49 -80q-47 0 -232 19l-101 11l-68.5 7t-22.5 2q-23 0 -31 -20q-20 -53 -35 -109q-20 -78 -20 -98q0 -31 10 -41t37 -10h28q182 0 314 -107q133 -109 133 -313q0 -53 -15 -105 q-18 -63 -51 -125q-39 -70 -94 -123q-57 -55 -149 -90q-96 -37 -211 -37q-72 0 -133 13q-55 10 -99 32q-35 18 -59 39q-27 23 -35 37.5t-8 22.5z" />
<glyph unicode="6" horiz-adv-x="1026" d="M111 506q0 338 196.5 585.5t440.5 247.5q33 0 104 -20q63 -18 63 -47q0 -25 -30 -25l-4 1q-4 1 -14.5 4t-18.5 5q-31 8 -62 9q-113 0 -198 -54q-266 -150 -322 -569q0 -4 -1 -7l-1 -3q61 100 147.5 143t163.5 43q94 0 160 -33q74 -37 107 -86q35 -53 51 -110 q14 -51 14 -115q0 -227 -122.5 -362.5t-286.5 -135.5q-186 0 -287 148q-100 145 -100 381zM266 446q0 -164 82 -278q83 -117 184 -117q88 0 150 99q63 102 63 251q0 143 -69 230q-68 84 -176 84q-102 0 -168 -78t-66 -191z" />
<glyph unicode="7" horiz-adv-x="946" d="M55 623q0 8 6 32l15 50q14 49 18 71q2 14 43 15h654q41 0 40 -27q0 -16 -32 -141q-23 -80 -187 -533l-53 -145q-25 -66 -33 -82l-43 -103l-71 -168q-3 -12 -13 -30q-20 -51 -26 -60q-8 -12 -27 -12h-137q-37 0 -37 29q0 9 18 30q8 8 50 66q45 61 77 111q45 68 103 182 q51 100 119 258l39 92l38 92q2 8 11.5 30.5l21.5 49.5l31 78l20 59l17 49q4 12 4 29q0 35 -51 35q-55 0 -207 -12q-156 -12 -230 -25q-33 -4 -75 -16q-31 -8 -47 -17l-14.5 -7t-8.5 -5q-6 -4 -12 -4q-21 0 -21 29z" />
<glyph unicode="8" horiz-adv-x="962" d="M111 254q0 266 288 428q-231 152 -231 313q0 145 90 227.5t256 82.5q135 0 227.5 -68t92.5 -199q0 -57 -27 -108q-31 -57 -64 -88q-39 -35 -77 -60q-57 -35 -66 -39l-27 -12l64 -47q52 -37 80 -61q16 -14 63 -66q37 -41 56 -88q18 -49 18 -104q0 -170 -106 -283 q-104 -111 -297 -111q-168 0 -254 74t-86 209zM227 313q0 -123 74 -196.5t186 -73.5q104 0 178 73.5t74 170.5q0 147 -295 368q-88 -55 -153 -151q-64 -95 -64 -191zM309 1036q0 -57 56 -127q51 -66 110 -108l55 -41q8 2 21 12l45 37q33 27 57 57q27 33 45 76q20 47 21 98 q0 94 -53.5 153.5t-139.5 59.5q-217 0 -217 -217z" />
<glyph unicode="9" horiz-adv-x="1030" d="M111 371q0 186 122.5 317t288.5 131q190 0 295 -145q104 -144 105 -344q0 -211 -80 -401.5t-228 -313.5q-145 -121 -321 -121q-49 0 -94 10q-40 9 -56 19q-14 8 -14 20q0 29 33 29l37 -6q37 -6 75 -6q104 0 201 65q98 66 156 164q59 100 96 204.5t43 199.5l-12 -23 q-8 -14 -35 -49t-61 -64q-33 -27 -90.5 -49t-116.5 -22q-92 0 -162 39q-78 45 -111 98q-37 61 -55 125q-16 57 -16 123zM256 403q0 -47 8 -88q8 -45 37 -100q29 -57 88 -90q63 -35 152 -35q92 0 157 90q68 92 68 240q0 143 -67.5 241.5t-170.5 98.5q-125 0 -198 -113 q-74 -115 -74 -244z" />
<glyph unicode=":" horiz-adv-x="520" d="M154 78q0 29 34 63q33 33 56 33q25 0 55 -37q29 -35 29 -59q0 -18 -35 -57t-62 -39q-20 0 -48.5 39t-28.5 57zM209 715q0 27 35 61.5t55 34.5q25 0 53 -37q29 -39 29 -59q0 -16 -35 -58q-33 -39 -59 -39q-23 0 -49 39q-29 42 -29 58z" />
<glyph unicode=";" horiz-adv-x="520" d="M90 -283q0 10 31 41q27 27 61 82q31 49 31 105q0 27 -14 49q-10 14 -29 20q-20 6 -31 15q-14 10 -14 26q0 45 41 82q43 39 63 39q33 0 52 -43q20 -47 20 -106q0 -125 -65 -232q-68 -111 -113 -110q-33 -1 -33 32zM209 715q0 27 35 61.5t55 34.5q25 0 53 -37 q29 -39 29 -59q0 -16 -35 -58q-33 -39 -59 -39q-23 0 -49 39q-29 42 -29 58z" />
<glyph unicode="&#x3c;" horiz-adv-x="1556" d="M121 477v45l1317 631v-137l-1104 -516l1104 -516v-138z" />
<glyph unicode="=" horiz-adv-x="1603" d="M184 250v121h1237v-121h-1237zM184 592v121h1237v-121h-1237z" />
<glyph unicode="&#x3e;" horiz-adv-x="1556" d="M121 -16l1104 516l-1104 516v137l1317 -631v-45l-1317 -631v138z" />
<glyph unicode="?" horiz-adv-x="743" d="M211 526q0 55 37 119q33 55 90 121l102 115q53 59 88 120q37 63 37 121q0 53 -36.5 84t-86.5 31q-6 0 -77.5 -10t-96.5 -10q-27 0 -26 24q0 34 43 80q43 45 100 45q88 0 199 -115q113 -117 112 -256q0 -41 -59 -116q-45 -57 -129 -138q-80 -76 -131 -149 q-59 -84 -60 -141q0 -47 23 -89q6 -12 16 -28q6 -10 6 -12q0 -23 -26 -23q-16 0 -45 23q-31 25 -55 77q-25 55 -25 127zM246 78q0 29 35 63q33 33 55 33q25 0 53 -37q29 -39 29 -59q0 -23 -33 -58q-35 -39 -61 -38q-20 0 -49 39t-29 57z" />
<glyph unicode="@" horiz-adv-x="1656" d="M113 365q0 178 90 346t266 280.5t403 112.5q137 0 252 -35q106 -33 176 -86t111 -121q45 -74 59.5 -137t14.5 -139q0 -262 -158 -436q-157 -172 -356 -173q-10 0 -23 7q-16 8 -28 20q-16 16 -25 45q-10 35 -10 76q0 37 10 180q-63 -121 -137 -215q-35 -45 -90 -80 q-51 -33 -78 -33q-100 0 -101 226q0 127 27 200.5t102 196.5q34 52 117 135q84 84 127 84q33 0 58 -31q29 -35 36 -63l11 -31l20 115q6 35 47 35h21q23 0 30 -4q6 -4 7 -21q0 -18 -17 -119q-18 -114 -37 -251q-18 -137 -18 -201q0 -72 22 -101q20 -27 78 -26q106 0 197 115 q94 119 94 337q0 59 -8 107q-10 55 -41 121q-33 70 -88 119t-156 86t-239 36q-129 0 -240 -43q-109 -43 -182 -112q-66 -63 -117 -156q-49 -88 -70 -176q-23 -94 -22 -178q0 -262 145 -436q144 -172 430 -172q176 0 324 63q150 63 252 176l24 -22q-86 -133 -258 -213 q-176 -82 -381 -82q-172 0 -299 53q-131 55 -211 150q-82 98 -120 212q-41 124 -41 259zM594 268q0 -61 24.5 -104t51.5 -43q40 0 104 92q72 102 117 207q49 113 49 174q0 45 -45 88q-49 45 -80 45q-37 0 -88 -68q-51 -66 -92 -180q-41 -113 -41 -211z" />
<glyph unicode="A" horiz-adv-x="1339" d="M41 0v66h33q45 0 69 18q18 14 56 90l575 1225h37l289 -1163q31 -121 49 -145.5t72 -24.5h59v-66h-477v66h59q59 0 82 6t23 32q0 14 -6 39l-91 383h-407l-160 -346q-29 -68 -29 -80q0 -23 25 -28.5t104 -5.5h39l-4 -66h-397zM496 606h356l-129 516z" />
<glyph unicode="B" horiz-adv-x="1136" d="M31 0l2 66h65q51 0 68 10q12 8 16 51l76 1087q0 14 1 26.5t2 19.5l1 6q0 29 -18 30q-25 4 -82 4h-90v66h526q121 0 201 -29q86 -31 127 -77q43 -49 61.5 -98.5t18.5 -98.5q0 -207 -205 -275q-49 -14 -90 -18q2 0 15 -2t21.5 -4t79.5 -29q53 -20 103 -55q43 -31 82 -100 q35 -61 35 -146q0 -156 -103 -270q-86 -100 -211 -133q-119 -31 -321 -31h-381zM328 129q0 -31 16 -47t64 -16q119 0 213 32q89 31 135 74q45 41 73 100q23 47 31 90q6 37 6 70q0 162 -129 236q-145 84 -368 84l-41 -611v-12zM373 803q59 0 151 -6h25q61 0 117 16 q66 20 118 76q55 58 56 147q0 279 -367 279q-65 0 -67 -43z" />
<glyph unicode="C" horiz-adv-x="1400" d="M92 588q0 150 45 286q45 139 133 259q86 117 231.5 190.5t321.5 73.5q180 0 307 -64q129 -63 130 -151q0 -33 -21 -82q-23 -53 -55 -53q-12 0 -20.5 6t-14.5 20q-10 25 -10 27t-3 16t-6 23q-8 33 -12 45q-14 49 -94 98t-203 49q-221 0 -393 -188.5t-172 -489.5 q0 -268 137 -436t340 -168q141 0 271 80q68 45 90 70q16 18 59 114h45q-16 -90 -37 -182q-2 -14 -18 -31q-14 -14 -58 -37q-154 -86 -364 -86q-315 0 -471 175q-158 176 -158 436z" />
<glyph unicode="D" horiz-adv-x="1490" d="M45 0l4 66h37q51 0 66 10q12 8 14 51l84 1067q6 68 6 72q0 27 -16 30q-20 4 -76 4h-86l4 66h545q287 0 422 -51q137 -51 233 -189q109 -156 109 -362q0 -145 -56 -287q-55 -139 -164 -252q-126 -129 -270 -178q-139 -47 -326 -47h-530zM317 135q0 -49 25 -59 q27 -10 123 -10h133q141 0 258 47q115 47 182 116q72 76 113 162q43 94 59 178q16 88 17 166q0 96 -25 189q-23 86 -86 182q-57 88 -176 141t-274 53h-205q-34 0 -43 -6q-10 -6 -12 -22q-89 -1057 -89 -1137z" />
<glyph unicode="E" horiz-adv-x="1118" d="M33 0l4 66h47q51 0 67.5 10t20.5 51q66 750 102 1108q2 18 2 32.5t-8 22.5t-16 8q-2 0 -15.5 1t-23.5 1h-113v66h918v-248l-45 -2l-2 107q-2 51 -58 59q-61 10 -364 16q-20 0 -46 1t-32 1q-34 0 -43 -6q-10 -6 -12 -22l-41 -457h368q43 0 54 8q14 10 16 45l10 101l45 -2 l-32 -420l-50 2l11 139q0 28 -13 37q-14 10 -51 10h-366l-48 -545q0 -14 -1 -29.5t-2 -23.5t-1 -10q0 -23 9 -29q6 -4 41 -4h30q227 0 291 2q113 4 152 10q57 10 65 19q9 9 19 31q10 29 41 155l51 -10l-70 -301h-911z" />
<glyph unicode="F" horiz-adv-x="1110" d="M39 0l4 66h57q51 0 68 10q12 8 16 51q94 1118 95 1141q0 16 -7 22q-8 8 -18 8q-2 0 -15.5 1t-23.5 1h-113v66h949v-260l-62 -2v119q0 51 -61 59q-70 10 -371 16q-20 0 -47 1t-33 1q-33 0 -45 -4q-9 -3 -12 -24l-37 -457h377q43 0 51 6t12 47l11 101l51 -2l-33 -432h-53 l4 50t3 40.5l2 30t1 22.5v10q0 28 -12 37q-14 10 -47 10h-373l-41 -545q-4 -70 -4 -75q0 -49 49 -49h135l-4 -66h-473z" />
<glyph unicode="G" horiz-adv-x="1466" d="M92 623q0 137 51 280q47 133 144 248q94 115 239 180q147 68 326 68q61 0 155.5 -20.5t166.5 -59.5q55 -31 67 -49.5t12 -61.5v-20l-10 -203l-41 -2l-2 12q0 6 -4 35q-2 14 -10 51q-4 14 -25 58q-16 33 -39 61q-20 27 -59 55q-35 27 -86 43q-96 33 -168 33 q-166 0 -297 -102q-133 -104 -193 -246q-63 -150 -63 -299q0 -147 33 -258q34 -114 86 -184q51 -68 119 -115q66 -45 131 -64q65 -18 129 -18q133 0 219 61q82 59 92 173l22 292h-253l4 66h508l-5 -66h-114l-45 -573l-37 2q-10 53 -23 70q-14 25 -35 10q-58 -37 -92 -55 q-27 -14 -104 -35q-72 -18 -152 -19q-166 0 -297 54q-127 51 -202 145q-72 90 -111 209q-37 113 -37 244z" />
<glyph unicode="H" horiz-adv-x="1441" d="M41 0l4 66h68q49 0 59 14q12 14 14 80l78 1061v14q0 4 1 8l1 4q0 37 -10 45t-63 8h-95l2 66h467l-2 -66h-45q-78 0 -94 -10t-18 -65l-31 -422h700l31 418q0 2 1 6t1 8v12q0 35 -12 45q-10 8 -62 8h-86v66h453l-2 -66h-33q-80 0 -96 -10q-18 -10 -21 -65l-75 -1057 q-2 -14 -2 -53q0 -35 16 -41q20 -8 80 -8h73v-66h-491l4 66h84q59 0 72 14q16 18 18 80l41 563h-700l-37 -537q0 -23 -2 -35t-2 -28q0 -37 18 -47q20 -10 76 -10h88v-66h-471z" />
<glyph unicode="I" horiz-adv-x="622" d="M43 0l2 66h45q61 0 76 14q16 16 22 80l105 1061q2 10 2 41q0 25 -14 32q-12 6 -60 6h-96l2 66h459l-4 -66h-25q-82 0 -98.5 -10t-22.5 -65l-104 -1057q0 -12 -1 -24.5t-2 -19.5t-1 -9q0 -35 16 -41q25 -8 92 -8h86l-2 -66h-477z" />
<glyph unicode="J" horiz-adv-x="663" d="M-213 -391q0 53 29 84q31 33 65 33q20 0 34.5 -12.5t18.5 -22.5q2 -2 5.5 -12.5t9.5 -26.5q39 -92 96 -92t94 49q20 27 43 168q33 227 47 391l101 1053q2 10 2 41q0 27 -12.5 32.5t-61.5 5.5h-152v66h517v-66h-70q-49 0 -61 -12q-16 -16 -19 -63l-133 -1391 q-8 -109 -33 -153q-45 -80 -137 -152q-86 -68 -201 -68q-88 0 -135 39t-47 109z" />
<glyph unicode="K" horiz-adv-x="1497" d="M45 0v66h45q61 0 76 14q18 18 20 80l86 1061q2 10 2 41q0 25 -14 32q-12 6 -59 6h-76v66h442l-2 -66h-28q-78 0 -99 -10q-18 -10 -22 -65l-47 -582l718 574q76 57 76 69q0 14 -57 14h-64v66h447l-4 -66h-86q-49 0 -82 -16t-133 -92l-18.5 -14.5t-12.5 -10.5l-514 -397 q514 -705 649 -704h113l-4 -66h-353q-215 250 -518 686l-164 -125l-32 -393q-2 -14 -2 -53q0 -35 16 -41q25 -8 92 -8h86v-66h-477z" />
<glyph unicode="L" horiz-adv-x="1089" d="M41 0l2 66h59q51 0 68 10q12 8 16 51q80 1124 80 1135q0 39 -80 38h-100l4 66h481v-66h-94q-4 0 -12 -1t-10 -1q-8 0 -16.5 -4t-12.5 -4t-8 -6l-4 -8q0 -1 -2 -5q-2 -5 -2 -9q-2 -8 -2 -15v-16q0 -6 -1 -12.5t-1 -8.5q-74 -1075 -74 -1081q0 -31 14 -39q16 -10 66 -10 q117 0 280 14q184 16 201 23q25 10 35 35q9 25 49 153l53 -14l-82 -291h-907z" />
<glyph unicode="M" horiz-adv-x="1687" d="M61 0l5 66h45q61 0 75 14q12 12 19 74l98 1071l-18 49q-8 27 -56 26h-163l4 66h348l405 -1161l580 1161h266v-66h-84q-58 0 -67 -18q-10 -18 -19 -137l-59 -1010q0 -45 14 -57q15 -12 49 -12h96v-66h-477l4 66h84q51 0 68 10q12 8 16 51l60 991l-541 -1093l-8 -17 q-23 -43 -33 -43t-16 12l-19 39q0 6 -2 9l-381 1079q-76 -967 -75 -1000q0 -25 12 -30q16 -8 49 -8h109v-66h-388z" />
<glyph unicode="N" horiz-adv-x="1529" d="M61 1300l5 66h315l817 -1153l72 737q31 295 30 301q0 29 -14 39t-55 10h-101l3 66h378l-4 -66h-51q-37 0 -47 -2q-16 -4 -25 -16q-4 -8 -10 -25q-2 -8 -6 -47q-20 -190 -22 -211l-66 -641l-35 -344q-4 -49 -22.5 -49t-46.5 37l-818 1137q-25 -299 -57 -723 q-18 -272 -18 -312q0 -27 16 -32.5t45 -5.5h113l-2 -66h-389l4 66h45q61 0 75.5 14t16.5 74l90 1052l-27 33q-4 6 -10 12t-9 11l-3 4l-6 5l-11 9q-12 12 -18 12l-20 4q-20 4 -29 4h-41h-62z" />
<glyph unicode="O" horiz-adv-x="1488" d="M92 608q0 338 198.5 567.5t512.5 229.5q283 0 434 -184q152 -186 152 -451q0 -125 -29 -231q-31 -115 -92 -220q-59 -100 -148 -182q-84 -78 -205 -125q-117 -45 -258 -45q-240 0 -403 164q-162 162 -162 477zM260 651q0 -293 129 -452q127 -158 313 -158q205 0 363 192 q156 188 156 521q0 283 -129 434t-312 151q-207 0 -364 -184q-156 -182 -156 -504z" />
<glyph unicode="P" horiz-adv-x="1157" d="M41 0v66h45q51 0 68 10q12 8 16 51l90 1022q2 33 5 62.5t4 42t1 14.5q0 10 -4 18t-18 10q-20 4 -29 4h-49h-59l2 66h495q238 0 365 -90q125 -88 125 -260q0 -200 -160 -326q-162 -127 -383 -127q-63 0 -98 4q-47 6 -78 13l-27 4l-35 -402q0 -12 -2 -30.5t-2 -34.5 q0 -51 43 -51h162l-4 -66h-473zM360 639q51 -10 134 -10q100 0 182 28q74 27 125 70q46 40 73 92q31 57 39 94q8 35 9 78q0 309 -441 309q-39 0 -55 -8q-12 -6 -14 -39z" />
<glyph unicode="Q" horiz-adv-x="1456" d="M41 57q0 12 10 27q9 12 25 12q6 0 39 -16q39 -18 92 -33q66 -16 149 -16q207 0 367 69q168 72 262 183q100 115 152 249q53 137 53 275q0 117 -35 215q-35 100 -84 152q-59 61 -115 94q-68 39 -123 51t-104 12q-162 0 -282.5 -120.5t-120.5 -303.5q0 -133 71 -233 q70 -98 217 -99q45 0 76 13q33 14 45 30q16 25 25 33q12 12 22 13q23 0 23 -25q0 -49 -78 -104q-74 -53 -184 -54q-147 0 -258 97q-113 98 -113 264q0 92 39 196q35 90 108 179q72 84 187 135q119 53 256 53q152 0 285 -61.5t221 -194.5t88 -328q0 -135 -35 -245.5 t-94 -196.5q-47 -68 -125 -146q-70 -70 -135 -108q-78 -47 -125 -70q-59 -31 -90 -41l-37 -10q6 -4 24.5 -14t28.5 -19l127 -73q123 -70 174 -95q68 -33 178 -71q92 -33 156 -33q55 0 94 22q35 20 47 21q20 0 21 -27q0 -23 -21 -49q-27 -39 -90 -67.5t-125 -28.5 q-190 0 -416 139q-209 129 -397 262q-72 -14 -160 -14q-117 0 -215 27q-100 26 -100 73z" />
<glyph unicode="R" horiz-adv-x="1304" d="M39 0l2 66h59q51 0 68 10q12 8 16 51l76 1087q0 14 1 26.5t2 19.5l1 6q0 29 -18 30q-25 4 -88 4h-62v66h504q127 0 225 -35q94 -33 146 -88q47 -49 73 -117q25 -61 25 -129q0 -43 -14 -96q-12 -43 -47 -98q-35 -53 -113 -94q-72 -37 -190 -58l360 -499q61 -86 129 -86h92 l-4 -66h-336q-49 61 -104 147q-80 123 -94 150l-101 178l-92 164h-29q-23 0 -75 4q-45 4 -64 6l-22 4l-35 -512v-18q0 -4 -1 -11.5t-1 -9.5q0 -37 45 -36h172l-4 -66h-502zM369 705q49 -8 129 -9q209 0 295 68q104 84 104 223q0 135 -111 223q-113 90 -311 90q-68 0 -67 -28 z" />
<glyph unicode="S" horiz-adv-x="956" d="M20 358l58 11l20 -140q16 -98 115 -137q98 -43 188 -43q125 0 197 78q74 80 74 192q0 53 -10 84q-14 41 -44 76q-35 41 -53 58l-73 63l-70 59l-100 86q-178 151 -179 332q0 129 106.5 223.5t268.5 94.5q57 0 100 -11q20 -4 51 -12t38 -10l41 -10q31 0 30 41v14h56 l22 -320l-57 -4l-8 111q-12 14 -35 35q-23 18 -97 53q-76 35 -147 35q-100 0 -162 -49q-63 -51 -63 -146q0 -28 6 -55q6 -31 12 -47q4 -10 27 -45q20 -27 28 -39q14 -18 39 -41l16.5 -16.5l13.5 -13.5l7 -7q4 -2 6 -5t12.5 -11t26.5 -23l21.5 -17t16.5 -13.5t7 -6.5l72 -61 q10 -10 29 -25q37 -29 47 -39q8 -8 49 -53q29 -31 47 -65q18 -33 33 -78q14 -43 14 -92q0 -147 -115 -269q-117 -123 -317 -123q-84 0 -143 15q-70 16 -78 16q-23 0 -29 -6q-4 -4 -4 -18l4 -64l-57 -2q-27 266 -58 440z" />
<glyph unicode="T" horiz-adv-x="1261" d="M20 1040q29 168 52 326h1181l-14 -100l-18 -121q-10 -57 -13 -103l-73 2q20 137 20 175q0 40 -18 49q-16 8 -74 8h-236q-82 0 -96 -6q-12 -6 -16 -51l-72 -1057l-1 -6q-1 -6 -1 -13v-20q0 -39 8 -47q10 -10 49 -10h136l-5 -66h-526v66h109q51 0 67 10q12 8 17 51l75 1081 v15q0 4 1 11t1 9q0 20 -18 26.5t-70 6.5h-256q-74 0 -92 -37t-43 -201z" />
<glyph unicode="U" horiz-adv-x="1429" d="M61 1300l2 66h494l-4 -66h-96q-39 0 -54 -10q-16 -12 -18 -53q-66 -834 -66 -915q0 -115 60 -197q59 -80 207 -80q237 0 350 184q16 27 35 74q15 40 24 80q8 39 13 66q2 8 3 27.5t1 29.5q2 23 2 35l51 659q2 10 2 55q0 29 -14.5 37t-65.5 8h-104l2 66h485v-66h-90 q-18 0 -31 -4q-8 -2 -18 -16q-8 -12 -12 -41q-6 -78 -18.5 -261l-18.5 -269q-6 -84 -15.5 -187.5l-11.5 -126.5q-2 -20 -4 -50t-4 -50.5t-2 -36.5q-4 -74 -4 -92q0 -70 33 -70q18 0 126 58l23 -52q-252 -141 -305 -141q-31 0 -31 45v23l4 69q2 18 3 59.5t1 61.5 q-14 -37 -51 -92q-39 -57 -86 -90q-113 -82 -289 -82q-242 0 -321 84q-80 83 -80 283q0 63 32.5 468.5t32.5 444.5q0 45 -10 55t-49 10h-113z" />
<glyph unicode="V" horiz-adv-x="1294" d="M20 1300l3 66h477v-66h-94q-33 0 -45.5 -6t-12.5 -20t14 -70l246 -971l420 996q6 12 6 37q0 23 -22 28q-22 6 -74 6h-68v66h406l-4 -66h-45q-10 0 -27 -4q-8 -2 -20 -6q-9 -3 -19 -12q-4 -4 -8 -10t-6 -8q-6 -6 -17 -27q-6 -12 -9 -20.5t-5 -12.5l-20 -43 q-2 -8 -7.5 -18.5t-8.5 -18.5t-5 -14l-506 -1137h-45l-321 1198q-27 98 -39 115q-12 18 -64 18h-80z" />
<glyph unicode="W" horiz-adv-x="2041" d="M20 1300l3 66h481l-4 -66h-105q-33 0 -45 -6t-12 -20t14 -70l252 -971l369 873l-15 63q-15 65 -30 93q-14 27 -28.5 32.5t-47.5 5.5h-80l2 66h488l-5 -66h-106q-33 0 -45 -6t-12 -20t14 -70l246 -971l407 979q16 43 17 58q0 31 -56 30h-120v66h421l-4 -66h-55 q-49 0 -65.5 -16t-59.5 -115q-2 -6 -27 -63l-497 -1137h-45l-262 1008l-443 -1008h-45l-321 1198q-27 92 -41 115q-12 18 -62 18h-76z" />
<glyph unicode="X" horiz-adv-x="1462" d="M31 80q0 39 20.5 65.5t54.5 26.5q14 0 15 -16q0 -18 8 -33q10 -16 41 -17q156 0 426 414l94 152q-6 10 -9 18t-13.5 28.5t-22.5 49.5l-51 113q-4 10 -18.5 39.5l-32.5 68.5q-37 74 -60 107l-57 82q-25 35 -59 61q-27 20 -56 21q-37 0 -69.5 -39t-32.5 -105q0 -70 33 -133 q10 -16 6 -29q-3 -12 -19 -12t-26 19q-49 84 -49 180q0 100 57 174q55 72 141 71q143 0 260 -208q59 -102 179 -357q0 2 40 66q12 18 27.5 44.5t22.5 35.5l53 80q41 66 61 88l62 75q35 45 69 72q6 4 30 24.5t38 30.5q35 27 74 39q37 12 73 13q45 0 68 -21q25 -20 25 -53 q0 -29 -18.5 -47.5t-53.5 -18.5q-8 0 -21 21q-12 23 -36 22q-66 0 -187 -139t-205 -274l-86 -140q199 -420 267 -546q45 -88 96 -89q33 0 63.5 39t42.5 88q9 49 37 50q27 0 27 -50q-4 -74 -30.5 -125t-67.5 -75q-33 -20 -70 -35q-31 -12 -55 -12q-92 0 -150 86 q-61 90 -184 360l-74 156q-104 -201 -199 -324q-102 -135 -174 -186q-74 -53 -129 -76q-49 -20 -96 -20q-49 0 -74 30q-26 33 -26 70z" />
<glyph unicode="Y" horiz-adv-x="1189" d="M20 1300l3 66h450l-6 -66h-59q-70 0 -70 -30q0 -25 61 -154l183 -373l286 467q27 41 27 64q0 27 -72 26h-51v66h399l-2 -66h-63q-39 0 -72 -26q-29 -23 -98 -127l-320 -488l-32 -499v-27q0 -6 -1 -11t-1 -9v-4q0 -27 16 -35t53 -8h105l-2 -66h-533l4 66h92q61 0 82 16 t23 74l35 495l-287 580q-20 41 -39 57q-16 12 -57 12h-54z" />
<glyph unicode="Z" horiz-adv-x="1312" d="M0 -14q0 25 94 131l549 620h-168l6 66h219l377 426q-102 -10 -194 -10q-117 0 -287 30.5t-236 30.5q-94 0 -151 -57q-55 -55 -55 -123q0 -55 49 -88q51 -35 104 -35q27 0 47 10q14 8 23 23q2 4 5 12t5 12q6 10 19 10q25 0 24 -38q0 -66 -45 -105q-43 -37 -104 -37 q-72 0 -129.5 51.5t-57.5 159.5q0 125 84 227.5t240 102.5q72 0 254 -33t372 -33q100 0 140 23q12 8 33 24l22 23q2 2 14 10q8 6 17 6q25 0 24 -24q0 -16 -24 -47l-477 -551h170l-5 -66h-223l-493 -571q92 12 137 12q76 0 299 -24.5t299 -24.5q125 0 188 76q59 72 60 155 q0 8 -4 37l34 11q18 -47 19 -89q0 -55 -12 -110q-12 -53 -43 -113q-33 -63 -97 -94q-70 -35 -161 -35q-86 0 -332 37q-260 39 -316 39q-119 0 -163 -10q-43 -10 -78 -58q-23 -29 -45 -28q-27 0 -27 39z" />
<glyph unicode="[" horiz-adv-x="665" d="M180 -473v1919h453v-62h-326v-1798h326v-59h-453z" />
<glyph unicode="\" horiz-adv-x="903" d="M76 1446h96l698 -1919h-96z" />
<glyph unicode="]" horiz-adv-x="665" d="M35 -414h325v1798h-325v62h452v-1919h-452v59z" />
<glyph unicode="^" horiz-adv-x="829" d="M82 678l321 655h25l322 -655h-129l-205 434l-205 -434h-129z" />
<glyph unicode="_" horiz-adv-x="460" d="M41 -121h381v-88h-381v88z" />
<glyph unicode="`" horiz-adv-x="796" d="M252 1249h123l33 -291h-58z" />
<glyph unicode="a" horiz-adv-x="757" d="M51 203q0 127 26.5 200.5t102.5 196.5q34 52 117 135q84 84 127 84q35 0 59.5 -30.5t34.5 -63.5l10 -31l21 115q6 35 47 35h20q23 0 31 -4q6 -4 6 -21q0 -4 -18 -119l-35 -251q-18 -137 -18 -201q0 -100 24 -101l4 1l4 2q4 0 9 4l8 8l4 3q4 3 6 5t10 14q2 2 6.5 7.5 t8.5 9.5q12 12 16 18l37 -29q-18 -29 -43 -59q-39 -47 -88 -94q-63 -59 -96 -60q-45 0 -46 148q0 72 11 180q-70 -133 -138 -215q-35 -45 -90 -80q-51 -33 -77 -33q-101 1 -101 226zM156 268q0 -61 24.5 -104t50.5 -43q40 0 105 92q66 94 115 207q51 119 51 174q0 45 -45 88 q-49 45 -80 45q-37 0 -88 -68q-51 -66 -92 -180q-41 -113 -41 -211z" />
<glyph unicode="b" horiz-adv-x="692" d="M10 1380q260 70 277 70q27 0 26 -33l-88 -864q88 129 181 199q84 63 141 63q14 0 28 -8q20 -12 35 -29q18 -23 31 -65q12 -46 12 -111q0 -18 -10 -90q-10 -66 -43 -176q-35 -111 -84 -176q-29 -41 -102 -107q-68 -61 -92 -61q-2 0 -8.5 1t-8.5 1q-8 0 -20 4q-10 4 -19 6 q-4 2 -10 6t-10 6q-6 4 -12.5 6.5t-8.5 4.5q-2 0 -8 5t-12 9l-21 14l-6 3q-6 3 -16 12q-16 12 -23 16q-35 25 -35 53q0 8 7 94l16 236q12 147 18 285q18 340 19 544q0 68 -29 68q-8 0 -45 -10l-67 -19zM215 276q0 -55 35 -106q31 -43 67 -68q33 -20 48 -20q51 0 122 139 q70 137 70 268q0 90 -35 156t-78 66q-31 0 -82 -47q-47 -45 -88 -117q-39 -70 -49 -127q-10 -62 -10 -144z" />
<glyph unicode="c" horiz-adv-x="565" d="M41 225q0 160 63 332q96 262 328 262q57 0 80 -20q25 -20 25 -45q0 -78 -48 -78q-14 0 -75.5 28.5t-110.5 28.5q-57 0 -106.5 -129t-49.5 -256q0 -111 39 -170t80 -59q88 0 230 141l28 -24q-8 -8 -20 -27q-14 -23 -51 -62q-29 -31 -78 -75q-29 -25 -88 -60 q-51 -29 -92 -28q-31 0 -64 24q-90 72 -90 217z" />
<glyph unicode="d" horiz-adv-x="763" d="M41 238q0 109 39 221q37 108 92 178q135 176 219 176q33 0 58 -27q23 -25 38 -71l17 -43l28 606v39q0 55 -20 55q-10 0 -141 -22l-9 47q236 49 279 49q39 0 39 -33v-16q0 -4 -1 -11.5t-1 -9.5l-64 -770q-33 -379 -32 -401q0 -53 20 -53q16 0 43 32q29 35 45 66l21 33 l34 -19l-14 -33q-12 -27 -53 -84q-43 -57 -98 -108q-66 -59 -97 -59q-23 0 -22 34q0 31 8 146q6 100 14 145l9 60q-33 -96 -144 -238q-115 -145 -192 -145q-27 0 -50 20q-25 20 -45 82q-20 60 -20 154zM143 360q0 -227 103 -227q37 0 92 61.5t98 160t43 182.5v32 q0 76 -43 125t-78 49q-43 0 -86 -55q-47 -61 -65 -102q-64 -134 -64 -226z" />
<glyph unicode="e" horiz-adv-x="571" d="M41 207q0 218 86 405q14 31 27 50l22 32q12 18 29 29q20 16 24 18q6 6 29 21q27 16 29 16q57 37 108 37q29 0 82 -35t53 -57q0 -8 -57 -76q-66 -76 -145 -153q-76 -74 -172 -148q0 -10 4 -47q4 -43 12 -72q12 -45 41 -73.5t72 -28.5q90 0 227 127l31 -47 q-2 -2 -10.5 -9.5t-14.5 -13.5l-61 -51q-55 -45 -86 -65q-47 -33 -92 -52q-55 -23 -89 -22q-47 0 -98 51t-51 164zM154 391l28 27l62 59q33 31 67 68q6 8 27.5 29.5t30.5 31.5q23 29 22 35q0 43 -26 64q-29 23 -56 22q-51 0 -104 -90q-51 -88 -51 -229v-17z" />
<glyph unicode="f" horiz-adv-x="532" d="M-156 -420q0 37 17 62q18 29 47 28q6 0 18 -4q6 -2 13 -8l5 -4q5 -4 7 -8q4 -6 8 -15q2 -4 10 -16l8 -16q35 -55 78 -56q49 0 68 105q20 113 41 415q2 55 6 93q20 324 45 581h-143v66h145q0 6 2 21.5t4 41l4 52.5q10 102 15 124q14 80 18 97q16 66 39 106q27 47 57 78 q115 115 232 115q63 0 94 -31t31 -76q0 -35 -14.5 -55.5t-39.5 -20.5q-29 0 -71.5 49.5t-65.5 49.5q-104 0 -145 -221q-10 -61 -37 -330h154l-5 -66h-153q-16 -238 -23 -356q-4 -63 -7 -119.5t-5 -81.5l-2 -24q-27 -397 -84 -543q-55 -141 -229 -141q-53 0 -99 28 q-43 28 -43 80z" />
<glyph unicode="g" horiz-adv-x="792" d="M-68 -317q0 46 19 79q20 37 43 52q31 18 51 26q23 8 45 13l19 2l12 -43q-2 0 -9.5 -2.5t-11.5 -4.5q-12 -6 -34 -28q-20 -20 -21 -56q0 -68 70 -129q68 -59 184 -59q111 0 201 59q88 57 88 132q0 68 -139 102q-225 59 -304 102q-92 51 -92 121q0 16 10.5 41t22.5 37 l11 12q11 12 20 19q31 25 33 26q8 6 14 9.5t12 7.5l12 8q-51 20 -79 78q-27 53 -27 116q0 152 100.5 291.5t235.5 139.5q57 0 137 -35t127 -35q18 0 41 24l14 17l41 -21q-57 -133 -63 -139q-8 -8 -33 -8l-80 12q4 -49 4 -57q0 -133 -84 -270q-84 -135 -225 -136q-27 0 -57 7 q-88 -49 -88 -103q0 -16 24 -33q25 -14 78 -30l90 -23q12 -4 50 -11l59 -11q14 -2 39.5 -7.5t35.5 -7.5q12 -2 80 -30q53 -23 82 -66q29 -45 29 -102q0 -137 -133 -222q-135 -86 -326 -86q-170 0 -248 70q-80 72 -80 152zM215 467q0 -92 43 -153.5t86 -61.5q55 0 98 102 q43 100 43 217q0 74 -34 134q-33 57 -74 57q-55 0 -108.5 -96.5t-53.5 -198.5z" />
<glyph unicode="h" horiz-adv-x="874" d="M51 1386q215 59 268 60q27 0 27 -21q0 -16 -18 -206l-41 -445q-33 -379 -33 -385q90 156 205 295q101 123 166 123q76 0 75 -213q0 -74 -22 -219q-20 -131 -21 -180q0 -41 13 -41q33 0 112 114l33 47l31 -22q-61 -106 -174 -219q-51 -51 -80 -72q-23 -16 -41 -16 q-27 0 -27 53q0 27 25 256q25 230 24 301q0 74 -30 74q-46 0 -154 -142q-111 -143 -131 -247q-18 -94 -20 -162l-2 -60q0 -35 -12.5 -47t-47.5 -12q-51 0 -51 31q0 47 4 90q6 61 12 158q8 131 11 143l22 371q6 127 16.5 243.5t10.5 132.5q0 14 1 32t2 29t1 17q2 14 2 35v45 q0 43 -17 43q-18 0 -131 -31z" />
<glyph unicode="i" horiz-adv-x="497" d="M41 735q240 84 276 84q23 0 23 -31q0 -55 -23 -292q-25 -258 -24 -287q0 -47 16 -47q31 0 137 168l33 -27q-39 -92 -125 -182q-33 -35 -94 -86q-55 -45 -74 -45q-35 0 -34 45q0 2 3 29.5t10 99.5l15 147q27 260 27 379q0 33 -25 33q-20 0 -47 -8q-37 -10 -53 -21l-25 -10 zM287 1290q0 14 28 47q29 31 58 31q25 0 45 -28.5t20 -59.5q0 -27 -32 -57q-31 -29 -50 -29q-27 0 -47 33q-22 34 -22 63z" />
<glyph unicode="j" horiz-adv-x="503" d="M-160 -408q0 39 19 66q18 29 53 29q23 0 39 -23q12 -16 22 -49q10 -31 29 -49q23 -23 53 -23q88 0 115 221q25 207 47 523q25 338 25 403q0 31 -19 31q-23 0 -143 -49l-19 53q249 98 301 98q20 0 21 -35q0 -20 -8 -118q-4 -57 -10.5 -122t-12.5 -132q-14 -166 -16 -228 q-23 -373 -55 -501q-18 -72 -58 -119q-37 -47 -86 -65.5t-71 -24.5q-29 -6 -46 -6q-68 0 -124 34t-56 86zM293 1290q0 18 26 47q29 31 60 31q25 0 45 -28.5t20 -59.5q0 -27 -32 -57q-31 -29 -50 -29q-27 0 -47 33q-22 34 -22 63z" />
<glyph unicode="k" horiz-adv-x="829" d="M51 1389q100 27 158 36q101 18 123 19q29 0 28 -21l-102 -1058l27.5 17t29 20.5t39.5 27.5q61 43 154 131q94 92 94 150q0 35 -51 34h-41q-2 0 -11.5 -1t-15.5 -1h-30l4 45q80 8 221 9q88 0 88 -21q0 -49 -119 -170q-92 -92 -196 -164q0 -2 3 -8l5 -10q4 -12 18 -45 q10 -23 31 -64q25 -53 33 -67q10 -20 39 -64q16 -25 36 -45q18 -18 33 -18q18 0 47 41q33 49 47 78l21 39l47 -27q-14 -31 -55 -100q-104 -168 -156 -168q-39 0 -100.5 98t-104.5 197l-43 98l-98 -68q-8 -104 -14 -196l-2 -60q0 -33 -12.5 -45t-47.5 -12q-66 0 -65 29 q0 14 14 170q18 188 43 489q18 223 47 662v2q0 25 -22 24l-66 -16q-57 -14 -68 -15z" />
<glyph unicode="l" horiz-adv-x="466" d="M31 1391q231 68 280 67q43 0 43 -33q0 -6 -6 -55q-2 -16 -6 -62t-6 -75l-14 -170q-61 -760 -62 -856q0 -45 16 -45q39 0 140 178l45 -33q-2 -6 -13.5 -26.5l-19.5 -34.5q-18 -33 -86 -119q-66 -84 -127 -127q-27 -20 -55 -20q-33 0 -33 61q0 25 2 47q4 45 4 49 q18 385 33 604q4 72 10 170.5t10 157.5t7 98q8 117 8 172q0 29 -23 29q-35 0 -135 -33z" />
<glyph unicode="m" horiz-adv-x="1243" d="M20 725q70 33 170 68q98 35 121 34q35 0 35 -24q0 -41 -20 -172q-18 -123 -23 -232q25 39 27 43q23 41 61 101q47 72 88 125q49 63 94 100q52 43 86 43q43 0 43 -139l-12 -262q111 180 201 284q102 121 156 121q47 0 47 -135q0 -92 -17 -246q-18 -172 -18 -209 q0 -59 28 -59q18 0 68 74l33 59l37 -18q-51 -111 -138 -201q-89 -92 -135 -92q-39 0 -39 86q0 53 27 241.5t27 255.5v31q0 12 -2 21q-4 14 -9 16q-8 4 -14 4q-37 0 -129 -131q-94 -133 -135 -274q-12 -86 -14 -197q0 -25 -11 -33q-14 -10 -43 -10h-32q-47 0 -48 29 q0 6 25 243.5t25 309.5q0 59 -31 59q-41 0 -143.5 -170t-108.5 -233q-15 -166 -18 -197q0 -39 -50 -39h-39q-49 0 -49 29q0 12 27 292.5t27 348.5q0 49 -27 49q-9 0 -43 -12l-86 -37z" />
<glyph unicode="n" horiz-adv-x="839" d="M31 731q45 14 67 25q61 27 113 43q55 18 74 18q27 0 26 -33q0 -20 -8 -71q-4 -20 -16 -148q-8 -80 -8 -176q240 426 376 426q49 0 50 -135q0 -94 -20.5 -258t-20.5 -195q0 -63 16 -63t96 139l35 -18q-53 -113 -133 -205q-82 -94 -131 -94q-27 0 -27 47q0 53 26.5 245.5 t26.5 292.5q0 92 -32 93q-35 0 -123 -125t-131 -238q-12 -31 -19 -61q-2 -10 -8 -47q0 -6 -1 -15.5t-2 -25t-1 -27.5q-2 -43 -6 -88q-2 -39 -53 -39h-33q-16 0 -28.5 6t-10.5 25q41 440 41 645q0 45 -23 45l-94 -31z" />
<glyph unicode="o" horiz-adv-x="673" d="M41 262q0 236 164 430q111 129 223 129q76 0 127 -51q47 -47 63.5 -108.5t16.5 -120.5q0 -197 -123 -381.5t-260 -184.5q-92 0 -151.5 84t-59.5 203zM178 348q0 -123 37 -209t94 -86q70 0 131.5 143.5t61.5 290.5q0 90 -33 183q-31 86 -92 86q-63 0 -131 -127 q-68 -125 -68 -281z" />
<glyph unicode="p" horiz-adv-x="753" d="M-43 -496q127 12 133 17q10 6 14 53q68 854 78 971l6 65q2 31 7 52q2 12 2 28q0 25 -17 25q-18 0 -129 -51l-20 47q236 115 280 114q29 0 29 -24q0 -6 -6 -45q-2 -20 -7 -45t-12 -56q-14 -94 -14 -96q14 23 18 27l16 21q15 22 30 38q49 57 69 78q29 29 80 59q45 27 84 27 q127 0 127 -221q0 -154 -86 -332q-53 -111 -129 -188q-77 -80 -129 -80q-61 0 -117 57q-2 -96 -12 -205q-2 -31 -7 -89t-7 -83q-4 -43 -5 -82q0 -8 1.5 -18t1.5 -12q0 -8 10 -15q8 -6 26 -6q16 0 37 2q31 2 74 4q25 2 43 4t31 2l-2 -55l-498 -47v59zM276 305q0 -115 31 -170 t78 -55q78 0 155.5 121t77.5 260q0 78 -26 149q-27 74 -84 74q-61 0 -148 -121q-84 -117 -84 -258z" />
<glyph unicode="q" horiz-adv-x="700" d="M41 223q0 53 16 148q14 78 43 151q59 139 148 213q92 76 151 76q37 0 78 -29q33 -23 60 -57l18 -27q20 119 29 146l51 -8q-35 -195 -55 -412q-14 -123 -33 -459q-16 -285 -17 -379q0 -35 10.5 -43t49.5 -8h37q10 0 24.5 1t20.5 1v-49l-498 -41l2 68q10 2 31.5 3t32.5 1 q49 4 51 4q23 0 37 2q27 4 30.5 6t16.5 10q8 6 12 17q2 6 6 22q2 10 6 35l66 684q-2 -4 -19 -33q-12 -20 -47 -73q-39 -61 -67 -95q-29 -35 -80 -71q-45 -33 -86 -33q-55 0 -90 69.5t-35 159.5zM156 350q0 -82 18 -137q18 -53 41 -74q23 -18 45 -18q53 0 135 131 q78 121 78 278q0 94 -41 152q-39 55 -84 55q-70 0 -131 -137q-61 -135 -61 -250z" />
<glyph unicode="r" horiz-adv-x="681" d="M20 725q229 98 289 98q25 0 25 -26l-43 -338q2 6 9 19.5t11 19.5l49 86q47 80 68 106q34 46 74 86q39 39 71 39q25 0 58 -61q33 -59 33 -107q0 -51 -27 -51q-14 0 -41 25q-31 27 -51 26q-129 0 -228 -295q-12 -37 -18 -67q-4 -20 -12 -66l-5 -31.5t-3 -23.5l-7 -66 q0 -12 -1 -26.5t-2 -24.5t-1 -16q-2 -33 -43 -33h-47q-41 0 -41 27q49 537 51 653q0 45 -28 45q-20 0 -125 -45z" />
<glyph unicode="s" horiz-adv-x="645" d="M51 123q0 35 12.5 59.5t36.5 24.5q18 0 35 -22.5t31 -53.5q12 -27 43 -51q29 -23 72 -23q68 0 114 43q45 43 45 107q0 41 -28 86q-27 43 -66 78l-80 75q-41 41 -67.5 88.5t-26.5 102.5q0 88 74 133q76 47 178 47q61 0 113 -29q49 -27 49 -75q0 -14 -10.5 -30.5 t-26.5 -16.5q-39 0 -96 47q-53 45 -92 45t-60 -21q-23 -23 -22 -49q0 -35 30 -78q33 -45 72 -82l82 -82q37 -41 69 -98q31 -55 31 -106q0 -96 -92 -176t-219 -80q-147 0 -184 49q-17 16 -17 88z" />
<glyph unicode="t" horiz-adv-x="577" d="M51 739l6 64h162l29 172q2 10 49 33q49 23 65 22q18 0 19 -26q0 -12 -16 -84q-12 -57 -21 -117h180l-8 -64h-182q-35 -358 -35 -475q0 -145 45 -145q20 0 59 32.5t70 63.5l31 33l35 -33q-53 -80 -129 -137.5t-121 -71.5q-49 -16 -64 -16q-29 0 -47 24.5t-18 59.5 q0 311 49 665h-158z" />
<glyph unicode="u" horiz-adv-x="966" d="M51 723q225 100 289 100q35 0 35 -43q0 -29 -15 -102q-18 -96 -22 -135q-20 -193 -21 -289q0 -102 25 -102q33 0 107 98q78 104 139 235q66 141 65 226v45q0 61 60 61h49q14 0 22.5 -8t6.5 -23q-2 -35 -19 -170q-8 -70 -22 -233q-8 -92 -9 -184q0 -39 23 -39 q16 0 47 36.5t55 73.5l25 39l37 -26l-13 -23l-24 -41q-4 -8 -35 -51q-27 -39 -55 -70q-35 -37 -76 -75q-43 -43 -70 -43q-51 0 -51 98q0 23 14 180q14 156 17 211q-40 -92 -105 -197q-70 -119 -168 -204.5t-143 -85.5q-49 0 -49 116q0 84 23 271q25 203 24 299q0 47 -27 47 q-12 0 -24 -6l-92 -41z" />
<glyph unicode="v" horiz-adv-x="782" d="M51 727l131 55q114 49 135 49q37 0 37 -32q0 -8 -22.5 -166t-22.5 -242v-90q0 -113 10 -151q12 -47 50 -48q28 0 92 68q61 63 121 186q57 117 57 240q0 47 -26.5 88t-26.5 76q0 66 61 65q41 0 64 -37q23 -39 22 -81q0 -86 -47 -238q-45 -147 -113 -250 q-84 -127 -170 -188.5t-141 -61.5q-90 0 -90 185q0 135 35 518q2 43 -27 43q-12 0 -24 -6l-93 -39z" />
<glyph unicode="w" horiz-adv-x="1251" d="M51 698q236 125 283 125q33 0 33 -30q0 -10 -25 -242q-27 -250 -27 -272q0 -170 62 -170q33 0 86 53q55 55 112 164q82 147 113 426q2 25 14 45q8 14 41 14h41q35 0 35 -45q-4 -45 -14 -96q-14 -80 -23 -160q-10 -102 -10 -213q0 -92 10 -143q10 -47 41 -48q35 0 103 72 q63 68 125 189q57 115 57 223q0 45 -26.5 90t-26.5 76q0 18 18.5 36.5t52.5 18.5q76 0 76 -111q0 -90 -51 -235q-53 -152 -119 -252q-84 -129 -162 -184q-76 -55 -133 -55.5t-75 46.5q-18 45 -19 127l14 236q-74 -170 -155 -272q-45 -57 -111 -97q-70 -41 -106 -41 q-104 0 -105 174q0 104 20.5 286.5t20.5 232.5q0 45 -28 45q-10 0 -125 -52z" />
<glyph unicode="x" horiz-adv-x="841" d="M20 45q0 16 16.5 36.5t33.5 20.5q14 0 26.5 -18t30.5 -18q39 0 84 40.5t68 75.5q98 145 98 283q0 238 -53 237q-33 0 -66 -38q-29 -35 -45 -74l-16 -39l-41 22q31 82 92 158q74 88 149 88q80 0 92 -194v-27q15 25 43 61q25 33 95 97q68 61 116 61q39 0 54 -18 q16 -20 16 -39q0 -25 -18.5 -43.5t-36.5 -18.5q-12 0 -25 19q-14 20 -28 20q-43 0 -136 -116q-96 -125 -96 -248q0 -96 43 -170t78 -74q61 0 137 172l49 -14l-12 -29q-2 -8 -8 -18.5t-6 -12.5q-2 -6 -13 -26q-8 -16 -16 -29q-6 -8 -18 -27q-16 -25 -25 -34l-29 -35 q-12 -14 -41 -43q-47 -49 -77 -49q-51 0 -89 67q-41 74 -51 135l-10 70l-14 -29q-8 -16 -41 -65q-35 -53 -60 -82q-25 -31 -77 -66q-45 -31 -91 -30q-82 0 -82 61z" />
<glyph unicode="y" horiz-adv-x="786" d="M-4 -485q4 0 15.5 3t17.5 5q20 4 28 6q12 4 22.5 8t29.5 19q10 8 36 34l56 56q72 78 141.5 192.5t69.5 157.5q0 46 -50 227q-51 190 -96 314q-53 141 -76 141q-9 0 -18 -6q-8 -6 -20 -21q-4 -6 -11.5 -16t-9.5 -12l-8 -15.5t-17 -25.5l-28 -43l-47 28q0 2 12 21 q23 37 27 43l19 26.5t20 26.5q25 35 43 53q80 84 120 84q53 0 113 -194q4 -12 119 -459q106 256 106 526q0 68 -45 80l2 35q45 4 72 4h12q51 0 68 -8q18 -10 18 -45q0 -76 -94 -375q-90 -287 -188 -485q-102 -211 -236 -400q-25 -33 -55 -32h-168v47z" />
<glyph unicode="z" horiz-adv-x="919" d="M20 -53q0 41 25 88q20 39 49 71q33 37 84 87l78 75l393 400q-89 6 -203 24q-100 16 -131 17q-53 0 -88 -13q-33 -12 -43 -22q-8 -8 -8 -17q0 -14 27 -34q29 -23 28 -39q0 -43 -49 -43q-23 0 -45 24q-20 23 -20 64q0 84 76 139q78 55 180 55q76 0 186.5 -18.5t177.5 -18.5 q39 0 39 31q0 3 -6 19t-6 26q0 20 14.5 34.5t38.5 14.5q16 0 41 -20q23 -18 23 -51t-78 -111l-588 -584q43 20 147 21q55 0 158 -28.5t139 -28.5q57 0 86 45t29 71q0 41 -33 74l31 29l21 -11q12 -6 32 -41q18 -31 19 -73q0 -82 -58 -154q-57 -74 -157 -74q-66 0 -180 41 q-121 43 -187 43q-80 0 -125 -22q-43 -20 -43 -53l4 -23q4 -29 4 -37q0 -39 -34 -39q-48 1 -48 62z" />
<glyph unicode="{" horiz-adv-x="573" d="M35 471v39l26 4q20 2 27 6q2 0 9 2l14 4q20 6 24 11l19 18q16 16 18 23q4 20 12 34q9 18 13 43q4 33 6 53.5t2 71.5q0 61 -2 117q-4 111 -4 133q0 184 82 299q84 117 260 117v-60q-68 0 -115 -28q-45 -27 -64 -82q-23 -66 -26 -107q-6 -51 -6 -127q0 -59 6 -155 q4 -63 4 -139q0 -205 -137 -256q135 -53 135 -259q0 -10 -4 -137t-4 -155q0 -45 4 -103q4 -59 12 -94q12 -55 33 -84q20 -31 63 -53q39 -20 99 -21v-59q-342 0 -342 424q0 20 4 131t4 119q0 41 -4 98q-2 39 -17 70q-4 10 -8 17t-6 12t-6 14q-10 20 -29 30q-16 10 -31 15 l-36 8q-8 2 -16.5 3t-12.5 2t-6 1z" />
<glyph unicode="|" horiz-adv-x="448" d="M180 -473v1919h90v-1919h-90z" />
<glyph unicode="}" horiz-adv-x="573" d="M35 -414q59 0 98 20.5t61.5 53.5t34.5 84q14 59 17 92q2 29 2 105q0 92 -4 155q-6 96 -6 137q0 207 137 259q-137 51 -137 256q0 12 4 139t4 155q0 76 -6 127q-4 41 -27 107q-18 55 -63 82q-47 29 -115 28v60q178 0 262 -117q82 -115 82 -299q0 -23 -4 -133.5t-4 -116.5 q0 -53 2 -75q2 -33 10 -62q8 -33 10 -45q3 -18 19 -31q8 -6 18 -22q6 -8 27 -15q23 -6 24.5 -8t30.5 -8q18 -4 29 -4v-39q-2 0 -6.5 -1t-12.5 -2t-16 -3l-37 -8l-29 -15q-25 -14 -30 -30q-4 -6 -8.5 -17.5t-10.5 -25.5q-14 -31 -16 -70q-4 -57 -4 -98q0 -8 4 -119t4 -131 q0 -424 -344 -424v59z" />
<glyph unicode="~" horiz-adv-x="2037" d="M123 457q4 18 10 51q6 31 43 110q37 82 84 140q53 66 137 112q90 49 199 50q125 0 260 -58q137 -57 238 -125q104 -70 225 -127t221 -57t176 90q82 96 107 182l28 93l66 -13q0 -6 -8 -33q-14 -49 -23 -67l-37 -90q-20 -51 -57 -97q-35 -43 -84 -86q-45 -39 -112.5 -63.5 t-145.5 -24.5q-127 0 -268 56q-135 53 -241.5 120.5t-227.5 120.5q-127 55 -230 56q-180 0 -266 -242q-18 -51 -29 -113z" />
<glyph unicode="&#xa1;" horiz-adv-x="581" d="M203 4q0 16 10 82q8 59 41 276l70 486q2 6 3 19.5t1 19.5t1 12t2 11t1 8q4 12 6 20q4 14 6 16q8 4 16 4q33 0 33 -57q0 -2 -1 -19.5t-3 -55.5t-4 -81q-6 -141 -12 -342q-8 -262 -8 -331q0 -4 -1.5 -8.5t-1.5 -6.5q0 -4 -4 -12q-2 -4 -6 -8q-6 -6 -10 -8q-2 0 -5 -4.5 t-5 -4.5l-17 -8q-4 -2 -9 -4t-7 -2t-9 -2l-13.5 -4t-12.5 -5l-10 -5q-18 -8 -31 -8q-20 -1 -20 22zM291 1206q0 18 32.5 57.5t61.5 39.5q23 0 49 -39q29 -41 29 -60q0 -29 -35 -63q-33 -33 -55 -33q-25 0 -54 37q-28 38 -28 61z" />
<glyph unicode="&#xa2;" horiz-adv-x="872" d="M49 449q0 178 112.5 311t315.5 133l148 592l82 -10l-170 -588q109 -18 182.5 -80t73.5 -143q0 -49 -35 -89q-34 -37 -86 -36q-43 0 -76 28.5t-33 67.5t39 76q41 37 41 49q0 23 -37 45q-37 20 -84 24l-196 -723q68 -61 166 -61q168 0 286 166l2 2l45 -43l-2 -3 q-2 -3 -6 -7t-8 -10q-6 -6 -17.5 -18.5t-17.5 -18.5q-14 -16 -53 -45q-23 -16 -68 -45q-35 -23 -84 -35.5t-100 -12.5q-88 0 -168 37l-106 -426l-72 19l127 436q-201 127 -201 408zM213 436q0 -175 68 -276l178 663q-117 -23 -180 -129q-66 -108 -66 -258z" />
<glyph unicode="&#xa3;" horiz-adv-x="888" d="M35 47q0 47 35 80q39 35 102 66q53 25 74 38q43 47 43 211v9q0 4 -1 6t-2 6t-1 10q-2 10 -2 29h-228v80h219q-18 188 -18 225q0 264 106 407q102 139 271 140q90 0 155 -54q68 -55 68 -133q0 -41 -25 -69q-25 -27 -53 -27q-68 0 -86 100q-10 47 -14 58q-6 16 -29 37 q-25 20 -63 20q-63 0 -111 -53q-51 -57 -51 -172q0 -2 1 -17.5t1 -42v-57.5v-209q0 -68 -10 -153h243v-80h-256q-15 -71 -36.5 -135.5t-36.5 -92.5l-17 -28q9 6 25 6q57 0 113 -33q52 -31 86 -67q39 -43 71 -68q43 -33 76 -33t53.5 26.5t20.5 63.5q0 33 -41 78t-41 76 q0 29 18 53q16 23 45 23q47 0 78 -54q33 -55 33 -116q0 -94 -68 -162q-70 -70 -176 -70q-41 0 -65 8q-31 10 -52 29q-37 33 -38 35l-37 47l-35 49q-51 63 -82 64q-23 0 -41 -35q-23 -43 -35 -80q-14 -41 -45 -78q-29 -35 -72 -35q-33 0 -51 21q-18 22 -18 53z" />
<glyph unicode="&#xa4;" horiz-adv-x="1064" d="M35 90q0 25 37 62l139 141q-80 104 -80 244q0 133 78 239l-137 142q-37 37 -37 61.5t16 40.5q14 14 37 14q27 0 64 -37l141 -141q108 80 239 80q135 0 242 -80l141 141q35 35 62 35q25 0 41 -16q14 -14 14 -37q0 -25 -37 -61l-141 -144q84 -115 84 -242q0 -125 -84 -237 l141 -143q37 -37 37 -61.5t-18 -39.5q-20 -16 -37 -16q-25 0 -62 37l-141 141q-106 -80 -242 -80q-133 0 -239 78l-141 -139q-35 -35 -64 -35q-23 0 -39 16q-14 14 -14 37zM248 532q0 -119 84 -202.5t200 -83.5q115 0 201 86t86 203q0 119 -86 204q-88 88 -201 88 q-119 0 -202 -88q-82 -84 -82 -207z" />
<glyph unicode="&#xa5;" horiz-adv-x="1306" d="M55 1284l2 82h459v-82h-51q-96 0 -96 -27q0 -12 69 -122l260 -410l359 508q12 22 12 24q0 27 -133 27h-33l-2 82h373v-82h-10q-47 0 -72 -14q-23 -12 -66 -72l-274 -395h219l-24 -98h-277l-43 -70v-133h344l-24 -99h-320v-229q0 -65 18 -80q16 -14 101 -14h94l-2 -80 h-576l3 80h81q78 0 96.5 12t18.5 78v233h-323l24 99h299v149l-31 54h-292l24 98h193l-230 356q-61 95 -80 111q-16 14 -90 14z" />
<glyph unicode="&#xa6;" horiz-adv-x="448" d="M180 295h90v-768h-90v768zM180 678v768h90v-768h-90z" />
<glyph unicode="&#xa7;" horiz-adv-x="917" d="M111 604q0 119 59 174.5t137 55.5q2 0 6 -1.5t9 -1.5h12q0 4 -17 21q-23 23 -41 49q-8 10 -45 72q-23 37 -38 94q-16 59 -17 107q0 131 78 198q74 66 184 66q120 0 191 -62q70 -61 69 -139q0 -115 -102 -115q-47 0 -88 27q-43 28 -43 61q0 18 24 58q23 37 23 55 q0 20 -16 33q-18 14 -43 14q-174 0 -174 -164q0 -63 55 -131q68 -82 133 -135q68 -53 156 -139q72 -70 131 -174q55 -98 55 -209q0 -135 -51 -186.5t-125 -51.5q-12 0 -70 10q201 -188 201 -368q0 -123 -82 -187q-84 -66 -197 -65q-119 0 -204 68q-88 70 -88 180 q0 66 34 110q33 41 86 41q25 0 70 -32.5t45 -67.5q0 -23 -41 -74q-39 -47 -39 -74q0 -33 33 -61q29 -27 108 -27q61 0 117 43t56 109q0 76 -50 139q-51 68 -163 162q-119 98 -160 143q-178 185 -178 375zM203 682q0 -72 82 -188q78 -113 180 -195q98 -80 153 -80q47 0 78 25 q33 27 33 69q0 72 -86 193q-88 123 -176 205q-92 86 -123 86q-63 0 -102 -33t-39 -82z" />
<glyph unicode="&#xa8;" horiz-adv-x="796" d="M215 1137q0 14 29 47q27 31 59 30q20 0 43 -28q20 -27 21 -60q0 -27 -33 -57q-31 -29 -49 -29q-27 0 -47 33q-23 35 -23 64zM436 1137q0 14 29 47q27 31 57 30q20 0 43 -28q20 -27 21 -60q0 -27 -33 -57q-31 -29 -49 -29q-27 0 -47.5 33t-20.5 64z" />
<glyph unicode="&#xa9;" horiz-adv-x="1652" d="M90 485q0 305 215 525q215 217 533 217q309 0 518 -217q209 -219 209 -524.5t-207 -528.5q-205 -219 -522 -219q-328 0 -537 213q-209 211 -209 534zM180 485q0 -283 186.5 -475t471.5 -192q262 0 450 194q186 193 187 477q0 268 -181 461q-182 195 -458 195 q-274 0 -465 -195q-191 -193 -191 -465zM334 463q0 158 82 274q82 115 190 164q111 49 228 49q80 0 147 -12q74 -12 102 -27q8 -4 31 -13t35 -15l31 -15v-143q0 -33 -6 -33q-4 0 -29 27l-58 59q-31 31 -100 60q-66 27 -149 26q-162 0 -264.5 -114.5t-102.5 -266.5 q0 -162 115 -288q113 -125 284 -125q63 0 129 20q57 18 93 47q37 31 59 56q14 16 35 47q14 20 16 20q4 0 4 -35v-112q-6 -6 -43 -35q-27 -20 -125 -55t-202 -35q-231 0 -366.5 139t-135.5 336z" />
<glyph unicode="&#xaa;" horiz-adv-x="731" d="M90 997q0 100 21 160q23 68 82 158q29 45 94 110.5t102 65.5q25 0 47.5 -24.5t28.5 -51.5l6 -24l16 92q4 29 39 28h17q14 0 22 -4q6 -4 6 -16q0 -8 -14 -94q-4 -18 -29 -203q-14 -102 -14 -160q0 -80 21 -80q6 0 8 2l4 3q4 3 6 5.5t4 6.5t4 6q8 8 14 16l19 19l31 -25 q-23 -35 -33 -47q-25 -31 -72 -76q-51 -47 -78 -47q-37 0 -36 119q0 35 8 143q-63 -117 -109 -172q-31 -37 -71.5 -63.5t-63.5 -26.5q-80 0 -80 180zM174 1051q0 -51 19 -84q18 -35 40 -35q45 0 132 151q86 151 86 228q0 37 -37 71q-39 35 -64 35q-47 0 -112 -123 q-64 -120 -64 -243z" />
<glyph unicode="&#xab;" horiz-adv-x="776" d="M82 442l311 273l33 -37l-190 -236l190 -233l-33 -39zM352 442l312 273l32 -37l-190 -236l190 -233l-32 -39z" />
<glyph unicode="&#xac;" horiz-adv-x="1472" d="M164 422v119h1147v-609h-121v490h-1026z" />
<glyph unicode="&#xad;" horiz-adv-x="643" d="M70 494v122l505 150v-125z" />
<glyph unicode="&#xae;" horiz-adv-x="1024" d="M90 1118q0 180 123 305q123 127 299 127q178 0 301 -127q123 -125 123 -305q0 -184 -115 -305q-117 -123 -309 -123q-176 0 -299 125q-123 127 -123 303zM154 1116q0 -154 106 -258q108 -104 258 -104q158 0 256 104.5t98 257.5q0 156 -104 266.5t-250 110.5 q-151 0 -258 -111q-106 -108 -106 -266zM297 1348l2 49h168q111 0 158 -37q55 -43 55 -113q0 -88 -98 -121l133 -176q12 -16 24 -16h21l2 -49h-103l-157 225h-13h-36h-10.5t-7.5 1l-3 1v-170q0 -8 2 -8h19h39l-3 -49h-186v49h21q29 0 28 6v391q0 16 -26 17h-29zM432 1155 q6 -2 37 -2q72 0 94 21q25 23 25 63q0 49 -37 80t-107 31q-6 0 -10 -5q-2 -2 -2 -20v-168z" />
<glyph unicode="&#xaf;" horiz-adv-x="796" d="M225 1069v96h353v-96h-353z" />
<glyph unicode="&#xb0;" horiz-adv-x="673" d="M90 1245.5q0 102.5 74 175.5q72 72 174 72t174 -72q74 -74 74 -176t-74 -176q-72 -72 -174 -72t-174 72q-74 74 -74 176.5zM164 1245.5q0 -71.5 51 -123.5q53 -53 123 -53q72 0 125 53q51 51 51 123t-51 123t-125 51q-72 0 -123 -51t-51 -122.5z" />
<glyph unicode="&#xb1;" horiz-adv-x="1482" d="M164 -47v121h1157v-121h-1157zM164 592v119l528 -9q-10 92 -10 447h121q0 -193 -2 -266l-4 -146l-4 -35q90 8 528 9v-119l-528 8q10 -88 10 -446h-121q0 201 2 274q3 111 6 141l2 31q-73 -8 -528 -8z" />
<glyph unicode="&#xb2;" horiz-adv-x="788" d="M72 512q0 2 69 72l150 151q86 88 151 203q68 117 68 209q0 49 -18 84q-20 37 -43 49q-33 18 -50 23q-25 6 -45 6q-57 0 -88 -11q-37 -12 -51 -26l-27 -27q-10 -10 -22 -10q-14 0 -14 18q2 47 79 97q76 47 181 47q121 0 186 -66q68 -68 68 -170q0 -92 -68 -200 q-61 -98 -154 -181l-58.5 -52l-43.5 -39.5t-49 -41.5q-70 -57 -70 -63t27 -6q123 0 221 18q125 23 152 33q52 18 55 18q10 0 10 -16q0 -8 -16 -64q-14 -51 -27 -59q-8 -8 -67 -8h-474q-32 0 -32 12z" />
<glyph unicode="&#xb3;" horiz-adv-x="802" d="M92 575q0 25 27 25l61 -27q61 -25 146 -24q121 0 176 67q53 66 53 144q0 65 -49 123q-47 55 -129 71q-4 2 -16.5 3t-18.5 1q-27 4 -31 7q-6 3 -6 12v10q0 2 6 8l4 2q4 2 4 4l9 5q8 4 12 4q2 0 5 1t7 1q12 0 17 2q82 18 112.5 71.5t30.5 102.5q0 46 -37 86q-37 39 -96 39 q-74 0 -121 -33q-51 -35 -55 -35q-16 0 -17 23q4 20 27 47q27 31 86 57q63 29 137 29q96 0 162 -45q68 -45 68 -125q0 -141 -185 -217l-51 -19q8 -2 28.5 -6t65.5 -18q41 -14 82 -41q37 -25 66 -68q31 -47 30 -100q0 -137 -108 -211q-106 -74 -254 -74q-95 0 -172 31 q-76 30 -76 67z" />
<glyph unicode="&#xb4;" horiz-adv-x="796" d="M348 958l105 291h129l-176 -291h-58z" />
<glyph unicode="&#xb5;" horiz-adv-x="1058" d="M35 -307q0 86 18 176q18 86 56 217q29 100 53 203q41 180 74 342q18 98 26 119q8 25 23 24q18 0 51 -12q35 -12 35 -35q0 -27 -45 -278q-47 -264 -47 -293q0 -66 36 -66q61 0 152 103q92 106 160 219q63 106 121 239l22 51q2 8 7 19.5t7 15.5q2 8 7 21q0 4 8 10q4 4 6 4 l5 1q5 1 9 1q33 0 58 -10q31 -12 30 -27l-6 -26q-6 -27 -23.5 -98.5l-35.5 -145.5q-63 -262 -64 -320q0 -23 14.5 -35t34.5 -12q33 0 58 33q29 39 43 66q18 33 33 32q25 0 24 -32q0 -68 -84 -156q-83 -86 -190 -86q-82 0 -82 135q0 55 20.5 164t20.5 115q0 8 -4 8 q-2 0 -23 -33q-6 -8 -14 -22.5t-23.5 -37l-27.5 -40.5q-47 -72 -107 -137q-133 -145 -240 -146q-29 0 -47 21q-14 16 -22 45q-6 23 -8 22.5t-13 -41.5q-12 -49 -16 -94q-8 -74 -8 -90q0 -41 24 -102q23 -55 23 -68q0 -14 -17 -41q-14 -23 -53 -23q-59 1 -59 101z" />
<glyph unicode="&#xb6;" horiz-adv-x="1433" d="M90 698q0 324 219 523q223 201 535 200q88 0 149.5 -18.5t83.5 -40.5q20 -20 21 -39q0 -16 -11 -27q-12 -12 -26 -12q-8 0 -78 37q-68 35 -158 35q-45 0 -71 -4q-40 -6 -43 -6v-1375q47 -10 145 -20q102 -10 176 -19q53 -6 160 -30q76 -18 123 -62q45 -43 45 -106 q0 -53 -23 -86q-27 -39 -63 -39q-55 0 -55 53q0 6 8 27q6 15 6 24q0 55 -131 92q-156 43 -326 76q-201 39 -278 76q-205 94 -305 287q-103 194 -103 454zM430 88q80 -68 205 -100v1337q-125 -31 -205 -100v-1137z" />
<glyph unicode="&#xb7;" horiz-adv-x="409" d="M131 692q0 18 27 47q27 31 59 31q25 0 45.5 -28.5t20.5 -59.5q0 -29 -33 -55q-35 -29 -49 -29q-25 0 -47 31q-23 32 -23 63z" />
<glyph unicode="&#xb8;" horiz-adv-x="796" d="M307 -424l43 49q53 -20 92 -20q41 0 70 30q29 33 29 80q0 90 -133 90q-29 0 -39 -2l-21 35l66 176h43l-51 -149q2 0 7 1t9 1h16q82 0 146 -35q61 -33 61 -108q0 -83 -67 -130q-66 -45 -150 -45q-39 0 -70 7q-20 4 -41 14z" />
<glyph unicode="&#xb9;" horiz-adv-x="651" d="M102 500l2 59h33h31h25q4 0 11 1t9 1t6 1t8 1q8 0 13 4l8 8q2 2 6 11q0 2 2 6t2 6q2 4 2 18q45 580 45 652q0 49 -20 49q-12 0 -72 -21q-55 -18 -78 -30l2 51l205 72l92 32q12 0 12 -14q0 -6 -6 -57q-12 -102 -14 -131q-2 -16 -5 -61.5t-5 -63.5q-35 -471 -35 -488 q0 -35 22 -41t105 -6h43l-2 -59h-447z" />
<glyph unicode="&#xba;" horiz-adv-x="653" d="M90 1047q0 201 131 344q89 104 178 104q90 0 127 -70q39 -74 39 -155q0 -158 -98 -305.5t-209 -147.5q-77 0 -123 68q-45 66 -45 162zM201 1116q0 -92 28 -166q27 -70 76 -69q55 0 104.5 114.5t49.5 231.5q0 76 -24.5 145.5t-76.5 69.5q-53 0 -104 -101 q-53 -102 -53 -225z" />
<glyph unicode="&#xbb;" horiz-adv-x="776" d="M82 209l190 233l-190 236l33 37l311 -273l-311 -272zM352 209l191 233l-191 236l33 37l311 -273l-311 -272z" />
<glyph unicode="&#xbc;" horiz-adv-x="1804" d="M102 500l2 59h33h31h25q4 0 11 1t9 1t6 1t8 1q8 0 13 4l8 8q2 2 6 11q0 2 2 6t2 6q2 4 2 18q45 580 45 652q0 49 -20 49q-12 0 -72 -21q-55 -18 -78 -30l2 51l205 72l92 32q12 0 12 -14q0 -6 -6 -57q-12 -102 -14 -131q-2 -16 -5 -61.5t-5 -63.5q-35 -471 -35 -488 q0 -35 22 -41t105 -6h43l-2 -59h-447zM365 -76l1058 1510h105l-1059 -1510h-104zM1010 256q0 18 34 55l185 201l336 383q12 14 24 14q10 0 6 -35l-34 -514h153l-39 -114h-123l-18 -266h-121l19 266h-404q-18 0 -18 10zM1167 360h273l24 338z" />
<glyph unicode="&#xbd;" horiz-adv-x="1900" d="M102 500l2 59h33h31h25q4 0 11 1t9 1t6 1t8 1q8 0 13 4l8 8q2 2 6 11q0 2 2 6t2 6q2 4 2 18q45 580 45 652q0 49 -20 49q-12 0 -72 -21q-55 -18 -78 -30l2 51l205 72l92 32q12 0 12 -14q0 -6 -6 -57q-12 -102 -14 -131q-2 -16 -5 -61.5t-5 -63.5q-35 -471 -35 -488 q0 -35 22 -41t105 -6h43l-2 -59h-447zM365 -76l1058 1510h105l-1059 -1510h-104zM1184 12q0 4 69 74l150 152q88 92 151 200q68 117 68 209q0 49 -18 84q-20 39 -43 51q-27 14 -50 21q-25 6 -45 6q-51 0 -88 -12q-39 -14 -51 -25q-8 -8 -14 -13l-13 -11q-12 -12 -22 -13 q-14 0 -14 19q2 51 79 98q72 45 181 45q121 0 186 -66q68 -68 68 -169q0 -90 -70 -201q-68 -109 -152 -182l-151 -132q-70 -57 -70 -63t27 -6q123 0 221 18q125 23 152 33q52 18 55 18q10 0 10 -16q0 -10 -16 -65q-14 -49 -27 -58q-8 -8 -67 -8h-473q-33 0 -33 12z" />
<glyph unicode="&#xbe;" horiz-adv-x="1873" d="M92 575q0 25 27 25l61 -27q61 -25 146 -24q121 0 176 67q53 66 53 144q0 65 -49 123q-47 55 -129 71q-4 2 -16.5 3t-18.5 1q-27 4 -31 7q-6 3 -6 12v10q0 2 6 8l4 2q4 2 4 4l9 5q8 4 12 4q2 0 5 1t7 1q12 0 17 2q82 18 112.5 71.5t30.5 102.5q0 46 -37 86q-37 39 -96 39 q-74 0 -121 -33q-51 -35 -55 -35q-16 0 -17 23q4 20 27 47q27 31 86 57q63 29 137 29q96 0 162 -45q68 -45 68 -125q0 -141 -185 -217l-51 -19q8 -2 28.5 -6t65.5 -18q41 -14 82 -41q37 -25 66 -68q31 -47 30 -100q0 -137 -108 -211q-106 -74 -254 -74q-95 0 -172 31 q-76 30 -76 67zM434 -76l1059 1510h104l-1058 -1510h-105zM1079 256q0 18 35 55l186 201l334 383q12 14 25 14q10 0 6 -35l-35 -514h154l-39 -114h-123l-18 -266h-121l18 266h-403q-19 0 -19 10zM1237 360h272l25 338z" />
<glyph unicode="&#xbf;" horiz-adv-x="743" d="M74 350q0 41 59 117q45 57 131 139q84 80 131 148q59 84 60 141q0 47 -23 88q-6 12 -16 29q-6 10 -6 12q0 25 24 25q16 0 45 -25q31 -27 53 -78q27 -59 27 -127q0 -66 -55 -149q-49 -74 -121 -146q-68 -68 -121 -147q-55 -83 -55 -154q0 -53 37 -83.5t84 -30.5 q6 0 77.5 10t98 10t26.5 -25q0 -35 -43 -77q-45 -45 -102 -45q-88 0 -199 114q-112 117 -112 254zM352 1270q0 18 35 57t62 39q23 0 49 -39q29 -41 28 -59q0 -27 -34.5 -62t-55.5 -35q-25 0 -55 37q-29 35 -29 62z" />
<glyph unicode="&#xc0;" horiz-adv-x="1339" d="M41 0v66h33q45 0 69 18q18 14 56 90l575 1225h37l289 -1163q31 -121 49 -145.5t72 -24.5h59v-66h-477v66h59q59 0 82 6t23 32q0 14 -6 39l-91 383h-407l-160 -346q-29 -68 -29 -80q0 -23 25 -28.5t104 -5.5h39l-4 -66h-397zM496 606h356l-129 516zM586 1782h143l107 -291 h-74z" />
<glyph unicode="&#xc1;" horiz-adv-x="1339" d="M41 0v66h33q45 0 69 18q18 14 56 90l575 1225h37l289 -1163q31 -121 49 -145.5t72 -24.5h59v-66h-477v66h59q59 0 82 6t23 32q0 14 -6 39l-91 383h-407l-160 -346q-29 -68 -29 -80q0 -23 25 -28.5t104 -5.5h39l-4 -66h-397zM496 606h356l-129 516zM743 1491l107 291h143 l-176 -291h-74z" />
<glyph unicode="&#xc2;" horiz-adv-x="1339" d="M41 0v66h33q45 0 69 18q18 14 56 90l575 1225h37l289 -1163q31 -121 49 -145.5t72 -24.5h59v-66h-477v66h59q59 0 82 6t23 32q0 14 -6 39l-91 383h-407l-160 -346q-29 -68 -29 -80q0 -23 25 -28.5t104 -5.5h39l-4 -66h-397zM496 606h356l-129 516zM582 1530 q57 80 163 244h121q70 -111 164 -244h-119l-17 20.5l-20 22.5l-45 53q-10 12 -26.5 29.5t-18.5 21.5l-125 -147h-77z" />
<glyph unicode="&#xc3;" horiz-adv-x="1339" d="M41 0v66h33q45 0 69 18q18 14 56 90l575 1225h37l289 -1163q31 -121 49 -145.5t72 -24.5h59v-66h-477v66h59q59 0 82 6t23 32q0 14 -6 39l-91 383h-407l-160 -346q-29 -68 -29 -80q0 -23 25 -28.5t104 -5.5h39l-4 -66h-397zM496 606h356l-129 516zM547 1544q4 12 6 22.5 t16 53.5q12 35 29 66q12 23 43 49q27 25 61 24q43 0 89 -24l61 -33q39 -20 69.5 -20.5t55.5 24.5q27 27 35 45l8 23l29 -9q-6 -27 -8.5 -37t-26.5 -61q-20 -43 -49 -68q-33 -27 -72 -26q-34 0 -74 18l-63 31q-39 20 -86 20q-31 0 -55.5 -26.5t-30.5 -52.5l-9 -27z" />
<glyph unicode="&#xc4;" horiz-adv-x="1339" d="M41 0v66h33q45 0 69 18q18 14 56 90l575 1225h37l289 -1163q31 -121 49 -145.5t72 -24.5h59v-66h-477v66h59q59 0 82 6t23 32q0 14 -6 39l-91 383h-407l-160 -346q-29 -68 -29 -80q0 -23 25 -28.5t104 -5.5h39l-4 -66h-397zM496 606h356l-129 516zM555 1663q0 20 37 53 q35 33 53 33q25 0 55 -37q29 -35 29 -55q0 -25 -35 -55q-34 -31 -55 -31q-18 0 -51 32.5t-33 59.5zM856 1663q0 20 37 53q35 33 51 33q25 0 55.5 -37t30.5 -55q0 -25 -35 -55q-34 -31 -55 -31q-18 0 -51 32.5t-33 59.5z" />
<glyph unicode="&#xc5;" horiz-adv-x="1339" d="M41 0v66h33q45 0 69 18q18 14 56 90l575 1225h37l289 -1163q31 -121 49 -145.5t72 -24.5h59v-66h-477v66h59q59 0 82 6t23 32q0 14 -6 39l-91 383h-407l-160 -346q-29 -68 -29 -80q0 -23 25 -28.5t104 -5.5h39l-4 -66h-397zM496 606h356l-129 516zM627 1622q0 61 51 115 q53 57 115 57q68 0 116.5 -49t48.5 -115q0 -65 -49 -110q-51 -47 -110 -47q-66 0 -119 43t-53 106zM696 1624q0 -43 29 -68q25 -23 72 -22q90 0 90 96q0 53 -29 76t-65 23q-53 0 -74 -35q-23 -39 -23 -70z" />
<glyph unicode="&#xc6;" horiz-adv-x="1968" d="M20 0v66h33q37 0 68 24q23 18 78 84l893 1079q16 23 16 31q0 16 -45 16h-113v66h918v-248l-45 -2l-2 107q-2 51 -58 59q-61 10 -364 16q-20 0 -46 1t-32 1q-34 0 -43 -6q-10 -6 -12 -22l-41 -457h368q43 0 54 8q14 10 16 45l10 101l45 -2l-32 -420l-50 2l11 139 q0 28 -13 37q-14 10 -51 10h-366l-48 -545q0 -14 -1 -29.5t-2 -23.5t-1 -10q0 -23 9 -29q6 -4 40 -4h31q227 0 291 2q113 4 152 10q57 10 65 19q9 9 19 31q10 29 40 155l52 -10l-70 -301h-911l4 66h47q53 0 70 10q14 8 18 51l37 399h-469l-271 -346q-49 -66 -49 -80 q0 -23 27 -28q25 -6 102 -6h39l-4 -66h-414zM659 606h406l53 570z" />
<glyph unicode="&#xc7;" horiz-adv-x="1400" d="M92 588q0 150 45 286q45 139 133 259q86 117 231.5 190.5t321.5 73.5q180 0 307 -64q129 -63 130 -151q0 -33 -21 -82q-23 -53 -55 -53q-12 0 -20.5 6t-14.5 20q-10 25 -10 27t-3 16t-6 23q-8 33 -12 45q-14 49 -94 98t-203 49q-221 0 -393 -188.5t-172 -489.5 q0 -268 137 -436t340 -168q141 0 271 80q68 45 90 70q16 18 59 114h45q-16 -90 -37 -182q-2 -14 -18 -31q-14 -14 -58 -37q-143 -82 -352 -86l-39 -112q2 0 7.5 1t9.5 1h16q84 0 147 -35q59 -33 60 -108q0 -84 -65.5 -129.5t-151.5 -45.5q-41 0 -72 7q-29 6 -41 14l-8 6 l43 49q53 -20 92 -20q43 0 70 30q29 33 28 80q0 90 -133 90q-29 0 -39 -2l-20 35l51 139q-158 6 -272 58q-117 51 -187 137q-68 82 -102.5 190.5t-34.5 225.5z" />
<glyph unicode="&#xc8;" horiz-adv-x="1118" d="M33 0l4 66h47q51 0 67.5 10t20.5 51q66 750 102 1108q2 18 2 32.5t-8 22.5t-16 8q-2 0 -15.5 1t-23.5 1h-113v66h918v-248l-45 -2l-2 107q-2 51 -58 59q-61 10 -364 16q-20 0 -46 1t-32 1q-34 0 -43 -6q-10 -6 -12 -22l-41 -457h368q43 0 54 8q14 10 16 45l10 101l45 -2 l-32 -420l-50 2l11 139q0 28 -13 37q-14 10 -51 10h-366l-48 -545q0 -14 -1 -29.5t-2 -23.5t-1 -10q0 -23 9 -29q6 -4 41 -4h30q227 0 291 2q113 4 152 10q57 10 65 19q9 9 19 31q10 29 41 155l51 -10l-70 -301h-911zM422 1780h143l107 -291h-74z" />
<glyph unicode="&#xc9;" horiz-adv-x="1118" d="M33 0l4 66h47q51 0 67.5 10t20.5 51q66 750 102 1108q2 18 2 32.5t-8 22.5t-16 8q-2 0 -15.5 1t-23.5 1h-113v66h918v-248l-45 -2l-2 107q-2 51 -58 59q-61 10 -364 16q-20 0 -46 1t-32 1q-34 0 -43 -6q-10 -6 -12 -22l-41 -457h368q43 0 54 8q14 10 16 45l10 101l45 -2 l-32 -420l-50 2l11 139q0 28 -13 37q-14 10 -51 10h-366l-48 -545q0 -14 -1 -29.5t-2 -23.5t-1 -10q0 -23 9 -29q6 -4 41 -4h30q227 0 291 2q113 4 152 10q57 10 65 19q9 9 19 31q10 29 41 155l51 -10l-70 -301h-911zM580 1489l106 291h143l-176 -291h-73z" />
<glyph unicode="&#xca;" horiz-adv-x="1118" d="M33 0l4 66h47q51 0 67.5 10t20.5 51q66 750 102 1108q2 18 2 32.5t-8 22.5t-16 8q-2 0 -15.5 1t-23.5 1h-113v66h918v-248l-45 -2l-2 107q-2 51 -58 59q-61 10 -364 16q-20 0 -46 1t-32 1q-34 0 -43 -6q-10 -6 -12 -22l-41 -457h368q43 0 54 8q14 10 16 45l10 101l45 -2 l-32 -420l-50 2l11 139q0 28 -13 37q-14 10 -51 10h-366l-48 -545q0 -14 -1 -29.5t-2 -23.5t-1 -10q0 -23 9 -29q6 -4 41 -4h30q227 0 291 2q113 4 152 10q57 10 65 19q9 9 19 31q10 29 41 155l51 -10l-70 -301h-911zM418 1528q57 80 164 244h120q70 -111 164 -244h-118 q-8 10 -17.5 20.5l-19.5 22.5q-37 41 -47 53l-43 51l-125 -147h-78z" />
<glyph unicode="&#xcb;" horiz-adv-x="1118" d="M33 0l4 66h47q51 0 67.5 10t20.5 51q66 750 102 1108q2 18 2 32.5t-8 22.5t-16 8q-2 0 -15.5 1t-23.5 1h-113v66h918v-248l-45 -2l-2 107q-2 51 -58 59q-61 10 -364 16q-20 0 -46 1t-32 1q-34 0 -43 -6q-10 -6 -12 -22l-41 -457h368q43 0 54 8q14 10 16 45l10 101l45 -2 l-32 -420l-50 2l11 139q0 28 -13 37q-14 10 -51 10h-366l-48 -545q0 -14 -1 -29.5t-2 -23.5t-1 -10q0 -23 9 -29q6 -4 41 -4h30q227 0 291 2q113 4 152 10q57 10 65 19q9 9 19 31q10 29 41 155l51 -10l-70 -301h-911zM391 1661q0 18 37 53q35 33 53 33q23 0 53.5 -37 t30.5 -55q0 -25 -35 -56q-34 -31 -55 -30q-18 0 -51 32.5t-33 59.5zM692 1661q0 20 35 53t53 33q25 0 55.5 -37t30.5 -55q0 -25 -35 -56q-34 -31 -55 -30q-18 0 -51 32.5t-33 59.5z" />
<glyph unicode="&#xcc;" horiz-adv-x="622" d="M43 0l2 66h45q61 0 76 14q16 16 22 80l105 1061q2 10 2 41q0 25 -14 32q-12 6 -60 6h-96l2 66h459l-4 -66h-25q-82 0 -98.5 -10t-22.5 -65l-104 -1057q0 -12 -1 -24.5t-2 -19.5t-1 -9q0 -35 16 -41q25 -8 92 -8h86l-2 -66h-477zM160 1780h143l107 -291h-74z" />
<glyph unicode="&#xcd;" horiz-adv-x="622" d="M43 0l2 66h45q61 0 76 14q16 16 22 80l105 1061q2 10 2 41q0 25 -14 32q-12 6 -60 6h-96l2 66h459l-4 -66h-25q-82 0 -98.5 -10t-22.5 -65l-104 -1057q0 -12 -1 -24.5t-2 -19.5t-1 -9q0 -35 16 -41q25 -8 92 -8h86l-2 -66h-477zM317 1489l107 291h143l-176 -291h-74z" />
<glyph unicode="&#xce;" horiz-adv-x="622" d="M43 0l2 66h45q61 0 76 14q16 16 22 80l105 1061q2 10 2 41q0 25 -14 32q-12 6 -60 6h-96l2 66h459l-4 -66h-25q-82 0 -98.5 -10t-22.5 -65l-104 -1057q0 -12 -1 -24.5t-2 -19.5t-1 -9q0 -35 16 -41q25 -8 92 -8h86l-2 -66h-477zM156 1528q57 80 163 244h121 q70 -111 164 -244h-119l-17 20.5l-19 22.5l-46 53q-10 12 -26.5 29.5t-18.5 21.5l-125 -147h-77z" />
<glyph unicode="&#xcf;" horiz-adv-x="622" d="M43 0l2 66h45q61 0 76 14q16 16 22 80l105 1061q2 10 2 41q0 25 -14 32q-12 6 -60 6h-96l2 66h459l-4 -66h-25q-82 0 -98.5 -10t-22.5 -65l-104 -1057q0 -12 -1 -24.5t-2 -19.5t-1 -9q0 -35 16 -41q25 -8 92 -8h86l-2 -66h-477zM129 1661q0 18 37 53q35 33 53 33 q25 0 55 -37q29 -35 29 -55q0 -25 -35 -56q-34 -31 -55 -30q-18 0 -51 32.5t-33 59.5zM430 1661q0 18 37 53q35 33 51 33q25 0 55.5 -37t30.5 -55q0 -25 -35 -56q-34 -31 -55 -30q-18 0 -51 32.5t-33 59.5z" />
<glyph unicode="&#xd0;" horiz-adv-x="1490" d="M45 0l4 66h37q51 0 66 10q12 8 14 51l41 526h-131l6 80h131q6 86 43 516v17q0 27 -16 30q-20 4 -76 4h-86l4 66h545q287 0 422 -51q137 -51 233 -189q109 -156 109 -362q0 -145 -56 -287q-55 -139 -164 -252q-126 -129 -270 -178q-139 -47 -326 -47h-530zM317 135 q0 -49 25 -59q27 -10 123 -10h133q141 0 258 47q115 47 182 116q72 76 113 162q43 94 59 178q16 88 17 166q0 96 -25 189q-23 86 -86 182q-57 88 -176 141t-274 53h-205q-39 0 -47 -8q-4 -4 -11 -45l-41 -514h422l-6 -80h-422l-30 -366q-9 -91 -9 -152z" />
<glyph unicode="&#xd1;" horiz-adv-x="1529" d="M61 1300l5 66h315l817 -1153l72 737q31 295 30 301q0 29 -14 39t-55 10h-101l3 66h378l-4 -66h-51q-37 0 -47 -2q-16 -4 -25 -16q-4 -8 -10 -25q-2 -8 -6 -47q-20 -190 -22 -211l-66 -641l-35 -344q-4 -49 -22.5 -49t-46.5 37l-818 1137q-25 -299 -57 -723 q-18 -272 -18 -312q0 -27 16 -32.5t45 -5.5h113l-2 -66h-389l4 66h45q61 0 75.5 14t16.5 74l90 1052l-27 33q-4 6 -10 12t-9 11l-3 4l-6 5l-11 9q-12 12 -18 12l-20 4q-20 4 -29 4h-41h-62zM569 1542l6 23q2 10 17 53q14 45 26 65q10 18 46 50q28 25 61 24q41 0 88 -24 l61 -33q39 -20 70 -21q29 0 55 23q23 20 33 47l10 23l29 -9q-4 -20 -8 -34q-8 -27 -25 -64q-18 -41 -51 -67.5t-72 -26.5q-34 0 -73 18l-64 31q-39 20 -86 20q-33 0 -57.5 -26.5t-30.5 -52.5l-6 -27z" />
<glyph unicode="&#xd2;" horiz-adv-x="1488" d="M92 608q0 338 198.5 567.5t512.5 229.5q283 0 434 -184q152 -186 152 -451q0 -125 -29 -231q-31 -115 -92 -220q-59 -100 -148 -182q-84 -78 -205 -125q-117 -45 -258 -45q-240 0 -403 164q-162 162 -162 477zM260 651q0 -293 129 -452q127 -158 313 -158q205 0 363 192 q156 188 156 521q0 283 -129 434t-312 151q-207 0 -364 -184q-156 -182 -156 -504zM600 1780h143l107 -291h-74z" />
<glyph unicode="&#xd3;" horiz-adv-x="1488" d="M92 608q0 338 198.5 567.5t512.5 229.5q283 0 434 -184q152 -186 152 -451q0 -125 -29 -231q-31 -115 -92 -220q-59 -100 -148 -182q-84 -78 -205 -125q-117 -45 -258 -45q-240 0 -403 164q-162 162 -162 477zM260 651q0 -293 129 -452q127 -158 313 -158q205 0 363 192 q156 188 156 521q0 283 -129 434t-312 151q-207 0 -364 -184q-156 -182 -156 -504zM758 1489l106 291h144l-177 -291h-73z" />
<glyph unicode="&#xd4;" horiz-adv-x="1488" d="M92 608q0 338 198.5 567.5t512.5 229.5q283 0 434 -184q152 -186 152 -451q0 -125 -29 -231q-31 -115 -92 -220q-59 -100 -148 -182q-84 -78 -205 -125q-117 -45 -258 -45q-240 0 -403 164q-162 162 -162 477zM260 651q0 -293 129 -452q127 -158 313 -158q205 0 363 192 q156 188 156 521q0 283 -129 434t-312 151q-207 0 -364 -184q-156 -182 -156 -504zM596 1528q57 80 164 244h121q70 -111 163 -244h-118q-8 10 -17.5 20.5l-19.5 22.5q-37 41 -47 53l-43 51l-125 -147h-78z" />
<glyph unicode="&#xd5;" horiz-adv-x="1488" d="M92 608q0 338 198.5 567.5t512.5 229.5q283 0 434 -184q152 -186 152 -451q0 -125 -29 -231q-31 -115 -92 -220q-59 -100 -148 -182q-84 -78 -205 -125q-117 -45 -258 -45q-240 0 -403 164q-162 162 -162 477zM260 651q0 -293 129 -452q127 -158 313 -158q205 0 363 192 q156 188 156 521q0 283 -129 434t-312 151q-207 0 -364 -184q-156 -182 -156 -504zM561 1542q2 4 2 12q2 7 2 11q2 10 17 53q8 25 30 65q12 23 43 50q28 25 62 24q41 0 88 -24l61 -33q39 -20 70 -21q29 0 55 23q23 20 33 47l10 23l29 -9q-4 -20 -8 -34q-8 -27 -25 -64 q-18 -41 -51 -67.5t-72 -26.5q-34 0 -73 18l-64 31q-39 20 -86 20q-33 0 -57 -26q-20 -25 -29 -53l-8 -27z" />
<glyph unicode="&#xd6;" horiz-adv-x="1488" d="M92 608q0 338 198.5 567.5t512.5 229.5q283 0 434 -184q152 -186 152 -451q0 -125 -29 -231q-31 -115 -92 -220q-59 -100 -148 -182q-84 -78 -205 -125q-117 -45 -258 -45q-240 0 -403 164q-162 162 -162 477zM260 651q0 -293 129 -452q127 -158 313 -158q205 0 363 192 q156 188 156 521q0 283 -129 434t-312 151q-207 0 -364 -184q-156 -182 -156 -504zM569 1661q0 18 37 53q35 33 53 33q23 0 53.5 -37t30.5 -55q0 -25 -34 -56t-56 -30q-18 0 -51 32.5t-33 59.5zM870 1661q0 20 35 53t53 33q25 0 55.5 -37t30.5 -55q0 -25 -34 -56t-56 -30 q-18 0 -51 32.5t-33 59.5z" />
<glyph unicode="&#xd7;" horiz-adv-x="1204" d="M123 86l407 395l-407 396l86 84l393 -408l395 408l86 -84l-407 -396l407 -395l-86 -84l-395 408l-393 -408z" />
<glyph unicode="&#xd8;" horiz-adv-x="1488" d="M92 608q0 338 198.5 567.5t512.5 229.5q154 0 268 -57l76 131l65 -37l-75 -131q125 -84 188 -228q63 -141 64 -313q0 -125 -29 -231q-31 -115 -92 -220q-59 -100 -148 -182q-84 -78 -205 -125q-117 -45 -258 -45q-150 0 -262 60l-123 -211l-65 37l123 213 q-238 165 -238 542zM260 651q0 -297 139 -465l621 1071q-106 82 -240 82q-207 0 -364 -184q-156 -182 -156 -504zM455 131q109 -90 247 -90q205 0 363 192q156 188 156 521q0 295 -146 452z" />
<glyph unicode="&#xd9;" horiz-adv-x="1429" d="M61 1300l2 66h494l-4 -66h-96q-39 0 -54 -10q-16 -12 -18 -53q-66 -834 -66 -915q0 -115 60 -197q59 -80 207 -80q237 0 350 184q16 27 35 74q15 40 24 80q8 39 13 66q2 8 3 27.5t1 29.5q2 23 2 35l51 659q2 10 2 55q0 29 -14.5 37t-65.5 8h-104l2 66h485v-66h-90 q-18 0 -31 -4q-8 -2 -18 -16q-8 -12 -12 -41q-6 -78 -18.5 -261l-18.5 -269q-6 -84 -15.5 -187.5l-11.5 -126.5q-2 -20 -4 -50t-4 -50.5t-2 -36.5q-4 -74 -4 -92q0 -70 33 -70q18 0 126 58l23 -52q-252 -141 -305 -141q-31 0 -31 45v23l4 69q2 18 3 59.5t1 61.5 q-14 -37 -51 -92q-39 -57 -86 -90q-113 -82 -289 -82q-242 0 -321 84q-80 83 -80 283q0 63 32.5 468.5t32.5 444.5q0 45 -10 55t-49 10h-113zM535 1780h143l106 -291h-73z" />
<glyph unicode="&#xda;" horiz-adv-x="1429" d="M61 1300l2 66h494l-4 -66h-96q-39 0 -54 -10q-16 -12 -18 -53q-66 -834 -66 -915q0 -115 60 -197q59 -80 207 -80q237 0 350 184q16 27 35 74q15 40 24 80q8 39 13 66q2 8 3 27.5t1 29.5q2 23 2 35l51 659q2 10 2 55q0 29 -14.5 37t-65.5 8h-104l2 66h485v-66h-90 q-18 0 -31 -4q-8 -2 -18 -16q-8 -12 -12 -41q-6 -78 -18.5 -261l-18.5 -269q-6 -84 -15.5 -187.5l-11.5 -126.5q-2 -20 -4 -50t-4 -50.5t-2 -36.5q-4 -74 -4 -92q0 -70 33 -70q18 0 126 58l23 -52q-252 -141 -305 -141q-31 0 -31 45v23l4 69q2 18 3 59.5t1 61.5 q-14 -37 -51 -92q-39 -57 -86 -90q-113 -82 -289 -82q-242 0 -321 84q-80 83 -80 283q0 63 32.5 468.5t32.5 444.5q0 45 -10 55t-49 10h-113zM692 1489l107 291h143l-176 -291h-74z" />
<glyph unicode="&#xdb;" horiz-adv-x="1429" d="M61 1300l2 66h494l-4 -66h-96q-39 0 -54 -10q-16 -12 -18 -53q-66 -834 -66 -915q0 -115 60 -197q59 -80 207 -80q237 0 350 184q16 27 35 74q15 40 24 80q8 39 13 66q2 8 3 27.5t1 29.5q2 23 2 35l51 659q2 10 2 55q0 29 -14.5 37t-65.5 8h-104l2 66h485v-66h-90 q-18 0 -31 -4q-8 -2 -18 -16q-8 -12 -12 -41q-6 -78 -18.5 -261l-18.5 -269q-6 -84 -15.5 -187.5l-11.5 -126.5q-2 -20 -4 -50t-4 -50.5t-2 -36.5q-4 -74 -4 -92q0 -70 33 -70q18 0 126 58l23 -52q-252 -141 -305 -141q-31 0 -31 45v23l4 69q2 18 3 59.5t1 61.5 q-14 -37 -51 -92q-39 -57 -86 -90q-113 -82 -289 -82q-242 0 -321 84q-80 83 -80 283q0 63 32.5 468.5t32.5 444.5q0 45 -10 55t-49 10h-113zM530 1528q57 80 164 244h121q70 -111 164 -244h-119l-17 20.5l-20 22.5l-45 53l-25.5 29.5t-19.5 21.5l-125 -147h-78z" />
<glyph unicode="&#xdc;" horiz-adv-x="1429" d="M61 1300l2 66h494l-4 -66h-96q-39 0 -54 -10q-16 -12 -18 -53q-66 -834 -66 -915q0 -115 60 -197q59 -80 207 -80q237 0 350 184q16 27 35 74q15 40 24 80q8 39 13 66q2 8 3 27.5t1 29.5q2 23 2 35l51 659q2 10 2 55q0 29 -14.5 37t-65.5 8h-104l2 66h485v-66h-90 q-18 0 -31 -4q-8 -2 -18 -16q-8 -12 -12 -41q-6 -78 -18.5 -261l-18.5 -269q-6 -84 -15.5 -187.5l-11.5 -126.5q-2 -20 -4 -50t-4 -50.5t-2 -36.5q-4 -74 -4 -92q0 -70 33 -70q18 0 126 58l23 -52q-252 -141 -305 -141q-31 0 -31 45v23l4 69q2 18 3 59.5t1 61.5 q-14 -37 -51 -92q-39 -57 -86 -90q-113 -82 -289 -82q-242 0 -321 84q-80 83 -80 283q0 63 32.5 468.5t32.5 444.5q0 45 -10 55t-49 10h-113zM504 1661q0 18 37 53q35 33 53 33q25 0 55 -37q29 -35 29 -55q0 -25 -35 -56q-34 -31 -55 -30q-18 0 -51 32.5t-33 59.5zM805 1661 q0 18 37 53q35 33 51 33q25 0 55.5 -37t30.5 -55q0 -25 -35 -56q-34 -31 -55 -30q-18 0 -51 32.5t-33 59.5z" />
<glyph unicode="&#xdd;" horiz-adv-x="1189" d="M20 1300l3 66h450l-6 -66h-59q-70 0 -70 -30q0 -25 61 -154l183 -373l286 467q27 41 27 64q0 27 -72 26h-51v66h399l-2 -66h-63q-39 0 -72 -26q-29 -23 -98 -127l-320 -488l-32 -499v-27q0 -6 -1 -11t-1 -9v-4q0 -27 16 -35t53 -8h105l-2 -66h-533l4 66h92q61 0 82 16 t23 74l35 495l-287 580q-20 41 -39 57q-16 12 -57 12h-54zM580 1489l106 291h143l-176 -291h-73z" />
<glyph unicode="&#xde;" horiz-adv-x="1134" d="M41 0l4 66h68q49 0 59 14q12 14 14 80l78 1061v14q0 4 1 8l1 4q0 37 -10 45t-63 8h-95l2 66h467l-2 -66h-45q-78 0 -94 -10t-18 -65l-11 -135h189q238 0 364 -91q125 -88 125 -260q0 -200 -160 -325q-162 -127 -383 -127q-104 0 -190 18l-8 -119q0 -23 -2 -35t-2 -28 q0 -37 18 -47q20 -10 76 -10h88v-66h-471zM346 360q57 -8 125 -8q100 0 182 29q74 27 125 70q45 39 74 94q31 59 39 92q8 35 8 78q0 309 -440 309q-41 0 -53 -6q-10 -6 -15 -39z" />
<glyph unicode="&#xdf;" horiz-adv-x="1067" d="M0 -420q0 34 18 62q18 29 45 28q6 0 19 -4q6 -2 12 -8l5 -4q5 -4 7 -8q2 -2 5.5 -7.5t5.5 -7.5l8 -16l8 -16q35 -55 78 -56q51 0 70 113q20 121 41 444q16 260 20 301l15.5 201.5l11.5 152t8 97.5t4 47q23 207 47 283q27 84 84 141q115 115 231 115q31 0 76 -19 q43 -18 80 -63q39 -47 39 -101q0 -23 -8 -45q-4 -8 -8 -21t-7 -20q-8 -14 -28 -53l-27 -49q-113 -211 -112 -285q0 -53 40 -125q39 -68 89 -127q51 -59 90 -139q41 -82 41 -149q0 -102 -84 -179q-88 -78 -211 -77q-131 0 -168 49q-18 23 -19 88q0 35 12.5 59.5t36.5 24.5 q18 0 33 -22.5t25 -53.5q8 -27 37 -51q25 -23 71 -23q66 0 105 41t39 109q0 51 -37 115q-43 74 -82 118q-43 49 -82 123q-37 72 -37 133q0 78 92 274.5t92 229.5q0 49 -36 100q-37 53 -107 54q-84 0 -125 -94q-39 -92 -61 -355q-20 -272 -35 -504q-35 -528 -57 -651 q-41 -207 -148 -256q-51 -23 -121 -22q-53 0 -98 28q-43 28 -43 80z" />
<glyph unicode="&#xe0;" horiz-adv-x="757" d="M51 203q0 127 26.5 200.5t102.5 196.5q34 52 117 135q84 84 127 84q35 0 59.5 -30.5t34.5 -63.5l10 -31l21 115q6 35 47 35h20q23 0 31 -4q6 -4 6 -21q0 -4 -18 -119l-35 -251q-18 -137 -18 -201q0 -100 24 -101l4 1l4 2q4 0 9 4l8 8l4 3q4 3 6 5t10 14q2 2 6.5 7.5 t8.5 9.5q12 12 16 18l37 -29q-18 -29 -43 -59q-39 -47 -88 -94q-63 -59 -96 -60q-45 0 -46 148q0 72 11 180q-70 -133 -138 -215q-35 -45 -90 -80q-51 -33 -77 -33q-101 1 -101 226zM156 268q0 -61 24.5 -104t50.5 -43q40 0 105 92q66 94 115 207q51 119 51 174q0 45 -45 88 q-49 45 -80 45q-37 0 -88 -68q-51 -66 -92 -180q-41 -113 -41 -211zM334 1249h123l32 -291h-57z" />
<glyph unicode="&#xe1;" horiz-adv-x="757" d="M51 203q0 127 26.5 200.5t102.5 196.5q34 52 117 135q84 84 127 84q35 0 59.5 -30.5t34.5 -63.5l10 -31l21 115q6 35 47 35h20q23 0 31 -4q6 -4 6 -21q0 -4 -18 -119l-35 -251q-18 -137 -18 -201q0 -100 24 -101l4 1l4 2q4 0 9 4l8 8l4 3q4 3 6 5t10 14q2 2 6.5 7.5 t8.5 9.5q12 12 16 18l37 -29q-18 -29 -43 -59q-39 -47 -88 -94q-63 -59 -96 -60q-45 0 -46 148q0 72 11 180q-70 -133 -138 -215q-35 -45 -90 -80q-51 -33 -77 -33q-101 1 -101 226zM156 268q0 -61 24.5 -104t50.5 -43q40 0 105 92q66 94 115 207q51 119 51 174q0 45 -45 88 q-49 45 -80 45q-37 0 -88 -68q-51 -66 -92 -180q-41 -113 -41 -211zM430 958l105 291h129l-177 -291h-57z" />
<glyph unicode="&#xe2;" horiz-adv-x="757" d="M51 203q0 127 26.5 200.5t102.5 196.5q34 52 117 135q84 84 127 84q35 0 59.5 -30.5t34.5 -63.5l10 -31l21 115q6 35 47 35h20q23 0 31 -4q6 -4 6 -21q0 -4 -18 -119l-35 -251q-18 -137 -18 -201q0 -100 24 -101l4 1l4 2q4 0 9 4l8 8l4 3q4 3 6 5t10 14q2 2 6.5 7.5 t8.5 9.5q12 12 16 18l37 -29q-18 -29 -43 -59q-39 -47 -88 -94q-63 -59 -96 -60q-45 0 -46 148q0 72 11 180q-70 -133 -138 -215q-35 -45 -90 -80q-51 -33 -77 -33q-101 1 -101 226zM156 268q0 -61 24.5 -104t50.5 -43q40 0 105 92q66 94 115 207q51 119 51 174q0 45 -45 88 q-49 45 -80 45q-37 0 -88 -68q-51 -66 -92 -180q-41 -113 -41 -211zM305 958q109 199 146 287h71q39 -133 103 -287h-97q-8 16 -59 187q-43 -88 -98 -187h-66z" />
<glyph unicode="&#xe3;" horiz-adv-x="757" d="M51 203q0 127 26.5 200.5t102.5 196.5q34 52 117 135q84 84 127 84q35 0 59.5 -30.5t34.5 -63.5l10 -31l21 115q6 35 47 35h20q23 0 31 -4q6 -4 6 -21q0 -4 -18 -119l-35 -251q-18 -137 -18 -201q0 -100 24 -101l4 1l4 2q4 0 9 4l8 8l4 3q4 3 6 5t10 14q2 2 6.5 7.5 t8.5 9.5q12 12 16 18l37 -29q-18 -29 -43 -59q-39 -47 -88 -94q-63 -59 -96 -60q-45 0 -46 148q0 72 11 180q-70 -133 -138 -215q-35 -45 -90 -80q-51 -33 -77 -33q-101 1 -101 226zM156 268q0 -61 24.5 -104t50.5 -43q40 0 105 92q66 94 115 207q51 119 51 174q0 45 -45 88 q-49 45 -80 45q-37 0 -88 -68q-51 -66 -92 -180q-41 -113 -41 -211zM281 987q2 4 2 12q2 7 2 11q4 20 12 53q8 35 22 65q6 14 37 50q22 25 50 24q39 0 71 -22l51 -33q29 -20 56 -21q25 0 43 23q20 25 26 45l9 23l24 -7q-39 -193 -125 -192q-33 0 -61 16l-51 33 q-33 20 -70 20q-27 0 -45.5 -26.5t-24.5 -52.5l-6 -27z" />
<glyph unicode="&#xe4;" horiz-adv-x="757" d="M51 203q0 127 26.5 200.5t102.5 196.5q34 52 117 135q84 84 127 84q35 0 59.5 -30.5t34.5 -63.5l10 -31l21 115q6 35 47 35h20q23 0 31 -4q6 -4 6 -21q0 -4 -18 -119l-35 -251q-18 -137 -18 -201q0 -100 24 -101l4 1l4 2q4 0 9 4l8 8l4 3q4 3 6 5t10 14q2 2 6.5 7.5 t8.5 9.5q12 12 16 18l37 -29q-18 -29 -43 -59q-39 -47 -88 -94q-63 -59 -96 -60q-45 0 -46 148q0 72 11 180q-70 -133 -138 -215q-35 -45 -90 -80q-51 -33 -77 -33q-101 1 -101 226zM156 268q0 -61 24.5 -104t50.5 -43q40 0 105 92q66 94 115 207q51 119 51 174q0 45 -45 88 q-49 45 -80 45q-37 0 -88 -68q-51 -66 -92 -180q-41 -113 -41 -211zM297 1137q0 14 29 47q27 31 59 30q20 0 43 -28q20 -27 21 -60q0 -27 -33 -57q-31 -29 -49 -29q-27 0 -48 33q-22 35 -22 64zM518 1137q0 18 27 47q29 31 59 30q20 0 43 -28q20 -27 21 -60q0 -27 -33 -57 q-31 -29 -49 -29q-27 0 -47.5 33t-20.5 64z" />
<glyph unicode="&#xe5;" horiz-adv-x="757" d="M51 203q0 127 26.5 200.5t102.5 196.5q34 52 117 135q84 84 127 84q35 0 59.5 -30.5t34.5 -63.5l10 -31l21 115q6 35 47 35h20q23 0 31 -4q6 -4 6 -21q0 -4 -18 -119l-35 -251q-18 -137 -18 -201q0 -100 24 -101l4 1l4 2q4 0 9 4l8 8l4 3q4 3 6 5t10 14q2 2 6.5 7.5 t8.5 9.5q12 12 16 18l37 -29q-18 -29 -43 -59q-39 -47 -88 -94q-63 -59 -96 -60q-45 0 -46 148q0 72 11 180q-70 -133 -138 -215q-35 -45 -90 -80q-51 -33 -77 -33q-101 1 -101 226zM156 268q0 -61 24.5 -104t50.5 -43q40 0 105 92q66 94 115 207q51 119 51 174q0 45 -45 88 q-49 45 -80 45q-37 0 -88 -68q-51 -66 -92 -180q-41 -113 -41 -211zM348 1104q0 61 51 115q53 57 115 57q68 0 117 -49t49 -114.5t-47 -111.5q-51 -47 -113 -47q-70 0 -121 43.5t-51 106.5zM418 1106q0 -41 28.5 -65.5t71.5 -24.5q90 0 90 96q0 53 -28.5 75.5t-65.5 22.5 q-52 0 -74 -36q-22 -39 -22 -68z" />
<glyph unicode="&#xe6;" horiz-adv-x="999" d="M51 203q0 127 26.5 200.5t102.5 196.5q34 52 117 135q84 84 127 84q27 0 51.5 -37t36.5 -73l12 -39l25 139q6 35 47 35h20q23 0 31 -4q6 -4 6 -21l-10 -31l-20 -63l-19 -59q39 53 109 102q66 47 110 47q29 0 82 -35t53 -57q0 -8 -57 -76q-66 -76 -145 -153 q-76 -74 -172 -148q0 -10 4 -47q4 -43 12 -72q12 -45 41 -73.5t72 -28.5q90 0 227 127l31 -47q-2 -2 -10.5 -9.5t-14.5 -13.5l-61 -51q-55 -45 -86 -65q-47 -33 -92 -52q-55 -23 -89 -22q-47 0 -96 51t-49 164q0 109 8 155q-66 -152 -162 -272q-35 -45 -90 -80 q-51 -33 -77 -33q-101 1 -101 226zM156 268q0 -61 24.5 -104t50.5 -43q40 0 105 92q66 94 115 207q51 119 51 174q0 45 -45 88q-49 45 -80 45q-37 0 -88 -68q-51 -66 -92 -180q-41 -113 -41 -211zM582 391l28 27l62 59q33 31 67 68q6 8 27.5 29.5t30.5 31.5q23 29 22 35 q0 43 -26 64q-29 23 -56 22q-51 0 -104 -90q-51 -88 -51 -229v-17z" />
<glyph unicode="&#xe7;" horiz-adv-x="565" d="M41 225q0 160 63 332q96 262 328 262q57 0 80 -20q25 -20 25 -45q0 -78 -48 -78q-14 0 -75.5 28.5t-110.5 28.5q-57 0 -106.5 -129t-49.5 -256q0 -111 39 -170t80 -59q88 0 230 141l28 -24l-49 -64q-29 -39 -113 -109q-82 -70 -143 -77l-41 -121q2 0 7 1t10 1h16 q84 0 147 -35q59 -33 60 -108q0 -84 -65.5 -129.5t-151.5 -45.5q-41 0 -72 7q-29 6 -41 14l-8 6l43 49q53 -20 92 -20q43 0 70 30q29 33 28 80q0 90 -133 90q-29 0 -39 -2l-20 35l55 148q-18 4 -45 22q-90 72 -90 217z" />
<glyph unicode="&#xe8;" horiz-adv-x="571" d="M41 207q0 218 86 405q14 31 27 50l22 32q12 18 29 29q20 16 24 18q6 6 29 21q27 16 29 16q57 37 108 37q29 0 82 -35t53 -57q0 -8 -57 -76q-66 -76 -145 -153q-76 -74 -172 -148q0 -10 4 -47q4 -43 12 -72q12 -45 41 -73.5t72 -28.5q90 0 227 127l31 -47 q-2 -2 -10.5 -9.5t-14.5 -13.5l-61 -51q-55 -45 -86 -65q-47 -33 -92 -52q-55 -23 -89 -22q-47 0 -98 51t-51 164zM154 391l28 27l62 59q33 31 67 68q6 8 27.5 29.5t30.5 31.5q23 29 22 35q0 43 -26 64q-29 23 -56 22q-51 0 -104 -90q-51 -88 -51 -229v-17zM268 1249h123 l33 -291h-57z" />
<glyph unicode="&#xe9;" horiz-adv-x="571" d="M41 207q0 218 86 405q14 31 27 50l22 32q12 18 29 29q20 16 24 18q6 6 29 21q27 16 29 16q57 37 108 37q29 0 82 -35t53 -57q0 -8 -57 -76q-66 -76 -145 -153q-76 -74 -172 -148q0 -10 4 -47q4 -43 12 -72q12 -45 41 -73.5t72 -28.5q90 0 227 127l31 -47 q-2 -2 -10.5 -9.5t-14.5 -13.5l-61 -51q-55 -45 -86 -65q-47 -33 -92 -52q-55 -23 -89 -22q-47 0 -98 51t-51 164zM154 391l28 27l62 59q33 31 67 68q6 8 27.5 29.5t30.5 31.5q23 29 22 35q0 43 -26 64q-29 23 -56 22q-51 0 -104 -90q-51 -88 -51 -229v-17zM365 958l104 291 h129l-176 -291h-57z" />
<glyph unicode="&#xea;" horiz-adv-x="571" d="M41 207q0 218 86 405q14 31 27 50l22 32q12 18 29 29q20 16 24 18q6 6 29 21q27 16 29 16q57 37 108 37q29 0 82 -35t53 -57q0 -8 -57 -76q-66 -76 -145 -153q-76 -74 -172 -148q0 -10 4 -47q4 -43 12 -72q12 -45 41 -73.5t72 -28.5q90 0 227 127l31 -47 q-2 -2 -10.5 -9.5t-14.5 -13.5l-61 -51q-55 -45 -86 -65q-47 -33 -92 -52q-55 -23 -89 -22q-47 0 -98 51t-51 164zM154 391l28 27l62 59q33 31 67 68q6 8 27.5 29.5t30.5 31.5q23 29 22 35q0 43 -26 64q-29 23 -56 22q-51 0 -104 -90q-51 -88 -51 -229v-17zM240 958 q109 199 145 287h72q39 -133 102 -287h-96q-8 16 -60 187q-43 -88 -98 -187h-65z" />
<glyph unicode="&#xeb;" horiz-adv-x="571" d="M41 207q0 218 86 405q14 31 27 50l22 32q12 18 29 29q20 16 24 18q6 6 29 21q27 16 29 16q57 37 108 37q29 0 82 -35t53 -57q0 -8 -57 -76q-66 -76 -145 -153q-76 -74 -172 -148q0 -10 4 -47q4 -43 12 -72q12 -45 41 -73.5t72 -28.5q90 0 227 127l31 -47 q-2 -2 -10.5 -9.5t-14.5 -13.5l-61 -51q-55 -45 -86 -65q-47 -33 -92 -52q-55 -23 -89 -22q-47 0 -98 51t-51 164zM154 391l28 27l62 59q33 31 67 68q6 8 27.5 29.5t30.5 31.5q23 29 22 35q0 43 -26 64q-29 23 -56 22q-51 0 -104 -90q-51 -88 -51 -229v-17zM231 1137 q0 14 29 47q27 31 59 30q20 0 43 -28q20 -27 21 -60q0 -27 -33 -57q-31 -29 -49 -29q-27 0 -47 33q-23 35 -23 64zM453 1137q0 14 28 47q27 31 58 30q20 0 43 -28q20 -27 20 -60q0 -27 -33 -57q-31 -29 -49 -29q-27 0 -47 33t-20 64z" />
<glyph unicode="&#xec;" horiz-adv-x="497" d="M41 735q240 84 276 84q23 0 23 -31q0 -55 -23 -292q-25 -258 -24 -287q0 -47 16 -47q31 0 137 168l33 -27q-39 -92 -125 -182q-33 -35 -94 -86q-55 -45 -74 -45q-35 0 -34 45q0 2 3 29.5t10 99.5l15 147q27 260 27 379q0 33 -25 33q-20 0 -47 -8q-37 -10 -53 -21l-25 -10 zM158 1249h123l32 -291h-57z" />
<glyph unicode="&#xed;" horiz-adv-x="497" d="M41 735q240 84 276 84q23 0 23 -31q0 -55 -23 -292q-25 -258 -24 -287q0 -47 16 -47q31 0 137 168l33 -27q-39 -92 -125 -182q-33 -35 -94 -86q-55 -45 -74 -45q-35 0 -34 45q0 2 3 29.5t10 99.5l15 147q27 260 27 379q0 33 -25 33q-20 0 -47 -8q-37 -10 -53 -21l-25 -10 zM254 958l104 291h129l-176 -291h-57z" />
<glyph unicode="&#xee;" horiz-adv-x="497" d="M41 735q240 84 276 84q23 0 23 -31q0 -55 -23 -292q-25 -258 -24 -287q0 -47 16 -47q31 0 137 168l33 -27q-39 -92 -125 -182q-33 -35 -94 -86q-55 -45 -74 -45q-35 0 -34 45q0 2 3 29.5t10 99.5l15 147q27 260 27 379q0 33 -25 33q-20 0 -47 -8q-37 -10 -53 -21l-25 -10 zM129 958q109 199 145 287h72q39 -133 103 -287h-97q-8 16 -59 187q-43 -88 -98 -187h-66z" />
<glyph unicode="&#xef;" horiz-adv-x="497" d="M41 735q240 84 276 84q23 0 23 -31q0 -55 -23 -292q-25 -258 -24 -287q0 -47 16 -47q31 0 137 168l33 -27q-39 -92 -125 -182q-33 -35 -94 -86q-55 -45 -74 -45q-35 0 -34 45q0 2 3 29.5t10 99.5l15 147q27 260 27 379q0 33 -25 33q-20 0 -47 -8q-37 -10 -53 -21l-25 -10 zM121 1137q0 14 29 47q27 31 59 30q20 0 43 -28q20 -27 20 -60q0 -27 -32 -57q-31 -29 -50 -29q-27 0 -47 33q-22 35 -22 64zM342 1137q0 18 27 47q29 31 59 30q20 0 43 -28q20 -27 21 -60q0 -27 -33 -57q-31 -29 -49 -29q-27 0 -47.5 33t-20.5 64z" />
<glyph unicode="&#xf0;" horiz-adv-x="663" d="M41 262q0 236 164 430q57 63 102 90q52 31 135 31q29 0 37 -2q-25 151 -80 283l-204 -86l-27 67l203 84q-82 178 -183 279h101q80 -80 162 -244l184 78l27 -66l-181 -78q139 -315 140 -598q0 -190 -86 -335q-57 -98 -134 -158q-78 -61 -149 -62q-92 0 -151.5 84 t-59.5 203zM178 348q0 -123 37 -209t94 -86q70 0 131.5 143.5t61.5 290.5q0 90 -33 183q-31 86 -92 86q-63 0 -131 -127q-68 -125 -68 -281z" />
<glyph unicode="&#xf1;" horiz-adv-x="839" d="M31 731q45 14 67 25q61 27 113 43q55 18 74 18q27 0 26 -33q0 -20 -8 -71q-4 -20 -16 -148q-8 -80 -8 -176q240 426 376 426q49 0 50 -135q0 -94 -20.5 -258t-20.5 -195q0 -63 16 -63t96 139l35 -18q-53 -113 -133 -205q-82 -94 -131 -94q-27 0 -27 47q0 53 26.5 245.5 t26.5 292.5q0 92 -32 93q-35 0 -123 -125t-131 -238q-12 -31 -19 -61q-2 -10 -8 -47q0 -6 -1 -15.5t-2 -25t-1 -27.5q-2 -43 -6 -88q-2 -39 -53 -39h-33q-16 0 -28.5 6t-10.5 25q41 440 41 645q0 45 -23 45l-94 -31zM311 987q2 4 3 12q2 7 1 11q4 20 13 53q6 23 24 65 q8 18 35 50q23 25 49 24q37 0 72 -22l51 -33q29 -20 55.5 -20.5t44.5 22.5q18 20 25 45l8 23l25 -7q-39 -193 -125 -192q-33 0 -62 16l-51 33q-33 20 -69 20q-27 0 -45.5 -26.5t-24.5 -52.5l-6 -27z" />
<glyph unicode="&#xf2;" horiz-adv-x="673" d="M41 262q0 236 164 430q111 129 223 129q76 0 127 -51q47 -47 63.5 -108.5t16.5 -120.5q0 -197 -123 -381.5t-260 -184.5q-92 0 -151.5 84t-59.5 203zM178 348q0 -123 37 -209t94 -86q70 0 131.5 143.5t61.5 290.5q0 90 -33 183q-31 86 -92 86q-63 0 -131 -127 q-68 -125 -68 -281zM301 1249h123l33 -291h-58z" />
<glyph unicode="&#xf3;" horiz-adv-x="673" d="M41 262q0 236 164 430q111 129 223 129q76 0 127 -51q47 -47 63.5 -108.5t16.5 -120.5q0 -197 -123 -381.5t-260 -184.5q-92 0 -151.5 84t-59.5 203zM178 348q0 -123 37 -209t94 -86q70 0 131.5 143.5t61.5 290.5q0 90 -33 183q-31 86 -92 86q-63 0 -131 -127 q-68 -125 -68 -281zM397 958l105 291h129l-176 -291h-58z" />
<glyph unicode="&#xf4;" horiz-adv-x="673" d="M41 262q0 236 164 430q111 129 223 129q76 0 127 -51q47 -47 63.5 -108.5t16.5 -120.5q0 -197 -123 -381.5t-260 -184.5q-92 0 -151.5 84t-59.5 203zM178 348q0 -123 37 -209t94 -86q70 0 131.5 143.5t61.5 290.5q0 90 -33 183q-31 86 -92 86q-63 0 -131 -127 q-68 -125 -68 -281zM272 958q109 199 146 287h71q39 -133 103 -287h-96q-8 16 -60 187q-43 -88 -98 -187h-66z" />
<glyph unicode="&#xf5;" horiz-adv-x="673" d="M41 262q0 236 164 430q111 129 223 129q76 0 127 -51q47 -47 63.5 -108.5t16.5 -120.5q0 -197 -123 -381.5t-260 -184.5q-92 0 -151.5 84t-59.5 203zM178 348q0 -123 37 -209t94 -86q70 0 131.5 143.5t61.5 290.5q0 90 -33 183q-31 86 -92 86q-63 0 -131 -127 q-68 -125 -68 -281zM248 987q2 4 2 12q2 7 2 11q4 20 12 53q8 35 23 65q6 14 37 50q22 25 49 24q39 0 71 -22l52 -33q29 -20 55 -21q25 0 43 22.5t29 45.5l6 23l24 -7q-39 -193 -125 -192q-33 0 -61 16l-51 33q-33 20 -70 20q-27 0 -45 -26.5t-25 -52.5l-6 -27z" />
<glyph unicode="&#xf6;" horiz-adv-x="673" d="M41 262q0 236 164 430q111 129 223 129q76 0 127 -51q47 -47 63.5 -108.5t16.5 -120.5q0 -197 -123 -381.5t-260 -184.5q-92 0 -151.5 84t-59.5 203zM178 348q0 -123 37 -209t94 -86q70 0 131.5 143.5t61.5 290.5q0 90 -33 183q-31 86 -92 86q-63 0 -131 -127 q-68 -125 -68 -281zM264 1137q0 14 29 47q27 31 59 30q20 0 43 -28q20 -27 21 -60q0 -27 -33 -57q-31 -29 -49 -29q-27 0 -47 33q-23 35 -23 64zM485 1137q0 18 27 47q29 31 59 30q20 0 43 -28q20 -27 21 -60q0 -27 -33 -57q-31 -29 -49 -29q-27 0 -47.5 33t-20.5 64z" />
<glyph unicode="&#xf7;" horiz-adv-x="1480" d="M143 422v119h1196v-119h-1196zM616 160q0 51 37 88t88.5 37t87.5 -37q35 -35 35 -88q0 -51 -35 -86q-37 -37 -88 -37t-88 37t-37 86zM616 803q0 51 37 88q35 35 88.5 35t88 -35t34.5 -88t-35 -88q-37 -37 -88 -37t-88 37t-37 88z" />
<glyph unicode="&#xf8;" horiz-adv-x="673" d="M20 -72l78 133q-57 78 -57 201q0 236 164 430q111 129 223 129q53 0 94 -22l43 73l49 -28l-47 -82q68 -77 68 -221q0 -197 -123 -381.5t-260 -184.5q-59 0 -113 41l-67 -114zM178 348q0 -66 12 -125l271 467q-35 66 -84 66q-63 0 -131 -127q-68 -125 -68 -281zM213 145 q37 -92 96 -92q70 0 131.5 143.5t61.5 290.5q0 68 -17 134z" />
<glyph unicode="&#xf9;" horiz-adv-x="966" d="M51 723q225 100 289 100q35 0 35 -43q0 -29 -15 -102q-18 -96 -22 -135q-20 -193 -21 -289q0 -102 25 -102q33 0 107 98q78 104 139 235q66 141 65 226v45q0 61 60 61h49q14 0 22.5 -8t6.5 -23q-2 -35 -19 -170q-8 -70 -22 -233q-8 -92 -9 -184q0 -39 23 -39 q16 0 47 36.5t55 73.5l25 39l37 -26l-13 -23l-24 -41q-4 -8 -35 -51q-27 -39 -55 -70q-35 -37 -76 -75q-43 -43 -70 -43q-51 0 -51 98q0 23 14 180q14 156 17 211q-40 -92 -105 -197q-70 -119 -168 -204.5t-143 -85.5q-49 0 -49 116q0 84 23 271q25 203 24 299q0 47 -27 47 q-12 0 -24 -6l-92 -41zM385 1249h123l33 -291h-58z" />
<glyph unicode="&#xfa;" horiz-adv-x="966" d="M51 723q225 100 289 100q35 0 35 -43q0 -29 -15 -102q-18 -96 -22 -135q-20 -193 -21 -289q0 -102 25 -102q33 0 107 98q78 104 139 235q66 141 65 226v45q0 61 60 61h49q14 0 22.5 -8t6.5 -23q-2 -35 -19 -170q-8 -70 -22 -233q-8 -92 -9 -184q0 -39 23 -39 q16 0 47 36.5t55 73.5l25 39l37 -26l-13 -23l-24 -41q-4 -8 -35 -51q-27 -39 -55 -70q-35 -37 -76 -75q-43 -43 -70 -43q-51 0 -51 98q0 23 14 180q14 156 17 211q-40 -92 -105 -197q-70 -119 -168 -204.5t-143 -85.5q-49 0 -49 116q0 84 23 271q25 203 24 299q0 47 -27 47 q-12 0 -24 -6l-92 -41zM481 958l105 291h129l-176 -291h-58z" />
<glyph unicode="&#xfb;" horiz-adv-x="966" d="M51 723q225 100 289 100q35 0 35 -43q0 -29 -15 -102q-18 -96 -22 -135q-20 -193 -21 -289q0 -102 25 -102q33 0 107 98q78 104 139 235q66 141 65 226v45q0 61 60 61h49q14 0 22.5 -8t6.5 -23q-2 -35 -19 -170q-8 -70 -22 -233q-8 -92 -9 -184q0 -39 23 -39 q16 0 47 36.5t55 73.5l25 39l37 -26l-13 -23l-24 -41q-4 -8 -35 -51q-27 -39 -55 -70q-35 -37 -76 -75q-43 -43 -70 -43q-51 0 -51 98q0 23 14 180q14 156 17 211q-40 -92 -105 -197q-70 -119 -168 -204.5t-143 -85.5q-49 0 -49 116q0 84 23 271q25 203 24 299q0 47 -27 47 q-12 0 -24 -6l-92 -41zM356 958q109 199 146 287h71q39 -133 103 -287h-96q-6 16 -60 187q-43 -88 -98 -187h-66z" />
<glyph unicode="&#xfc;" horiz-adv-x="966" d="M51 723q225 100 289 100q35 0 35 -43q0 -29 -15 -102q-18 -96 -22 -135q-20 -193 -21 -289q0 -102 25 -102q33 0 107 98q78 104 139 235q66 141 65 226v45q0 61 60 61h49q14 0 22.5 -8t6.5 -23q-2 -35 -19 -170q-8 -70 -22 -233q-8 -92 -9 -184q0 -39 23 -39 q16 0 47 36.5t55 73.5l25 39l37 -26l-13 -23l-24 -41q-4 -8 -35 -51q-27 -39 -55 -70q-35 -37 -76 -75q-43 -43 -70 -43q-51 0 -51 98q0 23 14 180q14 156 17 211q-40 -92 -105 -197q-70 -119 -168 -204.5t-143 -85.5q-49 0 -49 116q0 84 23 271q25 203 24 299q0 47 -27 47 q-12 0 -24 -6l-92 -41zM348 1137q0 14 29 47q29 31 59 30q20 0 43 -28q20 -27 21 -60q0 -27 -33 -57q-31 -29 -49 -29q-27 0 -47 33q-23 35 -23 64zM569 1137q0 14 29 47q29 31 57 30q20 0 43 -28q20 -27 21 -60q0 -27 -33 -57q-31 -29 -49 -29q-27 0 -47.5 33t-20.5 64z " />
<glyph unicode="&#xfd;" horiz-adv-x="786" d="M-4 -485q4 0 15.5 3t17.5 5q20 4 28 6q12 4 22.5 8t29.5 19q10 8 36 34l56 56q72 78 141.5 192.5t69.5 157.5q0 46 -50 227q-51 190 -96 314q-53 141 -76 141q-9 0 -18 -6q-8 -6 -20 -21q-4 -6 -11.5 -16t-9.5 -12l-8 -15.5t-17 -25.5l-28 -43l-47 28q0 2 12 21 q23 37 27 43l19 26.5t20 26.5q25 35 43 53q80 84 120 84q53 0 113 -194q4 -12 119 -459q106 256 106 526q0 68 -45 80l2 35q45 4 72 4h12q51 0 68 -8q18 -10 18 -45q0 -76 -94 -375q-90 -287 -188 -485q-102 -211 -236 -400q-25 -33 -55 -32h-168v47zM442 958l105 291h129 l-176 -291h-58z" />
<glyph unicode="&#xfe;" horiz-adv-x="753" d="M-43 -496q127 12 133 17q10 6 14 53q68 854 78 971q59 784 60 794q0 29 -23 29q-35 0 -135 -33l-12 56q231 68 280 67q43 0 43 -33q0 -18 -35 -350q-29 -276 -59 -516q14 23 18 27l16 21q15 22 30 38q49 57 69 78q29 29 80 59q45 27 84 27q127 0 127 -221 q0 -154 -86 -332q-53 -111 -129 -188q-77 -80 -129 -80q-61 0 -117 57q-2 -96 -12 -205q-2 -31 -7 -89t-7 -83q-4 -43 -5 -82q0 -8 1.5 -18t1.5 -12q0 -8 10 -15q8 -6 26 -6q16 0 37 2q31 2 74 4q25 2 43 4t31 2l-2 -55l-498 -47v59zM276 305q0 -115 31 -170t78 -55 q78 0 155.5 121t77.5 260q0 78 -26 149q-27 74 -84 74q-61 0 -148 -121q-84 -117 -84 -258z" />
<glyph unicode="&#xff;" horiz-adv-x="786" d="M-4 -485q4 0 15.5 3t17.5 5q20 4 28 6q12 4 22.5 8t29.5 19q10 8 36 34l56 56q72 78 141.5 192.5t69.5 157.5q0 46 -50 227q-51 190 -96 314q-53 141 -76 141q-9 0 -18 -6q-8 -6 -20 -21q-4 -6 -11.5 -16t-9.5 -12l-8 -15.5t-17 -25.5l-28 -43l-47 28q0 2 12 21 q23 37 27 43l19 26.5t20 26.5q25 35 43 53q80 84 120 84q53 0 113 -194q4 -12 119 -459q106 256 106 526q0 68 -45 80l2 35q45 4 72 4h12q51 0 68 -8q18 -10 18 -45q0 -76 -94 -375q-90 -287 -188 -485q-102 -211 -236 -400q-25 -33 -55 -32h-168v47zM309 1137q0 14 29 47 q27 31 59 30q20 0 43 -28q20 -27 21 -60q0 -27 -33 -57q-31 -29 -49 -29q-27 0 -47 33q-23 35 -23 64zM530 1137q0 18 27 47q29 31 59 30q20 0 43 -28q20 -27 21 -60q0 -27 -33 -57q-31 -29 -49 -29q-27 0 -47.5 33t-20.5 64z" />
<glyph unicode="&#x100;" horiz-adv-x="1339" d="M41 0v66h33q45 0 69 18q18 14 56 90l575 1225h37l289 -1163q31 -121 49 -145.5t72 -24.5h59v-66h-477v66h59q59 0 82 6t23 32q0 14 -6 39l-91 383h-407l-160 -346q-29 -68 -29 -80q0 -23 25 -28.5t104 -5.5h39l-4 -66h-397zM496 606h356l-129 516zM567 1614v98h471v-98 h-471z" />
<glyph unicode="&#x101;" horiz-adv-x="757" d="M51 203q0 127 26.5 200.5t102.5 196.5q34 52 117 135q84 84 127 84q35 0 59.5 -30.5t34.5 -63.5l10 -31l21 115q6 35 47 35h20q23 0 31 -4q6 -4 6 -21q0 -4 -18 -119l-35 -251q-18 -137 -18 -201q0 -100 24 -101l4 1l4 2q4 0 9 4l8 8l4 3q4 3 6 5t10 14q2 2 6.5 7.5 t8.5 9.5q12 12 16 18l37 -29q-18 -29 -43 -59q-39 -47 -88 -94q-63 -59 -96 -60q-45 0 -46 148q0 72 11 180q-70 -133 -138 -215q-35 -45 -90 -80q-51 -33 -77 -33q-101 1 -101 226zM156 268q0 -61 24.5 -104t50.5 -43q40 0 105 92q66 94 115 207q51 119 51 174q0 45 -45 88 q-49 45 -80 45q-37 0 -88 -68q-51 -66 -92 -180q-41 -113 -41 -211zM307 1069v96h352v-96h-352z" />
<glyph unicode="&#x102;" horiz-adv-x="1339" d="M41 0v66h33q45 0 69 18q18 14 56 90l575 1225h37l289 -1163q31 -121 49 -145.5t72 -24.5h59v-66h-477v66h59q59 0 82 6t23 32q0 14 -6 39l-91 383h-407l-160 -346q-29 -68 -29 -80q0 -23 25 -28.5t104 -5.5h39l-4 -66h-397zM496 606h356l-129 516zM586 1726q0 2 1 9.5 t1 13.5v25h102v-19q0 -55 24.5 -86t106.5 -31q47 0 88 31q39 31 39 88l-1 3q-1 3 -1 5v9h51v-15q0 -223 -202 -223q-113 0 -160 59q-49 61 -49 131z" />
<glyph unicode="&#x103;" horiz-adv-x="757" d="M51 203q0 127 26.5 200.5t102.5 196.5q34 52 117 135q84 84 127 84q35 0 59.5 -30.5t34.5 -63.5l10 -31l21 115q6 35 47 35h20q23 0 31 -4q6 -4 6 -21q0 -4 -18 -119l-35 -251q-18 -137 -18 -201q0 -100 24 -101l4 1l4 2q4 0 9 4l8 8l4 3q4 3 6 5t10 14q2 2 6.5 7.5 t8.5 9.5q12 12 16 18l37 -29q-18 -29 -43 -59q-39 -47 -88 -94q-63 -59 -96 -60q-45 0 -46 148q0 72 11 180q-70 -133 -138 -215q-35 -45 -90 -80q-51 -33 -77 -33q-101 1 -101 226zM156 268q0 -61 24.5 -104t50.5 -43q40 0 105 92q66 94 115 207q51 119 51 174q0 45 -45 88 q-49 45 -80 45q-37 0 -88 -68q-51 -66 -92 -180q-41 -113 -41 -211zM326 1153l8 84h72l-3 -47q0 -125 89 -125q90 0 143 172h35q-25 -113 -37 -137q-59 -129 -170 -129q-63 0 -100 57t-37 125z" />
<glyph unicode="&#x104;" horiz-adv-x="1339" d="M41 0v66h33q45 0 69 18q18 14 56 90l575 1225h37l289 -1163q31 -121 49 -145.5t72 -24.5h59v-66h-197q-102 0 -186 -102q-82 -100 -82 -197q0 -59 28.5 -100t80.5 -41q92 0 149 61l19 -37q-16 -20 -31 -33q-29 -25 -84 -55q-59 -33 -123 -33q-90 0 -135 52 q-47 53 -47 129q0 82 55 157q55 77 129 148q78 76 94 104q12 20 13 56q0 29 -9 61l-84 356h-407l-160 -346q-29 -68 -29 -80q0 -23 25 -28.5t104 -5.5h39l-4 -66h-397zM496 606h356l-129 516z" />
<glyph unicode="&#x105;" horiz-adv-x="757" d="M51 203q0 127 26.5 200.5t102.5 196.5q34 52 117 135q84 84 127 84q35 0 59.5 -30.5t34.5 -63.5l10 -31l21 115q6 35 47 35h20q23 0 31 -4q6 -4 6 -21q0 -4 -18 -119l-35 -251q-18 -137 -18 -201q0 -100 24 -101l4 1l4 2q4 0 9 4l8 8l4 3q4 3 6 5t10 14q2 2 6.5 7.5 t8.5 9.5q12 12 16 18l37 -29l-31 -40q-25 -35 -45 -58q-29 -33 -47 -51q-28 -25 -80 -68q-47 -39 -59 -51q-121 -109 -121 -215q0 -8 4 -37q2 -10 14 -49q8 -25 35 -45q23 -16 55 -16q92 0 150 61l18 -37l-32 -33q-23 -23 -82.5 -55.5t-122.5 -32.5q-102 0 -142 58 q-41 59 -40 129q0 68 65 155q61 82 156 154q39 27 39 72v6t-1 8t-2 11t-1 14q-2 20 -3 55q0 72 11 180q-70 -133 -138 -215q-35 -45 -90 -80q-51 -33 -77 -33q-101 1 -101 226zM156 268q0 -61 24.5 -104t50.5 -43q40 0 105 92q66 94 115 207q51 119 51 174q0 45 -45 88 q-49 45 -80 45q-37 0 -88 -68q-51 -66 -92 -180q-41 -113 -41 -211z" />
<glyph unicode="&#x106;" horiz-adv-x="1400" d="M92 588q0 150 45 286q45 139 133 259q86 117 231.5 190.5t321.5 73.5q180 0 307 -64q129 -63 130 -151q0 -33 -21 -82q-23 -53 -55 -53q-12 0 -20.5 6t-14.5 20q-10 25 -10 27t-3 16t-6 23q-8 33 -12 45q-14 49 -94 98t-203 49q-221 0 -393 -188.5t-172 -489.5 q0 -268 137 -436t340 -168q141 0 271 80q68 45 90 70q16 18 59 114h45q-16 -90 -37 -182q-2 -14 -18 -31q-14 -14 -58 -37q-154 -86 -364 -86q-315 0 -471 175q-158 176 -158 436zM780 1489l107 291h143l-176 -291h-74z" />
<glyph unicode="&#x107;" horiz-adv-x="565" d="M41 225q0 160 63 332q96 262 328 262q57 0 80 -20q25 -20 25 -45q0 -78 -48 -78q-14 0 -75.5 28.5t-110.5 28.5q-57 0 -106.5 -129t-49.5 -256q0 -111 39 -170t80 -59q88 0 230 141l28 -24q-8 -8 -20 -27q-14 -23 -51 -62q-29 -31 -78 -75q-29 -25 -88 -60 q-51 -29 -92 -28q-31 0 -64 24q-90 72 -90 217zM369 958l104 291h129l-176 -291h-57z" />
<glyph unicode="&#x108;" horiz-adv-x="1400" d="M92 588q0 150 45 286q45 139 133 259q86 117 231.5 190.5t321.5 73.5q180 0 307 -64q129 -63 130 -151q0 -33 -21 -82q-23 -53 -55 -53q-12 0 -20.5 6t-14.5 20q-10 25 -10 27t-3 16t-6 23q-8 33 -12 45q-14 49 -94 98t-203 49q-221 0 -393 -188.5t-172 -489.5 q0 -268 137 -436t340 -168q141 0 271 80q68 45 90 70q16 18 59 114h45q-16 -90 -37 -182q-2 -14 -18 -31q-14 -14 -58 -37q-154 -86 -364 -86q-315 0 -471 175q-158 176 -158 436zM618 1528q57 80 164 244h121q70 -111 164 -244h-119l-17 20.5l-20 22.5l-45 53 q-10 12 -26.5 29.5t-18.5 21.5l-125 -147h-78z" />
<glyph unicode="&#x109;" horiz-adv-x="565" d="M41 225q0 160 63 332q96 262 328 262q57 0 80 -20q25 -20 25 -45q0 -78 -48 -78q-14 0 -75.5 28.5t-110.5 28.5q-57 0 -106.5 -129t-49.5 -256q0 -111 39 -170t80 -59q88 0 230 141l28 -24q-8 -8 -20 -27q-14 -23 -51 -62q-29 -31 -78 -75q-29 -25 -88 -60 q-51 -29 -92 -28q-31 0 -64 24q-90 72 -90 217zM244 958q109 199 145 287h72q39 -133 102 -287h-96q-8 16 -59 187q-55 -117 -99 -187h-65z" />
<glyph unicode="&#x10a;" horiz-adv-x="1400" d="M92 588q0 150 45 286q45 139 133 259q86 117 231.5 190.5t321.5 73.5q180 0 307 -64q129 -63 130 -151q0 -33 -21 -82q-23 -53 -55 -53q-12 0 -20.5 6t-14.5 20q-10 25 -10 27t-3 16t-6 23q-8 33 -12 45q-14 49 -94 98t-203 49q-221 0 -393 -188.5t-172 -489.5 q0 -268 137 -436t340 -168q141 0 271 80q68 45 90 70q16 18 59 114h45q-16 -90 -37 -182q-2 -14 -18 -31q-14 -14 -58 -37q-154 -86 -364 -86q-315 0 -471 175q-158 176 -158 436zM754 1661q0 20 34.5 53t53.5 33q25 0 55.5 -37t30.5 -55q0 -25 -35 -56q-34 -31 -55 -30 q-18 0 -51 32.5t-33 59.5z" />
<glyph unicode="&#x10b;" horiz-adv-x="565" d="M41 225q0 160 63 332q96 262 328 262q57 0 80 -20q25 -20 25 -45q0 -78 -48 -78q-14 0 -75.5 28.5t-110.5 28.5q-57 0 -106.5 -129t-49.5 -256q0 -111 39 -170t80 -59q88 0 230 141l28 -24q-8 -8 -20 -27q-14 -23 -51 -62q-29 -31 -78 -75q-29 -25 -88 -60 q-51 -29 -92 -28q-31 0 -64 24q-90 72 -90 217zM340 1137q0 18 27 47q27 31 59 30q25 0 45 -30q20 -29 21 -58q0 -27 -33 -57q-31 -29 -49 -29q-27 0 -48 33q-22 35 -22 64z" />
<glyph unicode="&#x10c;" horiz-adv-x="1400" d="M92 588q0 150 45 286q45 139 133 259q86 117 231.5 190.5t321.5 73.5q180 0 307 -64q129 -63 130 -151q0 -33 -21 -82q-23 -53 -55 -53q-12 0 -20.5 6t-14.5 20q-10 25 -10 27t-3 16t-6 23q-8 33 -12 45q-14 49 -94 98t-203 49q-221 0 -393 -188.5t-172 -489.5 q0 -268 137 -436t340 -168q141 0 271 80q68 45 90 70q16 18 59 114h45q-16 -90 -37 -182q-2 -14 -18 -31q-14 -14 -58 -37q-154 -86 -364 -86q-315 0 -471 175q-158 176 -158 436zM600 1772h119l127 -148l125 148h78q-57 -80 -164 -244h-121q-70 111 -164 244z" />
<glyph unicode="&#x10d;" horiz-adv-x="565" d="M41 225q0 160 63 332q96 262 328 262q57 0 80 -20q25 -20 25 -45q0 -78 -48 -78q-14 0 -75.5 28.5t-110.5 28.5q-57 0 -106.5 -129t-49.5 -256q0 -111 39 -170t80 -59q88 0 230 141l28 -24q-8 -8 -20 -27q-14 -23 -51 -62q-29 -31 -78 -75q-29 -25 -88 -60 q-51 -29 -92 -28q-31 0 -64 24q-90 72 -90 217zM270 1245h97q6 -16 59 -186q51 106 98 186h66q-109 -199 -146 -287h-71q-48 152 -103 287z" />
<glyph unicode="&#x10e;" horiz-adv-x="1490" d="M45 0l4 66h37q51 0 66 10q12 8 14 51l84 1067q6 68 6 72q0 27 -16 30q-20 4 -76 4h-86l4 66h545q287 0 422 -51q137 -51 233 -189q109 -156 109 -362q0 -145 -56 -287q-55 -139 -164 -252q-126 -129 -270 -178q-139 -47 -326 -47h-530zM317 135q0 -49 25 -59 q27 -10 123 -10h133q141 0 258 47q115 47 182 116q72 76 113 162q43 94 59 178q16 88 17 166q0 96 -25 189q-23 86 -86 182q-57 88 -176 141t-274 53h-205q-34 0 -43 -6q-10 -6 -12 -22q-89 -1057 -89 -1137zM551 1772h119l127 -148l125 148h77q-57 -80 -163 -244h-121 q-70 111 -164 244z" />
<glyph unicode="&#x10f;" horiz-adv-x="763" d="M41 238q0 109 39 221q37 108 92 178q135 176 219 176q33 0 58 -27q23 -25 38 -71l17 -43l28 606v39q0 55 -20 55q-10 0 -141 -22l-9 47q236 49 279 49q39 0 39 -33v-16q0 -4 -1 -11.5t-1 -9.5l-64 -770q-33 -379 -32 -401q0 -53 20 -53q16 0 43 32q29 35 45 66l21 33 l34 -19l-14 -33q-12 -27 -53 -84q-43 -57 -98 -108q-66 -59 -97 -59q-23 0 -22 34q0 31 8 146q6 100 14 145l9 60q-33 -96 -144 -238q-115 -145 -192 -145q-27 0 -50 20q-25 20 -45 82q-20 60 -20 154zM143 360q0 -227 103 -227q37 0 92 61.5t98 160t43 182.5v32 q0 76 -43 125t-78 49q-43 0 -86 -55q-47 -61 -65 -102q-64 -134 -64 -226zM750 1075l34 305l119 -12l-96 -303z" />
<glyph unicode="&#x110;" horiz-adv-x="1490" d="M45 0l4 66h37q51 0 66 10q12 8 14 51l41 526h-131l6 80h131q6 86 43 516v17q0 27 -16 30q-20 4 -76 4h-86l4 66h545q287 0 422 -51q137 -51 233 -189q109 -156 109 -362q0 -145 -56 -287q-55 -139 -164 -252q-126 -129 -270 -178q-139 -47 -326 -47h-530zM317 135 q0 -49 25 -59q27 -10 123 -10h133q141 0 258 47q115 47 182 116q72 76 113 162q43 94 59 178q16 88 17 166q0 96 -25 189q-23 86 -86 182q-57 88 -176 141t-274 53h-205q-39 0 -47 -8q-4 -4 -11 -45l-41 -514h422l-6 -80h-422l-30 -366q-9 -91 -9 -152z" />
<glyph unicode="&#x111;" horiz-adv-x="763" d="M41 238q0 109 39 221q37 108 92 178q135 176 219 176q33 0 58 -27q23 -25 38 -71l17 -43l16 346h-284l6 80h282l8 180v39q0 55 -20 55q-10 0 -141 -22l-9 47q236 49 279 49q39 0 39 -33v-16q0 -4 -1 -11.5t-1 -9.5l-23 -278h97l-7 -80h-96l-35 -412q-33 -379 -32 -401 q0 -53 20 -53q16 0 43 32q29 35 45 66l21 33l34 -19l-14 -33q-12 -27 -53 -84q-43 -57 -98 -108q-66 -59 -97 -59q-23 0 -22 34q0 31 8 146q6 100 14 145l9 60q-33 -96 -144 -238q-115 -145 -192 -145q-27 0 -50 20q-25 20 -45 82q-20 60 -20 154zM143 360q0 -227 103 -227 q37 0 92 61.5t98 160t43 182.5v32q0 76 -43 125t-78 49q-43 0 -86 -55q-47 -61 -65 -102q-64 -134 -64 -226z" />
<glyph unicode="&#x112;" horiz-adv-x="1118" d="M33 0l4 66h47q51 0 67.5 10t20.5 51q66 750 102 1108q2 18 2 32.5t-8 22.5t-16 8q-2 0 -15.5 1t-23.5 1h-113v66h918v-248l-45 -2l-2 107q-2 51 -58 59q-61 10 -364 16q-20 0 -46 1t-32 1q-34 0 -43 -6q-10 -6 -12 -22l-41 -457h368q43 0 54 8q14 10 16 45l10 101l45 -2 l-32 -420l-50 2l11 139q0 28 -13 37q-14 10 -51 10h-366l-48 -545q0 -14 -1 -29.5t-2 -23.5t-1 -10q0 -23 9 -29q6 -4 41 -4h30q227 0 291 2q113 4 152 10q57 10 65 19q9 9 19 31q10 29 41 155l51 -10l-70 -301h-911zM403 1612v98h471v-98h-471z" />
<glyph unicode="&#x113;" horiz-adv-x="571" d="M41 207q0 218 86 405q14 31 27 50l22 32q12 18 29 29q20 16 24 18q6 6 29 21q27 16 29 16q57 37 108 37q29 0 82 -35t53 -57q0 -8 -57 -76q-66 -76 -145 -153q-76 -74 -172 -148q0 -10 4 -47q4 -43 12 -72q12 -45 41 -73.5t72 -28.5q90 0 227 127l31 -47 q-2 -2 -10.5 -9.5t-14.5 -13.5l-61 -51q-55 -45 -86 -65q-47 -33 -92 -52q-55 -23 -89 -22q-47 0 -98 51t-51 164zM154 391l28 27l62 59q33 31 67 68q6 8 27.5 29.5t30.5 31.5q23 29 22 35q0 43 -26 64q-29 23 -56 22q-51 0 -104 -90q-51 -88 -51 -229v-17zM242 1069v96h352 v-96h-352z" />
<glyph unicode="&#x114;" horiz-adv-x="1118" d="M33 0l4 66h47q51 0 67.5 10t20.5 51q66 750 102 1108q2 18 2 32.5t-8 22.5t-16 8q-2 0 -15.5 1t-23.5 1h-113v66h918v-248l-45 -2l-2 107q-2 51 -58 59q-61 10 -364 16q-20 0 -46 1t-32 1q-34 0 -43 -6q-10 -6 -12 -22l-41 -457h368q43 0 54 8q14 10 16 45l10 101l45 -2 l-32 -420l-50 2l11 139q0 28 -13 37q-14 10 -51 10h-366l-48 -545q0 -14 -1 -29.5t-2 -23.5t-1 -10q0 -23 9 -29q6 -4 41 -4h30q227 0 291 2q113 4 152 10q57 10 65 19q9 9 19 31q10 29 41 155l51 -10l-70 -301h-911zM422 1724q0 2 1 9.5t1 13.5v25h102v-19q0 -53 27 -86 q25 -31 104 -31q47 0 88 31q39 31 39 88l-1 3q-1 3 -1 5v9h52v-15q0 -223 -203 -223q-113 0 -160 59q-49 61 -49 131z" />
<glyph unicode="&#x115;" horiz-adv-x="571" d="M41 207q0 218 86 405q14 31 27 50l22 32q12 18 29 29q20 16 24 18q6 6 29 21q27 16 29 16q57 37 108 37q29 0 82 -35t53 -57q0 -8 -57 -76q-66 -76 -145 -153q-76 -74 -172 -148q0 -10 4 -47q4 -43 12 -72q12 -45 41 -73.5t72 -28.5q90 0 227 127l31 -47 q-2 -2 -10.5 -9.5t-14.5 -13.5l-61 -51q-55 -45 -86 -65q-47 -33 -92 -52q-55 -23 -89 -22q-47 0 -98 51t-51 164zM154 391l28 27l62 59q33 31 67 68q6 8 27.5 29.5t30.5 31.5q23 29 22 35q0 43 -26 64q-29 23 -56 22q-51 0 -104 -90q-51 -88 -51 -229v-17zM260 1153l8 84 h72q-2 -20 -2 -47q0 -125 88 -125q90 0 143 172h35q-23 -102 -37 -137q-59 -129 -170 -129q-66 0 -102 57q-35 55 -35 125z" />
<glyph unicode="&#x116;" horiz-adv-x="1118" d="M33 0l4 66h47q51 0 67.5 10t20.5 51q66 750 102 1108q2 18 2 32.5t-8 22.5t-16 8q-2 0 -15.5 1t-23.5 1h-113v66h918v-248l-45 -2l-2 107q-2 51 -58 59q-61 10 -364 16q-20 0 -46 1t-32 1q-34 0 -43 -6q-10 -6 -12 -22l-41 -457h368q43 0 54 8q14 10 16 45l10 101l45 -2 l-32 -420l-50 2l11 139q0 28 -13 37q-14 10 -51 10h-366l-48 -545q0 -14 -1 -29.5t-2 -23.5t-1 -10q0 -23 9 -29q6 -4 41 -4h30q227 0 291 2q113 4 152 10q57 10 65 19q9 9 19 31q10 29 41 155l51 -10l-70 -301h-911zM553 1661q0 18 37 53q35 33 51 33q25 0 55.5 -37 t30.5 -55q0 -25 -35 -56q-34 -31 -55 -30q-18 0 -51 32.5t-33 59.5z" />
<glyph unicode="&#x117;" horiz-adv-x="571" d="M41 207q0 218 86 405q14 31 27 50l22 32q12 18 29 29q20 16 24 18q6 6 29 21q27 16 29 16q57 37 108 37q29 0 82 -35t53 -57q0 -8 -57 -76q-66 -76 -145 -153q-76 -74 -172 -148q0 -10 4 -47q4 -43 12 -72q12 -45 41 -73.5t72 -28.5q90 0 227 127l31 -47 q-2 -2 -10.5 -9.5t-14.5 -13.5l-61 -51q-55 -45 -86 -65q-47 -33 -92 -52q-55 -23 -89 -22q-47 0 -98 51t-51 164zM154 391l28 27l62 59q33 31 67 68q6 8 27.5 29.5t30.5 31.5q23 29 22 35q0 43 -26 64q-29 23 -56 22q-51 0 -104 -90q-51 -88 -51 -229v-17zM336 1137 q0 18 26 47q27 31 60 30q25 0 45 -30q20 -29 20 -58q0 -27 -32 -57q-31 -29 -49 -29q-27 0 -48 33q-22 35 -22 64z" />
<glyph unicode="&#x118;" horiz-adv-x="1118" d="M33 0l4 66h47q51 0 67.5 10t20.5 51q66 750 102 1108q2 18 2 32.5t-8 22.5t-16 8q-2 0 -15.5 1t-23.5 1h-113v66h918v-248l-45 -2l-2 107q-2 51 -58 59q-61 10 -364 16q-20 0 -46 1t-32 1q-34 0 -43 -6q-10 -6 -12 -22l-41 -457h368q43 0 54 8q14 10 16 45l10 101l45 -2 l-32 -420l-50 2l11 139q0 28 -13 37q-14 10 -51 10h-366l-48 -545q0 -14 -1 -29.5t-2 -23.5t-1 -10q0 -23 9 -29q6 -4 41 -4h30q227 0 291 2q113 4 152 10q57 10 65 19q9 9 19 31q10 29 41 155l51 -10l-70 -301h-70q-61 0 -159 -86q-96 -84 -97 -186q0 -66 39 -117t103 -51 q92 0 149 61l19 -37q-8 -10 -31 -32.5t-82 -55.5t-125 -33q-94 0 -153 52q-61 51 -62 145q0 203 291 340h-733z" />
<glyph unicode="&#x119;" horiz-adv-x="571" d="M2 -342q0 154 252 346q-41 -12 -64 -12q-47 0 -98 51t-51 164q0 218 86 405q14 31 27 50l22 32q12 18 29 29q20 16 24 18q6 6 29 21q27 16 29 16q57 37 108 37q29 0 82 -35t53 -57q0 -8 -57 -76q-66 -76 -145 -153q-76 -74 -172 -148q0 -10 4 -47q4 -43 12 -72 q12 -45 41 -73.5t72 -28.5q90 0 227 127l31 -47l-264 -238q-133 -121 -134 -221q0 -76 37 -131t109 -55q90 0 149 61l19 -37q-8 -10 -30.5 -32.5t-82 -55.5t-125.5 -33q-96 0 -157.5 49.5t-61.5 145.5zM154 391l28 27l62 59q33 31 67 68q6 8 27.5 29.5t30.5 31.5 q23 29 22 35q0 43 -26 64q-29 23 -56 22q-51 0 -104 -90q-51 -88 -51 -229v-17z" />
<glyph unicode="&#x11a;" horiz-adv-x="1118" d="M33 0l4 66h47q51 0 67.5 10t20.5 51q66 750 102 1108q2 18 2 32.5t-8 22.5t-16 8q-2 0 -15.5 1t-23.5 1h-113v66h918v-248l-45 -2l-2 107q-2 51 -58 59q-61 10 -364 16q-20 0 -46 1t-32 1q-34 0 -43 -6q-10 -6 -12 -22l-41 -457h368q43 0 54 8q14 10 16 45l10 101l45 -2 l-32 -420l-50 2l11 139q0 28 -13 37q-14 10 -51 10h-366l-48 -545q0 -14 -1 -29.5t-2 -23.5t-1 -10q0 -23 9 -29q6 -4 41 -4h30q227 0 291 2q113 4 152 10q57 10 65 19q9 9 19 31q10 29 41 155l51 -10l-70 -301h-911zM399 1772h119l127 -148l125 148h78q-57 -80 -164 -244 h-121q-70 111 -164 244z" />
<glyph unicode="&#x11b;" horiz-adv-x="571" d="M41 207q0 218 86 405q14 31 27 50l22 32q12 18 29 29q20 16 24 18q6 6 29 21q27 16 29 16q57 37 108 37q29 0 82 -35t53 -57q0 -8 -57 -76q-66 -76 -145 -153q-76 -74 -172 -148q0 -10 4 -47q4 -43 12 -72q12 -45 41 -73.5t72 -28.5q90 0 227 127l31 -47 q-2 -2 -10.5 -9.5t-14.5 -13.5l-61 -51q-55 -45 -86 -65q-47 -33 -92 -52q-55 -23 -89 -22q-47 0 -98 51t-51 164zM154 391l28 27l62 59q33 31 67 68q6 8 27.5 29.5t30.5 31.5q23 29 22 35q0 43 -26 64q-29 23 -56 22q-51 0 -104 -90q-51 -88 -51 -229v-17zM266 1245h96 q6 -16 60 -186q51 106 98 186h66q-109 -199 -146 -287h-71q-48 152 -103 287z" />
<glyph unicode="&#x11c;" horiz-adv-x="1466" d="M92 623q0 137 51 280q47 133 144 248q94 115 239 180q147 68 326 68q61 0 155.5 -20.5t166.5 -59.5q55 -31 67 -49.5t12 -61.5v-20l-10 -203l-41 -2l-2 12q0 6 -4 35q-2 14 -10 51q-4 14 -25 58q-16 33 -39 61q-20 27 -59 55q-35 27 -86 43q-96 33 -168 33 q-166 0 -297 -102q-133 -104 -193 -246q-63 -150 -63 -299q0 -147 33 -258q34 -114 86 -184q51 -68 119 -115q66 -45 131 -64q65 -18 129 -18q133 0 219 61q82 59 92 173l22 292h-253l4 66h508l-5 -66h-114l-45 -573l-37 2q-10 53 -23 70q-14 25 -35 10q-58 -37 -92 -55 q-27 -14 -104 -35q-72 -18 -152 -19q-166 0 -297 54q-127 51 -202 145q-72 90 -111 209q-37 113 -37 244zM625 1528q57 80 163 244h121q70 -111 164 -244h-119l-17 20.5l-19 22.5l-46 53l-25.5 29.5t-19.5 21.5l-125 -147h-77z" />
<glyph unicode="&#x11d;" horiz-adv-x="792" d="M-68 -317q0 46 19 79q20 37 43 52q31 18 51 26q23 8 45 13l19 2l12 -43q-2 0 -9.5 -2.5t-11.5 -4.5q-12 -6 -34 -28q-20 -20 -21 -56q0 -68 70 -129q68 -59 184 -59q111 0 201 59q88 57 88 132q0 68 -139 102q-225 59 -304 102q-92 51 -92 121q0 16 10.5 41t22.5 37 l11 12q11 12 20 19q31 25 33 26q8 6 14 9.5t12 7.5l12 8q-51 20 -79 78q-27 53 -27 116q0 152 100.5 291.5t235.5 139.5q57 0 137 -35t127 -35q18 0 41 24l14 17l41 -21q-57 -133 -63 -139q-8 -8 -33 -8l-80 12q4 -49 4 -57q0 -133 -84 -270q-84 -135 -225 -136q-27 0 -57 7 q-88 -49 -88 -103q0 -16 24 -33q25 -14 78 -30l90 -23q12 -4 50 -11l59 -11q14 -2 39.5 -7.5t35.5 -7.5q12 -2 80 -30q53 -23 82 -66q29 -45 29 -102q0 -137 -133 -222q-135 -86 -326 -86q-170 0 -248 70q-80 72 -80 152zM215 467q0 -92 43 -153.5t86 -61.5q55 0 98 102 q43 100 43 217q0 74 -34 134q-33 57 -74 57q-55 0 -108.5 -96.5t-53.5 -198.5zM276 958q109 199 146 287h72q39 -133 102 -287h-96q-8 16 -60 187q-43 -88 -98 -187h-66z" />
<glyph unicode="&#x11e;" horiz-adv-x="1466" d="M92 623q0 137 51 280q47 133 144 248q94 115 239 180q147 68 326 68q61 0 155.5 -20.5t166.5 -59.5q55 -31 67 -49.5t12 -61.5v-20l-10 -203l-41 -2l-2 12q0 6 -4 35q-2 14 -10 51q-4 14 -25 58q-16 33 -39 61q-20 27 -59 55q-35 27 -86 43q-96 33 -168 33 q-166 0 -297 -102q-133 -104 -193 -246q-63 -150 -63 -299q0 -147 33 -258q34 -114 86 -184q51 -68 119 -115q66 -45 131 -64q65 -18 129 -18q133 0 219 61q82 59 92 173l22 292h-253l4 66h508l-5 -66h-114l-45 -573l-37 2q-10 53 -23 70q-14 25 -35 10q-58 -37 -92 -55 q-27 -14 -104 -35q-72 -18 -152 -19q-166 0 -297 54q-127 51 -202 145q-72 90 -111 209q-37 113 -37 244zM629 1724q0 2 1 9.5t1 13.5v25h102v-19q0 -55 24.5 -86t106.5 -31q49 0 88 31t39 88l-1 3q-1 3 -1 5v9h51v-15q0 -223 -202 -223q-113 0 -160 59q-49 61 -49 131z" />
<glyph unicode="&#x11f;" horiz-adv-x="792" d="M-68 -317q0 46 19 79q20 37 43 52q31 18 51 26q23 8 45 13l19 2l12 -43q-2 0 -9.5 -2.5t-11.5 -4.5q-12 -6 -34 -28q-20 -20 -21 -56q0 -68 70 -129q68 -59 184 -59q111 0 201 59q88 57 88 132q0 68 -139 102q-225 59 -304 102q-92 51 -92 121q0 16 10.5 41t22.5 37 l11 12q11 12 20 19q31 25 33 26q8 6 14 9.5t12 7.5l12 8q-51 20 -79 78q-27 53 -27 116q0 152 100.5 291.5t235.5 139.5q57 0 137 -35t127 -35q18 0 41 24l14 17l41 -21q-57 -133 -63 -139q-8 -8 -33 -8l-80 12q4 -49 4 -57q0 -133 -84 -270q-84 -135 -225 -136q-27 0 -57 7 q-88 -49 -88 -103q0 -16 24 -33q25 -14 78 -30l90 -23q12 -4 50 -11l59 -11q14 -2 39.5 -7.5t35.5 -7.5q12 -2 80 -30q53 -23 82 -66q29 -45 29 -102q0 -137 -133 -222q-135 -86 -326 -86q-170 0 -248 70q-80 72 -80 152zM215 467q0 -92 43 -153.5t86 -61.5q55 0 98 102 q43 100 43 217q0 74 -34 134q-33 57 -74 57q-55 0 -108.5 -96.5t-53.5 -198.5zM297 1153l8 84h72q-2 -20 -2 -47q0 -125 88 -125q90 0 143 172h35q-25 -113 -37 -137q-59 -129 -170 -129q-66 0 -102 57q-35 55 -35 125z" />
<glyph unicode="&#x120;" horiz-adv-x="1466" d="M92 623q0 137 51 280q47 133 144 248q94 115 239 180q147 68 326 68q61 0 155.5 -20.5t166.5 -59.5q55 -31 67 -49.5t12 -61.5v-20l-10 -203l-41 -2l-2 12q0 6 -4 35q-2 14 -10 51q-4 14 -25 58q-16 33 -39 61q-20 27 -59 55q-35 27 -86 43q-96 33 -168 33 q-166 0 -297 -102q-133 -104 -193 -246q-63 -150 -63 -299q0 -147 33 -258q34 -114 86 -184q51 -68 119 -115q66 -45 131 -64q65 -18 129 -18q133 0 219 61q82 59 92 173l22 292h-253l4 66h508l-5 -66h-114l-45 -573l-37 2q-10 53 -23 70q-14 25 -35 10q-58 -37 -92 -55 q-27 -14 -104 -35q-72 -18 -152 -19q-166 0 -297 54q-127 51 -202 145q-72 90 -111 209q-37 113 -37 244zM760 1661q0 20 34.5 53t53.5 33q25 0 55.5 -37t30.5 -55q0 -25 -35 -56q-34 -31 -55 -30q-18 0 -51 32.5t-33 59.5z" />
<glyph unicode="&#x121;" horiz-adv-x="792" d="M-68 -317q0 46 19 79q20 37 43 52q31 18 51 26q23 8 45 13l19 2l12 -43q-2 0 -9.5 -2.5t-11.5 -4.5q-12 -6 -34 -28q-20 -20 -21 -56q0 -68 70 -129q68 -59 184 -59q111 0 201 59q88 57 88 132q0 68 -139 102q-225 59 -304 102q-92 51 -92 121q0 16 10.5 41t22.5 37 l11 12q11 12 20 19q31 25 33 26q8 6 14 9.5t12 7.5l12 8q-51 20 -79 78q-27 53 -27 116q0 152 100.5 291.5t235.5 139.5q57 0 137 -35t127 -35q18 0 41 24l14 17l41 -21q-57 -133 -63 -139q-8 -8 -33 -8l-80 12q4 -49 4 -57q0 -133 -84 -270q-84 -135 -225 -136q-27 0 -57 7 q-88 -49 -88 -103q0 -16 24 -33q25 -14 78 -30l90 -23q12 -4 50 -11l59 -11q14 -2 39.5 -7.5t35.5 -7.5q12 -2 80 -30q53 -23 82 -66q29 -45 29 -102q0 -137 -133 -222q-135 -86 -326 -86q-170 0 -248 70q-80 72 -80 152zM215 467q0 -92 43 -153.5t86 -61.5q55 0 98 102 q43 100 43 217q0 74 -34 134q-33 57 -74 57q-55 0 -108.5 -96.5t-53.5 -198.5zM373 1137q0 14 28 47q29 31 58 30q25 0 45 -30q20 -29 20 -58q0 -27 -32 -57q-31 -29 -50 -29q-27 0 -47 33q-22 35 -22 64z" />
<glyph unicode="&#x122;" horiz-adv-x="1466" d="M92 623q0 137 51 280q47 133 144 248q94 115 239 180q147 68 326 68q61 0 155.5 -20.5t166.5 -59.5q55 -31 67 -49.5t12 -61.5v-20l-10 -203l-41 -2l-2 12q0 6 -4 35q-2 14 -10 51q-4 14 -25 58q-16 33 -39 61q-20 27 -59 55q-35 27 -86 43q-96 33 -168 33 q-166 0 -297 -102q-133 -104 -193 -246q-63 -150 -63 -299q0 -147 33 -258q34 -114 86 -184q51 -68 119 -115q66 -45 131 -64q65 -18 129 -18q133 0 219 61q82 59 92 173l22 292h-253l4 66h508l-5 -66h-114l-45 -573l-37 2q-10 53 -23 70q-14 25 -35 10q-58 -37 -92 -55 q-27 -14 -104 -35q-72 -18 -152 -19q-166 0 -297 54q-127 51 -202 145q-72 90 -111 209q-37 113 -37 244zM563 -412q0 6 23 27q16 14 49 55q25 31 24 68q0 29 -34 45q-33 14 -33 26.5t35 47.5q33 33 51 32q23 0 45 -30q20 -29 20 -68q0 -80 -63 -153q-61 -72 -96 -72 q-21 -1 -21 22z" />
<glyph unicode="&#x123;" horiz-adv-x="792" d="M-68 -317q0 46 19 79q20 37 43 52q31 18 51 26q23 8 45 13l19 2l12 -43q-2 0 -9.5 -2.5t-11.5 -4.5q-12 -6 -34 -28q-20 -20 -21 -56q0 -68 70 -129q68 -59 184 -59q111 0 201 59q88 57 88 132q0 68 -139 102q-225 59 -304 102q-92 51 -92 121q0 16 10.5 41t22.5 37 l11 12q11 12 20 19q31 25 33 26q8 6 14 9.5t12 7.5l12 8q-51 20 -79 78q-27 53 -27 116q0 152 100.5 291.5t235.5 139.5q57 0 137 -35t127 -35q18 0 41 24l14 17l41 -21q-57 -133 -63 -139q-8 -8 -33 -8l-80 12q4 -49 4 -57q0 -133 -84 -270q-84 -135 -225 -136q-27 0 -57 7 q-88 -49 -88 -103q0 -16 24 -33q25 -14 78 -30l90 -23q12 -4 50 -11l59 -11q14 -2 39.5 -7.5t35.5 -7.5q12 -2 80 -30q53 -23 82 -66q29 -45 29 -102q0 -137 -133 -222q-135 -86 -326 -86q-170 0 -248 70q-80 72 -80 152zM215 467q0 -92 43 -153.5t86 -61.5q55 0 98 102 q43 100 43 217q0 74 -34 134q-33 57 -74 57q-55 0 -108.5 -96.5t-53.5 -198.5zM379 1053q0 82 63 155q61 70 97 70q20 0 20 -23q0 -6 -24 -26q-23 -20 -48 -53q-25 -34 -24 -68q0 -27 33 -45q35 -18 34 -29q0 -16 -34 -47q-33 -31 -50 -31q-23 0 -45 29t-22 68z" />
<glyph unicode="&#x124;" horiz-adv-x="1441" d="M41 0l4 66h68q49 0 59 14q12 14 14 80l78 1061v14q0 4 1 8l1 4q0 37 -10 45t-63 8h-95l2 66h467l-2 -66h-45q-78 0 -94 -10t-18 -65l-31 -422h700l31 418q0 2 1 6t1 8v12q0 35 -12 45q-10 8 -62 8h-86v66h453l-2 -66h-33q-80 0 -96 -10q-18 -10 -21 -65l-75 -1057 q-2 -14 -2 -53q0 -35 16 -41q20 -8 80 -8h73v-66h-491l4 66h84q59 0 72 14q16 18 18 80l41 563h-700l-37 -537q0 -23 -2 -35t-2 -28q0 -37 18 -47q20 -10 76 -10h88v-66h-471zM553 1528q57 80 164 244h121q70 -111 163 -244h-118q-8 10 -17.5 20.5l-19.5 22.5q-37 41 -47 53 l-43 51l-125 -147h-78z" />
<glyph unicode="&#x125;" horiz-adv-x="874" d="M51 1386q215 59 268 60q27 0 27 -21q0 -16 -18 -206l-41 -445q-33 -379 -33 -385q90 156 205 295q101 123 166 123q76 0 75 -213q0 -74 -22 -219q-20 -131 -21 -180q0 -41 13 -41q33 0 112 114l33 47l31 -22q-61 -106 -174 -219q-51 -51 -80 -72q-23 -16 -41 -16 q-27 0 -27 53q0 27 25 256q25 230 24 301q0 74 -30 74q-46 0 -154 -142q-111 -143 -131 -247q-18 -94 -20 -162l-2 -60q0 -35 -12.5 -47t-47.5 -12q-51 0 -51 31q0 47 4 90q6 61 12 158q8 131 11 143l22 371q6 127 16.5 243.5t10.5 132.5q0 14 1 32t2 29t1 17q2 14 2 35v45 q0 43 -17 43q-18 0 -131 -31zM270 1528q57 80 164 244h121q70 -111 164 -244h-119q-8 10 -17.5 20.5l-19.5 22.5l-45 53q-10 12 -26.5 29.5t-18.5 21.5l-125 -147h-78z" />
<glyph unicode="&#x126;" horiz-adv-x="1441" d="M41 0l4 66h68q49 0 59 14q12 14 14 80l62 841h-154l6 80h154l10 140v14q0 4 1 8l1 4q0 37 -10 45t-63 8h-95l2 66h467l-2 -66h-45q-78 0 -94 -10t-18 -65l-11 -144h701l10 140q0 2 1 6t1 8v12q0 35 -12 45q-10 8 -62 8h-86v66h453l-2 -66h-33q-80 0 -96 -10 q-18 -10 -21 -65l-10 -144h137l-6 -80h-137l-59 -833q-2 -14 -2 -53q0 -35 16 -41q20 -8 80 -8h73v-66h-491l4 66h84q59 0 72 14q16 18 18 80l41 563h-700l-37 -537q0 -23 -2 -35t-2 -28q0 -37 18 -47q20 -10 76 -10h88v-66h-471zM377 803h700l15 198h-701z" />
<glyph unicode="&#x127;" horiz-adv-x="874" d="M51 1386q215 59 268 60q27 0 27 -21q0 -12 -29 -327h295l-6 -80h-297q-37 -387 -55 -629q90 156 205 295q101 123 166 123q76 0 75 -213q0 -74 -22 -219q-20 -131 -21 -180q0 -41 13 -41q33 0 112 114l33 47l31 -22q-61 -106 -174 -219q-51 -51 -80 -72q-23 -16 -41 -16 q-27 0 -27 53q0 27 25 256q25 230 24 301q0 74 -30 74q-46 0 -154 -142q-111 -143 -131 -247q-18 -94 -20 -162l-2 -60q0 -35 -12.5 -47t-47.5 -12q-51 0 -51 31q0 47 4 90q6 61 12 158q8 131 11 143q2 37 9 154.5t11 191.5q4 53 7 109.5t6 90t3 50.5h-122l6 80h123 q12 176 12 229q0 43 -17 43q-18 0 -131 -31z" />
<glyph unicode="&#x128;" horiz-adv-x="622" d="M43 0l2 66h45q61 0 76 14q16 16 22 80l105 1061q2 10 2 41q0 25 -14 32q-12 6 -60 6h-96l2 66h459l-4 -66h-25q-82 0 -98.5 -10t-22.5 -65l-104 -1057q0 -12 -1 -24.5t-2 -19.5t-1 -9q0 -35 16 -41q25 -8 92 -8h86l-2 -66h-477zM121 1542q4 12 6 22.5t16 53.5 q14 45 27 65q10 18 45 50q27 25 61 24q43 0 89 -24l61 -33q39 -20 70 -21q29 0 55 23q25 23 35 47l8 23l29 -9q-4 -20 -8.5 -34.5t-26.5 -63.5q-20 -43 -49 -68q-33 -27 -72 -26q-34 0 -74 18l-63 31q-39 20 -86 20q-31 0 -55.5 -26.5t-30.5 -52.5l-8 -27z" />
<glyph unicode="&#x129;" horiz-adv-x="497" d="M41 735q240 84 276 84q23 0 23 -31q0 -55 -23 -292q-25 -258 -24 -287q0 -47 16 -47q31 0 137 168l33 -27q-39 -92 -125 -182q-33 -35 -94 -86q-55 -45 -74 -45q-35 0 -34 45q0 2 3 29.5t10 99.5l15 147q27 260 27 379q0 33 -25 33q-20 0 -47 -8q-37 -10 -53 -21l-25 -10 zM104 987q2 4 3 12q2 7 2 11q4 20 12 53q6 23 24 65q8 18 35 50q20 25 49 24q37 0 72 -22l51 -33q29 -20 56 -21q25 0 43 23q20 25 26 45l8 23l25 -7q-39 -193 -125 -192q-33 0 -61 16l-52 33q-33 20 -69 20q-27 0 -45.5 -26.5t-24.5 -52.5l-6 -27z" />
<glyph unicode="&#x12a;" horiz-adv-x="622" d="M43 0l2 66h45q61 0 76 14q16 16 22 80l105 1061q2 10 2 41q0 25 -14 32q-12 6 -60 6h-96l2 66h459l-4 -66h-25q-82 0 -98.5 -10t-22.5 -65l-104 -1057q0 -12 -1 -24.5t-2 -19.5t-1 -9q0 -35 16 -41q25 -8 92 -8h86l-2 -66h-477zM141 1612v98h471v-98h-471z" />
<glyph unicode="&#x12b;" horiz-adv-x="497" d="M41 735q240 84 276 84q23 0 23 -31q0 -55 -23 -292q-25 -258 -24 -287q0 -47 16 -47q31 0 137 168l33 -27q-39 -92 -125 -182q-33 -35 -94 -86q-55 -45 -74 -45q-35 0 -34 45q0 2 3 29.5t10 99.5l15 147q27 260 27 379q0 33 -25 33q-20 0 -47 -8q-37 -10 -53 -21l-25 -10 zM131 1069v96h352v-96h-352z" />
<glyph unicode="&#x12c;" horiz-adv-x="622" d="M43 0l2 66h45q61 0 76 14q16 16 22 80l105 1061q2 10 2 41q0 25 -14 32q-12 6 -60 6h-96l2 66h459l-4 -66h-25q-82 0 -98.5 -10t-22.5 -65l-104 -1057q0 -12 -1 -24.5t-2 -19.5t-1 -9q0 -35 16 -41q25 -8 92 -8h86l-2 -66h-477zM160 1724q0 2 1 9.5t1 13.5v25h102v-19 q0 -55 24.5 -86t106.5 -31q47 0 88 31q39 31 39 88l-1 3q-1 3 -1 5v9h51v-15q0 -223 -202 -223q-113 0 -160 59q-49 61 -49 131z" />
<glyph unicode="&#x12d;" horiz-adv-x="497" d="M41 735q240 84 276 84q23 0 23 -31q0 -55 -23 -292q-25 -258 -24 -287q0 -47 16 -47q31 0 137 168l33 -27q-39 -92 -125 -182q-33 -35 -94 -86q-55 -45 -74 -45q-35 0 -34 45q0 2 3 29.5t10 99.5l15 147q27 260 27 379q0 33 -25 33q-20 0 -47 -8q-37 -10 -53 -21l-25 -10 zM150 1153l8 84h71q-2 -20 -2 -47q0 -125 88 -125t144 172h35q-25 -113 -37 -137q-59 -129 -170 -129q-63 0 -100 57t-37 125z" />
<glyph unicode="&#x12e;" horiz-adv-x="622" d="M43 0l2 66h45q61 0 76 14q16 16 22 80l105 1061q2 10 2 41q0 25 -14 32q-12 6 -60 6h-96l2 66h459l-4 -66h-25q-82 0 -98.5 -10t-22.5 -65l-104 -1057q0 -12 -1 -24.5t-2 -19.5t-1 -9q0 -35 16 -41q25 -8 92 -8h86l-2 -66h-229q-94 -131 -94 -248q0 -77 36 -135 q37 -57 119 -57q63 0 109 41l18 -29q-66 -104 -196 -104q-88 0 -151.5 51t-63.5 151q0 76 34 146q34 68 129 184h-188z" />
<glyph unicode="&#x12f;" horiz-adv-x="497" d="M41 735q240 84 276 84q23 0 23 -31q0 -55 -23 -292q-25 -258 -24 -287q0 -47 16 -47q31 0 137 168l33 -27q-14 -35 -35 -65q-10 -18 -98 -132q-76 -96 -127 -196q-41 -80 -41 -158q0 -80 35 -135q37 -57 121 -57q63 0 108 41l19 -29q-65 -104 -197 -104q-88 0 -151.5 51 t-63.5 151q0 23 2 33t10.5 34.5l12.5 35.5q8 18 20 37q6 8 13.5 20t9.5 16q4 4 12 18.5t14 22.5q16 25 29 41l33 45q12 16 21.5 27.5t13.5 17.5q-35 -29 -54 -28q-35 0 -34 45q0 2 3 29.5t10 99.5l15 147q27 260 27 379q0 33 -25 33q-20 0 -47 -8q-37 -10 -53 -21l-25 -10z M287 1290q0 14 28 47q29 31 58 31q25 0 45 -28.5t20 -59.5q0 -27 -32 -57q-31 -29 -50 -29q-27 0 -47 33q-22 34 -22 63z" />
<glyph unicode="&#x130;" horiz-adv-x="622" d="M43 0l2 66h45q61 0 76 14q16 16 22 80l105 1061q2 10 2 41q0 25 -14 32q-12 6 -60 6h-96l2 66h459l-4 -66h-25q-82 0 -98.5 -10t-22.5 -65l-104 -1057q0 -12 -1 -24.5t-2 -19.5t-1 -9q0 -35 16 -41q25 -8 92 -8h86l-2 -66h-477zM291 1661q0 20 34.5 53t53.5 33 q25 0 55.5 -37t30.5 -55q0 -25 -35 -56q-34 -31 -55 -30q-18 0 -51 32.5t-33 59.5z" />
<glyph unicode="&#x131;" horiz-adv-x="497" d="M41 735q240 84 276 84q23 0 23 -31q0 -55 -23 -292q-25 -258 -24 -287q0 -47 16 -47q31 0 137 168l33 -27q-39 -92 -125 -182q-33 -35 -94 -86q-55 -45 -74 -45q-35 0 -34 45q0 2 3 29.5t10 99.5l15 147q27 260 27 379q0 33 -25 33q-20 0 -47 -8q-37 -10 -53 -21l-25 -10 z" />
<glyph unicode="&#x132;" horiz-adv-x="1267" d="M43 0l2 66h45q61 0 76 14q16 16 22 80l105 1061q2 10 2 41q0 25 -14 32q-12 6 -60 6h-96l2 66h459l-4 -66h-25q-82 0 -98.5 -10t-22.5 -65l-104 -1057q0 -12 -1 -24.5t-2 -19.5t-1 -9q0 -35 16 -41q25 -8 92 -8h86l-2 -66h-477zM391 -391q0 51 31 84t63 33q18 0 35 -13 q14 -12 19 -22q8 -27 14 -39q23 -51 41 -70q23 -23 55 -22q57 0 94 49q20 27 43 168q23 160 48 391l100 1053q2 10 2 41q0 25 -14 32q-12 6 -60 6h-151v66h516v-66h-70q-51 0 -63 -12q-14 -14 -17 -63l-133 -1391q-8 -109 -33 -153q-45 -80 -137 -152q-86 -68 -201 -68 q-88 0 -135 39t-47 109z" />
<glyph unicode="&#x133;" horiz-adv-x="983" d="M41 735q240 84 276 84q23 0 23 -31q0 -55 -23 -292q-25 -258 -24 -287q0 -47 16 -47q31 0 137 168l33 -27q-39 -92 -125 -182q-33 -35 -94 -86q-55 -45 -74 -45q-35 0 -34 45q0 2 3 29.5t10 99.5l15 147q27 260 27 379q0 33 -25 33q-20 0 -47 -8q-37 -10 -53 -21l-25 -10 zM287 1290q0 14 28 47q29 31 58 31q25 0 45 -28.5t20 -59.5q0 -27 -32 -57q-31 -29 -50 -29q-27 0 -47 33q-22 34 -22 63zM319 -408q0 39 19 66q18 29 53 29q23 0 39 -23q12 -16 23 -49q10 -31 28 -49q23 -23 54 -23q90 0 114 221q25 207 47 523q25 338 25 403q0 31 -19 31 q-23 0 -143 -49l-18 53q249 98 301 98q20 0 20 -35q0 -20 -8 -118q-4 -57 -10 -122t-13 -132q-14 -166 -16 -228q-23 -373 -55 -501q-18 -72 -57 -119t-85 -66q-46 -18 -73 -24q-29 -6 -45 -6q-68 0 -125 34q-56 34 -56 86zM772 1290q0 18 27 47q29 31 59 31 q25 0 45.5 -28.5t20.5 -59.5q0 -27 -33 -57q-31 -29 -49 -29q-27 0 -47 33q-23 34 -23 63z" />
<glyph unicode="&#x134;" horiz-adv-x="663" d="M-213 -391q0 53 29 84q31 33 65 33q20 0 34.5 -12.5t18.5 -22.5q2 -2 5.5 -12.5t9.5 -26.5q39 -92 96 -92t94 49q20 27 43 168q33 227 47 391l101 1053q2 10 2 41q0 27 -12.5 32.5t-61.5 5.5h-152v66h517v-66h-70q-49 0 -61 -12q-16 -16 -19 -63l-133 -1391 q-8 -109 -33 -153q-45 -80 -137 -152q-86 -68 -201 -68q-88 0 -135 39t-47 109zM166 1536q57 80 164 244h121q70 -111 163 -244h-118q-8 10 -17.5 20.5l-19.5 22.5q-37 41 -47 53q-25 31 -43 51l-125 -147h-78z" />
<glyph unicode="&#x135;" horiz-adv-x="503" d="M-160 -408q0 39 19 66q18 29 53 29q23 0 39 -23q12 -16 22 -49q10 -31 29 -49q23 -23 53 -23q88 0 115 221q25 207 47 523q25 338 25 403q0 31 -19 31q-23 0 -143 -49l-19 53q249 98 301 98q20 0 21 -35q0 -20 -8 -118q-4 -57 -10.5 -122t-12.5 -132q-14 -166 -16 -228 q-23 -373 -55 -501q-18 -72 -58 -119q-37 -47 -86 -65.5t-71 -24.5q-29 -6 -46 -6q-68 0 -124 34t-56 86zM135 958q109 199 146 287h71q39 -133 103 -287h-97q-6 16 -59 187q-43 -88 -98 -187h-66z" />
<glyph unicode="&#x136;" horiz-adv-x="1497" d="M45 0v66h45q61 0 76 14q18 18 20 80l86 1061q2 10 2 41q0 25 -14 32q-12 6 -59 6h-76v66h442l-2 -66h-28q-78 0 -99 -10q-18 -10 -22 -65l-47 -582l718 574q76 57 76 69q0 14 -57 14h-64v66h447l-4 -66h-86q-49 0 -82 -16t-133 -92l-18.5 -14.5t-12.5 -10.5l-514 -397 q514 -705 649 -704h113l-4 -66h-353q-215 250 -518 686l-164 -125l-32 -393q-2 -14 -2 -53q0 -35 16 -41q25 -8 92 -8h86v-66h-477zM623 -451q0 4 24 27q16 14 49 55q23 29 23 68q0 27 -35 45q-33 18 -33 27q0 12 35 47q33 33 51 32q25 0 45 -30q20 -29 21 -68 q0 -84 -62 -155q-61 -70 -98 -70q-20 -1 -20 22z" />
<glyph unicode="&#x137;" horiz-adv-x="829" d="M51 1389q100 27 158 36q101 18 123 19q29 0 28 -21l-102 -1058l27.5 17t29 20.5t39.5 27.5q61 43 154 131q94 92 94 150q0 35 -51 34h-41q-2 0 -11.5 -1t-15.5 -1h-30l4 45q80 8 221 9q88 0 88 -21q0 -49 -119 -170q-92 -92 -196 -164q0 -2 3 -8l5 -10q4 -12 18 -45 q10 -23 31 -64q25 -53 33 -67q10 -20 39 -64q16 -25 36 -45q18 -18 33 -18q18 0 47 41q33 49 47 78l21 39l47 -27q-14 -31 -55 -100q-104 -168 -156 -168q-39 0 -100.5 98t-104.5 197l-43 98l-98 -68q-8 -104 -14 -196l-2 -60q0 -33 -12.5 -45t-47.5 -12q-66 0 -65 29 q0 14 14 170q18 188 43 489q18 223 47 662v2q0 25 -22 24l-66 -16q-57 -14 -68 -15zM283 -446q0 8 24 28q29 25 49 53q23 31 23 68q0 27 -35 45q-33 18 -33 27q0 12 35 47q33 33 51 33q25 0 45.5 -29t20.5 -70q0 -84 -62 -155q-61 -70 -98 -70q-20 0 -20 23z" />
<glyph unicode="&#x139;" horiz-adv-x="1089" d="M41 0l2 66h59q51 0 68 10q12 8 16 51q80 1124 80 1135q0 39 -80 38h-100l4 66h481v-66h-94q-4 0 -12 -1t-10 -1q-8 0 -16.5 -4t-12.5 -4t-8 -6l-4 -8q0 -1 -2 -5q-2 -5 -2 -9q-2 -8 -2 -15v-16q0 -6 -1 -12.5t-1 -8.5q-74 -1075 -74 -1081q0 -31 14 -39q16 -10 66 -10 q117 0 280 14q184 16 201 23q25 10 35 35q9 25 49 153l53 -14l-82 -291h-907zM297 1489l106 291h144l-176 -291h-74z" />
<glyph unicode="&#x13a;" horiz-adv-x="466" d="M31 1391q231 68 280 67q43 0 43 -33q0 -6 -6 -55q-2 -16 -6 -62t-6 -75l-14 -170q-61 -760 -62 -856q0 -45 16 -45q39 0 140 178l45 -33q-2 -6 -13.5 -26.5l-19.5 -34.5q-18 -33 -86 -119q-66 -84 -127 -127q-27 -20 -55 -20q-33 0 -33 61q0 25 2 47q4 45 4 49 q18 385 33 604q4 72 10 170.5t10 157.5t7 98q8 117 8 172q0 29 -23 29q-35 0 -135 -33zM211 1489l106 291h144l-162 -269z" />
<glyph unicode="&#x13b;" horiz-adv-x="1089" d="M41 0l2 66h59q51 0 68 10q12 8 16 51q80 1124 80 1135q0 39 -80 38h-100l4 66h481v-66h-94q-4 0 -12 -1t-10 -1q-8 0 -16.5 -4t-12.5 -4t-8 -6l-4 -8q0 -1 -2 -5q-2 -5 -2 -9q-2 -8 -2 -15v-16q0 -6 -1 -12.5t-1 -8.5q-74 -1075 -74 -1081q0 -31 14 -39q16 -10 66 -10 q117 0 280 14q184 16 201 23q25 10 35 35q9 25 49 153l53 -14l-82 -291h-907zM391 -383q0 6 23 27q16 14 49 55q25 31 24 68q0 29 -34 45q-33 14 -33 26t35 47q33 33 51 33q25 0 45 -28.5t20 -69.5q0 -82 -63 -156q-61 -70 -96 -70q-21 0 -21 23z" />
<glyph unicode="&#x13c;" horiz-adv-x="466" d="M31 1391q231 68 280 67q43 0 43 -33q0 -6 -6 -55q-2 -16 -6 -62t-6 -75l-14 -170q-61 -760 -62 -856q0 -45 16 -45q39 0 140 178l45 -33q-2 -6 -13.5 -26.5l-19.5 -34.5q-18 -33 -86 -119q-66 -84 -127 -127q-27 -20 -55 -20q-33 0 -33 61q0 25 2 47q4 45 4 49 q18 385 33 604q4 72 10 170.5t10 157.5t7 98q8 117 8 172q0 29 -23 29q-35 0 -135 -33zM86 -446q0 8 25 28q23 20 47 53q25 34 24 68q0 27 -32 45q-35 18 -35 27q0 12 35 47q33 33 51 33q25 0 45 -29t20 -70q0 -82 -63 -155q-61 -70 -97 -70q-20 0 -20 23z" />
<glyph unicode="&#x13d;" horiz-adv-x="1089" d="M41 0l2 66h59q51 0 68 10q12 8 16 51q80 1124 80 1135q0 39 -80 38h-100l4 66h481v-66h-94q-4 0 -12 -1t-10 -1q-8 0 -16.5 -4t-12.5 -4t-8 -6l-4 -8q0 -1 -2 -5q-2 -5 -2 -9q-2 -8 -2 -15v-16q0 -6 -1 -12.5t-1 -8.5q-74 -1075 -74 -1081q0 -31 14 -39q16 -10 66 -10 q117 0 280 14q184 16 201 23q25 10 35 35q9 25 49 153l53 -14l-82 -291h-907zM707 1059l34 305l119 -12l-96 -303z" />
<glyph unicode="&#x13e;" horiz-adv-x="466" d="M31 1391q231 68 280 67q43 0 43 -33q0 -6 -6 -55q-2 -16 -6 -62t-6 -75l-14 -170q-61 -760 -62 -856q0 -45 16 -45q39 0 140 178l45 -33q-2 -6 -13.5 -26.5l-19.5 -34.5q-18 -33 -86 -119q-66 -84 -127 -127q-27 -20 -55 -20q-33 0 -33 61q0 25 2 47q4 45 4 49 q18 385 33 604q4 72 10 170.5t10 157.5t7 98q8 117 8 172q0 29 -23 29q-35 0 -135 -33zM440 1059l35 305l119 -12l-96 -303z" />
<glyph unicode="&#x13f;" horiz-adv-x="1089" d="M41 0l2 66h59q51 0 68 10q12 8 16 51q80 1124 80 1135q0 39 -80 38h-100l4 66h481v-66h-94q-4 0 -12 -1t-10 -1q-8 0 -16.5 -4t-12.5 -4t-8 -6l-4 -8q0 -1 -2 -5q-2 -5 -2 -9q-2 -8 -2 -15v-16q0 -6 -1 -12.5t-1 -8.5q-74 -1075 -74 -1081q0 -31 14 -39q16 -10 66 -10 q117 0 280 14q184 16 201 23q25 10 35 35q9 25 49 153l53 -14l-82 -291h-907zM768 692q0 18 27 47q29 31 59 31q25 0 45.5 -28.5t20.5 -59.5q0 -29 -33 -55q-35 -29 -49 -29q-27 0 -47 31q-23 32 -23 63z" />
<glyph unicode="&#x140;" horiz-adv-x="847" d="M31 1391q231 68 280 67q43 0 43 -33q0 -6 -6 -55q-2 -16 -6 -62t-6 -75l-14 -170q-61 -760 -62 -856q0 -45 16 -45q39 0 140 178l45 -33q-2 -6 -13.5 -26.5l-19.5 -34.5q-18 -33 -86 -119q-66 -84 -127 -127q-27 -20 -55 -20q-33 0 -33 61q0 25 2 47q4 45 4 49 q18 385 33 604q4 72 10 170.5t10 157.5t7 98q8 117 8 172q0 29 -23 29q-35 0 -135 -33zM569 692q0 14 29 47q29 31 57 31q25 0 45.5 -28.5t20.5 -59.5q0 -29 -33 -55q-35 -29 -49 -29q-25 0 -47 31q-23 32 -23 63z" />
<glyph unicode="&#x141;" horiz-adv-x="1089" d="M41 0l2 66h59q51 0 68 10q12 8 16 51l31 448l-133 -36l6 82l133 34l41 574q4 51 -8 59q-14 12 -70 12h-100l4 66h481v-66h-94q-4 0 -12 -1t-10 -1q-8 0 -16.5 -4t-12.5 -4t-8 -6l-4 -8q0 -1 -2 -5q-2 -5 -2 -9q-2 -8 -2 -15v-16q0 -6 -1 -12.5t-1 -8.5l-35 -514l442 121 l-10 -90l-438 -113l-33 -473v-12q0 -31 14 -39q16 -10 66 -10q117 0 280 14q184 16 201 23q25 10 35 35q9 25 49 153l53 -14l-82 -291h-907z" />
<glyph unicode="&#x142;" horiz-adv-x="466" d="M23 625l4 92l141 45q33 518 33 577q0 29 -23 29q-35 0 -135 -33l-12 56q231 68 280 67q43 0 43 -33q0 -6 -6 -55q-2 -16 -6 -62t-6 -75l-14 -170l-19 -254l150 59l-2 -90l-154 -51q-37 -479 -37 -520q0 -45 16 -45q39 0 140 178l45 -33q-2 -6 -13.5 -26.5l-19.5 -34.5 q-18 -33 -86 -119q-66 -84 -127 -127q-27 -20 -55 -20q-33 0 -33 61q0 25 2 47q4 45 4 49q12 254 17 312q4 53 7 107t5 84t2 40z" />
<glyph unicode="&#x143;" horiz-adv-x="1529" d="M61 1300l5 66h315l817 -1153l72 737q31 295 30 301q0 29 -14 39t-55 10h-101l3 66h378l-4 -66h-51q-37 0 -47 -2q-16 -4 -25 -16q-4 -8 -10 -25q-2 -8 -6 -47q-20 -190 -22 -211l-66 -641l-35 -344q-4 -49 -22.5 -49t-46.5 37l-818 1137q-25 -299 -57 -723 q-18 -272 -18 -312q0 -27 16 -32.5t45 -5.5h113l-2 -66h-389l4 66h45q61 0 75.5 14t16.5 74l90 1052l-27 33q-4 6 -10 12t-9 11l-3 4l-6 5l-11 9q-12 12 -18 12l-20 4q-20 4 -29 4h-41h-62zM766 1489l106 291h144l-176 -291h-74z" />
<glyph unicode="&#x144;" horiz-adv-x="839" d="M31 731q45 14 67 25q61 27 113 43q55 18 74 18q27 0 26 -33q0 -20 -8 -71q-4 -20 -16 -148q-8 -80 -8 -176q240 426 376 426q49 0 50 -135q0 -94 -20.5 -258t-20.5 -195q0 -63 16 -63t96 139l35 -18q-53 -113 -133 -205q-82 -94 -131 -94q-27 0 -27 47q0 53 26.5 245.5 t26.5 292.5q0 92 -32 93q-35 0 -123 -125t-131 -238q-12 -31 -19 -61q-2 -10 -8 -47q0 -6 -1 -15.5t-2 -25t-1 -27.5q-2 -43 -6 -88q-2 -39 -53 -39h-33q-16 0 -28.5 6t-10.5 25q41 440 41 645q0 45 -23 45l-94 -31zM461 958l104 291h129l-176 -291h-57z" />
<glyph unicode="&#x145;" horiz-adv-x="1529" d="M61 1300l5 66h315l817 -1153l72 737q31 295 30 301q0 29 -14 39t-55 10h-101l3 66h378l-4 -66h-51q-37 0 -47 -2q-16 -4 -25 -16q-4 -8 -10 -25q-2 -8 -6 -47q-20 -190 -22 -211l-66 -641l-35 -344q-4 -49 -22.5 -49t-46.5 37l-818 1137q-25 -299 -57 -723 q-18 -272 -18 -312q0 -27 16 -32.5t45 -5.5h113l-2 -66h-389l4 66h45q61 0 75.5 14t16.5 74l90 1052l-27 33q-4 6 -10 12t-9 11l-3 4l-6 5l-11 9q-12 12 -18 12l-20 4q-20 4 -29 4h-41h-62zM651 -457q0 6 25 27q23 18 49 53q23 29 23 70q0 31 -33 45q-35 16 -35 26 q0 12 35 48q33 33 51 32q25 0 45 -30q20 -29 20 -68q0 -80 -63 -154q-61 -72 -96 -71q-21 -1 -21 22z" />
<glyph unicode="&#x146;" horiz-adv-x="839" d="M31 731q45 14 67 25q61 27 113 43q55 18 74 18q27 0 26 -33q0 -20 -8 -71q-4 -20 -16 -148q-8 -80 -8 -176q240 426 376 426q49 0 50 -135q0 -94 -20.5 -258t-20.5 -195q0 -63 16 -63t96 139l35 -18q-53 -113 -133 -205q-82 -94 -131 -94q-27 0 -27 47q0 53 26.5 245.5 t26.5 292.5q0 92 -32 93q-35 0 -123 -125t-131 -238q-12 -31 -19 -61q-2 -10 -8 -47q0 -6 -1 -15.5t-2 -25t-1 -27.5q-2 -43 -6 -88q-2 -39 -53 -39h-33q-16 0 -28.5 6t-10.5 25q41 440 41 645q0 45 -23 45l-94 -31zM289 -457q0 6 24 27q14 12 47 53q25 31 25 70 q0 29 -35 45q-33 14 -33 26.5t35 47.5q33 33 51 32q23 0 46 -30q20 -29 20 -68q0 -80 -63 -154q-61 -72 -97 -71q-20 -1 -20 22z" />
<glyph unicode="&#x147;" horiz-adv-x="1529" d="M61 1300l5 66h315l817 -1153l72 737q31 295 30 301q0 29 -14 39t-55 10h-101l3 66h378l-4 -66h-51q-37 0 -47 -2q-16 -4 -25 -16q-4 -8 -10 -25q-2 -8 -6 -47q-20 -190 -22 -211l-66 -641l-35 -344q-4 -49 -22.5 -49t-46.5 37l-818 1137q-25 -299 -57 -723 q-18 -272 -18 -312q0 -27 16 -32.5t45 -5.5h113l-2 -66h-389l4 66h45q61 0 75.5 14t16.5 74l90 1052l-27 33q-4 6 -10 12t-9 11l-3 4l-6 5l-11 9q-12 12 -18 12l-20 4q-20 4 -29 4h-41h-62zM586 1772h119l126 -148l125 148h78q-57 -80 -164 -244h-120q-70 111 -164 244z" />
<glyph unicode="&#x148;" horiz-adv-x="839" d="M31 731q45 14 67 25q61 27 113 43q55 18 74 18q27 0 26 -33q0 -20 -8 -71q-4 -20 -16 -148q-8 -80 -8 -176q240 426 376 426q49 0 50 -135q0 -94 -20.5 -258t-20.5 -195q0 -63 16 -63t96 139l35 -18q-53 -113 -133 -205q-82 -94 -131 -94q-27 0 -27 47q0 53 26.5 245.5 t26.5 292.5q0 92 -32 93q-35 0 -123 -125t-131 -238q-12 -31 -19 -61q-2 -10 -8 -47q0 -6 -1 -15.5t-2 -25t-1 -27.5q-2 -43 -6 -88q-2 -39 -53 -39h-33q-16 0 -28.5 6t-10.5 25q41 440 41 645q0 45 -23 45l-94 -31zM362 1245h97q8 -16 59 -186q51 106 98 186h66 q-109 -199 -145 -287h-72q-48 152 -103 287z" />
<glyph unicode="&#x149;" horiz-adv-x="1337" d="M141 976.5q0 18.5 31 39.5q37 25 64 55q33 37 32 90q0 43 -26 66q-25 23 -51.5 31t-26.5 20q0 4 8 18l49 72q16 25 33 25q10 0 57 -29t64 -55q14 -27 14 -76q0 -115 -82 -195q-83 -80 -141 -80q-25 0 -25 18.5zM528 731q35 12 66 25q55 23 115 43q55 18 73 18 q27 0 27 -33q0 -20 -8 -71q-4 -20 -17 -148q-8 -80 -8 -176q240 426 377 426q49 0 49 -135q0 -94 -20.5 -258t-20.5 -195q0 -63 16.5 -63t96.5 139l35 -18q-53 -113 -133 -205q-82 -94 -132 -94q-27 0 -26 47q0 53 26.5 245.5t26.5 292.5q0 92 -33 93q-35 0 -123 -125 t-131 -238q-12 -31 -18 -61q-2 -10 -8 -47q0 -6 -1 -15.5t-2 -25t-1 -27.5q-2 -43 -6 -88q-2 -39 -54 -39h-32q-16 0 -28.5 6t-10.5 25q41 440 41 645q0 45 -23 45l-94 -31z" />
<glyph unicode="&#x14c;" horiz-adv-x="1488" d="M92 608q0 338 198.5 567.5t512.5 229.5q283 0 434 -184q152 -186 152 -451q0 -125 -29 -231q-31 -115 -92 -220q-59 -100 -148 -182q-84 -78 -205 -125q-117 -45 -258 -45q-240 0 -403 164q-162 162 -162 477zM260 651q0 -293 129 -452q127 -158 313 -158q205 0 363 192 q156 188 156 521q0 283 -129 434t-312 151q-207 0 -364 -184q-156 -182 -156 -504zM582 1612v98h471v-98h-471z" />
<glyph unicode="&#x14d;" horiz-adv-x="673" d="M41 262q0 236 164 430q111 129 223 129q76 0 127 -51q47 -47 63.5 -108.5t16.5 -120.5q0 -197 -123 -381.5t-260 -184.5q-92 0 -151.5 84t-59.5 203zM178 348q0 -123 37 -209t94 -86q70 0 131.5 143.5t61.5 290.5q0 90 -33 183q-31 86 -92 86q-63 0 -131 -127 q-68 -125 -68 -281zM274 1069v96h353v-96h-353z" />
<glyph unicode="&#x14e;" horiz-adv-x="1488" d="M92 608q0 338 198.5 567.5t512.5 229.5q283 0 434 -184q152 -186 152 -451q0 -125 -29 -231q-31 -115 -92 -220q-59 -100 -148 -182q-84 -78 -205 -125q-117 -45 -258 -45q-240 0 -403 164q-162 162 -162 477zM260 651q0 -293 129 -452q127 -158 313 -158q205 0 363 192 q156 188 156 521q0 283 -129 434t-312 151q-207 0 -364 -184q-156 -182 -156 -504zM600 1724v23q0 6 1 14t1 11h103v-19q0 -53 26 -86q25 -31 105 -31q49 0 88 31t39 88v8q0 2 -1 5l-1 4h51v-15q0 -223 -203 -223q-113 0 -160 59q-49 61 -49 131z" />
<glyph unicode="&#x14f;" horiz-adv-x="673" d="M41 262q0 236 164 430q111 129 223 129q76 0 127 -51q47 -47 63.5 -108.5t16.5 -120.5q0 -197 -123 -381.5t-260 -184.5q-92 0 -151.5 84t-59.5 203zM178 348q0 -123 37 -209t94 -86q70 0 131.5 143.5t61.5 290.5q0 90 -33 183q-31 86 -92 86q-63 0 -131 -127 q-68 -125 -68 -281zM293 1153l8 84h72q-2 -20 -2 -47q0 -125 88 -125q90 0 143 172h35q-25 -113 -37 -137q-59 -129 -170 -129q-66 0 -102 57q-35 55 -35 125z" />
<glyph unicode="&#x150;" horiz-adv-x="1488" d="M92 608q0 338 198.5 567.5t512.5 229.5q283 0 434 -184q152 -186 152 -451q0 -125 -29 -231q-31 -115 -92 -220q-59 -100 -148 -182q-84 -78 -205 -125q-117 -45 -258 -45q-240 0 -403 164q-162 162 -162 477zM260 651q0 -293 129 -452q127 -158 313 -158q205 0 363 192 q156 188 156 521q0 283 -129 434t-312 151q-207 0 -364 -184q-156 -182 -156 -504zM592 1489l106 291h144l-176 -291h-74zM893 1489l104 291h146l-176 -291h-74z" />
<glyph unicode="&#x151;" horiz-adv-x="673" d="M41 262q0 236 164 430q111 129 223 129q76 0 127 -51q47 -47 63.5 -108.5t16.5 -120.5q0 -197 -123 -381.5t-260 -184.5q-92 0 -151.5 84t-59.5 203zM178 348q0 -123 37 -209t94 -86q70 0 131.5 143.5t61.5 290.5q0 90 -33 183q-31 86 -92 86q-63 0 -131 -127 q-68 -125 -68 -281zM291 958l104 291h129l-174 -291h-59zM489 958l107 291h129l-176 -291h-60z" />
<glyph unicode="&#x152;" horiz-adv-x="1945" d="M92 608q0 334 196.5 555t514.5 221q43 0 192 -10q121 -8 199 -8h651v-248l-45 -2l-2 107q-2 51 -57 59q-61 10 -365 16q-20 0 -44.5 1t-33.5 1q-34 0 -43 -6q-10 -6 -12 -22l-41 -457h369q43 0 53 8q14 10 16 45l11 101l45 -2l-33 -420l-49 2l10 139q0 27 -14.5 37 t-48.5 10h-367l-47 -545q0 -14 -1 -29.5t-2 -23.5t-1 -10q0 -23 8 -29q6 -4 41 -4h31q227 0 290 2q113 4 152 10q57 10 66 19t18 31q10 29 41 155l51 -10l-69 -301h-668q-33 0 -186.5 -10t-221.5 -10q-125 0 -233 34q-100 33 -191 107q-84 68 -133 196q-47 121 -47 291z M260 651q0 -313 133 -454q135 -143 348 -144q78 0 160 17q96 18 98 57l93 1008q0 2 1 8t2 16t1 19q4 45 4 51q0 29 -29 51q-27 20 -80 27q-84 10 -88 10q-23 2 -90 2q-258 0 -405.5 -184.5t-147.5 -483.5z" />
<glyph unicode="&#x153;" horiz-adv-x="1007" d="M41 262q0 236 164 430q111 129 223 129q40 0 68 -18q29 -20 43 -49q18 -41 22 -58q4 -20 12 -67q12 25 19 35q12 20 22 30q12 14 21 23q12 12 22 20l21 15q2 0 10 5l14 9q16 8 21 12q59 37 108 37q29 0 82.5 -35t53.5 -57q0 -10 -56 -76q-55 -65 -147 -153 q-76 -74 -172 -148q0 -10 4 -47q4 -31 14 -72q12 -47 39 -73q29 -29 72 -29q90 0 227 127l31 -47q-2 -2 -10 -9.5l-15 -13.5l-61 -51q-55 -45 -86 -65q-47 -33 -92 -52q-55 -23 -88 -22q-23 0 -49 10q-23 8 -54 51q-29 39 -41 111q-37 -80 -104 -137q-59 -51 -127 -52 q-92 0 -151.5 84t-59.5 203zM178 348q0 -123 37 -209t94 -86q70 0 131.5 143.5t61.5 290.5q0 90 -33 183q-31 86 -92 86q-63 0 -131 -127q-68 -125 -68 -281zM590 391l28 27l62 59q33 31 68 68q6 8 27.5 29.5t29.5 31.5q23 29 22 35q0 43 -26 64q-29 23 -56 22 q-51 0 -104 -90q-51 -88 -51 -229v-17z" />
<glyph unicode="&#x154;" horiz-adv-x="1304" d="M39 0l2 66h59q51 0 68 10q12 8 16 51l76 1087q0 14 1 26.5t2 19.5l1 6q0 29 -18 30q-25 4 -88 4h-62v66h504q127 0 225 -35q94 -33 146 -88q47 -49 73 -117q25 -61 25 -129q0 -43 -14 -96q-12 -43 -47 -98q-35 -53 -113 -94q-72 -37 -190 -58l360 -499q61 -86 129 -86h92 l-4 -66h-336q-49 61 -104 147q-80 123 -94 150l-101 178l-92 164h-29q-23 0 -75 4q-45 4 -64 6l-22 4l-35 -512v-18q0 -4 -1 -11.5t-1 -9.5q0 -37 45 -36h172l-4 -66h-502zM369 705q49 -8 129 -9q209 0 295 68q104 84 104 223q0 135 -111 223q-113 90 -311 90q-68 0 -67 -28 zM547 1489l106 291h144l-176 -291h-74z" />
<glyph unicode="&#x155;" horiz-adv-x="681" d="M20 725q229 98 289 98q25 0 25 -26l-43 -338q2 6 9 19.5t11 19.5l49 86q47 80 68 106q34 46 74 86q39 39 71 39q25 0 58 -61q33 -59 33 -107q0 -51 -27 -51q-14 0 -41 25q-31 27 -51 26q-129 0 -228 -295q-12 -37 -18 -67q-4 -20 -12 -66l-5 -31.5t-3 -23.5l-7 -66 q0 -12 -1 -26.5t-2 -24.5t-1 -16q-2 -33 -43 -33h-47q-41 0 -41 27q49 537 51 653q0 45 -28 45q-20 0 -125 -45zM375 954l104 291h129l-176 -291h-57z" />
<glyph unicode="&#x156;" horiz-adv-x="1304" d="M39 0l2 66h59q51 0 68 10q12 8 16 51l76 1087q0 14 1 26.5t2 19.5l1 6q0 29 -18 30q-25 4 -88 4h-62v66h504q127 0 225 -35q94 -33 146 -88q47 -49 73 -117q25 -61 25 -129q0 -43 -14 -96q-12 -43 -47 -98q-35 -53 -113 -94q-72 -37 -190 -58l360 -499q61 -86 129 -86h92 l-4 -66h-336q-49 61 -104 147q-80 123 -94 150l-101 178l-92 164h-29q-23 0 -75 4q-45 4 -64 6l-22 4l-35 -512v-18q0 -4 -1 -11.5t-1 -9.5q0 -37 45 -36h172l-4 -66h-502zM369 705q49 -8 129 -9q209 0 295 68q104 84 104 223q0 135 -111 223q-113 90 -311 90q-68 0 -67 -28 zM537 -461q0 6 24 27q23 18 49 53q23 29 23 70q0 29 -35 45q-33 14 -33 26.5t35 46.5q33 33 51 33q25 0 45 -30q20 -29 21 -68q0 -83 -62 -154q-61 -72 -98 -71q-20 -1 -20 22z" />
<glyph unicode="&#x157;" horiz-adv-x="681" d="M20 725q229 98 289 98q25 0 25 -26l-43 -338q2 6 9 19.5t11 19.5l49 86q47 80 68 106q34 46 74 86q39 39 71 39q25 0 58 -61q33 -59 33 -107q0 -51 -27 -51q-14 0 -41 25q-31 27 -51 26q-129 0 -228 -295q-12 -37 -18 -67q-4 -20 -12 -66l-5 -31.5t-3 -23.5l-7 -66 q0 -12 -1 -26.5t-2 -24.5t-1 -16q-2 -33 -43 -33h-47q-41 0 -41 27q49 537 51 653q0 45 -28 45q-20 0 -125 -45zM78 -457q0 6 24 27q14 12 48 53q25 31 24 70q0 29 -35 45q-33 14 -33 26.5t35 47.5q33 33 52 32q25 0 45 -30q20 -29 20 -68q0 -80 -63 -154q-61 -72 -97 -71 q-20 -1 -20 22z" />
<glyph unicode="&#x158;" horiz-adv-x="1304" d="M39 0l2 66h59q51 0 68 10q12 8 16 51l76 1087q0 14 1 26.5t2 19.5l1 6q0 29 -18 30q-25 4 -88 4h-62v66h504q127 0 225 -35q94 -33 146 -88q47 -49 73 -117q25 -61 25 -129q0 -43 -14 -96q-12 -43 -47 -98q-35 -53 -113 -94q-72 -37 -190 -58l360 -499q61 -86 129 -86h92 l-4 -66h-336q-49 61 -104 147q-80 123 -94 150l-101 178l-92 164h-29q-23 0 -75 4q-45 4 -64 6l-22 4l-35 -512v-18q0 -4 -1 -11.5t-1 -9.5q0 -37 45 -36h172l-4 -66h-502zM367 1772h118l127 -148l125 148h78q-57 -80 -164 -244h-121q-69 111 -163 244zM369 705 q49 -8 129 -9q209 0 295 68q104 84 104 223q0 135 -111 223q-113 90 -311 90q-68 0 -67 -28z" />
<glyph unicode="&#x159;" horiz-adv-x="681" d="M20 725q229 98 289 98q25 0 25 -26l-43 -338q2 6 9 19.5t11 19.5l49 86q47 80 68 106q34 46 74 86q39 39 71 39q25 0 58 -61q33 -59 33 -107q0 -51 -27 -51q-14 0 -41 25q-31 27 -51 26q-129 0 -228 -295q-12 -37 -18 -67q-4 -20 -12 -66l-5 -31.5t-3 -23.5l-7 -66 q0 -12 -1 -26.5t-2 -24.5t-1 -16q-2 -33 -43 -33h-47q-41 0 -41 27q49 537 51 653q0 45 -28 45q-20 0 -125 -45zM276 1241h97q8 -16 59 -186q51 106 98 186h66q-109 -199 -145 -287h-72q-48 152 -103 287z" />
<glyph unicode="&#x15a;" horiz-adv-x="956" d="M20 358l58 11l20 -140q16 -98 115 -137q98 -43 188 -43q125 0 197 78q74 80 74 192q0 53 -10 84q-14 41 -44 76q-35 41 -53 58l-73 63l-70 59l-100 86q-178 151 -179 332q0 129 106.5 223.5t268.5 94.5q57 0 100 -11q20 -4 51 -12t38 -10l41 -10q31 0 30 41v14h56 l22 -320l-57 -4l-8 111q-12 14 -35 35q-23 18 -97 53q-76 35 -147 35q-100 0 -162 -49q-63 -51 -63 -146q0 -28 6 -55q6 -31 12 -47q4 -10 27 -45q20 -27 28 -39q14 -18 39 -41l16.5 -16.5l13.5 -13.5l7 -7q4 -2 6 -5t12.5 -11t26.5 -23l21.5 -17t16.5 -13.5t7 -6.5l72 -61 q10 -10 29 -25q37 -29 47 -39q8 -8 49 -53q29 -31 47 -65q18 -33 33 -78q14 -43 14 -92q0 -147 -115 -269q-117 -123 -317 -123q-84 0 -143 15q-70 16 -78 16q-23 0 -29 -6q-4 -4 -4 -18l4 -64l-57 -2q-27 266 -58 440zM471 1489l107 291h143l-176 -291h-74z" />
<glyph unicode="&#x15b;" horiz-adv-x="645" d="M51 123q0 35 12.5 59.5t36.5 24.5q18 0 35 -22.5t31 -53.5q12 -27 43 -51q29 -23 72 -23q68 0 114 43q45 43 45 107q0 41 -28 86q-27 43 -66 78l-80 75q-41 41 -67.5 88.5t-26.5 102.5q0 88 74 133q76 47 178 47q61 0 113 -29q49 -27 49 -75q0 -14 -10.5 -30.5 t-26.5 -16.5q-39 0 -96 47q-53 45 -92 45t-60 -21q-23 -23 -22 -49q0 -35 30 -78q33 -45 72 -82l82 -82q37 -41 69 -98q31 -55 31 -106q0 -96 -92 -176t-219 -80q-147 0 -184 49q-17 16 -17 88zM377 958l104 291h129l-176 -291h-57z" />
<glyph unicode="&#x15c;" horiz-adv-x="956" d="M20 358l58 11l20 -140q16 -98 115 -137q98 -43 188 -43q125 0 197 78q74 80 74 192q0 53 -10 84q-14 41 -44 76q-35 41 -53 58l-73 63l-70 59l-100 86q-178 151 -179 332q0 129 106.5 223.5t268.5 94.5q57 0 100 -11q20 -4 51 -12t38 -10l41 -10q31 0 30 41v14h56 l22 -320l-57 -4l-8 111q-12 14 -35 35q-23 18 -97 53q-76 35 -147 35q-100 0 -162 -49q-63 -51 -63 -146q0 -28 6 -55q6 -31 12 -47q4 -10 27 -45q20 -27 28 -39q14 -18 39 -41l16.5 -16.5l13.5 -13.5l7 -7q4 -2 6 -5t12.5 -11t26.5 -23l21.5 -17t16.5 -13.5t7 -6.5l72 -61 q10 -10 29 -25q37 -29 47 -39q8 -8 49 -53q29 -31 47 -65q18 -33 33 -78q14 -43 14 -92q0 -147 -115 -269q-117 -123 -317 -123q-84 0 -143 15q-70 16 -78 16q-23 0 -29 -6q-4 -4 -4 -18l4 -64l-57 -2q-27 266 -58 440zM309 1528q57 80 164 244h121q70 -111 164 -244h-119 q-8 10 -17.5 20.5l-19.5 22.5l-47 53q-14 14 -24.5 27.5l-18.5 23.5l-125 -147h-78z" />
<glyph unicode="&#x15d;" horiz-adv-x="645" d="M51 123q0 35 12.5 59.5t36.5 24.5q18 0 35 -22.5t31 -53.5q12 -27 43 -51q29 -23 72 -23q68 0 114 43q45 43 45 107q0 41 -28 86q-27 43 -66 78l-80 75q-41 41 -67.5 88.5t-26.5 102.5q0 88 74 133q76 47 178 47q61 0 113 -29q49 -27 49 -75q0 -14 -10.5 -30.5 t-26.5 -16.5q-39 0 -96 47q-53 45 -92 45t-60 -21q-23 -23 -22 -49q0 -35 30 -78q33 -45 72 -82l82 -82q37 -41 69 -98q31 -55 31 -106q0 -96 -92 -176t-219 -80q-147 0 -184 49q-17 16 -17 88zM252 958q109 199 145 287h72q39 -133 102 -287h-96q-8 16 -59 187 q-55 -117 -99 -187h-65z" />
<glyph unicode="&#x15e;" horiz-adv-x="956" d="M20 358l58 11l20 -140q16 -98 115 -137q98 -43 188 -43q125 0 197 78q74 80 74 192q0 53 -10 84q-14 41 -44 76q-35 41 -53 58l-73 63l-70 59l-100 86q-178 151 -179 332q0 129 106.5 223.5t268.5 94.5q57 0 100 -11q20 -4 51 -12t38 -10l41 -10q31 0 30 41v14h56 l22 -320l-57 -4l-8 111q-12 14 -35 35q-23 18 -97 53q-76 35 -147 35q-100 0 -162 -49q-63 -51 -63 -146q0 -28 6 -55q6 -31 12 -47q4 -10 27 -45q20 -27 28 -39q14 -18 39 -41l16.5 -16.5l13.5 -13.5l7 -7q4 -2 6 -5t12.5 -11t26.5 -23l21.5 -17t16.5 -13.5t7 -6.5l72 -61 q10 -10 29 -25q37 -29 47 -39q8 -8 49 -53q29 -31 47 -65q18 -33 33 -78q14 -43 14 -92q0 -129 -100.5 -248t-272.5 -139l-38 -117q2 0 7 1t9 1h16q82 0 146 -35q61 -33 61 -108q0 -83 -67 -130q-66 -45 -150 -45q-39 0 -70 7q-20 4 -41 14l-10 6l43 49q53 -20 92 -20 q41 0 70 30q29 33 29 80q0 90 -133 90q-29 0 -39 -2l-21 35l51 139h-14q-84 0 -143 15q-70 16 -78 16q-23 0 -29 -6q-4 -4 -4 -18l4 -64l-57 -2q-27 266 -58 440z" />
<glyph unicode="&#x15f;" horiz-adv-x="645" d="M51 123q0 35 12.5 59.5t36.5 24.5q18 0 35 -22.5t31 -53.5q12 -27 43 -51q29 -23 72 -23q68 0 114 43q45 43 45 107q0 41 -28 86q-27 43 -66 78l-80 75q-41 41 -67.5 88.5t-26.5 102.5q0 88 74 133q76 47 178 47q61 0 113 -29q49 -27 49 -75q0 -14 -10.5 -30.5 t-26.5 -16.5q-39 0 -96 47q-53 45 -92 45t-60 -21q-23 -23 -22 -49q0 -35 30 -78q33 -45 72 -82l82 -82q37 -41 69 -98q31 -55 31 -106q0 -88 -73.5 -162t-186.5 -90l-43 -125q2 0 7 1t9 1h17q84 0 147 -35q59 -33 60 -108q0 -84 -65.5 -129.5t-151.5 -45.5q-41 0 -72 7 q-29 6 -41 14l-8 6l43 49q53 -20 92 -20q43 0 70 30q29 33 28 80q0 90 -133 90q-29 0 -39 -2l-20 35l55 148h-6q-147 0 -184 49q-17 16 -17 88z" />
<glyph unicode="&#x160;" horiz-adv-x="956" d="M20 358l58 11l20 -140q16 -98 115 -137q98 -43 188 -43q125 0 197 78q74 80 74 192q0 53 -10 84q-14 41 -44 76q-35 41 -53 58l-73 63l-70 59l-100 86q-178 151 -179 332q0 129 106.5 223.5t268.5 94.5q57 0 100 -11q20 -4 51 -12t38 -10l41 -10q31 0 30 41v14h56 l22 -320l-57 -4l-8 111q-12 14 -35 35q-23 18 -97 53q-76 35 -147 35q-100 0 -162 -49q-63 -51 -63 -146q0 -28 6 -55q6 -31 12 -47q4 -10 27 -45q20 -27 28 -39q14 -18 39 -41l16.5 -16.5l13.5 -13.5l7 -7q4 -2 6 -5t12.5 -11t26.5 -23l21.5 -17t16.5 -13.5t7 -6.5l72 -61 q10 -10 29 -25q37 -29 47 -39q8 -8 49 -53q29 -31 47 -65q18 -33 33 -78q14 -43 14 -92q0 -147 -115 -269q-117 -123 -317 -123q-84 0 -143 15q-70 16 -78 16q-23 0 -29 -6q-4 -4 -4 -18l4 -64l-57 -2q-27 266 -58 440zM291 1772h119l127 -148l125 148h77q-57 -80 -164 -244 h-120q-70 111 -164 244z" />
<glyph unicode="&#x161;" horiz-adv-x="645" d="M51 123q0 35 12.5 59.5t36.5 24.5q18 0 35 -22.5t31 -53.5q12 -27 43 -51q29 -23 72 -23q68 0 114 43q45 43 45 107q0 41 -28 86q-27 43 -66 78l-80 75q-41 41 -67.5 88.5t-26.5 102.5q0 88 74 133q76 47 178 47q61 0 113 -29q49 -27 49 -75q0 -14 -10.5 -30.5 t-26.5 -16.5q-39 0 -96 47q-53 45 -92 45t-60 -21q-23 -23 -22 -49q0 -35 30 -78q33 -45 72 -82l82 -82q37 -41 69 -98q31 -55 31 -106q0 -96 -92 -176t-219 -80q-147 0 -184 49q-17 16 -17 88zM279 1245h96q6 -16 59 -186q51 106 98 186h66q-109 -199 -145 -287h-72 q-36 127 -102 287z" />
<glyph unicode="&#x162;" horiz-adv-x="1261" d="M20 1040q29 168 52 326h1181l-14 -100l-18 -121q-10 -57 -13 -103l-73 2q20 137 20 175q0 40 -18 49q-16 8 -74 8h-236q-82 0 -96 -6q-12 -6 -16 -51l-72 -1057l-1 -6q-1 -6 -1 -13v-20q0 -39 8 -47q10 -10 49 -10h136l-5 -66h-235l-47 -135q2 0 7 1t9 1h17q82 0 145 -35 q61 -33 61 -108q0 -83 -67 -130q-66 -45 -150 -45q-41 0 -71 7q-25 4 -39 14l-10 6l43 49q53 -20 92 -20q43 0 71 30q27 29 27 80q0 90 -133 90q-29 0 -39 -2l-21 35l60 162h-246v66h109q51 0 67 10q12 8 17 51l75 1081v15q0 4 1 11t1 9q0 20 -18 26.5t-70 6.5h-256 q-74 0 -92 -37t-43 -201z" />
<glyph unicode="&#x163;" horiz-adv-x="577" d="M51 739l6 64h162l29 172q2 10 49 33q49 23 65 22q18 0 19 -26q0 -12 -16 -84q-12 -57 -21 -117h180l-8 -64h-182q-35 -358 -35 -475q0 -145 45 -145q20 0 59 32.5t70 63.5l31 33l35 -33q-100 -147 -244 -205l-49 -145q2 0 7 1t9 1h17q84 0 147 -35q59 -33 59 -108 q0 -83 -67 -130q-66 -45 -150 -45q-41 0 -71 7q-25 4 -39 14l-11 6l43 49q53 -20 93 -20q45 0 71 30q27 29 27 80q0 90 -133 90q-29 0 -39 -2l-21 35l58 156l-21 -4q-29 0 -47 24.5t-18 59.5q0 311 49 665h-158z" />
<glyph unicode="&#x164;" horiz-adv-x="1261" d="M20 1040q29 168 52 326h1181l-14 -100l-18 -121q-10 -57 -13 -103l-73 2q20 137 20 175q0 40 -18 49q-16 8 -74 8h-236q-82 0 -96 -6q-12 -6 -16 -51l-72 -1057l-1 -6q-1 -6 -1 -13v-20q0 -39 8 -47q10 -10 49 -10h136l-5 -66h-526v66h109q51 0 67 10q12 8 17 51l75 1081 v15q0 4 1 11t1 9q0 20 -18 26.5t-70 6.5h-256q-74 0 -92 -37t-43 -201zM430 1772h119l127 -148l125 148h78q-57 -80 -164 -244h-121q-70 111 -164 244z" />
<glyph unicode="&#x165;" horiz-adv-x="577" d="M51 739l6 64h162l29 172q2 10 49 33q49 23 65 22q18 0 19 -26q0 -12 -16 -84q-12 -57 -21 -117h180l-8 -64h-182q-35 -358 -35 -475q0 -145 45 -145q20 0 59 32.5t70 63.5l31 33l35 -33q-53 -80 -129 -137.5t-121 -71.5q-49 -16 -64 -16q-29 0 -47 24.5t-18 59.5 q0 311 49 665h-158zM461 1059l35 305l118 -12l-96 -303z" />
<glyph unicode="&#x166;" horiz-adv-x="1261" d="M20 1040q29 168 52 326h1181l-14 -100l-18 -121q-10 -57 -13 -103l-73 2q20 137 20 175q0 40 -18 49q-16 8 -74 8h-236q-82 0 -96 -6q-12 -6 -16 -51l-33 -498h305l-6 -80h-305l-33 -479l-1 -6q-1 -6 -1 -13v-20q0 -39 8 -47q10 -10 49 -10h136l-5 -66h-526v66h109 q59 0 71 12q10 10 15 74l34 489h-303l7 80h301l34 487v15q0 4 1 11t1 9q0 20 -18 26.5t-70 6.5h-256q-74 0 -92 -37t-43 -201z" />
<glyph unicode="&#x167;" horiz-adv-x="577" d="M35 442l6 80h143l25 217h-158l6 64h162l29 172q2 10 49 33q49 23 65 22q18 0 19 -26q0 -12 -16 -84q-12 -57 -21 -117h180l-8 -64h-182q-2 -6 -23 -217h199l-6 -80h-199q-6 -89 -6 -178q0 -145 45 -145q20 0 59 32.5t70 63.5l31 33l35 -33q-53 -80 -129 -137.5 t-121 -71.5q-49 -16 -64 -16q-29 0 -47 24.5t-18 59.5q0 176 16 368h-141z" />
<glyph unicode="&#x168;" horiz-adv-x="1429" d="M61 1300l2 66h494l-4 -66h-96q-39 0 -54 -10q-16 -12 -18 -53q-66 -834 -66 -915q0 -115 60 -197q59 -80 207 -80q237 0 350 184q16 27 35 74q15 40 24 80q8 39 13 66q2 8 3 27.5t1 29.5q2 23 2 35l51 659q2 10 2 55q0 29 -14.5 37t-65.5 8h-104l2 66h485v-66h-90 q-18 0 -31 -4q-8 -2 -18 -16q-8 -12 -12 -41q-6 -78 -18.5 -261l-18.5 -269q-6 -84 -15.5 -187.5l-11.5 -126.5q-2 -20 -4 -50t-4 -50.5t-2 -36.5q-4 -74 -4 -92q0 -70 33 -70q18 0 126 58l23 -52q-252 -141 -305 -141q-31 0 -31 45v23l4 69q2 18 3 59.5t1 61.5 q-14 -37 -51 -92q-39 -57 -86 -90q-113 -82 -289 -82q-242 0 -321 84q-80 83 -80 283q0 63 32.5 468.5t32.5 444.5q0 45 -10 55t-49 10h-113zM496 1542q4 12 6 23q6 25 14 53q12 35 29 65q10 18 45 50q28 25 61 24q41 0 88 -24l62 -33q39 -20 69 -21q29 0 56 23q23 20 32 47 l11 23l28 -9q0 -4 -2 -8t-3 -7t-2 -9t-3 -10q-8 -27 -24 -64q-20 -43 -50 -68q-33 -27 -71 -26q-34 0 -74 18l-63 31q-39 20 -87 20q-37 0 -57 -26.5t-31 -52.5l-6 -27z" />
<glyph unicode="&#x169;" horiz-adv-x="966" d="M51 723q225 100 289 100q35 0 35 -43q0 -29 -15 -102q-18 -96 -22 -135q-20 -193 -21 -289q0 -102 25 -102q33 0 107 98q78 104 139 235q66 141 65 226v45q0 61 60 61h49q14 0 22.5 -8t6.5 -23q-2 -35 -19 -170q-8 -70 -22 -233q-8 -92 -9 -184q0 -39 23 -39 q16 0 47 36.5t55 73.5l25 39l37 -26l-13 -23l-24 -41q-4 -8 -35 -51q-27 -39 -55 -70q-35 -37 -76 -75q-43 -43 -70 -43q-51 0 -51 98q0 23 14 180q14 156 17 211q-40 -92 -105 -197q-70 -119 -168 -204.5t-143 -85.5q-49 0 -49 116q0 84 23 271q25 203 24 299q0 47 -27 47 q-12 0 -24 -6l-92 -41zM332 987q2 4 2 12q2 7 2 11q4 20 12 53q8 35 23 65q6 14 37 50q22 25 49 24q39 0 71 -22l52 -33q29 -20 55 -21q25 0 43 22.5t29 45.5l6 23l24 -7q-39 -193 -125 -192q-33 0 -61 16l-51 33q-33 20 -70 20q-27 0 -45 -26.5t-25 -52.5l-6 -27z" />
<glyph unicode="&#x16a;" horiz-adv-x="1429" d="M61 1300l2 66h494l-4 -66h-96q-39 0 -54 -10q-16 -12 -18 -53q-66 -834 -66 -915q0 -115 60 -197q59 -80 207 -80q237 0 350 184q16 27 35 74q15 40 24 80q8 39 13 66q2 8 3 27.5t1 29.5q2 23 2 35l51 659q2 10 2 55q0 29 -14.5 37t-65.5 8h-104l2 66h485v-66h-90 q-18 0 -31 -4q-8 -2 -18 -16q-8 -12 -12 -41q-6 -78 -18.5 -261l-18.5 -269q-6 -84 -15.5 -187.5l-11.5 -126.5q-2 -20 -4 -50t-4 -50.5t-2 -36.5q-4 -74 -4 -92q0 -70 33 -70q18 0 126 58l23 -52q-252 -141 -305 -141q-31 0 -31 45v23l4 69q2 18 3 59.5t1 61.5 q-14 -37 -51 -92q-39 -57 -86 -90q-113 -82 -289 -82q-242 0 -321 84q-80 83 -80 283q0 63 32.5 468.5t32.5 444.5q0 45 -10 55t-49 10h-113zM516 1612v98h471v-98h-471z" />
<glyph unicode="&#x16b;" horiz-adv-x="966" d="M51 723q225 100 289 100q35 0 35 -43q0 -29 -15 -102q-18 -96 -22 -135q-20 -193 -21 -289q0 -102 25 -102q33 0 107 98q78 104 139 235q66 141 65 226v45q0 61 60 61h49q14 0 22.5 -8t6.5 -23q-2 -35 -19 -170q-8 -70 -22 -233q-8 -92 -9 -184q0 -39 23 -39 q16 0 47 36.5t55 73.5l25 39l37 -26l-13 -23l-24 -41q-4 -8 -35 -51q-27 -39 -55 -70q-35 -37 -76 -75q-43 -43 -70 -43q-51 0 -51 98q0 23 14 180q14 156 17 211q-40 -92 -105 -197q-70 -119 -168 -204.5t-143 -85.5q-49 0 -49 116q0 84 23 271q25 203 24 299q0 47 -27 47 q-12 0 -24 -6l-92 -41zM358 1069v96h353v-96h-353z" />
<glyph unicode="&#x16c;" horiz-adv-x="1429" d="M61 1300l2 66h494l-4 -66h-96q-39 0 -54 -10q-16 -12 -18 -53q-66 -834 -66 -915q0 -115 60 -197q59 -80 207 -80q237 0 350 184q16 27 35 74q15 40 24 80q8 39 13 66q2 8 3 27.5t1 29.5q2 23 2 35l51 659q2 10 2 55q0 29 -14.5 37t-65.5 8h-104l2 66h485v-66h-90 q-18 0 -31 -4q-8 -2 -18 -16q-8 -12 -12 -41q-6 -78 -18.5 -261l-18.5 -269q-6 -84 -15.5 -187.5l-11.5 -126.5q-2 -20 -4 -50t-4 -50.5t-2 -36.5q-4 -74 -4 -92q0 -70 33 -70q18 0 126 58l23 -52q-252 -141 -305 -141q-31 0 -31 45v23l4 69q2 18 3 59.5t1 61.5 q-14 -37 -51 -92q-39 -57 -86 -90q-113 -82 -289 -82q-242 0 -321 84q-80 83 -80 283q0 63 32.5 468.5t32.5 444.5q0 45 -10 55t-49 10h-113zM535 1724q0 2 1 9.5t1 13.5v25h102v-19q0 -55 24.5 -86t106.5 -31q49 0 88 31t39 88v8q0 2 -1 5l-1 4h51v-15q0 -223 -203 -223 q-113 0 -159 59q-49 61 -49 131z" />
<glyph unicode="&#x16d;" horiz-adv-x="966" d="M51 723q225 100 289 100q35 0 35 -43q0 -29 -15 -102q-18 -96 -22 -135q-20 -193 -21 -289q0 -102 25 -102q33 0 107 98q78 104 139 235q66 141 65 226v45q0 61 60 61h49q14 0 22.5 -8t6.5 -23q-2 -35 -19 -170q-8 -70 -22 -233q-8 -92 -9 -184q0 -39 23 -39 q16 0 47 36.5t55 73.5l25 39l37 -26l-13 -23l-24 -41q-4 -8 -35 -51q-27 -39 -55 -70q-35 -37 -76 -75q-43 -43 -70 -43q-51 0 -51 98q0 23 14 180q14 156 17 211q-40 -92 -105 -197q-70 -119 -168 -204.5t-143 -85.5q-49 0 -49 116q0 84 23 271q25 203 24 299q0 47 -27 47 q-12 0 -24 -6l-92 -41zM377 1153l8 84h72q-2 -20 -2 -47q0 -125 88 -125q92 0 143 172h35q-25 -113 -37 -137q-57 -129 -170 -129q-66 0 -102 57q-35 55 -35 125z" />
<glyph unicode="&#x16e;" horiz-adv-x="1429" d="M61 1300l2 66h494l-4 -66h-96q-39 0 -54 -10q-16 -12 -18 -53q-66 -834 -66 -915q0 -115 60 -197q59 -80 207 -80q237 0 350 184q16 27 35 74q15 40 24 80q8 39 13 66q2 8 3 27.5t1 29.5q2 23 2 35l51 659q2 10 2 55q0 29 -14.5 37t-65.5 8h-104l2 66h485v-66h-90 q-18 0 -31 -4q-8 -2 -18 -16q-8 -12 -12 -41q-6 -78 -18.5 -261l-18.5 -269q-6 -84 -15.5 -187.5l-11.5 -126.5q-2 -20 -4 -50t-4 -50.5t-2 -36.5q-4 -74 -4 -92q0 -70 33 -70q18 0 126 58l23 -52q-252 -141 -305 -141q-31 0 -31 45v23l4 69q2 18 3 59.5t1 61.5 q-14 -37 -51 -92q-39 -57 -86 -90q-113 -82 -289 -82q-242 0 -321 84q-80 83 -80 283q0 63 32.5 468.5t32.5 444.5q0 45 -10 55t-49 10h-113zM575 1620q0 61 52 115q53 57 114 57q66 0 115 -49q51 -51 51 -115q0 -65 -49 -110q-51 -47 -110 -48q-68 0 -121 43 q-52 44 -52 107zM645 1622q0 -41 27 -66q28 -25 73 -24q90 0 91 96q0 53 -29 75.5t-66 22.5q-53 0 -75 -36q-21 -35 -21 -68z" />
<glyph unicode="&#x16f;" horiz-adv-x="966" d="M51 723q225 100 289 100q35 0 35 -43q0 -29 -15 -102q-18 -96 -22 -135q-20 -193 -21 -289q0 -102 25 -102q33 0 107 98q78 104 139 235q66 141 65 226v45q0 61 60 61h49q14 0 22.5 -8t6.5 -23q-2 -35 -19 -170q-8 -70 -22 -233q-8 -92 -9 -184q0 -39 23 -39 q16 0 47 36.5t55 73.5l25 39l37 -26l-13 -23l-24 -41q-4 -8 -35 -51q-27 -39 -55 -70q-35 -37 -76 -75q-43 -43 -70 -43q-51 0 -51 98q0 23 14 180q14 156 17 211q-40 -92 -105 -197q-70 -119 -168 -204.5t-143 -85.5q-49 0 -49 116q0 84 23 271q25 203 24 299q0 47 -27 47 q-12 0 -24 -6l-92 -41zM399 1104q0 61 52 115q53 57 114 57q68 0 117 -49t49 -115q0 -65 -49 -111q-51 -47 -111 -47q-68 0 -120 43q-52 44 -52 107zM469 1106q0 -41 27 -66q28 -25 73 -24q90 0 90 96q0 53 -28.5 75.5t-65.5 22.5q-52 0 -73 -36q-23 -39 -23 -68z" />
<glyph unicode="&#x170;" horiz-adv-x="1429" d="M61 1300l2 66h494l-4 -66h-96q-39 0 -54 -10q-16 -12 -18 -53q-66 -834 -66 -915q0 -115 60 -197q59 -80 207 -80q237 0 350 184q16 27 35 74q15 40 24 80q8 39 13 66q2 8 3 27.5t1 29.5q2 23 2 35l51 659q2 10 2 55q0 29 -14.5 37t-65.5 8h-104l2 66h485v-66h-90 q-18 0 -31 -4q-8 -2 -18 -16q-8 -12 -12 -41q-6 -78 -18.5 -261l-18.5 -269q-6 -84 -15.5 -187.5l-11.5 -126.5q-2 -20 -4 -50t-4 -50.5t-2 -36.5q-4 -74 -4 -92q0 -70 33 -70q18 0 126 58l23 -52q-252 -141 -305 -141q-31 0 -31 45v23l4 69q2 18 3 59.5t1 61.5 q-14 -37 -51 -92q-39 -57 -86 -90q-113 -82 -289 -82q-242 0 -321 84q-80 83 -80 283q0 63 32.5 468.5t32.5 444.5q0 45 -10 55t-49 10h-113zM526 1489l107 291h143l-176 -291h-74zM827 1489l105 291h145l-176 -291h-74z" />
<glyph unicode="&#x171;" horiz-adv-x="966" d="M51 723q225 100 289 100q35 0 35 -43q0 -29 -15 -102q-18 -96 -22 -135q-20 -193 -21 -289q0 -102 25 -102q33 0 107 98q78 104 139 235q66 141 65 226v45q0 61 60 61h49q14 0 22.5 -8t6.5 -23q-2 -35 -19 -170q-8 -70 -22 -233q-8 -92 -9 -184q0 -39 23 -39 q16 0 47 36.5t55 73.5l25 39l37 -26l-13 -23l-24 -41q-4 -8 -35 -51q-27 -39 -55 -70q-35 -37 -76 -75q-43 -43 -70 -43q-51 0 -51 98q0 23 14 180q14 156 17 211q-40 -92 -105 -197q-70 -119 -168 -204.5t-143 -85.5q-49 0 -49 116q0 84 23 271q25 203 24 299q0 47 -27 47 q-12 0 -24 -6l-92 -41zM375 958l104 291h129l-174 -291h-59zM573 958l107 291h129l-176 -291h-60z" />
<glyph unicode="&#x172;" horiz-adv-x="1429" d="M61 1300l2 66h494l-4 -66h-96q-39 0 -54 -10q-16 -12 -18 -53q-66 -834 -66 -915q0 -115 60 -197q59 -80 207 -80q237 0 350 184q16 27 35 74q15 40 24 80q8 39 13 66q2 8 3 27.5t1 29.5q2 23 2 35l51 659q2 10 2 55q0 29 -14.5 37t-65.5 8h-104l2 66h485v-66h-90 q-18 0 -31 -4q-8 -2 -18 -16q-8 -12 -12 -41q-6 -78 -18.5 -261l-18.5 -269q-6 -84 -15.5 -187.5l-11.5 -126.5q-2 -20 -4 -50t-4 -50.5t-2 -36.5q-4 -74 -4 -92q0 -70 33 -70q18 0 126 58l23 -52q-109 -61 -184 -96q-59 -29 -109 -67q-55 -47 -90 -115q-33 -66 -33 -123 q0 -59 29 -100t80 -41q90 0 149 61l19 -37q-8 -10 -31 -32.5t-82 -55.5t-125 -33q-90 0 -135 52q-47 53 -47 129q0 53 32.5 112.5t61.5 93.5l88 99q43 49 45 164q0 20 1 45.5t2 39t1 21.5q-14 -37 -51 -92q-39 -57 -86 -90q-113 -82 -289 -82q-242 0 -321 84q-80 83 -80 283 q0 63 32.5 468.5t32.5 444.5q0 45 -10 55t-49 10h-113z" />
<glyph unicode="&#x173;" horiz-adv-x="966" d="M51 723q225 100 289 100q35 0 35 -43q0 -29 -15 -102q-18 -96 -22 -135q-20 -193 -21 -289q0 -102 25 -102q33 0 107 98q78 104 139 235q66 141 65 226v45q0 61 60 61h49q14 0 22.5 -8t6.5 -23q-2 -35 -19 -170q-8 -70 -22 -233q-8 -92 -9 -184q0 -39 23 -39 q16 0 47 36.5t55 73.5l25 39l37 -26q-76 -135 -195 -252l-9 -8q-9 -8 -26 -25l-39 -39q-9 -9 -30 -37q-18 -25 -29 -47q-8 -18 -14 -51q-8 -41 -8 -66q0 -86 45 -143q43 -55 110 -55q63 0 109 41l18 -29q-66 -104 -196 -104q-86 0 -148 55q-63 57 -63 158q0 47 22.5 102 t44.5 80l62 69q40 43 49 56q-27 27 -27 90q0 23 14 180q14 156 17 211q-40 -92 -105 -197q-70 -119 -168 -204.5t-143 -85.5q-49 0 -49 116q0 84 23 271q25 203 24 299q0 47 -27 47q-12 0 -24 -6l-92 -41z" />
<glyph unicode="&#x174;" horiz-adv-x="2041" d="M20 1300l3 66h481l-4 -66h-105q-33 0 -45 -6t-12 -20t14 -70l252 -971l369 873l-15 63q-15 65 -30 93q-14 27 -28.5 32.5t-47.5 5.5h-80l2 66h488l-5 -66h-106q-33 0 -45 -6t-12 -20t14 -70l246 -971l407 979q16 43 17 58q0 31 -56 30h-120v66h421l-4 -66h-55 q-49 0 -65.5 -16t-59.5 -115q-2 -6 -27 -63l-497 -1137h-45l-262 1008l-443 -1008h-45l-321 1198q-27 92 -41 115q-12 18 -62 18h-76zM809 1528q57 80 164 244h121q70 -111 163 -244h-118q-8 10 -17.5 20.5l-19.5 22.5q-37 41 -47 53l-43 51l-125 -147h-78z" />
<glyph unicode="&#x175;" horiz-adv-x="1251" d="M51 698q236 125 283 125q33 0 33 -30q0 -10 -25 -242q-27 -250 -27 -272q0 -170 62 -170q33 0 86 53q55 55 112 164q82 147 113 426q2 25 14 45q8 14 41 14h41q35 0 35 -45q-4 -45 -14 -96q-14 -80 -23 -160q-10 -102 -10 -213q0 -92 10 -143q10 -47 41 -48q35 0 103 72 q63 68 125 189q57 115 57 223q0 45 -26.5 90t-26.5 76q0 18 18.5 36.5t52.5 18.5q76 0 76 -111q0 -90 -51 -235q-53 -152 -119 -252q-84 -129 -162 -184q-76 -55 -133 -55.5t-75 46.5q-18 45 -19 127l14 236q-74 -170 -155 -272q-45 -57 -111 -97q-70 -41 -106 -41 q-104 0 -105 174q0 104 20.5 286.5t20.5 232.5q0 45 -28 45q-10 0 -125 -52zM618 958q109 199 146 287h72q39 -133 102 -287h-96q-6 16 -60 187q-43 -88 -98 -187h-66z" />
<glyph unicode="&#x176;" horiz-adv-x="1189" d="M20 1300l3 66h450l-6 -66h-59q-70 0 -70 -30q0 -25 61 -154l183 -373l286 467q27 41 27 64q0 27 -72 26h-51v66h399l-2 -66h-63q-39 0 -72 -26q-29 -23 -98 -127l-320 -488l-32 -499v-27q0 -6 -1 -11t-1 -9v-4q0 -27 16 -35t53 -8h105l-2 -66h-533l4 66h92q61 0 82 16 t23 74l35 495l-287 580q-20 41 -39 57q-16 12 -57 12h-54zM418 1528q57 80 164 244h120q70 -111 164 -244h-118q-8 10 -17.5 20.5l-19.5 22.5q-37 41 -47 53l-43 51l-125 -147h-78z" />
<glyph unicode="&#x177;" horiz-adv-x="786" d="M-4 -485q4 0 15.5 3t17.5 5q20 4 28 6q12 4 22.5 8t29.5 19q10 8 36 34l56 56q72 78 141.5 192.5t69.5 157.5q0 46 -50 227q-51 190 -96 314q-53 141 -76 141q-9 0 -18 -6q-8 -6 -20 -21q-4 -6 -11.5 -16t-9.5 -12l-8 -15.5t-17 -25.5l-28 -43l-47 28q0 2 12 21 q23 37 27 43l19 26.5t20 26.5q25 35 43 53q80 84 120 84q53 0 113 -194q4 -12 119 -459q106 256 106 526q0 68 -45 80l2 35q45 4 72 4h12q51 0 68 -8q18 -10 18 -45q0 -76 -94 -375q-90 -287 -188 -485q-102 -211 -236 -400q-25 -33 -55 -32h-168v47zM317 958 q109 199 146 287h72q39 -133 102 -287h-96q-8 16 -60 187q-43 -88 -98 -187h-66z" />
<glyph unicode="&#x178;" horiz-adv-x="1189" d="M20 1300l3 66h450l-6 -66h-59q-70 0 -70 -30q0 -25 61 -154l183 -373l286 467q27 41 27 64q0 27 -72 26h-51v66h399l-2 -66h-63q-39 0 -72 -26q-29 -23 -98 -127l-320 -488l-32 -499v-27q0 -6 -1 -11t-1 -9v-4q0 -27 16 -35t53 -8h105l-2 -66h-533l4 66h92q61 0 82 16 t23 74l35 495l-287 580q-20 41 -39 57q-16 12 -57 12h-54zM391 1661q0 18 37 53q35 33 53 33q23 0 53.5 -37t30.5 -55q0 -25 -35 -56q-34 -31 -55 -30q-18 0 -51 32.5t-33 59.5zM692 1661q0 20 35 53t53 33q25 0 55.5 -37t30.5 -55q0 -25 -35 -56q-34 -31 -55 -30 q-18 0 -51 32.5t-33 59.5z" />
</font>
</defs>
</svg>
